<svg width="89" height="89" viewBox="0 0 89 89" fill="none" xmlns="http://www.w3.org/2000/svg">
<circle cx="44.5" cy="44.5" r="43.5" stroke="#00529B" stroke-width="2" stroke-linecap="round" stroke-dasharray="7 7"/>
<path d="M51.05 63.87C51.05 65.3633 50.56 66.6 49.58 67.58C48.6467 68.56 47.3867 69.05 45.8 69.05C44.26 69.05 43 68.56 42.02 67.58C41.0867 66.6 40.62 65.3633 40.62 63.87C40.62 62.3767 41.0867 61.1633 42.02 60.23C43 59.25 44.26 58.76 45.8 58.76C47.34 58.76 48.6 59.25 49.58 60.23C50.56 61.1633 51.05 62.3767 51.05 63.87ZM50.35 54.77C49.23 54.9567 48.1567 55.05 47.13 55.05C45.1233 55.05 43.56 54.5367 42.44 53.51C41.3667 52.4367 40.83 50.9433 40.83 49.03V21.24C42.1367 21.0533 43.21 20.96 44.05 20.96C48.25 20.96 50.35 22.85 50.35 26.63V54.77Z" fill="white"/>
<path d="M49.58 67.58L48.5193 66.5193L48.5064 66.5323L48.4938 66.5455L49.58 67.58ZM42.02 67.58L40.9338 68.6145L40.9464 68.6277L40.9593 68.6407L42.02 67.58ZM42.02 60.23L40.9593 59.1693H40.9593L42.02 60.23ZM49.58 60.23L48.5193 61.2907L48.5323 61.3036L48.5455 61.3162L49.58 60.23ZM50.35 54.77L50.5966 56.2496L51.85 56.0407V54.77H50.35ZM42.44 53.51L41.3793 54.5707L41.4024 54.5937L41.4264 54.6157L42.44 53.51ZM40.83 21.24L40.6179 19.7551L39.33 19.9391V21.24H40.83ZM49.55 63.87C49.55 64.9996 49.1948 65.8439 48.5193 66.5193L50.6407 68.6407C51.9252 67.3561 52.55 65.7271 52.55 63.87H49.55ZM48.4938 66.5455C47.8926 67.1768 47.0531 67.55 45.8 67.55V70.55C47.7203 70.55 49.4008 69.9432 50.6662 68.6145L48.4938 66.5455ZM45.8 67.55C44.6094 67.55 43.7469 67.1855 43.0807 66.5193L40.9593 68.6407C42.2531 69.9345 43.9106 70.55 45.8 70.55V67.55ZM43.1062 66.5455C42.467 65.8744 42.12 65.0216 42.12 63.87H39.12C39.12 65.7051 39.7063 67.3256 40.9338 68.6145L43.1062 66.5455ZM42.12 63.87C42.12 62.7175 42.4665 61.9048 43.0807 61.2907L40.9593 59.1693C39.7068 60.4218 39.12 62.0358 39.12 63.87H42.12ZM43.0807 61.2907C43.7469 60.6245 44.6094 60.26 45.8 60.26V57.26C43.9106 57.26 42.2531 57.8755 40.9593 59.1693L43.0807 61.2907ZM45.8 60.26C46.9906 60.26 47.8531 60.6245 48.5193 61.2907L50.6407 59.1693C49.3469 57.8755 47.6894 57.26 45.8 57.26V60.26ZM48.5455 61.3162C49.1959 61.9356 49.55 62.7402 49.55 63.87H52.55C52.55 62.0131 51.9241 60.3911 50.6145 59.1438L48.5455 61.3162ZM50.1034 53.2904C49.0564 53.4649 48.0659 53.55 47.13 53.55V56.55C48.2474 56.55 49.4036 56.4484 50.5966 56.2496L50.1034 53.2904ZM47.13 53.55C45.3755 53.55 44.2179 53.1049 43.4536 52.4043L41.4264 54.6157C42.9021 55.9685 44.8712 56.55 47.13 56.55V53.55ZM43.5007 52.4493C42.7774 51.7261 42.33 50.6547 42.33 49.03H39.33C39.33 51.232 39.9559 53.1472 41.3793 54.5707L43.5007 52.4493ZM42.33 49.03V21.24H39.33V49.03H42.33ZM41.0421 22.7249C42.3134 22.5433 43.3091 22.46 44.05 22.46V19.46C43.1109 19.46 41.96 19.5633 40.6179 19.7551L41.0421 22.7249ZM44.05 22.46C45.9555 22.46 47.1046 22.8922 47.7716 23.4924C48.4085 24.0657 48.85 25.0144 48.85 26.63H51.85C51.85 24.4656 51.2415 22.5793 49.7784 21.2626C48.3454 19.9728 46.3445 19.46 44.05 19.46V22.46ZM48.85 26.63V54.77H51.85V26.63H48.85Z" fill="#00529B"/>
</svg>
