<svg width="87" height="54" viewBox="0 0 87 54" fill="none" xmlns="http://www.w3.org/2000/svg">
<rect x="0.5" y="0.5" width="86" height="53" rx="14.5" fill="#F5F9FD" stroke="#00529B" stroke-linecap="round" stroke-dasharray="7 7"/>
<g clip-path="url(#clip0_251_2)">
<path d="M56.8222 13.6472L55.6739 12.6314C52.9995 10.2599 48.9043 10.5058 46.5336 13.1809L43.2473 16.8885C42.5055 17.7254 42.5826 19.0104 43.4192 19.7528L43.7277 20.0265C44.5672 20.7708 45.8482 20.694 46.593 19.8543L49.8792 16.1468C50.6122 15.3206 51.882 15.2445 52.7088 15.9764L53.8557 16.9939C54.6827 17.7267 54.7606 18.9963 54.0265 19.823L46.8406 27.9295C46.2324 28.6167 45.2372 28.8021 44.4205 28.38C43.5273 27.9188 42.4381 28.1215 41.7712 28.8736L41.7152 28.9368C41.264 29.4457 41.0758 30.1213 41.1991 30.7904C41.3224 31.4591 41.7388 32.0232 42.3413 32.3382C43.2943 32.8362 44.3235 33.0774 45.3425 33.0774C47.1483 33.0774 48.9228 32.3203 50.1872 30.8945L57.3726 22.789C59.7406 20.1175 59.4942 16.0171 56.8222 13.6472Z" fill="#00529B"/>
<path d="M41.5788 35.2509L41.2696 34.977C40.4321 34.2349 39.1468 34.3129 38.4049 35.1501L35.1201 38.8572C34.3867 39.6833 33.1178 39.7599 32.2918 39.0285L31.1432 38.0096C30.316 37.277 30.2383 36.0085 30.9726 35.1815L38.1583 27.0756C38.7541 26.4028 39.7343 26.2104 40.5422 26.6073C41.4706 27.0635 42.598 26.8417 43.2854 26.066L43.3112 26.0369C43.7527 25.5384 43.9385 24.8767 43.8211 24.2216C43.7037 23.5664 43.2998 23.0105 42.7128 22.6964C40.0587 21.2756 36.8103 21.857 34.8131 24.1107L27.627 32.215V32.2151C25.2586 34.8865 25.505 38.9869 28.1764 41.3558L29.3248 42.373C30.5552 43.4639 32.0883 43.9997 33.6163 43.9997C35.4061 43.9997 37.1884 43.2641 38.4665 41.8228L41.7519 38.1157C42.4951 37.2764 42.4189 35.9957 41.5788 35.2509Z" fill="#00529B"/>
</g>
<defs>
<clipPath id="clip0_251_2">
<rect width="33" height="33" fill="white" transform="translate(26 11)"/>
</clipPath>
</defs>
</svg>
