<svg width="71" height="74" viewBox="0 0 71 74" fill="none" xmlns="http://www.w3.org/2000/svg">
<path d="M8.47133 44.9644C1.21572 31.8228 15.2968 20.1781 28.0624 17.0103C40.8279 13.8426 60.7769 20.1363 60.4743 36.4287C60.1618 53.2554 49.3201 69.975 36.1118 67.2784C22.9036 64.5817 15.7269 58.1059 8.47133 44.9644Z" fill="#00529B" fill-opacity="0.5"/>
<path d="M22.7322 60.9808C6.847 60.0116 4.42082 40.7924 8.83583 27.5657C13.2508 14.339 30.2157 0.0558919 44.6284 9.58065C59.5138 19.4178 68.3228 38.6196 58.4067 48.9117C48.4906 59.2038 38.6173 61.95 22.7322 60.9808Z" fill="#00529B"/>
<path d="M42.7535 27.4098L43.0042 27.1547H42.6465H23.3855H23.0278L23.2786 27.4098L32.909 37.2098L33.016 37.3187L33.123 37.2098L42.7535 27.4098ZM21.677 44.6953V44.8453H21.827H44.1613H44.3113V44.6953V28.9617V28.5953L44.0544 28.8565L33.7066 39.3793C33.4274 39.6177 33.2041 39.7371 33.0016 39.7474C32.8073 39.7572 32.5927 39.6677 32.3266 39.386L32.3266 39.386L32.3246 39.3839L21.9339 28.8128L21.677 28.5514V28.918V44.6953ZM20.7113 25.2125H45.277C45.8061 25.2125 46.2426 25.648 46.2426 26.1836V45.8164C46.2426 46.3525 45.8111 46.7875 45.277 46.7875H20.7113C20.1772 46.7875 19.7457 46.3525 19.7457 45.8164V26.1836C19.7457 25.6475 20.1772 25.2125 20.7113 25.2125Z" fill="white" stroke="#00529B" stroke-width="0.3"/>
</svg>
