<svg width="311" height="28" viewBox="0 0 311 28" fill="none" xmlns="http://www.w3.org/2000/svg">
<path d="M41.3231 18H38.8571V5.958C39.2411 5.898 39.5291 5.868 39.7211 5.868C40.7891 5.868 41.3231 6.336 41.3231 7.272V18ZM45.7871 9.864C45.6311 10.092 45.4691 10.32 45.3011 10.548C45.1451 10.764 44.9591 10.962 44.7431 11.142C44.5271 11.322 44.2631 11.472 43.9511 11.592C44.3351 11.688 44.6651 11.862 44.9411 12.114C45.2291 12.354 45.5831 12.81 46.0031 13.482L48.6671 17.784C48.1991 18.06 47.7491 18.198 47.3171 18.198C46.8851 18.198 46.5191 18.126 46.2191 17.982C45.9311 17.826 45.6851 17.586 45.4811 17.262L44.2931 15.336C44.0411 14.916 43.8011 14.526 43.5731 14.166C43.3451 13.806 43.1051 13.506 42.8531 13.266C42.6011 13.014 42.3011 12.84 41.9531 12.744V10.836C42.2411 10.764 42.4931 10.62 42.7091 10.404C42.9251 10.188 43.1471 9.906 43.3751 9.558C43.6031 9.198 43.8851 8.772 44.2211 8.28L44.9591 7.2C45.2831 6.732 45.6011 6.396 45.9131 6.192C46.2371 5.976 46.5851 5.868 46.9571 5.868C47.4371 5.868 47.7851 5.964 48.0011 6.156C48.2291 6.348 48.3431 6.654 48.3431 7.074C48.3431 7.242 48.3371 7.368 48.3251 7.452C48.0011 7.452 47.7191 7.524 47.4791 7.668C47.2391 7.8 47.0171 8.022 46.8131 8.334L45.7871 9.864ZM54.1007 19.476C53.5607 21.216 52.3967 22.086 50.6087 22.086C50.0087 22.086 49.5467 21.996 49.2227 21.816C48.9107 21.648 48.7547 21.396 48.7547 21.06C48.7547 20.784 48.9227 20.37 49.2587 19.818C49.4027 19.926 49.5827 20.01 49.7987 20.07C50.0147 20.142 50.2367 20.178 50.4647 20.178C50.8487 20.178 51.1547 20.07 51.3827 19.854C51.6227 19.65 51.8267 19.308 51.9947 18.828L52.3007 17.928H51.1847L48.4127 9.504C48.7847 9.372 49.2407 9.306 49.7807 9.306C50.1407 9.306 50.4467 9.402 50.6987 9.594C50.9507 9.786 51.1247 10.056 51.2207 10.404L52.8407 16.056L54.1727 11.106C54.3527 10.434 54.5807 9.966 54.8567 9.702C55.1327 9.438 55.4927 9.306 55.9367 9.306C56.3207 9.306 56.7047 9.384 57.0887 9.54L54.1007 19.476ZM60.6912 10.17C60.9552 9.858 61.3032 9.606 61.7352 9.414C62.1672 9.222 62.6352 9.126 63.1392 9.126C64.2072 9.126 65.0352 9.504 65.6232 10.26C66.2112 11.004 66.5052 12.084 66.5052 13.5C66.5052 14.532 66.3612 15.402 66.0732 16.11C65.7972 16.818 65.3892 17.358 64.8492 17.73C64.3092 18.09 63.6732 18.27 62.9412 18.27C62.6052 18.27 62.2932 18.228 62.0052 18.144C61.7172 18.06 61.4592 17.946 61.2312 17.802C61.0032 17.658 60.8532 17.526 60.7812 17.406V21.924H58.3512V9.378L58.5672 9.342C58.7592 9.318 58.9572 9.306 59.1612 9.306C60.0492 9.306 60.5592 9.594 60.6912 10.17ZM63.9492 13.554C63.9492 12.678 63.7992 12.03 63.4992 11.61C63.2112 11.178 62.7612 10.962 62.1492 10.962C61.7292 10.962 61.3992 11.046 61.1592 11.214C60.9192 11.37 60.7992 11.592 60.7992 11.88V15.804C60.9552 15.96 61.1592 16.092 61.4112 16.2C61.6632 16.296 61.9152 16.344 62.1672 16.344C63.3552 16.344 63.9492 15.414 63.9492 13.554ZM72.7431 16.452C73.1511 16.452 73.5351 16.374 73.8951 16.218C74.2551 16.05 74.5371 15.84 74.7411 15.588C74.8851 15.744 75.0231 15.96 75.1551 16.236C75.2871 16.512 75.3531 16.74 75.3531 16.92C75.3531 17.196 75.2271 17.43 74.9751 17.622C74.3751 18.078 73.5171 18.306 72.4011 18.306C71.5131 18.306 70.7391 18.126 70.0791 17.766C69.4191 17.394 68.9211 16.866 68.5851 16.182C68.2491 15.486 68.0811 14.646 68.0811 13.662C68.0811 12.69 68.2611 11.874 68.6211 11.214C68.9931 10.542 69.5151 10.026 70.1871 9.666C70.8591 9.306 71.5971 9.126 72.4011 9.126C72.8811 9.126 73.3311 9.18 73.7511 9.288C74.1711 9.384 74.5251 9.528 74.8131 9.72C75.0411 9.864 75.1971 10.002 75.2811 10.134C75.3771 10.266 75.4251 10.422 75.4251 10.602C75.4251 10.77 75.3711 10.98 75.2631 11.232C75.1551 11.472 75.0171 11.694 74.8491 11.898C74.6091 11.634 74.2971 11.418 73.9131 11.25C73.5411 11.07 73.1571 10.98 72.7611 10.98C72.0411 10.98 71.4951 11.208 71.1231 11.664C70.7511 12.108 70.5651 12.762 70.5651 13.626C70.5651 14.562 70.7451 15.27 71.1051 15.75C71.4771 16.218 72.0231 16.452 72.7431 16.452ZM85.4128 10.026C84.9928 10.026 84.6568 9.876 84.4048 9.576C84.1648 9.276 84.0448 8.874 84.0448 8.37C84.0448 7.89 84.1528 7.404 84.3688 6.912C84.5848 6.42 84.8488 6.036 85.1608 5.76C85.4728 5.472 85.7968 5.328 86.1328 5.328C86.5888 5.328 86.8888 5.532 87.0328 5.94C86.8168 6.036 86.6248 6.162 86.4568 6.318C86.2888 6.474 86.1568 6.648 86.0608 6.84C85.9648 7.02 85.9108 7.206 85.8988 7.398C86.1868 7.626 86.3848 7.854 86.4928 8.082C86.6128 8.298 86.6728 8.544 86.6728 8.82C86.6728 9.156 86.5528 9.444 86.3128 9.684C86.0848 9.912 85.7848 10.026 85.4128 10.026ZM81.6508 10.026C81.2308 10.026 80.8948 9.876 80.6428 9.576C80.4028 9.276 80.2828 8.874 80.2828 8.37C80.2828 7.89 80.3908 7.404 80.6068 6.912C80.8228 6.42 81.0868 6.036 81.3988 5.76C81.7108 5.472 82.0348 5.328 82.3708 5.328C82.8268 5.328 83.1268 5.532 83.2708 5.94C83.0548 6.036 82.8628 6.162 82.6948 6.318C82.5268 6.474 82.3948 6.648 82.2988 6.84C82.2028 7.02 82.1488 7.206 82.1368 7.398C82.4248 7.626 82.6228 7.854 82.7308 8.082C82.8508 8.298 82.9108 8.544 82.9108 8.82C82.9108 9.156 82.7908 9.444 82.5508 9.684C82.3228 9.912 82.0228 10.026 81.6508 10.026ZM87.7002 6.264C88.0482 6.108 88.3302 6.006 88.5462 5.958C88.7622 5.898 88.9782 5.868 89.1942 5.868C89.8422 5.868 90.3042 6.162 90.5802 6.75L92.8122 11.556L94.6482 6.948C94.8042 6.564 95.0022 6.288 95.2422 6.12C95.4822 5.952 95.8122 5.868 96.2322 5.868C96.6522 5.868 97.0902 5.988 97.5462 6.228L93.4602 15.57C93.1602 16.266 92.8542 16.806 92.5422 17.19C92.2302 17.562 91.8702 17.838 91.4622 18.018C91.0542 18.21 90.5862 18.306 90.0582 18.306C89.3622 18.306 88.8522 18.216 88.5282 18.036C88.2162 17.856 88.0602 17.574 88.0602 17.19C88.0602 16.878 88.2162 16.482 88.5282 16.002C88.6842 16.098 88.8702 16.182 89.0862 16.254C89.3142 16.314 89.5422 16.344 89.7702 16.344C90.1062 16.344 90.3942 16.23 90.6342 16.002C90.8862 15.774 91.1082 15.414 91.3002 14.922L91.6782 13.932L87.7002 6.264ZM101.483 16.452C101.891 16.452 102.275 16.374 102.635 16.218C102.995 16.05 103.277 15.84 103.481 15.588C103.625 15.744 103.763 15.96 103.895 16.236C104.027 16.512 104.093 16.74 104.093 16.92C104.093 17.196 103.967 17.43 103.715 17.622C103.115 18.078 102.257 18.306 101.141 18.306C100.253 18.306 99.4793 18.126 98.8193 17.766C98.1593 17.394 97.6613 16.866 97.3253 16.182C96.9893 15.486 96.8213 14.646 96.8213 13.662C96.8213 12.69 97.0013 11.874 97.3613 11.214C97.7333 10.542 98.2553 10.026 98.9273 9.666C99.5993 9.306 100.337 9.126 101.141 9.126C101.621 9.126 102.071 9.18 102.491 9.288C102.911 9.384 103.265 9.528 103.553 9.72C103.781 9.864 103.937 10.002 104.021 10.134C104.117 10.266 104.165 10.422 104.165 10.602C104.165 10.77 104.111 10.98 104.003 11.232C103.895 11.472 103.757 11.694 103.589 11.898C103.349 11.634 103.037 11.418 102.653 11.25C102.281 11.07 101.897 10.98 101.501 10.98C100.781 10.98 100.235 11.208 99.8633 11.664C99.4913 12.108 99.3053 12.762 99.3053 13.626C99.3053 14.562 99.4853 15.27 99.8453 15.75C100.217 16.218 100.763 16.452 101.483 16.452ZM105.179 11.286C105.143 11.034 105.125 10.782 105.125 10.53C105.125 10.158 105.245 9.864 105.485 9.648C105.737 9.432 106.097 9.324 106.565 9.324H113.513C113.549 9.576 113.567 9.828 113.567 10.08C113.567 10.452 113.441 10.746 113.189 10.962C112.949 11.178 112.595 11.286 112.127 11.286H110.507V18H108.077V11.286H105.179ZM122.35 13.644C122.35 15.096 121.978 16.23 121.234 17.046C120.502 17.862 119.458 18.27 118.102 18.27C116.746 18.27 115.702 17.868 114.97 17.064C114.238 16.248 113.872 15.126 113.872 13.698C113.872 12.774 114.052 11.964 114.412 11.268C114.772 10.572 115.27 10.044 115.906 9.684C116.554 9.312 117.31 9.126 118.174 9.126C119.518 9.126 120.55 9.522 121.27 10.314C121.99 11.106 122.35 12.216 122.35 13.644ZM119.884 13.662C119.884 11.886 119.302 10.998 118.138 10.998C117.55 10.998 117.1 11.238 116.788 11.718C116.476 12.186 116.32 12.84 116.32 13.68C116.32 14.568 116.47 15.252 116.77 15.732C117.07 16.2 117.514 16.434 118.102 16.434C119.29 16.434 119.884 15.51 119.884 13.662ZM132.315 18H129.993V12.78L126.627 18H124.287V9.324C124.311 9.312 124.413 9.3 124.593 9.288C124.785 9.264 124.959 9.252 125.115 9.252C125.643 9.252 126.021 9.372 126.249 9.612C126.489 9.84 126.609 10.194 126.609 10.674V14.67L129.435 10.404C129.687 10.008 129.957 9.72 130.245 9.54C130.533 9.348 130.863 9.252 131.235 9.252C131.655 9.252 132.015 9.306 132.315 9.414V18ZM131.433 5.634C131.301 6.45 130.965 7.092 130.425 7.56C129.885 8.028 129.189 8.262 128.337 8.262C127.449 8.262 126.747 8.04 126.231 7.596C125.715 7.14 125.403 6.48 125.295 5.616C125.379 5.556 125.517 5.502 125.709 5.454C125.901 5.406 126.081 5.382 126.249 5.382C126.417 5.382 126.549 5.424 126.645 5.508C126.753 5.58 126.849 5.718 126.933 5.922C127.065 6.234 127.245 6.468 127.473 6.624C127.713 6.78 128.019 6.858 128.391 6.858C128.703 6.858 128.967 6.792 129.183 6.66C129.399 6.516 129.603 6.276 129.795 5.94C129.891 5.772 129.969 5.652 130.029 5.58C130.101 5.508 130.173 5.46 130.245 5.436C130.329 5.4 130.425 5.382 130.533 5.382C130.665 5.382 130.821 5.406 131.001 5.454C131.181 5.502 131.325 5.562 131.433 5.634ZM141.859 18H139.555V14.454C139.291 14.802 138.937 15.078 138.493 15.282C138.061 15.474 137.563 15.57 136.999 15.57C136.363 15.57 135.841 15.462 135.433 15.246C135.037 15.03 134.743 14.676 134.551 14.184C134.371 13.692 134.281 12.924 134.281 11.88V9.324C134.305 9.312 134.401 9.3 134.569 9.288C134.749 9.264 134.917 9.252 135.073 9.252C135.625 9.252 136.027 9.372 136.279 9.612C136.543 9.84 136.675 10.194 136.675 10.674V11.772C136.675 12.276 136.711 12.654 136.783 12.906C136.867 13.146 136.999 13.326 137.179 13.446C137.359 13.554 137.599 13.608 137.899 13.608C138.307 13.608 138.661 13.512 138.961 13.32C139.273 13.128 139.429 12.9 139.429 12.636V9.324C139.453 9.312 139.555 9.3 139.735 9.288C139.927 9.264 140.101 9.252 140.257 9.252C140.809 9.252 141.211 9.372 141.463 9.612C141.727 9.84 141.859 10.194 141.859 10.674V18ZM152.196 18H149.874V12.78L146.508 18H144.168V9.324C144.192 9.312 144.294 9.3 144.474 9.288C144.666 9.264 144.84 9.252 144.996 9.252C145.524 9.252 145.902 9.372 146.13 9.612C146.37 9.84 146.49 10.194 146.49 10.674V14.67L149.316 10.404C149.568 10.008 149.838 9.72 150.126 9.54C150.414 9.348 150.744 9.252 151.116 9.252C151.536 9.252 151.896 9.306 152.196 9.414V18ZM158.788 9.324C159.808 9.324 160.594 9.534 161.146 9.954C161.698 10.374 161.974 10.962 161.974 11.718C161.974 12.102 161.878 12.444 161.686 12.744C161.506 13.044 161.248 13.278 160.912 13.446C161.74 13.83 162.154 14.472 162.154 15.372C162.154 16.2 161.866 16.848 161.29 17.316C160.726 17.772 159.922 18 158.878 18H154.504V9.324H158.788ZM156.79 14.382V16.326H158.77C159.106 16.326 159.37 16.242 159.562 16.074C159.754 15.894 159.85 15.654 159.85 15.354C159.85 14.706 159.49 14.382 158.77 14.382H156.79ZM156.79 12.744H158.518C159.286 12.744 159.67 12.432 159.67 11.808C159.67 11.568 159.58 11.376 159.4 11.232C159.232 11.076 158.998 10.998 158.698 10.998H156.79V12.744ZM171.956 13.644C171.956 15.096 171.584 16.23 170.84 17.046C170.108 17.862 169.064 18.27 167.708 18.27C166.352 18.27 165.308 17.868 164.576 17.064C163.844 16.248 163.478 15.126 163.478 13.698C163.478 12.774 163.658 11.964 164.018 11.268C164.378 10.572 164.876 10.044 165.512 9.684C166.16 9.312 166.916 9.126 167.78 9.126C169.124 9.126 170.156 9.522 170.876 10.314C171.596 11.106 171.956 12.216 171.956 13.644ZM169.49 13.662C169.49 11.886 168.908 10.998 167.744 10.998C167.156 10.998 166.706 11.238 166.394 11.718C166.082 12.186 165.926 12.84 165.926 13.68C165.926 14.568 166.076 15.252 166.376 15.732C166.676 16.2 167.12 16.434 167.708 16.434C168.896 16.434 169.49 15.51 169.49 13.662ZM178.32 16.47C178.716 16.47 179.052 16.416 179.328 16.308C179.616 16.2 179.856 16.074 180.048 15.93C180.24 15.774 180.408 15.63 180.552 15.498C180.732 15.726 180.888 15.978 181.02 16.254C181.164 16.518 181.236 16.728 181.236 16.884C181.236 17.148 181.086 17.388 180.786 17.604C180.498 17.82 180.114 17.988 179.634 18.108C179.154 18.24 178.638 18.306 178.086 18.306C176.622 18.306 175.494 17.904 174.702 17.1C173.922 16.284 173.532 15.096 173.532 13.536C173.532 12.612 173.706 11.826 174.054 11.178C174.414 10.518 174.906 10.014 175.53 9.666C176.166 9.306 176.874 9.126 177.654 9.126C178.842 9.126 179.754 9.474 180.39 10.17C181.026 10.854 181.344 11.796 181.344 12.996C181.344 13.572 181.326 13.944 181.29 14.112H175.998C176.046 14.88 176.268 15.468 176.664 15.876C177.06 16.272 177.612 16.47 178.32 16.47ZM179.13 12.762C179.13 12.078 179.004 11.574 178.752 11.25C178.5 10.926 178.116 10.764 177.6 10.764C177.096 10.764 176.7 10.944 176.412 11.304C176.124 11.652 175.98 12.138 175.98 12.762H179.13ZM189.082 10.17C189.346 9.858 189.694 9.606 190.126 9.414C190.558 9.222 191.026 9.126 191.53 9.126C192.598 9.126 193.426 9.504 194.014 10.26C194.602 11.004 194.896 12.084 194.896 13.5C194.896 14.532 194.752 15.402 194.464 16.11C194.188 16.818 193.78 17.358 193.24 17.73C192.7 18.09 192.064 18.27 191.332 18.27C190.996 18.27 190.684 18.228 190.396 18.144C190.108 18.06 189.85 17.946 189.622 17.802C189.394 17.658 189.244 17.526 189.172 17.406V21.924H186.742V9.378L186.958 9.342C187.15 9.318 187.348 9.306 187.552 9.306C188.44 9.306 188.95 9.594 189.082 10.17ZM192.34 13.554C192.34 12.678 192.19 12.03 191.89 11.61C191.602 11.178 191.152 10.962 190.54 10.962C190.12 10.962 189.79 11.046 189.55 11.214C189.31 11.37 189.19 11.592 189.19 11.88V15.804C189.346 15.96 189.55 16.092 189.802 16.2C190.054 16.296 190.306 16.344 190.558 16.344C191.746 16.344 192.34 15.414 192.34 13.554ZM203.834 15.912C203.834 16.848 203.972 17.538 204.248 17.982C203.828 18.138 203.432 18.216 203.06 18.216C202.652 18.216 202.334 18.138 202.106 17.982C201.878 17.826 201.728 17.58 201.656 17.244C201.356 17.568 200.978 17.814 200.522 17.982C200.078 18.15 199.58 18.234 199.028 18.234C198.212 18.234 197.546 18 197.03 17.532C196.526 17.064 196.274 16.41 196.274 15.57C196.274 14.634 196.652 13.908 197.408 13.392C198.164 12.876 199.256 12.582 200.684 12.51C200.876 12.498 201.146 12.492 201.494 12.492V12.114C201.494 11.67 201.374 11.352 201.134 11.16C200.894 10.956 200.492 10.854 199.928 10.854C199.556 10.854 199.184 10.908 198.812 11.016C198.44 11.124 197.96 11.346 197.372 11.682C197.216 11.502 197.084 11.286 196.976 11.034C196.868 10.782 196.814 10.59 196.814 10.458C196.814 10.23 196.988 10.014 197.336 9.81C197.696 9.594 198.14 9.426 198.668 9.306C199.196 9.186 199.742 9.126 200.306 9.126C201.554 9.126 202.454 9.384 203.006 9.9C203.558 10.416 203.834 11.256 203.834 12.42V15.912ZM201.53 13.77C201.446 13.77 201.362 13.77 201.278 13.77C201.194 13.77 201.11 13.776 201.026 13.788C200.186 13.848 199.568 14.01 199.172 14.274C198.776 14.538 198.578 14.91 198.578 15.39C198.578 15.774 198.686 16.074 198.902 16.29C199.118 16.506 199.43 16.614 199.838 16.614C200.258 16.614 200.642 16.512 200.99 16.308C201.35 16.092 201.53 15.876 201.53 15.66V13.77ZM208.291 16.596C208.951 16.596 209.431 16.506 209.731 16.326C210.043 16.146 210.199 15.864 210.199 15.48C210.199 15.168 210.097 14.928 209.893 14.76C209.701 14.58 209.425 14.49 209.065 14.49H206.869V12.726H209.029C209.365 12.726 209.623 12.648 209.803 12.492C209.995 12.336 210.091 12.114 210.091 11.826C210.091 11.454 209.953 11.19 209.677 11.034C209.413 10.878 208.981 10.8 208.381 10.8C207.469 10.8 206.677 11.1 206.005 11.7C205.645 11.124 205.465 10.704 205.465 10.44C205.465 10.188 205.609 9.966 205.897 9.774C206.197 9.57 206.587 9.414 207.067 9.306C207.547 9.186 208.063 9.126 208.615 9.126C209.899 9.126 210.871 9.342 211.531 9.774C212.191 10.206 212.521 10.842 212.521 11.682C212.521 12.474 212.137 13.104 211.369 13.572C212.233 14.028 212.665 14.712 212.665 15.624C212.665 16.476 212.311 17.13 211.603 17.586C210.895 18.042 209.899 18.27 208.615 18.27C207.655 18.27 206.887 18.156 206.311 17.928C205.747 17.7 205.465 17.4 205.465 17.028C205.465 16.896 205.501 16.746 205.573 16.578C205.645 16.398 205.795 16.128 206.023 15.768C206.431 16.08 206.809 16.296 207.157 16.416C207.517 16.536 207.895 16.596 208.291 16.596ZM218.729 9.324C219.749 9.324 220.535 9.534 221.087 9.954C221.639 10.374 221.915 10.962 221.915 11.718C221.915 12.102 221.819 12.444 221.627 12.744C221.447 13.044 221.189 13.278 220.853 13.446C221.681 13.83 222.095 14.472 222.095 15.372C222.095 16.2 221.807 16.848 221.231 17.316C220.667 17.772 219.863 18 218.819 18H214.445V9.324H218.729ZM216.731 14.382V16.326H218.711C219.047 16.326 219.311 16.242 219.503 16.074C219.695 15.894 219.791 15.654 219.791 15.354C219.791 14.706 219.431 14.382 218.711 14.382H216.731ZM216.731 12.744H218.459C219.227 12.744 219.611 12.432 219.611 11.808C219.611 11.568 219.521 11.376 219.341 11.232C219.173 11.076 218.939 10.998 218.639 10.998H216.731V12.744ZM231.807 18H229.485V12.78L226.119 18H223.779V9.324C223.803 9.312 223.905 9.3 224.085 9.288C224.277 9.264 224.451 9.252 224.607 9.252C225.135 9.252 225.513 9.372 225.741 9.612C225.981 9.84 226.101 10.194 226.101 10.674V14.67L228.927 10.404C229.179 10.008 229.449 9.72 229.737 9.54C230.025 9.348 230.355 9.252 230.727 9.252C231.147 9.252 231.507 9.306 231.807 9.414V18ZM233.341 11.286C233.305 11.034 233.287 10.782 233.287 10.53C233.287 10.158 233.407 9.864 233.647 9.648C233.899 9.432 234.259 9.324 234.727 9.324H241.675C241.711 9.576 241.729 9.828 241.729 10.08C241.729 10.452 241.603 10.746 241.351 10.962C241.111 11.178 240.757 11.286 240.289 11.286H238.669V18H236.239V11.286H233.341ZM251.231 18H248.909V12.78L245.543 18H243.203V9.324C243.227 9.312 243.329 9.3 243.509 9.288C243.701 9.264 243.875 9.252 244.031 9.252C244.559 9.252 244.937 9.372 245.165 9.612C245.405 9.84 245.525 10.194 245.525 10.674V14.67L248.351 10.404C248.603 10.008 248.873 9.72 249.161 9.54C249.449 9.348 249.779 9.252 250.151 9.252C250.571 9.252 250.931 9.306 251.231 9.414V18ZM257.967 16.47C258.363 16.47 258.699 16.416 258.975 16.308C259.263 16.2 259.503 16.074 259.695 15.93C259.887 15.774 260.055 15.63 260.199 15.498C260.379 15.726 260.535 15.978 260.667 16.254C260.811 16.518 260.883 16.728 260.883 16.884C260.883 17.148 260.733 17.388 260.433 17.604C260.145 17.82 259.761 17.988 259.281 18.108C258.801 18.24 258.285 18.306 257.733 18.306C256.269 18.306 255.141 17.904 254.349 17.1C253.569 16.284 253.179 15.096 253.179 13.536C253.179 12.612 253.353 11.826 253.701 11.178C254.061 10.518 254.553 10.014 255.177 9.666C255.813 9.306 256.521 9.126 257.301 9.126C258.489 9.126 259.401 9.474 260.037 10.17C260.673 10.854 260.991 11.796 260.991 12.996C260.991 13.572 260.973 13.944 260.937 14.112H255.645C255.693 14.88 255.915 15.468 256.311 15.876C256.707 16.272 257.259 16.47 257.967 16.47ZM258.777 12.762C258.777 12.078 258.651 11.574 258.399 11.25C258.147 10.926 257.763 10.764 257.247 10.764C256.743 10.764 256.347 10.944 256.059 11.304C255.771 11.652 255.627 12.138 255.627 12.762H258.777ZM267.735 5.346C268.155 5.346 268.485 5.496 268.725 5.796C268.977 6.096 269.103 6.498 269.103 7.002C269.103 7.482 268.995 7.968 268.779 8.46C268.563 8.952 268.299 9.342 267.987 9.63C267.675 9.906 267.351 10.044 267.015 10.044C266.559 10.044 266.259 9.84 266.115 9.432C266.331 9.336 266.523 9.21 266.691 9.054C266.859 8.898 266.991 8.73 267.087 8.55C267.183 8.358 267.237 8.166 267.249 7.974C266.961 7.746 266.757 7.524 266.637 7.308C266.529 7.08 266.475 6.828 266.475 6.552C266.475 6.216 266.589 5.934 266.817 5.706C267.057 5.466 267.363 5.346 267.735 5.346ZM263.973 5.346C264.393 5.346 264.723 5.496 264.963 5.796C265.215 6.096 265.341 6.498 265.341 7.002C265.341 7.482 265.233 7.968 265.017 8.46C264.801 8.952 264.537 9.342 264.225 9.63C263.913 9.906 263.589 10.044 263.253 10.044C262.797 10.044 262.497 9.84 262.353 9.432C262.569 9.336 262.761 9.21 262.929 9.054C263.097 8.898 263.229 8.73 263.325 8.55C263.421 8.358 263.475 8.166 263.487 7.974C263.199 7.746 262.995 7.524 262.875 7.308C262.767 7.08 262.713 6.828 262.713 6.552C262.713 6.216 262.827 5.934 263.055 5.706C263.295 5.466 263.601 5.346 263.973 5.346Z" fill="#00529B"/>
<path d="M308 19C306.343 19 305 20.3431 305 22C305 23.6569 306.343 25 308 25C309.657 25 311 23.6569 311 22C311 20.3431 309.657 19 308 19Z" fill="#00529B"/>
<rect x="287" y="3" width="24" height="4" rx="2" fill="#00529B"/>
<rect x="298" y="11" width="13" height="4" rx="2" fill="#00529B"/>
</svg>
