<svg width="78" height="77" viewBox="0 0 78 77" fill="none" xmlns="http://www.w3.org/2000/svg">
<path d="M59.2999 57.088C54.1028 71.9453 35.1587 69.0825 23.7588 61.3213C12.3589 53.5602 3.33073 33.571 16.274 22.4173C29.6419 10.8979 50.287 7.68141 57.4137 19.8883C64.5403 32.0952 64.497 42.2308 59.2999 57.088Z" fill="#00529B" fill-opacity="0.5"/>
<path d="M70.5806 36.5239C78.7844 50.7519 63.6177 63.776 49.718 67.5004C35.8183 71.2248 13.8684 64.7454 13.8685 46.9172C13.8686 28.5043 25.3886 9.99467 39.8918 12.6762C54.3949 15.3578 62.3769 22.2959 70.5806 36.5239Z" fill="#00529B"/>
<g clip-path="url(#clip0_863_848)">
<path d="M32.1353 46.8235L36.766 46.8235L44.3269 52.3707C45.1244 52.9171 45.706 52.1504 45.75 51.6834L45.75 31.8825C45.7809 31.3581 45.0451 30.6532 44.2828 31.1951L36.7176 36.6939L32.1353 36.6939C30.3949 36.6939 29.0202 38.1171 29.0202 39.8575L29.0202 43.6599C29.0157 45.4047 30.4389 46.8235 32.1353 46.8235ZM43.9171 49.8945L37.9116 45.5325L37.9116 38.0774L43.9171 33.6713L43.9171 49.8945ZM30.7606 39.9015C30.7606 39.1216 31.3113 38.5268 32.0427 38.5268L36.0787 38.5268L36.0787 45.0831L32.0471 45.0831C31.3598 45.0831 30.765 44.4882 30.765 43.7084L30.765 39.9015L30.7606 39.9015Z" fill="white"/>
</g>
<path d="M50.5596 36.2036C53.3156 41.0451 52.9802 43.4308 50.5596 47.3551" stroke="white" stroke-width="2" stroke-linecap="round"/>
<defs>
<clipPath id="clip0_863_848">
<rect width="21.5595" height="21.5595" fill="white" transform="translate(50.5596 52.5596) rotate(-180)"/>
</clipPath>
</defs>
</svg>
