<svg width="468" height="396" viewBox="0 0 468 396" fill="none" xmlns="http://www.w3.org/2000/svg">
<path d="M296.75 387.2C294.056 390.279 290.57 393.156 287.284 395.808C266.051 373.865 241.124 349.546 217.43 349.546C202.74 349.546 192.16 360.728 179.817 368.618C162.687 379.567 139.191 385.733 119.056 377.698C108.226 373.585 97.7327 367.528 89.8907 357.688C105.739 368.618 129.471 370.088 147.363 362.665C167.139 354.46 187.267 343.566 209.803 343.566C243.026 343.566 274.6 366.039 296.75 387.201V387.2ZM51.2097 318.186C73.2057 343.225 109.08 335.169 138.444 341.423C142.531 342.293 146.37 343.65 150.757 342.977C147.267 340.763 142.639 340.514 138.607 338.995C115.824 330.412 112.272 306.028 99.8027 289.247C115.729 299.834 128.923 314.329 143.815 327.95C154.179 337.43 167.092 341.487 180.485 344.212C177.267 345.388 173.057 345.111 169.591 345.97C145.535 351.938 118.864 361.358 93.2667 352.911C76.7467 347.46 59.5567 334.55 51.2097 318.186V318.186ZM15.9517 260.236C29.6717 291.299 64.1427 293.732 87.0627 312.788C91.4207 316.412 95.7417 319.747 100.529 321.979L100.776 321.729C95.4867 316.944 89.7637 311.241 85.6667 305.289C72.5667 286.254 76.9267 260.237 66.8257 240.057C76.0027 251.045 84.6097 262.359 89.8937 274.94C98.3967 295.186 101.286 318.282 120.357 333.666C99.7167 326.856 75.9047 328.212 57.3177 316.038C37.7807 303.241 19.6737 283.042 15.9517 260.236V260.236ZM1.25467 197.39C3.23867 224.758 32.3747 239.377 46.2687 261.874C49.2357 266.679 52.2887 271.639 56.5987 275.519C55.9267 272.606 53.5287 270.024 52.2087 267.165C47.7537 257.512 45.7367 246.342 46.8487 234.855C48.2027 220.88 54.0287 207.902 51.7927 193.2C63.7677 219.048 59.9047 251.362 66.8257 279.31C68.3567 285.493 72.1217 290.904 74.4417 296.76C62.6757 287.809 47.2567 279.864 34.3417 269.684C21.8517 259.839 11.0097 248.3 5.37466 233.285C1.31466 222.466 0.257666 209.561 1.25467 197.39ZM2.06866 146.964C3.47366 140.856 4.54866 134.534 7.20666 128.931C2.17566 154.748 19.3507 173.397 25.2147 195.733C27.4247 204.15 28.1807 213.093 31.5847 220.948C31.9017 221.118 32.1766 220.788 32.3726 220.534C23.8996 196.763 36.3207 174.794 48.4217 156.057C51.6017 151.132 53.1336 145.397 54.6186 139.599C55.9266 150.36 53.6367 162.817 51.6457 173.921C49.0827 188.217 44.1967 201.616 40.3137 215.409C37.7567 224.026 38.4307 233.751 39.7427 242.779L38.5087 241.795C29.4997 225.163 11.7247 212.17 6.35666 194.017C2.06666 179.509 -0.901338 162.748 2.06866 146.964V146.964ZM11.5707 119.193C11.5707 99.6561 19.1776 83.7191 30.5886 69.1691C30.9196 69.0041 31.1557 68.6721 31.5827 68.7491C19.0217 87.8581 30.4547 111.978 28.8407 133.651L27.1837 155.895C27.4297 156.057 27.4297 156.725 28.0137 156.469C28.7557 153.989 28.9807 151.351 29.4127 148.79C32.4367 130.858 48.1827 118.376 61.5377 105.716C64.592 102.824 66.9691 99.2924 68.4987 95.3741C67.3887 104.307 64.8967 113.464 60.8867 121.582C50.6077 142.392 30.7547 159.19 27.1837 182.839C25.4527 160.174 11.5707 143.325 11.5707 119.193V119.193ZM44.6827 53.2901C50.9987 46.2861 58.0787 40.8301 66.5067 38.6731C50.1407 49.9261 51.0297 70.0391 46.0187 86.8561C44.1867 93.0051 41.4937 98.7661 40.0617 105.121L40.4767 105.451C43.1987 98.2671 47.8707 91.3611 53.9577 85.6181C65.4687 74.7581 82.7756 68.1841 88.4716 52.2981C88.2116 74.3741 69.3927 91.1561 52.2057 104.138C44.4957 109.962 37.9457 117.78 33.9477 125.976C34.6157 119.876 34.9187 114.801 34.3747 108.847C32.6107 89.5621 31.4657 67.9431 44.6827 53.2901V53.2901ZM111.111 16.1731C98.9647 26.8311 90.8607 40.5501 81.5287 52.8821C73.7687 63.1391 63.1197 69.4941 53.9617 78.1011C58.9047 67.8451 59.8177 56.0931 66.0957 46.1711C76.8307 29.2041 94.5737 22.6191 111.111 16.1731V16.1731Z" fill="white"/>
<path d="M171.25 387.2C173.944 390.279 177.43 393.156 180.716 395.808C201.949 373.865 226.876 349.546 250.57 349.546C265.26 349.546 275.84 360.728 288.183 368.618C305.313 379.567 328.809 385.733 348.944 377.698C359.774 373.585 370.267 367.528 378.109 357.688C362.261 368.618 338.529 370.088 320.637 362.665C300.861 354.46 280.733 343.566 258.197 343.566C224.974 343.566 193.4 366.039 171.25 387.201V387.2ZM416.79 318.186C394.794 343.225 358.92 335.169 329.556 341.423C325.469 342.293 321.63 343.65 317.243 342.977C320.733 340.763 325.361 340.514 329.393 338.995C352.176 330.412 355.728 306.028 368.197 289.247C352.271 299.834 339.077 314.329 324.185 327.95C313.821 337.43 300.908 341.487 287.515 344.212C290.733 345.388 294.943 345.111 298.409 345.97C322.465 351.938 349.136 361.358 374.733 352.911C391.253 347.46 408.443 334.55 416.79 318.186V318.186ZM452.048 260.236C438.328 291.299 403.857 293.732 380.937 312.788C376.579 316.412 372.258 319.747 367.471 321.979L367.224 321.729C372.513 316.944 378.236 311.241 382.333 305.289C395.433 286.254 391.073 260.237 401.174 240.057C391.997 251.045 383.39 262.359 378.106 274.94C369.603 295.186 366.714 318.282 347.643 333.666C368.283 326.856 392.095 328.212 410.682 316.038C430.219 303.241 448.326 283.042 452.048 260.236V260.236ZM466.745 197.39C464.761 224.758 435.625 239.377 421.731 261.874C418.764 266.679 415.711 271.639 411.401 275.519C412.073 272.606 414.471 270.024 415.791 267.165C420.246 257.512 422.263 246.342 421.151 234.855C419.797 220.88 413.971 207.902 416.207 193.2C404.232 219.048 408.095 251.362 401.174 279.31C399.643 285.493 395.878 290.904 393.558 296.76C405.324 287.809 420.743 279.864 433.658 269.684C446.148 259.839 456.99 248.3 462.625 233.285C466.685 222.466 467.742 209.561 466.745 197.39ZM465.931 146.964C464.526 140.856 463.451 134.534 460.793 128.931C465.824 154.748 448.649 173.397 442.785 195.733C440.575 204.15 439.819 213.093 436.415 220.948C436.098 221.118 435.823 220.788 435.627 220.534C444.1 196.763 431.679 174.794 419.578 156.057C416.398 151.132 414.866 145.397 413.381 139.599C412.073 150.36 414.363 162.817 416.354 173.921C418.917 188.217 423.803 201.616 427.686 215.409C430.243 224.026 429.569 233.751 428.257 242.779L429.491 241.795C438.5 225.163 456.275 212.17 461.643 194.017C465.933 179.509 468.901 162.748 465.931 146.964V146.964ZM456.429 119.193C456.429 99.6561 448.822 83.7191 437.411 69.1691C437.08 69.0041 436.844 68.6721 436.417 68.7491C448.978 87.8581 437.545 111.978 439.159 133.651L440.816 155.895C440.57 156.057 440.57 156.725 439.986 156.469C439.244 153.989 439.019 151.351 438.587 148.79C435.563 130.858 419.817 118.376 406.462 105.716C403.408 102.824 401.031 99.2924 399.501 95.3741C400.611 104.307 403.103 113.464 407.113 121.582C417.392 142.392 437.245 159.19 440.816 182.839C442.547 160.174 456.429 143.325 456.429 119.193V119.193ZM423.317 53.2901C417.001 46.2861 409.921 40.8301 401.493 38.6731C417.859 49.9261 416.97 70.0391 421.981 86.8561C423.813 93.0051 426.506 98.7661 427.938 105.121L427.523 105.451C424.801 98.2671 420.129 91.3611 414.042 85.6181C402.531 74.7581 385.224 68.1841 379.528 52.2981C379.788 74.3741 398.607 91.1561 415.794 104.138C423.504 109.962 430.054 117.78 434.052 125.976C433.384 119.876 433.081 114.801 433.625 108.847C435.389 89.5621 436.534 67.9431 423.317 53.2901V53.2901ZM356.889 16.1731C369.035 26.8311 377.139 40.5501 386.471 52.8821C394.231 63.1391 404.88 69.4941 414.038 78.1011C409.095 67.8451 408.182 56.0931 401.904 46.1711C391.169 29.2041 373.426 22.6191 356.889 16.1731V16.1731Z" fill="white"/>
<path d="M382.33 236.85L378.742 234.892C371.17 250.5 361.132 264.786 349.016 277.201L328.057 256.241C338.325 245.661 346.604 233.651 352.703 220.671L349.133 218.718C343.134 231.521 335.049 243.239 325.208 253.39L306.222 234.404C314.257 226.062 320.782 216.389 325.508 205.815L321.965 203.882C317.423 214.119 311.134 223.488 303.381 231.569L282.399 210.587C288.155 204.498 292.704 197.374 295.805 189.59L292.261 187.657C289.353 195.106 285.047 201.929 279.576 207.76L260.532 188.719C265.938 182.709 269.12 175.027 269.548 166.954H296.504C296.282 174.047 294.847 181.049 292.261 187.657L295.805 189.59C298.673 182.375 300.253 174.714 300.473 166.953H330.188C329.933 179.688 327.137 192.243 321.964 203.882L325.507 205.815C330.91 193.715 333.897 180.565 334.16 166.951H361.065C360.802 184.857 356.734 202.503 349.13 218.717L352.702 220.67C360.514 204.046 364.76 185.825 365.04 166.952H394.753C394.456 191.27 388.727 214.296 378.741 234.892L382.33 236.848C393.073 214.721 398.776 190.286 398.776 164.965C398.776 143.432 394.65 122.542 386.812 103.162L383.13 104.745C390.512 123.033 394.514 142.7 394.76 162.979H365.043C364.802 146.801 361.623 131.113 355.807 116.489L352.153 118.055C357.763 132.193 360.833 147.349 361.07 162.979H334.162C333.943 151.242 331.659 139.635 327.416 128.689L323.761 130.259C327.796 140.707 329.973 151.781 330.194 162.979H300.476C300.274 155.814 298.914 148.728 296.449 141.997L292.795 143.565C295.055 149.798 296.308 156.352 296.507 162.979H269.551C269.123 154.906 265.941 147.224 260.534 141.214L279.597 122.154C285.484 128.414 289.937 135.684 292.797 143.566L296.45 141.998C293.39 133.662 288.653 125.971 282.402 119.346L303.415 98.335C312.382 107.668 319.226 118.504 323.762 130.259L327.417 128.689C322.681 116.479 315.552 105.221 306.224 95.527L325.25 76.497C337.033 88.65 346.086 102.751 352.153 118.056L355.807 116.49C349.539 100.728 340.202 86.205 328.058 73.694L349.068 52.68C363.928 67.902 375.389 85.565 383.129 104.746L386.811 103.163C378.633 82.924 366.406 64.335 350.505 48.435C334.546 32.475 315.875 20.22 295.548 12.04L294.084 15.767C313.307 23.51 331.009 34.985 346.259 49.872L325.249 70.885C312.949 58.965 298.699 49.725 283.229 43.465L281.779 47.161C296.739 53.23 310.527 62.167 322.442 73.725L303.417 92.751C294.168 83.853 283.503 76.944 271.942 72.214L270.49 75.909C281.552 80.442 291.754 87.054 300.61 95.559L279.6 116.569C273.69 110.999 266.932 106.627 259.63 103.578L258.177 107.276C265.056 110.164 271.361 114.264 276.792 119.379L257.732 138.439C251.674 133.013 244.081 129.868 235.962 129.425V102.47C243.599 102.696 251.129 104.325 258.177 107.277L259.63 103.578C252.206 100.477 244.212 98.74 235.963 98.498V68.781C247.995 69.023 259.653 71.468 270.491 75.91L271.943 72.214C260.649 67.594 248.497 65.054 235.963 64.812V37.892C251.918 38.136 267.389 41.318 281.778 47.152L283.228 43.456C268.381 37.442 252.425 34.166 235.961 33.922V4.20203C256.201 4.44803 275.832 8.43703 294.086 15.787L295.55 12.06C276.236 4.28303 255.424 0.186035 233.978 0.186035C207.483 0.186035 182.449 6.50702 160.249 17.663L162.06 21.129C183.542 10.365 207.31 4.50103 231.993 4.20303V33.923C212.504 34.2016 193.327 38.852 175.876 47.531L177.681 50.987C194.394 42.714 212.843 38.181 231.993 37.889V64.799C217.488 65.0731 203.219 68.5137 190.183 74.88L191.998 78.352C204.339 72.362 217.909 69.052 231.993 68.768V98.487C222.926 98.7484 214.009 100.872 205.798 104.727L207.623 108.213C215.189 104.697 223.443 102.72 231.993 102.455V129.415C227.916 129.639 223.909 130.565 220.147 132.152L221.969 135.635C225.781 134.077 229.861 133.279 233.979 133.285C242.445 133.285 250.404 136.582 256.392 142.568C262.38 148.555 265.676 156.518 265.676 164.985C265.676 182.463 251.459 196.687 233.978 196.687C225.509 196.687 217.548 193.389 211.561 187.402C205.574 181.412 202.277 173.452 202.277 164.985C202.277 156.517 205.574 148.555 211.561 142.568C214.535 139.588 218.073 137.231 221.968 135.635L220.146 132.151C216.518 133.684 213.169 135.808 210.236 138.436L191.166 119.365C196.02 114.793 201.575 111.027 207.621 108.212L205.796 104.726C199.398 107.729 193.518 111.73 188.376 116.578L167.344 95.545C174.611 88.5583 182.93 82.7562 191.997 78.351L190.182 74.879C180.766 79.4729 172.125 85.509 164.571 92.769L145.511 73.711C154.987 64.5103 165.84 56.8433 177.679 50.986L175.874 47.53C163.687 53.5777 152.511 61.477 142.744 70.947L121.69 49.892C133.58 38.2775 147.197 28.5748 162.058 21.129L160.248 17.663C128.16 33.788 102.038 60.066 86.1298 92.28L89.5828 94.143C97.0961 78.8654 106.986 64.8765 118.883 52.698L139.939 73.754C130.086 83.8999 121.935 95.5684 115.798 108.31L119.238 110.167C125.108 97.904 132.978 86.546 142.701 76.519L161.762 95.578C154.034 103.62 147.697 112.892 143.012 123.014L146.459 124.874C150.955 115.082 157.067 106.117 164.538 98.353L185.57 119.386C180.152 125.131 175.797 131.792 172.707 139.059L176.182 140.939C179.075 134 183.199 127.642 188.355 122.171L207.425 141.241C202.19 147.093 198.866 154.658 198.405 162.996H171.443C171.669 155.416 173.275 147.941 176.182 140.937L172.706 139.057C169.486 146.641 167.711 154.76 167.473 162.996H137.758C138.026 149.623 141.025 136.71 146.458 124.872L143.01 123.012C137.193 135.555 134.054 149.173 133.792 162.997H106.879C107.162 144.413 111.425 126.485 119.237 110.165L115.798 108.308C107.804 124.908 103.207 143.437 102.915 162.997H73.1938C73.4858 138.726 79.1578 115.339 89.5808 94.142L86.1278 92.279C75.2928 114.225 69.1758 138.898 69.1758 164.983C69.1758 180.939 71.4548 196.533 75.8078 211.431L79.6998 210.451C75.5567 196.322 73.3677 181.692 73.1938 166.969H102.91C103.082 179.247 104.974 191.44 108.532 203.192L112.385 202.222C108.939 190.924 107.065 179.085 106.879 166.969H133.787C133.974 176.703 135.575 186.358 138.539 195.631L142.399 194.657C139.509 185.704 137.945 176.375 137.759 166.969H167.474C167.673 173.931 168.963 180.819 171.298 187.381L175.16 186.406C172.898 180.165 171.643 173.605 171.443 166.97H198.402C198.828 175.043 202.01 182.725 207.416 188.735L188.355 207.797C182.475 201.539 178.023 194.278 175.159 186.407L171.297 187.381C174.347 195.935 179.155 203.828 185.547 210.603L164.537 231.615C154.317 220.975 146.837 208.365 142.407 194.665L138.547 195.639C143.147 210.025 150.991 223.259 161.738 234.429L142.709 253.459C128.479 238.785 118.201 221.28 112.394 202.227L108.541 203.198C114.525 222.935 125.158 241.075 139.901 256.265L118.89 277.277C100.294 258.223 87.0118 235.354 79.7098 210.458L75.8168 211.438C83.4768 237.648 97.6068 261.675 117.455 281.518C130.896 294.963 146.259 305.784 162.915 313.758L164.887 310.26C149.124 302.748 134.543 292.625 121.697 280.083L142.707 259.073C153.454 269.52 165.914 278.047 179.544 284.282L181.504 280.804C168.347 274.834 156.179 266.602 145.518 256.267L164.545 237.239C173.463 245.819 183.702 252.544 194.79 257.255L196.75 253.783C185.98 249.263 176.02 242.763 167.36 234.443L188.372 213.431C195.124 219.801 202.984 224.598 211.505 227.651L213.491 224.134C205.184 221.256 197.581 216.651 191.181 210.624L210.242 191.562C216.296 196.992 223.888 200.135 232.007 200.58V227.539C225.698 227.345 219.456 226.197 213.491 224.135L211.505 227.652C218.093 230.01 225.012 231.311 232.007 231.508V261.221C219.711 260.975 207.797 258.429 196.758 253.798L194.799 257.27C206.44 262.218 219.014 264.942 232.007 265.193V292.102C214.301 291.829 197.201 287.937 181.513 280.819L179.553 284.296C195.838 291.738 213.609 295.797 232.008 296.072V325.784C208.406 325.501 185.628 320.15 164.897 310.274L162.924 313.772C184.834 324.259 208.984 329.803 233.994 329.803C260.227 329.803 285.504 323.673 308.252 312.163L306.374 308.52C285.159 319.265 261.276 325.475 235.976 325.786V296.073C256.035 295.776 275.344 290.968 292.79 282.193L290.935 278.597C273.873 287.2 255.081 291.817 235.976 292.1V265.191C251.026 264.901 265.511 261.291 278.633 254.745L276.789 251.167C264.099 257.505 250.158 260.939 235.976 261.22V231.507C245.561 231.227 254.788 228.92 263.186 224.809L261.356 221.252C253.437 225.121 244.785 227.263 235.976 227.536V200.58C244.05 200.154 251.734 196.971 257.744 191.562L276.785 210.605C272.203 214.905 267.001 218.494 261.355 221.252L263.186 224.809C269.202 221.864 274.74 218.029 279.612 213.432L300.59 234.411C293.549 241.168 285.524 246.818 276.788 251.167L278.632 254.745C287.738 250.206 296.1 244.308 303.432 237.253L322.417 256.237C313.119 265.246 302.503 272.786 290.935 278.598L292.79 282.194C304.73 276.192 315.681 268.4 325.266 259.088L346.225 280.047C334.532 291.46 321.088 301.071 306.374 308.52L308.252 312.163C323.877 304.259 338.145 293.92 350.522 281.533C363.744 268.314 374.413 253.228 382.347 236.888L382.33 236.85Z" fill="white"/>
<path d="M242.419 126.87L242.466 128.063L243.469 128.015L243.414 126.83L242.419 126.87ZM240.96 125.244H242.288V126.256H240.96V125.244ZM239.732 125.065L239.872 124.064L238.705 123.897L238.565 124.89L239.732 125.065ZM237.58 124.551L236.42 124.383L236.561 123.379L237.721 123.547L237.58 124.551ZM228 123.214H229.328V124.227H228V123.214ZM226.264 125.399L226.405 124.397L225.245 124.23L225.105 125.232L226.264 125.399ZM225.224 126.76L223.892 126.422L224.134 125.44L225.466 125.779L225.224 126.76ZM222.844 128.007L222.679 126.994L223.664 126.829L223.829 127.841L222.844 128.007ZM92.3539 233.717H93.3569L93.1839 231.189L91.8529 230.679V229.837H91.0229V231.523H92.3539V233.717ZM102.664 241.135L103.824 241.986L104.991 244.515L104.325 245.691L102.5 244.006L101.168 242.153L100.502 240.635L99.3339 237.597L101.826 238.774L102.664 241.135ZM142.228 291.752L141.06 292.428L140.395 291.418L138.734 290.909L138.569 289.391L137.237 287.363L139.235 287.705L141.39 289.558L142.228 291.752ZM228.833 137.722H227.005L226.672 134.012L227.67 133.334V131.479H221.85L221.685 129.625L222.518 129.118L221.187 128.612L220.189 129.96L219.859 131.479L218.196 131.818V132.66H217.033V134.852L212.377 138.732L203.069 138.397C202.401 139.914 200.739 138.227 200.739 138.227C200.409 137.215 198.082 138.227 198.082 138.227C198.082 140.084 194.924 137.384 194.924 137.384L189.104 133.165C185.78 130.129 180.794 134.01 180.628 134.852C180.794 137.215 176.805 135.359 176.805 135.359C176.805 135.359 173.481 134.348 172.981 135.698C172.484 137.046 170.319 136.711 170.319 136.711L169.986 137.385L168.323 137.722L167.993 138.733L165.997 139.073L170.983 138.903C172.313 138.734 170.483 141.772 169.653 141.603L167.329 141.772L166.495 142.614H164.335L163.338 143.966L160.181 143.796C160.181 143.796 158.351 145.315 158.519 145.82C158.685 146.327 158.186 147.846 157.686 147.846C157.187 147.846 156.19 149.363 156.523 149.869C156.857 150.376 155.526 152.063 155.526 152.063L155.195 153.752L154.198 154.087V158.643L152.202 159.993V162.017L149.208 165.223L149.542 167.921L147.05 170.621L147.38 173.321L145.884 173.827L145.554 175.007L144.889 178.549L146.551 178.719C147.38 178.381 147.215 180.913 146.551 181.249C145.884 181.587 144.055 182.26 145.055 182.934C146.053 183.612 142.395 183.442 142.395 182.429C142.395 181.419 140.399 180.574 139.902 180.912C139.402 181.248 138.57 179.394 138.57 179.394C136.742 177.539 131.09 179.562 131.09 179.562L130.256 182.261C128.43 182.6 127.266 185.636 127.266 185.636C125.77 186.143 124.607 187.996 125.106 188.503C125.604 189.01 124.273 189.178 124.273 189.178V192.891L123.443 194.071L123.607 198.119C124.607 198.119 124.441 199.977 124.441 199.977C122.778 200.145 123.108 202.339 123.108 202.339L119.619 203.519L118.955 204.531L114.633 204.361L113.47 205.543L112.303 204.361H103.992L103.662 203.518L101.999 203.178L101.831 201.325L99.3389 201.492L98.8409 202.505L96.1799 202.672C96.3459 204.36 93.5199 206.892 93.1899 206.219C92.8529 205.543 91.0259 203.685 91.8589 203.351C92.6909 203.011 94.8529 202.672 94.8529 202.672V201.492L88.6999 201.325L88.0369 202.338L85.5409 202.505V205.205L84.3789 205.543C83.5459 206.047 84.5429 207.905 84.5429 207.905C85.7069 209.085 84.3789 210.939 84.3789 210.939C83.3789 211.952 85.2079 213.81 85.2079 213.81C86.5389 214.145 84.3779 215.158 84.3779 215.158C84.7079 216.844 85.7079 217.351 85.7079 217.351C84.7079 219.037 86.3749 219.879 86.3749 219.879L86.5389 222.751L87.7029 223.426V225.278L88.3669 226.46H91.0269L90.8609 222.243C88.5329 219.543 92.8539 218.868 93.0229 219.878C93.1909 220.891 95.0189 221.398 95.0189 221.398C95.3519 223.93 98.1789 225.446 99.0069 222.918C99.8389 220.384 100.504 221.905 101.003 223.084C101.502 224.267 104.656 227.135 104.656 227.135H107.152L107.486 229.498C110.311 229.328 111.14 229.67 112.304 233.546C113.47 237.424 116.627 238.437 116.627 238.437L118.955 238.269C118.955 236.247 121.283 238.609 121.283 239.623C121.283 240.631 125.77 244.512 125.77 244.512L130.257 245.522L134.417 248.901L137.573 248.563H138.905C139.734 245.692 143.725 248.729 144.055 249.743C144.391 250.755 147.05 252.443 147.379 251.597C147.714 250.755 149.542 251.262 149.875 253.79C150.207 256.324 151.369 255.817 151.369 255.817L160.846 255.648L164.17 252.777L172.65 252.611C176.97 252.442 174.31 246.536 173.482 246.536C171.985 245.356 173.979 240.464 173.979 240.464L161.844 229.161C159.018 229.161 161.511 225.11 161.511 225.11C163.671 223.759 161.011 221.57 161.011 221.57C161.345 219.542 159.847 217.18 159.847 217.18C156.857 215.156 157.687 211.274 157.687 211.274V208.574C155.195 206.214 158.685 205.874 158.685 205.874C159.847 203.854 157.852 202.334 157.852 202.334L157.687 200.14L155.027 199.801L154.697 191.871L148.712 183.27C147.546 182.93 148.378 180.907 148.378 180.907C149.874 180.063 148.043 178.041 148.043 178.041L147.878 174.328L151.368 173.988L152.2 172.641H153.862L153.697 168.254C154.527 166.061 156.521 167.241 156.521 167.241L158.848 167.411L160.18 164.879L160.51 162.854L158.683 162.687C156.688 161.505 157.685 157.12 157.685 157.12C160.844 152.394 164.499 155.094 164.499 155.094L166.829 154.927C170.318 157.287 167.159 161.674 167.159 161.674C166.494 162.687 166.829 165.892 166.829 165.892L167.659 171.289L165.497 173.147C163.67 174.16 163.67 176.521 165.665 177.027C166.994 177.194 166.495 180.401 164.499 178.207C161.509 178.207 166.165 180.907 164.834 180.229C167.827 181.749 167.159 178.881 167.159 178.881L171.152 175.675C172.649 174.495 175.309 178.207 175.309 178.714C175.309 179.219 181.957 178.88 181.957 178.88C183.785 180.061 184.449 183.1 184.449 183.1C186.28 180.735 190.102 182.928 187.277 184.28C189.934 185.967 189.934 187.484 189.934 187.484C192.098 186.81 192.098 188.497 192.098 189.004C192.098 189.51 192.762 186.474 192.762 186.474C190.269 184.617 196.086 183.942 194.426 187.317L193.426 188.837L195.09 190.185L195.254 194.067C198.913 193.727 197.915 189.172 197.915 189.172L199.577 188.836C199.577 187.316 200.739 188.16 200.739 188.16C199.577 182.423 203.401 181.413 203.401 181.413C205.561 180.907 205.727 176.349 205.727 176.349C204.233 175.675 205.061 173.314 206.725 175.34C208.385 177.361 205.727 171.288 205.727 171.288L204.397 170.108L202.57 169.94L202.402 168.084H199.412L198.912 170.447L197.75 170.784L197.415 170.108L196.918 171.964H193.926L193.761 169.94L195.589 169.434L196.254 168.422L196.751 165.722H198.914L201.739 164.879C201.903 162.011 203.401 162.687 203.401 162.687L204.398 163.529L205.894 164.71L206.061 165.72L205.062 166.226L204.898 167.578L205.397 169.433H206.725C207.224 166.733 210.717 166.733 211.713 168.421L212.712 166.059C210.385 164.879 212.668 163.021 213.332 163.866C213.997 164.71 215.537 161.673 215.537 161.673C215.537 161.673 216.7 163.191 215.537 161.166C214.373 159.141 216.367 158.13 216.367 158.13C216.036 156.106 218.529 156.443 218.529 156.443L218.696 153.745L216.366 153.574C215.871 155.936 213.876 153.913 214.872 153.407C215.872 152.9 216.865 151.887 216.865 151.887V150.2L217.864 149.863L218.029 148.176H220.524L222.684 147.164L223.184 146.32L225.51 146.152L228.834 143.114L228.504 141.766C226.509 141.766 228.504 140.246 228.504 140.246L228.832 137.722H228.833Z" fill="white"/>
<path d="M161.839 171.12L158.846 170.783L159.014 171.963H159.844C161.172 174.326 160.01 180.061 160.01 180.061C160.01 180.061 158.017 180.228 157.683 179.218C157.353 178.206 156.519 181.412 157.183 181.918C157.848 182.422 160.177 181.918 160.343 183.775C160.507 185.629 161.839 182.593 161.839 182.593V171.12Z" fill="white"/>
<path d="M162.5 190.01L162.837 188.491L161.67 187.991L161.834 185.461L162.837 185.287L163.002 184.102L160.502 185.796L158.842 184.786V188.833L161.505 192.371L162.5 190.01ZM163.166 194.399L162.006 194.566L161.834 195.918L163.166 196.085V194.399ZM161.67 203.002L160.26 203.169V204.354L161.67 204.187V203.002ZM163.63 198.996C164.02 198.996 164.333 198.677 164.333 198.283C164.334 198.19 164.317 198.097 164.282 198.01C164.247 197.924 164.196 197.845 164.13 197.778C164.065 197.712 163.987 197.659 163.901 197.622C163.815 197.586 163.723 197.567 163.63 197.566C163.536 197.567 163.444 197.586 163.358 197.622C163.272 197.659 163.194 197.712 163.129 197.778C163.063 197.845 163.011 197.924 162.976 198.01C162.941 198.097 162.924 198.19 162.925 198.283C162.925 198.677 163.241 198.996 163.63 198.996Z" fill="white"/>
<path d="M164.79 202.54C165.182 202.54 165.5 202.222 165.5 201.83C165.5 201.438 165.182 201.12 164.79 201.12C164.398 201.12 164.08 201.438 164.08 201.83C164.08 202.222 164.398 202.54 164.79 202.54Z" fill="white"/>
<path d="M164.829 183.27C165.221 183.27 165.539 182.952 165.539 182.56C165.539 182.168 165.221 181.85 164.829 181.85C164.437 181.85 164.119 182.168 164.119 182.56C164.119 182.952 164.437 183.27 164.829 183.27Z" fill="white"/>
<path d="M222.51 162.01V158.806H221.515L221.35 157.621L219.517 157.454L219.187 158.297H218.357L218.185 159.649H219.188L219.352 160.659L218.687 161.334L218.357 162.177L217.026 162.519L214.033 165.389L213.868 166.733L213.038 167.918L212.043 170.446L208.549 170.613L207.883 173.651L208.376 176.179L211.369 177.364L211.706 175.678L212.701 175.169L212.873 173.484L213.531 172.299L214.534 171.122L214.864 169.77L216.524 168.76L218.522 168.419L219.352 167.409L219.689 165.389L219.807 163.871L220.52 162.853L222.51 162.01ZM225.998 169.1V166.738L225.663 164.544L223.173 163.364L221.345 165.051L221.011 167.414V168.931L219.349 169.269L219.014 173.824L217.686 174.331L217.853 176.018L214.197 177.03L213.864 179.223L212.536 180.066L211.867 182.091L211.037 186.984C211.037 186.984 212.535 189.852 213.365 188.502C214.197 187.153 215.525 186.984 215.525 186.984L216.025 185.802L220.513 185.971C220.846 184.113 223.007 184.791 223.007 185.634C223.007 186.477 224.67 185.801 224.67 185.801L225.832 183.946H227.659L227.826 181.923L228.658 181.416V178.378C231.319 177.535 230.984 175.005 230.984 175.005L231.653 174.162L231.319 172.982C229.987 172.475 230.651 171.292 231.483 171.63C232.317 171.967 230.32 170.111 230.32 170.111C229.323 170.957 228.494 169.1 228.494 169.1H225.998ZM228.658 189.51C228.493 191.534 225.998 192.21 225.998 192.21L224.17 191.704L223.173 190.86L223.006 188.497L224.501 188.33L224.834 189.343L228.658 189.51ZM237.638 178.72C237.998 180.191 237.968 176.355 238.633 176.526C239.297 176.694 238.801 174.166 238.801 174.166L235.808 176.356C237.304 176.526 237.468 178.046 237.638 178.72V178.72ZM246.448 169.94C247.112 171.46 246.948 173.653 249.438 175.34C250.28 175.909 248.939 177.028 248.106 176.52C247.276 176.015 244.952 172.301 244.952 172.301V170.109C245.45 168.76 246.16 169.286 246.448 169.94ZM248.606 220.721L247.611 220.379L246.451 221.229L246.945 221.731L247.439 222.574L248.606 220.721ZM242.288 218.53V220.56ZM267.659 215.243L267.127 214.392L265.803 215.227L266.328 216.086L267.659 215.243ZM314.438 251.26L315.936 251.933L316.1 254.801C318.097 256.825 324.58 255.139 324.58 254.632C324.58 254.125 324.245 248.391 324.245 248.391L323.412 247.546L323.248 243.326C323.912 241.133 320.088 237.926 319.757 238.606C319.424 239.278 317.263 238.77 317.263 239.447C317.263 240.12 315.935 243.495 316.599 244.677C317.263 245.859 316.099 245.859 315.934 247.039C315.769 248.219 314.105 250.247 314.438 251.26V251.26ZM310.778 244.51C310.463 245.788 309.285 246.534 308.62 246.027C307.951 245.52 309.447 246.869 309.782 247.547C310.114 248.22 311.11 248.22 311.445 247.547C311.775 246.868 311.61 245.354 311.945 244.679C312.275 244.003 310.945 243.835 310.778 244.509V244.51ZM303.048 213.56H304.21V216.767H303.048V213.56ZM320.258 181.08C319.533 180.097 323.582 178.38 324.247 180.406C324.911 182.428 324.247 182.093 323.582 181.924C322.915 181.754 321.256 182.429 320.258 181.08V181.08ZM323.66 159.474L325.485 159.808L325.665 158.814L323.832 158.48L323.66 159.474ZM319.178 160.221L317.941 160.921L316.859 160.237L316.334 161.087L317.666 161.931L317.917 162.09L318.167 161.946L319.171 161.382L319.296 161.692L320.22 161.318L319.883 160.476L319.672 159.943L319.178 160.221ZM325.408 120.34H322.913C322.913 120.34 323.745 120.677 321.42 118.483C319.089 116.291 317.596 118.99 317.596 118.99L314.936 119.327V122.027L313.604 122.532L313.772 124.22L315.6 124.052C315.6 124.052 315.6 126.076 316.1 125.233C316.6 124.389 320.755 125.4 320.421 127.426C320.286 128.258 324.579 130.461 324.081 133.16C326.241 133.499 325.742 135.693 325.742 135.693L328.567 136.03L329.4 134.343L330.23 134.512V133.499L328.398 132.993L328.068 127.593L326.905 126.75L327.236 125.4L325.908 124.893L326.573 122.701L325.408 120.34ZM332.718 137.55L331.389 137.383L328.393 137.889L326.734 141.094C326.734 141.094 327.564 141.6 328.227 142.781C328.892 143.963 329.226 150.878 327.231 152.061C325.238 153.242 327.399 152.565 327.399 152.565L327.064 156.277C327.564 157.965 328.393 157.123 328.892 156.277C329.395 155.437 329.894 155.267 330.558 154.423C331.223 153.578 332.219 152.061 332.386 150.879C332.551 149.699 333.383 147.844 332.883 147.337C332.386 146.831 333.383 144.47 333.383 144.47C333.383 144.47 334.048 143.118 333.383 141.77C332.719 140.419 333.549 138.9 334.048 138.225L332.718 137.55ZM334.728 144.433L334.898 143.083L335.89 143.211L335.72 144.561L334.728 144.433ZM334.668 149.095L333.778 148.642L334.277 147.631L335.167 148.083L334.668 149.095ZM333.218 135.7L332.551 134.18C332.551 134.18 332.551 132.833 332.883 132.155C333.218 131.481 332.219 130.808 331.722 130.638C331.222 130.468 331.39 129.12 331.222 128.444C331.057 127.77 329.895 127.264 329.895 127.264C329.895 127.264 329.559 124.734 329.559 124.228C329.559 123.722 328.064 123.048 328.563 122.54C329.063 122.034 329.396 121.36 329.895 121.021C330.394 120.684 329.395 118.321 330.225 118.828C331.057 119.335 331.057 120.178 331.39 120.853C331.722 121.527 331.223 123.89 332.055 124.397C332.885 124.901 331.887 126.587 333.218 126.587C334.547 126.587 333.718 129.795 333.718 129.795C333.718 129.795 333.383 132.155 334.213 132.325C335.046 132.494 334.548 136.543 334.548 136.543L333.218 135.7ZM322.418 108.36C322.915 109.034 323.913 109.54 323.913 110.217C323.913 110.892 323.581 111.397 324.58 111.566C325.575 111.734 326.242 111.396 326.573 112.24C326.906 113.083 326.906 114.433 326.741 115.108C326.573 115.784 326.906 116.795 327.736 116.795C328.569 116.795 328.734 116.965 328.734 117.471C328.734 117.976 329.732 115.614 329.732 115.614C328.899 114.94 328.234 113.42 328.234 113.42C328.234 113.42 327.404 111.059 327.404 110.722C327.404 110.384 326.242 110.046 325.744 109.878C325.244 109.708 324.411 108.191 324.411 108.191L322.418 108.361V108.36ZM324.078 106.85C323.578 106.173 323.079 105.668 322.415 105.332C321.752 104.993 321.253 104.656 320.585 104.656C319.921 104.656 319.258 103.98 319.587 103.138C319.922 102.294 319.087 101.957 319.087 101.281C319.087 100.607 319.587 100.607 320.419 101.113C321.252 101.62 321.084 101.787 321.752 102.633C322.415 103.475 322.746 104.319 323.41 104.15C324.078 103.98 324.576 105.668 325.24 105.162C325.905 104.656 325.74 106.342 325.74 106.342L324.078 106.85ZM304.628 125.91C305.545 126.842 299.642 126.583 299.642 125.91C299.642 125.236 300.142 122.875 301.635 123.378C303.132 123.886 303.296 120.343 303.296 120.343C303.296 120.343 301.968 120.51 303.132 119.836C304.295 119.162 303.132 118.149 302.632 117.643C302.134 117.136 301.635 116.293 301.635 116.293H303.965C304.963 115.617 305.292 112.413 305.292 112.413C307.286 113.087 308.284 111.737 308.284 111.737C308.284 111.737 308.621 112.749 309.284 113.595C309.949 114.437 307.619 114.775 308.451 115.282C309.285 115.788 309.615 117.305 309.285 117.81C308.95 118.317 307.119 117.98 307.119 117.305C307.119 116.63 306.455 118.149 307.119 118.993C307.784 119.836 306.289 121.016 305.956 121.016C305.623 121.016 303.466 121.355 305.292 122.366C307.119 123.378 309.118 122.874 309.118 122.874C309.118 122.874 310.613 122.704 311.111 123.549C311.611 124.392 310.946 124.561 310.115 124.561C309.285 124.561 305.293 124.222 305.293 124.222C305.293 124.222 304.13 125.404 304.628 125.91V125.91ZM293.988 127.43C294.822 127.261 296.812 127.091 297.147 127.598C297.481 128.103 295.983 128.778 295.983 128.778L293.988 129.116C293.324 128.272 293.158 127.599 293.988 127.43V127.43ZM315.438 113.26C316.767 112.586 319.592 112.586 319.427 111.573C319.262 110.561 321.088 110.223 321.088 110.223L321.588 112.247L323.084 113.259L323.251 115.115C323.251 115.115 323.748 114.778 321.921 115.285C320.091 115.791 321.257 116.633 321.257 116.633L317.266 116.802L316.766 115.114L315.438 113.26ZM308.948 104.15C309.958 104.15 308.618 108.03 311.274 107.693C313.934 107.354 311.444 108.873 313.436 109.042C315.432 109.212 314.933 107.524 315.597 106.344C316.264 105.163 315.932 104.487 314.767 104.15C313.601 103.813 313.601 103.813 313.271 102.461C312.94 101.113 311.609 100.774 311.609 100.774L311.109 98.7509L308.948 100.1L306.788 102.968C306.788 105.163 307.95 104.15 308.948 104.15V104.15ZM313.348 118.406L313.848 117.394L314.742 117.848L314.242 118.86L313.348 118.406ZM311.608 116.8H312.606V117.981H311.608V116.8ZM312.447 94.3199L312.614 95.8379L311.623 95.9499L311.455 94.4339L312.447 94.3199ZM309.618 110.05H310.616V110.895H309.618V110.05ZM307 110.033L306.902 109.024L308.565 108.858L308.663 109.866L307 110.033ZM293.286 126.258L292.372 125.859L292.872 124.679L293.785 125.077L293.286 126.258ZM288.068 123.187L287.971 122.182L289.636 122.015L289.733 123.02L288.068 123.187ZM255.571 123.042L255.618 124.052L259.268 123.885L259.222 122.875L255.571 123.042ZM253.123 124.34L252.792 122.823L253.767 122.604L254.098 124.12L253.123 124.34ZM252.424 125.385L252.109 124.425L252.607 124.256L252.922 125.217L252.424 125.385ZM260.738 122.54L260.573 123.72L262.399 123.89C262.399 123.89 263.229 124.566 263.229 125.07C263.229 125.577 264.395 126.082 265.059 126.082C265.724 126.082 267.552 124.732 267.552 124.732C267.552 124.732 268.384 122.37 267.72 122.538C267.053 122.706 265.724 123.719 265.56 122.706C265.39 121.694 263.399 122.2 263.399 122.2L260.738 122.54ZM269.048 120.68C269.048 121.185 268.718 121.86 269.712 122.03C270.714 122.197 272.542 121.356 272.707 122.367C272.875 123.379 272.875 124.056 274.203 124.563C275.531 125.067 276.365 125.237 277.362 125.237C278.357 125.237 280.522 124.897 280.522 124.897C280.522 124.897 282.873 125.265 283.346 125.742C285.174 127.597 286.336 128.103 286.836 127.26C287.334 126.416 286.67 124.562 286.505 123.887C286.337 123.21 284.009 120.005 283.178 120.68C282.348 121.356 282.182 120.68 280.685 121.185C279.189 121.691 276.03 121.355 275.865 120.68C275.7 120.004 273.373 119.67 273.373 118.993C273.373 118.317 271.712 117.475 271.876 118.486C272.041 119.498 270.714 120.004 270.376 119.669C270.046 119.331 269.048 120.68 269.048 120.68V120.68ZM307.288 99.0799L308.454 95.3699C306.793 95.0319 307.123 93.1779 307.123 93.1779C306.957 91.6579 304.631 89.9719 303.799 90.4779C302.969 90.9829 303.299 86.9339 303.299 86.9339C303.299 86.9339 304.797 85.9239 305.461 86.4289C306.126 86.9339 299.811 77.9939 298.479 78.8369C297.15 79.6809 294.16 77.9939 294.325 76.4739C294.491 74.9569 288.341 69.8939 288.341 69.8939C288.341 69.8939 286.345 68.5469 286.014 69.5589C285.681 70.5699 285.017 71.2459 286.014 71.7499C287.01 72.2579 286.844 70.9079 288.006 72.0869C289.17 73.2679 291.333 74.7869 290.501 75.7999C289.669 76.8139 288.671 77.1499 288.671 77.1499L289.837 78.4999H291.665L291.998 81.3669C291.998 81.3669 293.991 82.3799 294.491 83.5609C294.99 84.7409 294.99 85.4169 294.491 86.0929C293.991 86.7669 292.998 87.9479 293.162 89.1269C293.327 90.3079 294.658 90.8149 294.658 90.8149L295.986 90.9849L296.986 91.4909V93.6859C298.313 93.3469 300.474 95.2009 300.309 96.3839C300.144 97.5639 300.639 96.8889 302.302 98.0709C303.966 99.2509 303.468 99.4209 304.631 100.265C305.795 101.105 306.793 100.6 307.288 99.0799V99.0799Z" fill="white"/>
<path d="M279.859 76.1402C279.694 75.4642 279.359 73.1011 280.358 73.2701C281.355 73.4401 280.691 73.2701 281.854 73.7771C283.018 74.2841 283.184 72.9341 283.184 72.9341H285.014L287.339 74.7881L287.006 76.3082L285.344 76.4751C284.514 75.1271 282.851 75.6331 283.184 76.8151C283.516 77.9951 282.354 80.1881 281.69 80.3551C281.025 80.5251 278.86 80.5251 279.03 79.5141C279.195 78.5011 279.859 76.1402 279.859 76.1402V76.1402ZM278.529 71.5801V70.2311C278.529 70.2311 278.359 68.8821 277.531 68.8821C276.702 68.8821 275.205 67.8711 275.535 67.1951C275.87 66.5191 272.71 65.8451 272.71 65.8451C272.71 65.8451 269.886 63.1451 270.883 63.4851C271.881 63.8211 271.383 62.3021 271.383 62.3021C271.383 62.3021 269.386 62.6391 268.887 62.4721C268.387 62.3021 268.553 60.7841 268.553 60.7841C268.553 60.7841 266.561 60.2781 266.561 60.7841C266.561 61.2911 267.226 61.2911 267.555 62.3011C267.89 63.3131 267.724 65.0012 269.222 65.3382C270.718 65.6762 271.048 66.0121 271.217 66.6881C271.383 67.3641 273.21 67.5311 273.21 67.5311L274.541 68.2061L278.529 71.5801ZM260.085 53.0241L258.753 52.6901V54.2101L260.578 54.3761L260.085 53.0241ZM260.079 47.2901C258.341 45.9701 262.404 48.3031 262.404 48.3031C263.733 48.3031 264.564 49.3151 264.564 49.8231C264.564 50.3281 266.394 50.1601 266.394 50.1601L266.563 48.9771L265.23 47.2901L264.068 46.4491C264.068 46.4491 262.24 46.2791 262.24 45.7731C262.24 45.2681 260.743 47.7971 260.079 47.2901V47.2901ZM290.659 48.3001C290.173 49.7761 289.995 51.8441 289.163 51.8441C288.333 51.8441 288.663 54.0391 288.663 54.0391C288.663 54.0391 290.828 54.0391 291.493 54.2061C292.155 54.3731 292.155 56.0601 292.155 56.0601C294.651 55.8931 295.649 59.2671 295.315 60.1101C294.981 60.9531 296.312 60.9531 296.312 60.9531C296.312 60.9531 296.312 63.6531 295.978 64.3271C295.648 65.0031 298.14 65.5091 298.804 66.5211C299.469 67.5341 298.47 70.9071 297.974 71.0761C297.474 71.2461 299.301 71.7501 299.136 72.5941C298.968 73.4391 299.636 72.5941 299.801 73.9441C299.966 75.2941 300.301 78.1611 300.301 78.1611L302.626 78.3311C302.96 76.1391 307.246 76.0541 307.946 76.3061C310.772 77.3181 312.936 81.7051 312.936 82.7161C312.936 83.7281 311.105 83.8991 311.105 83.8991L311.439 88.7891C314.264 89.6341 316.591 93.6841 316.26 94.3591C315.927 95.0331 318.252 94.8661 318.252 94.8661C318.587 91.8261 321.412 92.8401 321.576 93.8531C321.746 94.8661 322.242 97.0591 322.242 97.0591L323.074 98.5751L324.237 99.7561L326.065 99.5882L326.565 100.601L328.725 100.94C328.725 100.94 330.556 102.962 330.721 103.47C330.889 103.974 333.381 103.807 334.045 103.974C334.709 104.144 335.708 104.65 335.873 105.494C336.041 106.338 337.039 107.687 337.039 107.687C337.039 107.687 339.032 108.194 339.199 108.867C339.365 109.541 340.198 111.06 340.198 111.06L341.856 112.41L342.024 113.93L343.852 114.099L344.352 116.121L347.342 115.954L349.007 114.773C351.167 113.593 352.664 112.073 352.831 111.398C352.995 110.723 353.328 108.194 354.991 108.7C356.652 109.206 355.491 104.987 355.491 104.987C355.491 104.987 353.164 103.3 353.328 102.455C353.495 101.613 351.003 99.9271 351.168 99.2511C351.333 98.5751 349.007 97.2271 349.172 96.5521C349.337 95.8761 348.009 94.0201 348.009 94.0201L345.514 91.6601L345.181 90.1402L343.188 89.9731L339.199 85.0801L339.364 83.7291L338.201 83.5611V81.7061L337.039 81.0301L335.209 80.8611L331.553 76.8141L331.22 74.9571H329.392L329.723 71.4131C330.888 69.8941 330.222 67.0271 330.222 67.0271C330.222 67.0271 327.892 68.2071 326.732 67.7011C325.566 67.1971 327.229 66.0141 327.229 66.0141V64.6651L326.233 63.6532C326.233 63.6532 323.405 63.9921 323.24 63.4861C323.074 62.9791 322.576 60.7861 322.576 60.7861L322.409 57.9161L321.247 57.4131L321.078 56.3991L319.252 56.5671V54.5431L318.253 54.2061L317.257 53.7001L317.091 51.6741L313.433 51.5071L312.27 49.8201L310.941 47.7951L306.785 47.4581L305.787 46.4481L304.125 46.1081L302.962 45.6021L302.463 46.4471L299.303 46.6141L299.139 47.6271C297.477 48.4701 290.829 47.7941 290.659 48.3001V48.3001ZM308.119 43.9201C307.856 42.5881 311.446 41.3901 312.276 42.4001C313.109 43.4131 315.435 43.5841 315.768 48.6451C315.885 50.4571 312.775 46.7901 312.775 46.7901L310.28 45.9461C308.951 45.6071 308.284 44.7661 308.12 43.9201H308.119ZM259.362 45.9811L258.454 45.5711L259.121 44.0511L260.029 44.4621L259.362 45.9811ZM250.769 29.4101L248.604 27.2161V25.3611L247.939 24.6841L247.275 22.3241L245.115 21.6491L242.953 22.4911L240.626 24.0101L238.134 24.3501L236.802 25.8661L242.122 26.3701L243.118 28.0601L246.945 28.3971L249.435 30.9271C251.601 31.6031 252.098 30.5901 250.769 29.4101V29.4101ZM250.439 21.1401C250.073 19.6571 247.944 22.9951 250.109 23.6681C252.269 24.3471 254.427 23.6681 254.427 23.6681L254.927 22.6571L263.237 22.8271C263.905 22.1511 264.235 21.1391 264.235 21.1391C264.235 21.1391 266.231 20.4631 267.06 20.8001C267.892 21.1401 267.229 18.4401 266.395 18.7771C265.565 19.1141 263.904 18.9451 263.904 18.9451H260.91C260.745 17.7651 258.085 18.2701 257.92 18.9451C257.75 19.6201 256.757 19.7881 256.757 19.7881L252.933 20.1271C252.6 21.1401 250.607 21.8141 250.439 21.1401ZM233.979 49.6101C236.535 50.4211 237.469 49.8201 237.638 49.1461C237.803 48.4711 237.968 48.3011 238.966 48.1341C239.963 47.9641 238.799 45.9411 237.803 46.1091C236.804 46.2781 235.807 45.7721 235.643 44.9291C235.473 44.0861 233.811 41.8921 233.646 43.5791C233.48 45.2671 232.483 45.2671 232.648 46.4481C232.816 47.6261 233.315 49.3971 233.979 49.6101ZM214.869 51.5101C214.749 50.9131 218.193 50.8361 218.693 51.3401C219.193 51.8471 218.858 52.6901 220.355 52.6901C221.849 52.6901 221.185 53.7031 221.019 54.2101C220.854 54.7151 219.193 54.5471 219.023 54.0421C218.858 53.5351 216.363 53.3641 216.363 53.3641C216.363 53.3641 215.034 52.3511 214.869 51.5101ZM270.019 17.7701L270.363 17.4861L272.032 16.1361L271.405 15.3461L270.089 16.4111L269.243 15.5511L268.538 16.2661L269.698 17.4471L270.019 17.7701ZM262.505 13.3001L264.339 12.1181L263.806 11.2651L262.239 12.2751L261.173 11.6011L260.649 12.4591L261.98 13.3011L262.239 13.4711L262.505 13.3001ZM257.335 49.5821L258.173 49.0411L257.013 47.1881L256.88 46.9821L256.637 46.9581L254.977 46.7831L254.875 47.7931L256.3 47.9361L257.335 49.5821ZM201.899 94.0201L202.069 95.8772H204.559C205.558 95.8772 203.729 94.6962 203.729 94.6962C203.729 94.6962 201.735 94.8661 201.899 94.0201V94.0201ZM205.069 94.0751L205.706 93.2952L206.703 94.1351L206.066 94.9151L205.069 94.0751ZM174.781 62.5111L175.488 61.7952L176.485 62.8082L175.778 63.5241L174.781 62.5111ZM222.369 281.311L223.2 280.469L223.686 279.976L223.067 279.658L221.407 278.815L220.96 279.721L222.001 280.246L221.657 280.596L222.369 281.311ZM209.756 269.218L210.336 268.398L209.694 267.93L210.195 267.508L209.56 266.729L208.558 267.572L208.064 267.993L208.589 268.375L209.756 269.218ZM333.806 235.503C333.586 234.643 332.616 234.291 332.507 234.255L332.19 235.217V235.211C332.269 235.241 332.384 235.301 332.5 235.377L332.703 236.252C332.636 236.354 332.562 236.451 332.483 236.544L333.215 237.229C333.748 236.635 333.945 236.059 333.806 235.503V235.503ZM333.717 232.197L333.842 230.679L335.464 230.933L335.339 232.317L333.717 232.197ZM373.866 219.163C374.576 218.713 375.486 217.896 375.362 219.797C375.236 221.694 374.489 221.063 373.866 221.694C373.243 222.328 372.869 219.797 373.866 219.163ZM382.326 212.003C382.312 211.97 382.303 211.853 382.296 211.768C382.274 211.489 382.238 211.11 382.041 210.712L381.15 211.164C381.26 211.39 381.282 211.629 381.301 211.858C381.326 212.153 381.359 212.491 381.642 212.705C381.821 212.841 382.046 212.88 382.315 212.828L382.125 211.848C382.201 211.861 382.302 211.931 382.326 212.003V212.003ZM380.106 212.833C380.285 213.536 380.499 214.229 380.746 214.911L381.681 214.555C381.674 214.546 381.311 213.557 381.072 212.585L380.106 212.833ZM376.476 216.813L375.483 216.713C375.405 217.51 375.595 218.493 376.38 218.653L376.576 217.661C376.583 217.661 376.592 217.667 376.594 217.667C376.514 217.595 376.44 217.187 376.476 216.813V216.813ZM372.106 196.683C372.084 196.528 372.023 196.381 371.927 196.257C371.832 196.132 371.706 196.034 371.561 195.973C370.823 195.649 369.579 196.186 368.969 196.6L369.521 197.442C370.152 197.015 370.981 196.809 371.166 196.903C371.149 196.897 371.126 196.867 371.12 196.848L372.106 196.683ZM326.066 142.783C325.402 143.459 323.906 143.796 323.906 143.796L323.406 145.652L322.576 146.326C322.576 146.326 322.741 146.832 322.576 148.013C322.41 149.193 320.913 149.869 320.913 149.869L320.249 150.713C320.249 150.713 316.242 150.93 315.761 150.713C314.264 150.038 315.263 148.013 316.261 148.182C317.256 148.352 316.092 145.313 316.092 145.313L317.424 145.145C317.424 145.145 317.588 142.107 318.088 142.107C318.588 142.107 317.923 141.096 317.255 140.589C316.591 140.085 315.761 138.398 315.093 138.566C314.429 138.733 311.769 138.566 311.769 138.566L311.27 139.579L309.44 139.915C309.44 139.915 309.598 141.22 309.279 141.603C308.277 142.783 304.457 145.313 306.117 141.097L306.614 140.086V138.566L303.625 138.399C303.625 138.399 302.129 137.892 302.129 137.217C302.129 136.542 301.962 135.7 301.962 135.7L298.47 131.82L294.316 131.314L293.982 130.469L291.492 130.132C288.497 128.615 285.836 129.963 286.336 132.494C286.835 135.027 287.664 136.038 286.005 136.038C284.34 136.038 284.009 134.688 284.009 134.688C284.009 134.688 282.681 134.181 282.681 134.856C282.681 135.532 282.181 136.881 282.681 137.556C283.177 138.229 282.013 139.242 281.514 138.736C281.019 138.229 279.688 136.714 280.021 136.207C280.352 135.701 277.691 132.494 280.352 131.989C283.013 131.482 280.186 129.963 281.185 129.628L282.513 128.952H283.842L284.674 128.276L282.514 127.941L281.185 127.771L278.69 127.603C276.198 129.29 275.7 131.315 275.7 131.315C274.368 133.845 271.212 130.302 272.376 128.953C273.538 127.603 268.718 128.783 267.886 129.458C267.053 130.133 264.56 129.796 264.56 129.796C264.063 131.316 261.736 129.629 262.4 128.616C263.065 127.603 263.065 126.928 263.065 126.928L262.235 126.759L261.238 128.615C258.911 128.615 258.244 129.963 258.742 130.808C259.241 131.65 258.078 130.639 257.744 131.82C257.414 133 257.913 133 258.911 133.507C259.909 134.014 258.411 134.014 259.076 134.856C259.74 135.701 261.736 134.856 260.573 136.038C259.41 137.218 257.08 136.714 257.08 136.714C256.915 138.229 253.756 137.894 253.426 137.388C253.091 136.882 250.6 133.844 250.6 133.844L247.437 133.676C247.107 131.316 248.935 132.496 249.6 130.639C250.268 128.783 250.6 125.748 250.6 125.748C250.6 125.748 247.937 125.579 247.772 126.422C247.607 127.266 245.944 127.772 245.944 127.772C245.944 127.772 244.613 128.277 245.112 128.952C245.612 129.629 244.114 129.963 244.114 129.963C244.114 129.963 244.374 131.053 243.949 131.483C242.621 132.833 239.293 131.65 238.797 131.145L236.801 130.301L234.805 128.952L232.479 129.962L231.815 130.639H229.32L229.155 132.661L233.643 133.166L233.976 137.342L232.146 136.712H230.982L230.485 135.699L229.486 135.529V139.24L230.485 140.085L231.317 140.926L232.98 141.096L233.313 143.119L237.466 143.29L237.966 144.132L240.461 144.302L245.281 149.192L244.948 150.712L244.115 151.218C244.45 152.399 241.957 151.725 241.957 151.725V152.735L243.117 152.905L244.284 153.578L245.944 150.711C247.773 149.531 248.602 151.218 248.771 152.23C248.936 153.242 247.938 153.073 247.938 153.073V155.437L248.936 155.772C250.601 157.797 248.272 158.979 248.272 158.979L247.772 160.665C247.272 162.184 245.445 161.845 245.445 161.845L244.782 162.858L242.784 163.365L246.731 163.87C247.107 162.52 248.101 162.183 248.601 162.858C249.101 163.534 249.101 164.715 249.101 164.715L250.101 164.883L249.932 166.738L250.931 167.077V172.475L252.094 173.825C254.089 172.983 254.089 174.332 253.09 175.005C252.094 175.678 252.757 178.717 252.757 178.717L251.927 179.559V180.91L250.93 181.585V183.44C249.267 182.597 247.271 182.932 246.771 183.44C245.278 182.427 242.119 182.765 242.119 183.61C243.115 184.96 240.957 185.297 240.957 185.297L239.791 186.647C240.624 188.334 238.962 188.501 238.962 188.501V191.708L236.966 193.564L237.134 197.95C237.134 199.131 239.626 199.299 240.124 198.625C240.623 197.95 242.619 199.975 242.619 199.975H244.112L244.447 196.937L243.448 196.431V191.538L245.111 189.681C247.107 189.007 246.442 194.071 246.442 194.576C246.608 196.431 247.436 196.263 248.27 195.924C249.932 195.25 248.6 197.783 247.272 197.612C245.943 197.445 246.772 199.299 246.772 199.299L247.606 199.638L246.108 200.818L244.781 202.338L243.115 201.83L241.123 201.664L240.458 200.48L239.292 200.312L239.126 202.672L238.296 203.685L236.301 205.712C238.962 205.712 235.967 207.564 235.303 207.564C236.799 208.071 235.138 209.591 231.315 208.411V209.59L229.983 209.76L231.15 211.107L232.477 211.277L231.978 214.144C231.978 216.337 226.494 214.817 225.994 214.313L225.828 217.35L224.83 217.516L224.996 219.543L224.83 222.412L226.658 222.074V223.256L231.148 223.425L237.632 216.505L241.454 215.664C241.785 213.974 243.446 216.002 243.446 216.002C245.11 215.829 245.443 217.012 245.443 217.012L247.605 217.35C249.431 217.858 248.327 218.035 248.435 218.702C248.599 219.712 249.431 219.375 249.431 219.375L249.766 217.182L250.764 217.35L249.766 216.169L247.935 215.324L245.942 214.482C244.61 212.627 246.274 212.964 247.605 213.134H249.765C249.765 213.134 252.261 216.506 252.261 217.35C252.261 218.196 253.424 218.364 253.424 218.364L254.917 218.194L255.417 219.374H256.913L257.413 220.384H260.405L260.571 218.867L257.742 218.364L257.578 216.674L255.585 216.168C254.917 213.302 256.081 212.458 256.913 213.809L257.91 213.974L257.577 211.444L258.74 211.106L258.408 207.562L257.412 207.227V206.045L261.565 206.217C261.235 204.02 261.733 203.009 261.733 203.009H262.896L263.062 203.855L268.148 204.335L271.744 200.21C271.563 199.895 272.105 199.702 271.71 199.298C271.21 198.792 270.544 199.298 269.71 198.792C268.88 198.289 269.71 195.418 269.545 194.744C269.379 194.07 272.374 193.054 271.875 194.575C271.375 196.095 271.875 196.769 271.875 196.769C274.035 194.744 275.864 196.936 275.699 197.443C275.529 197.949 276.86 198.456 277.69 197.949C278.523 197.443 279.52 199.469 279.187 200.479C278.853 201.49 275.864 201.323 275.699 200.31C275.529 199.297 275.029 199.636 274.701 200.143C274.366 200.649 272.873 200.985 272.041 200.478C271.871 200.376 271.791 200.291 271.744 200.209L268.148 204.334L268.381 204.358C270.374 205.541 269.379 207.058 268.716 207.396C268.048 207.733 266.885 207.733 266.885 207.733L266.555 208.409L262.232 208.745L261.898 210.434C259.737 210.093 258.908 212.457 259.406 213.636C259.906 214.816 259.406 215.829 259.406 215.829L261.235 216.674L263.56 216.002C263.895 214.312 265.388 213.974 266.72 212.964C268.048 211.951 270.211 214.816 269.544 216.168C268.88 217.516 268.88 218.023 268.88 218.023L269.044 219.543L267.384 220.216L266.054 220.892L265.885 221.736H261.399L260.569 222.578L258.407 222.751L257.739 223.761L256.246 223.931C256.246 223.931 253.751 225.112 254.75 226.461C255.747 227.812 250.595 227.643 249.428 225.786C249.095 227.471 247.268 225.954 247.268 225.954L245.44 225.447L245.275 222.919C244.942 221.23 241.783 221.23 241.951 222.413C242.116 223.594 235.964 222.919 235.964 222.919L233.97 223.888L232.14 224.944L231.975 225.786L228.981 226.123L227.653 226.799L227.155 225.786H225.825L224.495 227.644C221.005 227.814 217.68 229.837 218.012 230.681C218.345 231.523 216.684 232.371 216.684 232.371L215.186 232.871L214.191 234.391L212.196 235.067L211.861 238.611L210.866 239.284V240.804L209.7 241.139V241.984L208.039 242.153L209.034 244.684L210.368 245.36C212.695 245.695 211.696 248.566 211.696 248.566L213.024 248.732L213.692 250.587L215.02 253.287C215.52 255.314 217.016 254.807 217.68 254.638C218.345 254.472 219.008 256.662 219.008 256.662L225.657 256.832C225.657 256.832 225.327 257.507 226.49 257.844C227.652 258.179 235.3 258.52 235.634 258.014C235.299 256.494 239.787 256.156 241.618 257.506C243.444 258.854 245.938 258.014 245.938 258.014L248.432 261.047L250.097 264.76L252.922 265.602L254.915 266.11L255.582 268.978L257.076 269.147L257.576 271.004C259.406 272.353 257.076 275.222 257.076 275.222V278.932L258.406 279.608L258.239 280.959L260.403 283.149L262.895 283.321L269.213 290.068L274.198 291.585L275.028 294.285L276.361 294.116L277.357 293.274L281.346 293.105L283.342 291.247L285.502 290.912L303.954 275.222L302.29 274.208V270.498C305.282 268.306 305.448 264.423 302.623 264.086C300.479 263.83 301.461 261.555 303.456 261.218L304.618 260.714V259.194L308.441 255.653V252.953L300.132 246.033C296.473 244.686 300.132 236.586 302.622 236.755C305.118 236.922 302.458 224.271 302.458 224.271L301.126 223.598L301.461 219.547H299.633L296.64 223.429L295.81 226.126C295.477 229.673 285.17 228.994 284.67 228.488C284.17 227.981 280.681 226.464 280.681 226.464C280.681 226.464 278.021 224.271 277.523 224.947C277.023 225.623 274.698 224.102 274.698 224.609C274.698 225.116 272.538 223.43 272.538 223.43L269.214 222.248L271.709 221.74L271.209 219.717L275.527 221.91C276.027 222.582 278.187 222.417 278.187 222.417L278.852 223.261C278.852 223.261 280.184 223.09 281.018 224.104C281.848 225.117 286.168 224.273 286.168 224.273L287.331 225.283L289.159 225.959L294.314 226.129L294.479 222.925L295.477 221.912L295.311 219.885L296.474 218.875V217.189L297.472 216.851L297.637 213.141L298.467 212.972V204.873L295.974 202.51C295.81 203.355 293.15 203.355 293.15 203.355C293.15 203.355 292.485 204.535 291.986 204.535C291.489 204.535 292.652 206.051 292.318 207.065C291.986 208.075 290.655 208.075 290.655 208.075L288.16 208.752L287.496 209.597H284.836L284.506 207.404L287.496 206.559L289.157 205.717L289.99 204.027C290.155 202.343 292.15 202.51 292.15 202.51C292.15 202.51 295.974 199.304 296.14 197.788C296.309 196.269 297.637 192.051 299.963 192.051H304.286C305.947 191.374 305.449 189.182 305.449 189.182L307.611 188.847L307.944 190.027C307.944 190.027 310.937 190.364 311.268 189.858C311.602 189.354 312.266 188.171 313.098 188.678C313.929 189.183 316.588 187.496 316.588 187.496C316.754 186.315 320.91 186.821 320.91 186.821L321.41 185.304C321.41 185.304 318.585 181.424 318.086 181.424C317.586 181.424 314.927 179.059 314.593 179.904C311.937 179.23 312.101 175.517 312.101 175.517L311.103 173.157C311.103 171.805 308.613 168.937 308.11 169.277C305.615 167.421 307.446 165.227 308.11 165.058C308.775 164.891 310.44 162.528 310.44 162.528L311.27 160.165L314.095 159.325L314.428 157.13L312.935 156.961C312.935 156.961 314.595 153.924 315.427 153.924C316.26 153.924 321.745 153.924 322.24 153.585C322.74 153.25 323.736 150.55 323.736 150.044C323.736 149.537 325.069 149.368 325.565 149.198C326.064 149.031 327.227 147.681 327.56 147.006C327.893 146.326 326.732 142.108 326.065 142.783H326.066Z" fill="white"/>
<path d="M233.98 203.6C234.23 203.35 234.48 204.36 234.978 204.234C235.473 204.107 235.725 205.12 235.228 205.12C234.728 205.12 234.728 205.754 234.728 206.007C234.728 206.26 234.728 206.891 234.353 207.271C233.979 207.651 233.603 207.397 233.104 207.145C232.607 206.892 232.36 206.892 231.734 206.892C231.112 206.892 231.608 207.905 231.608 207.905C231.608 207.905 228.99 207.778 229.489 207.397C229.989 207.021 230.487 206.891 230.115 206.637C229.739 206.384 230.115 206.133 230.115 205.627C230.115 205.119 231.362 205.374 230.985 204.993C230.614 204.613 230.993 203.145 231.608 203.98L231.984 203.093C231.608 202.714 231.86 202.586 231.112 202.337C230.364 202.084 230.985 200.564 230.985 200.564L231.112 199.552C231.361 198.289 233.853 198.161 233.979 199.298C234.102 200.438 233.979 201.198 233.979 201.198L234.729 201.449C234.729 201.449 234.602 202.212 233.979 202.212C233.353 202.212 233.979 202.587 233.604 202.969L233.98 203.599V203.6ZM225.75 204.87C226.125 204.11 226.996 200.82 227.995 201.833C228.989 202.846 229.615 201.833 229.615 201.833C229.615 201.833 230.114 202.341 229.864 203.353C229.614 204.363 229.364 205.377 228.739 205.503C228.118 205.63 227.618 206.01 226.873 206.137C226.126 206.264 225.75 204.87 225.75 204.87Z" fill="white"/>
</svg>
