<svg width="95" height="97" viewBox="0 0 95 97" fill="none" xmlns="http://www.w3.org/2000/svg">
<path d="M93.8503 54.1595L92.0266 51.6618C90.52 49.6002 90.5002 46.8051 91.9671 44.7038L93.7512 42.1863C95.8128 39.2525 94.8613 35.1887 91.6896 33.4839L88.9738 32.017C86.714 30.8078 85.4849 28.2903 85.9012 25.7727L86.4166 22.72C87.0113 19.1915 84.3749 15.9206 80.7869 15.7819L77.6945 15.6431C75.1373 15.544 72.9369 13.7996 72.2233 11.3415L71.3709 8.36802C70.3797 4.91879 66.5935 3.13471 63.283 4.56197L60.4483 5.79101C58.0894 6.80199 55.3736 6.20729 53.649 4.28445L51.5874 1.98496C49.1888 -0.691161 45.0061 -0.651515 42.6471 2.04443L40.6252 4.38356C38.9402 6.30641 36.2244 6.96057 33.8655 5.98924L31.011 4.81967C27.7005 3.45188 23.9341 5.29543 22.9826 8.76448L22.1698 11.738C21.5157 14.2357 19.3549 15.9999 16.7978 16.1387L13.7053 16.3171C10.1174 16.5153 7.54035 19.8258 8.19451 23.3345L8.74956 26.3674C9.20549 28.885 8.0161 31.4223 5.77609 32.6514L3.08014 34.1579C-0.0519139 35.9024 -0.963778 39.9859 1.1573 42.8801L2.98103 45.3778C4.48759 47.4394 4.50741 50.2345 3.0405 52.3358L1.25641 54.8533C-0.805193 57.7871 0.146318 61.8509 3.31802 63.5557L6.03379 65.0226C8.29363 66.2318 9.52266 68.7493 9.10638 71.2669L8.57115 74.2998C7.97646 77.8283 10.6129 81.0991 14.2009 81.2379L17.2933 81.3767C19.8505 81.4758 22.0509 83.2202 22.7645 85.6783L23.6169 88.6518C24.6081 92.101 28.3943 93.8851 31.7048 92.4578L34.5395 91.2288C36.8984 90.2178 39.6142 90.8125 41.3388 92.7155L43.4004 95.015C45.799 97.6911 49.9817 97.6515 52.3407 94.9555L54.3626 92.6164C56.0476 90.6935 58.7634 90.0394 61.1223 91.0107L63.9768 92.1803C67.2873 93.5481 71.0537 91.7045 72.0052 88.2355L72.818 85.262C73.492 82.8039 75.6725 81.0397 78.2297 80.8811L81.3221 80.7027C84.9101 80.5044 87.4871 77.194 86.8329 73.6853L86.2779 70.6523C85.8219 68.1348 87.0113 65.5974 89.2513 64.3684L91.9473 62.8618C95.0595 61.1571 95.9516 57.0537 93.8503 54.1595ZM47.5038 79.8305C30.218 79.8305 16.2031 65.8155 16.2031 48.5297C16.2031 31.2439 30.218 17.229 47.5038 17.229C64.7896 17.229 78.8046 31.2439 78.8046 48.5297C78.8046 65.8155 64.7896 79.8305 47.5038 79.8305Z" fill="#00529B"/>
<path d="M43.4993 49.3621L40.7241 46.567C39.0787 44.9019 36.3828 44.9019 34.7177 46.5472C33.0525 48.1925 33.0525 50.8885 34.6978 52.5536L37.4731 55.3487L40.5655 58.4411C42.1712 60.0666 44.7878 60.0666 46.4133 58.4609L49.5057 55.3883L60.2895 44.664C61.9547 43.0187 61.9547 40.3227 60.3093 38.6576C58.664 36.9925 55.9681 36.9925 54.3029 38.6378L43.4993 49.3621Z" fill="#00529B"/>
</svg>
