<svg width="55" height="77" viewBox="0 0 55 77" fill="none" xmlns="http://www.w3.org/2000/svg">
<path d="M52.5044 41.5557C51.6632 41.5557 50.9814 40.8739 50.9814 40.0327V36.913C50.9814 36.0719 51.6632 35.39 52.5044 35.39V35.39C53.3455 35.39 54.0274 34.7082 54.0274 33.867V4.54012C54.0264 3.33568 53.5486 2.18088 52.6989 1.32955C51.8491 0.478211 50.6971 -3.73967e-07 49.4959 0H5.4271C4.22622 0 3.07452 0.478326 2.22536 1.32976C1.37621 2.1812 0.89917 3.33601 0.89917 4.54012V33.8688C0.89917 34.709 1.58024 35.39 2.42038 35.39V35.39C3.26052 35.39 3.94159 36.0711 3.94159 36.9113V40.0345C3.94159 40.8747 3.26052 41.5557 2.42038 41.5557V41.5557C1.58024 41.5557 0.89917 42.2368 0.89917 43.077V72.4057C0.89917 73.6101 1.3761 74.7653 2.22515 75.6173C3.0742 76.4693 4.22589 76.9484 5.4271 76.9494H49.4959C50.6977 76.9494 51.8503 76.4707 52.7001 75.6186C53.5499 74.7665 54.0274 73.6107 54.0274 72.4057V43.0787C54.0274 42.2376 53.3455 41.5557 52.5044 41.5557V41.5557Z" fill="#A8AD00"/>
</svg>
