<svg width="54" height="39" viewBox="0 0 54 39" fill="none" xmlns="http://www.w3.org/2000/svg">
<g style="mix-blend-mode:multiply" opacity="0.45">
<path d="M3.04242 37.0246C3.04242 37.9273 3.77422 38.6591 4.67694 38.6591H48.4477C49.3504 38.6591 50.0822 37.9273 50.0822 37.0246V36.913C50.0822 36.0719 50.7641 35.39 51.6052 35.39V35.39C52.4463 35.39 53.1282 34.7082 53.1282 33.867V4.54012C53.1273 3.33568 52.6494 2.18088 51.7997 1.32955C50.95 0.478211 49.7979 -3.73967e-07 48.5967 0H4.52793C3.32705 0 2.17535 0.478326 1.32619 1.32977C0.477042 2.1812 0 3.33601 0 4.54012V33.8688C0 34.709 0.681069 35.39 1.52121 35.39V35.39C2.36135 35.39 3.04242 36.0711 3.04242 36.9113V37.0246Z" fill="#939628" fill-opacity="0.5"/>
</g>
</svg>
