<svg width="34" height="34" viewBox="0 0 34 34" fill="none" xmlns="http://www.w3.org/2000/svg">
<g clip-path="url(#clip0_715_2115)">
<path d="M30.0441 8.32069C30.3162 8.32069 30.5546 8.12326 30.609 7.85727C30.6562 7.62655 30.551 7.38308 30.3519 7.25797C30.1261 7.11617 29.8255 7.14868 29.636 7.33697C29.2791 7.69173 29.5437 8.32069 30.0441 8.32069Z" fill="white"/>
<path d="M32.1482 10.2572C32.0216 9.96519 31.6823 9.83108 31.39 9.95782C31.098 10.0845 30.964 10.4239 31.0906 10.716C32.3019 13.5088 32.6537 16.5747 32.1079 19.5821C31.5494 22.6592 30.0809 25.4591 27.8609 27.6791C21.8775 33.6625 12.1418 33.6626 6.15839 27.6791C3.25986 24.7806 1.66354 20.9269 1.66354 16.8278C1.66354 12.7288 3.25986 8.87503 6.15831 5.97658C9.01165 3.12324 12.8048 1.52731 16.8391 1.48281C20.8667 1.43731 24.6879 2.94318 27.5983 5.72012C27.8286 5.93984 28.1935 5.93131 28.4132 5.70098C28.6329 5.47065 28.6244 5.10583 28.3941 4.88603C25.2648 1.90028 21.1575 0.283434 16.8263 0.330084C12.489 0.377963 8.41081 2.09372 5.34313 5.16147C2.22695 8.27765 0.510742 12.4208 0.510742 16.8278C0.510742 21.2348 2.22695 25.378 5.34313 28.4942C8.4593 31.6104 12.6025 33.3266 17.0095 33.3266C21.4165 33.3266 25.5596 31.6104 28.6759 28.4942C31.0626 26.1076 32.6416 23.0969 33.2421 19.7879C33.8287 16.5554 33.4504 13.2598 32.1482 10.2572Z" fill="white"/>
<path d="M17.0096 3.60132C9.71652 3.60132 3.7832 9.53471 3.7832 16.8278C3.7832 24.1209 9.71652 30.0542 17.0096 30.0542C24.3027 30.0542 30.236 24.1209 30.236 16.8278C30.236 9.53463 24.3027 3.60132 17.0096 3.60132ZM17.0096 28.9013C10.3522 28.9013 4.936 23.4851 4.936 16.8277C4.936 10.1703 10.3522 4.75404 17.0096 4.75404C23.667 4.75404 29.0832 10.1703 29.0832 16.8277C29.0832 23.4851 23.667 28.9013 17.0096 28.9013Z" fill="white"/>
<path d="M17.0093 7.81812C16.691 7.81812 16.4329 8.07619 16.4329 8.39452V16.2513H11.2478C10.9295 16.2513 10.6714 16.5094 10.6714 16.8277C10.6714 17.146 10.9295 17.4041 11.2478 17.4041H17.0093C17.3277 17.4041 17.5857 17.146 17.5857 16.8277V8.39452C17.5857 8.07619 17.3277 7.81812 17.0093 7.81812Z" fill="white"/>
</g>
<defs>
<clipPath id="clip0_715_2115">
<rect width="33" height="33" fill="white" transform="translate(0.510742 0.327759)"/>
</clipPath>
</defs>
</svg>
