<svg width="240" height="38" viewBox="0 0 240 38" fill="none" xmlns="http://www.w3.org/2000/svg">
<g clip-path="url(#clip0_81_4478)">
<path d="M0 24.6201C3.53703 24.6368 7.06994 24.8639 10.58 25.3001C21.1 27.1901 21.52 37.1901 21.52 37.1901C21.52 37.1901 19.81 37.2901 15.29 37.2901C4.74 37.2901 0 24.6201 0 24.6201Z" fill="#2FB457"/>
<path d="M44.4531 24.6201C40.9128 24.637 37.3766 24.8641 33.8631 25.3001C23.3631 27.2101 22.9531 37.2101 22.9531 37.2101C22.9531 37.2101 24.6631 37.3101 29.1831 37.3101C39.7231 37.2901 44.4531 24.6201 44.4531 24.6201Z" fill="#2FB457"/>
<path d="M22.2269 27.3698C24.3974 27.3698 26.1569 25.6102 26.1569 23.4398C26.1569 21.2693 24.3974 19.5098 22.2269 19.5098C20.0564 19.5098 18.2969 21.2693 18.2969 23.4398C18.2969 25.6102 20.0564 27.3698 22.2269 27.3698Z" fill="#00529B"/>
<path d="M30.2503 23.5099C32.4208 23.5099 34.1803 21.7504 34.1803 19.5799C34.1803 17.4094 32.4208 15.6499 30.2503 15.6499C28.0798 15.6499 26.3203 17.4094 26.3203 19.5799C26.3203 21.7504 28.0798 23.5099 30.2503 23.5099Z" fill="#00529B"/>
<path d="M26.68 7.86C28.8505 7.86 30.61 6.10048 30.61 3.93C30.61 1.75952 28.8505 0 26.68 0C24.5095 0 22.75 1.75952 22.75 3.93C22.75 6.10048 24.5095 7.86 26.68 7.86Z" fill="#00529B"/>
<path d="M17.7738 7.86C19.9442 7.86 21.7038 6.10048 21.7038 3.93C21.7038 1.75952 19.9442 0 17.7738 0C15.6033 0 13.8438 1.75952 13.8438 3.93C13.8438 6.10048 15.6033 7.86 17.7738 7.86Z" fill="#00529B"/>
<path d="M14.2034 23.5099C16.3739 23.5099 18.1334 21.7504 18.1334 19.5799C18.1334 17.4094 16.3739 15.6499 14.2034 15.6499C12.033 15.6499 10.2734 17.4094 10.2734 19.5799C10.2734 21.7504 12.033 23.5099 14.2034 23.5099Z" fill="#00529B"/>
<path d="M32.2425 14.82C34.413 14.82 36.1725 13.0604 36.1725 10.89C36.1725 8.71948 34.413 6.95996 32.2425 6.95996C30.072 6.95996 28.3125 8.71948 28.3125 10.89C28.3125 13.0604 30.072 14.82 32.2425 14.82Z" fill="#00529B"/>
<path d="M12.2191 14.82C14.3895 14.82 16.1491 13.0604 16.1491 10.89C16.1491 8.71948 14.3895 6.95996 12.2191 6.95996C10.0486 6.95996 8.28906 8.71948 8.28906 10.89C8.28906 13.0604 10.0486 14.82 12.2191 14.82Z" fill="#00529B"/>
<path d="M64.0225 33.7999C59.7625 33.7999 52.3125 32.5899 52.3125 23.8599C52.3125 15.1299 59.7625 13.7799 64.0225 13.9199V11.1799H71.0225V13.9199C75.2825 13.7799 82.7425 15.2299 82.7425 23.8599C82.7425 32.4899 75.2825 33.8599 71.0225 33.7999V37.2799H64.0225V33.7999ZM64.5225 18.8899C62.7825 18.8899 59.2625 19.4599 59.2625 23.8899C59.2625 28.3199 62.7825 28.8899 64.5225 28.8899V18.8899ZM70.5225 28.8299C72.2625 28.8299 75.7725 28.2599 75.7725 23.8299C75.7725 19.3999 72.2625 18.8299 70.5225 18.8299V28.8299ZM85.3125 24.8299C85.3125 18.1899 89.5725 11.6999 98.6625 11.6999C107.752 11.6999 112.013 18.1899 112.013 24.8299C112.013 31.4699 107.752 37.9699 98.6625 37.9699C89.5725 37.9699 85.2825 31.4899 85.2825 24.8499L85.3125 24.8299ZM104.843 24.8299C104.843 20.0399 101.892 17.6599 98.6625 17.6599C95.4325 17.6599 92.4825 20.0399 92.4825 24.8299C92.4825 29.6199 95.4325 32.0099 98.6625 32.0099C101.892 32.0099 104.812 29.6199 104.812 24.8499L104.843 24.8299ZM134.002 36.1299C132.01 37.4232 129.666 38.0661 127.293 37.9699C119.903 37.9699 114.573 32.7899 114.573 24.8299C114.573 16.5299 120.433 11.6999 127.183 11.6999C129.603 11.6827 131.975 12.3783 134.002 13.6999V20.9099C133.3 20.0068 132.407 19.2698 131.387 18.7512C130.368 18.2327 129.246 17.9454 128.103 17.9099C124.272 17.9099 121.752 20.9599 121.752 25.0499C121.752 28.8099 124.132 31.7599 128.103 31.7599C129.216 31.7252 130.312 31.4685 131.325 31.0049C132.338 30.5413 133.248 29.88 134.002 29.0599V36.1299ZM144.642 12.4099H153.093L161.933 37.2599H154.472L153.093 32.9699H144.642L143.252 37.2599H135.802L144.642 12.4099ZM146.022 27.4999H151.702L148.862 18.3399L146.022 27.4999ZM164.323 12.4299H179.243V18.4299H171.243V37.2799H164.243L164.323 12.4299ZM181.983 12.4299H192.462C199.522 12.4299 201.513 17.3299 201.513 20.7399C201.513 24.1499 199.512 29.0799 192.462 29.0799H188.943V37.2799H181.943L181.983 12.4299ZM188.983 23.6099H190.983C194.073 23.6099 194.392 21.7999 194.392 20.7399C194.392 19.4899 193.963 17.8999 190.983 17.8999H188.983V23.6099ZM203.902 24.8499C203.902 18.2099 208.163 11.7199 217.253 11.7199C226.342 11.7199 230.522 18.2099 230.522 24.8499C230.522 31.4899 226.262 37.9899 217.172 37.9899C208.082 37.9899 203.862 31.4899 203.862 24.8499H203.902ZM223.432 24.8499C223.432 20.0599 220.482 17.6799 217.253 17.6799C214.023 17.6799 211.073 20.0599 211.073 24.8499C211.073 29.6399 214.073 32.0299 217.253 32.0299C220.432 32.0299 223.392 29.6199 223.392 24.8499H223.432ZM239.732 15.1299C239.719 15.9041 239.477 16.6569 239.036 17.2939C238.596 17.9309 237.978 18.4237 237.259 18.7105C236.539 18.9972 235.751 19.0651 234.994 18.9057C234.236 18.7462 233.542 18.3665 233 17.8142C232.457 17.2619 232.09 16.5616 231.944 15.8012C231.798 15.0409 231.879 14.2543 232.179 13.5403C232.478 12.8262 232.982 12.2165 233.627 11.7877C234.271 11.3589 235.028 11.13 235.802 11.1299C236.325 11.1212 236.844 11.2196 237.327 11.4189C237.81 11.6183 238.248 11.9145 238.612 12.2892C238.976 12.6639 239.26 13.1092 239.446 13.5978C239.632 14.0863 239.716 14.6078 239.693 15.1299H239.732ZM232.522 15.1299C232.54 15.7745 232.747 16.3996 233.118 16.927C233.49 17.4544 234.008 17.8608 234.608 18.0953C235.209 18.3298 235.866 18.3821 236.496 18.2456C237.126 18.109 237.702 17.7897 238.152 17.3276C238.601 16.8655 238.905 16.2811 239.025 15.6474C239.144 15.0138 239.074 14.3589 238.823 13.7648C238.573 13.1707 238.152 12.6637 237.615 12.3071C237.078 11.9505 236.447 11.7602 235.802 11.7599C235.361 11.7497 234.923 11.8307 234.514 11.9976C234.106 12.1645 233.736 12.4139 233.428 12.7302C233.12 13.0464 232.881 13.4228 232.725 13.8357C232.569 14.2486 232.5 14.6892 232.522 15.1299ZM235.622 12.8299C236.122 12.8299 237.253 12.9199 237.253 14.2099C237.271 14.5053 237.179 14.7971 236.994 15.0282C236.809 15.2593 236.545 15.4133 236.253 15.4599L237.772 17.3799H236.772L235.413 15.6199H235.193V17.4199H234.413V12.8299H235.622ZM235.232 14.8299H235.533C235.853 14.8299 236.473 14.8299 236.473 14.1699C236.473 13.5099 235.842 13.5099 235.552 13.5099H235.232V14.8299Z" fill="#00529B"/>
</g>
<defs>
<clipPath id="clip0_81_4478">
<rect width="239.69" height="37.99" fill="white"/>
</clipPath>
</defs>
</svg>
