<svg width="240" height="38" viewBox="0 0 240 38" fill="none" xmlns="http://www.w3.org/2000/svg">
<g clip-path="url(#clip0_115_934)">
<path d="M0 24.6201C3.53703 24.6368 7.06994 24.8639 10.58 25.3001C21.1 27.1901 21.52 37.1901 21.52 37.1901C21.52 37.1901 19.81 37.2901 15.29 37.2901C4.74 37.2901 0 24.6201 0 24.6201Z" fill="white"/>
<path d="M44.4531 24.6201C40.9128 24.637 37.3766 24.8641 33.8631 25.3001C23.3631 27.2101 22.9531 37.2101 22.9531 37.2101C22.9531 37.2101 24.6631 37.3101 29.1831 37.3101C39.7231 37.2901 44.4531 24.6201 44.4531 24.6201Z" fill="white"/>
<path d="M22.2269 27.3698C24.3974 27.3698 26.1569 25.6102 26.1569 23.4398C26.1569 21.2693 24.3974 19.5098 22.2269 19.5098C20.0564 19.5098 18.2969 21.2693 18.2969 23.4398C18.2969 25.6102 20.0564 27.3698 22.2269 27.3698Z" fill="white"/>
<path d="M30.2503 23.5104C32.4208 23.5104 34.1803 21.7509 34.1803 19.5804C34.1803 17.4099 32.4208 15.6504 30.2503 15.6504C28.0798 15.6504 26.3203 17.4099 26.3203 19.5804C26.3203 21.7509 28.0798 23.5104 30.2503 23.5104Z" fill="white"/>
<path d="M26.68 7.86C28.8505 7.86 30.61 6.10048 30.61 3.93C30.61 1.75952 28.8505 0 26.68 0C24.5095 0 22.75 1.75952 22.75 3.93C22.75 6.10048 24.5095 7.86 26.68 7.86Z" fill="white"/>
<path d="M17.7738 7.86C19.9442 7.86 21.7038 6.10048 21.7038 3.93C21.7038 1.75952 19.9442 0 17.7738 0C15.6033 0 13.8438 1.75952 13.8438 3.93C13.8438 6.10048 15.6033 7.86 17.7738 7.86Z" fill="white"/>
<path d="M14.1956 23.5104C16.3661 23.5104 18.1256 21.7509 18.1256 19.5804C18.1256 17.4099 16.3661 15.6504 14.1956 15.6504C12.0251 15.6504 10.2656 17.4099 10.2656 19.5804C10.2656 21.7509 12.0251 23.5104 14.1956 23.5104Z" fill="white"/>
<path d="M32.2425 14.82C34.413 14.82 36.1725 13.0604 36.1725 10.89C36.1725 8.71948 34.413 6.95996 32.2425 6.95996C30.072 6.95996 28.3125 8.71948 28.3125 10.89C28.3125 13.0604 30.072 14.82 32.2425 14.82Z" fill="white"/>
<path d="M12.2191 14.82C14.3895 14.82 16.1491 13.0604 16.1491 10.89C16.1491 8.71948 14.3895 6.95996 12.2191 6.95996C10.0486 6.95996 8.28906 8.71948 8.28906 10.89C8.28906 13.0604 10.0486 14.82 12.2191 14.82Z" fill="white"/>
</g>
<path d="M64.0225 33.7994C59.7625 33.7994 52.3125 32.5894 52.3125 23.8594C52.3125 15.1294 59.7625 13.7794 64.0225 13.9194V11.1794H71.0225V13.9194C75.2825 13.7794 82.7425 15.2294 82.7425 23.8594C82.7425 32.4894 75.2825 33.8594 71.0225 33.7994V37.2794H64.0225V33.7994ZM64.5225 18.8894C62.7825 18.8894 59.2625 19.4594 59.2625 23.8894C59.2625 28.3194 62.7825 28.8894 64.5225 28.8894V18.8894ZM70.5225 28.8294C72.2625 28.8294 75.7725 28.2594 75.7725 23.8294C75.7725 19.3994 72.2625 18.8294 70.5225 18.8294V28.8294ZM85.3125 24.8294C85.3125 18.1894 89.5725 11.6994 98.6625 11.6994C107.752 11.6994 112.013 18.1894 112.013 24.8294C112.013 31.4694 107.752 37.9694 98.6625 37.9694C89.5725 37.9694 85.2825 31.4894 85.2825 24.8494L85.3125 24.8294ZM104.843 24.8294C104.843 20.0394 101.892 17.6594 98.6625 17.6594C95.4325 17.6594 92.4825 20.0394 92.4825 24.8294C92.4825 29.6194 95.4325 32.0094 98.6625 32.0094C101.892 32.0094 104.812 29.6194 104.812 24.8494L104.843 24.8294ZM134.002 36.1294C132.01 37.4227 129.666 38.0656 127.293 37.9694C119.903 37.9694 114.573 32.7894 114.573 24.8294C114.573 16.5294 120.433 11.6994 127.183 11.6994C129.603 11.6823 131.975 12.3778 134.002 13.6994V20.9094C133.3 20.0063 132.407 19.2693 131.387 18.7507C130.368 18.2322 129.246 17.9449 128.103 17.9094C124.272 17.9094 121.752 20.9594 121.752 25.0494C121.752 28.8094 124.132 31.7594 128.103 31.7594C129.216 31.7247 130.312 31.468 131.325 31.0044C132.338 30.5408 133.248 29.8795 134.002 29.0594V36.1294ZM144.642 12.4094H153.093L161.933 37.2594H154.472L153.093 32.9694H144.642L143.252 37.2594H135.802L144.642 12.4094ZM146.022 27.4994H151.702L148.862 18.3394L146.022 27.4994ZM164.323 12.4294H179.243V18.4294H171.243V37.2794H164.243L164.323 12.4294ZM181.983 12.4294H192.462C199.522 12.4294 201.513 17.3294 201.513 20.7394C201.513 24.1494 199.512 29.0794 192.462 29.0794H188.943V37.2794H181.943L181.983 12.4294ZM188.983 23.6094H190.983C194.073 23.6094 194.392 21.7994 194.392 20.7394C194.392 19.4894 193.963 17.8994 190.983 17.8994H188.983V23.6094ZM203.902 24.8494C203.902 18.2094 208.163 11.7194 217.253 11.7194C226.342 11.7194 230.522 18.2094 230.522 24.8494C230.522 31.4894 226.262 37.9894 217.172 37.9894C208.082 37.9894 203.862 31.4894 203.862 24.8494H203.902ZM223.432 24.8494C223.432 20.0594 220.482 17.6794 217.253 17.6794C214.023 17.6794 211.073 20.0594 211.073 24.8494C211.073 29.6394 214.073 32.0294 217.253 32.0294C220.432 32.0294 223.392 29.6194 223.392 24.8494H223.432ZM239.732 15.1294C239.719 15.9036 239.477 16.6564 239.036 17.2934C238.596 17.9304 237.978 18.4232 237.259 18.71C236.539 18.9967 235.751 19.0646 234.994 18.9052C234.236 18.7457 233.542 18.366 233 17.8137C232.457 17.2614 232.09 16.5611 231.944 15.8008C231.798 15.0404 231.879 14.2538 232.179 13.5398C232.478 12.8257 232.982 12.216 233.627 11.7872C234.271 11.3584 235.028 11.1296 235.802 11.1294C236.325 11.1207 236.844 11.2191 237.327 11.4185C237.81 11.6178 238.248 11.914 238.612 12.2887C238.976 12.6634 239.26 13.1088 239.446 13.5973C239.632 14.0859 239.716 14.6073 239.693 15.1294H239.732ZM232.522 15.1294C232.54 15.774 232.747 16.3991 233.118 16.9265C233.49 17.454 234.008 17.8603 234.608 18.0948C235.209 18.3294 235.866 18.3816 236.496 18.2451C237.126 18.1085 237.702 17.7892 238.152 17.3271C238.601 16.8651 238.905 16.2806 239.025 15.647C239.144 15.0133 239.074 14.3584 238.823 13.7643C238.573 13.1702 238.152 12.6632 237.615 12.3066C237.078 11.95 236.447 11.7597 235.802 11.7594C235.361 11.7493 234.923 11.8302 234.514 11.9971C234.106 12.1641 233.736 12.4134 233.428 12.7297C233.12 13.046 232.881 13.4223 232.725 13.8352C232.569 14.2481 232.5 14.6887 232.522 15.1294ZM235.622 12.8294C236.122 12.8294 237.253 12.9194 237.253 14.2094C237.271 14.5048 237.179 14.7966 236.994 15.0277C236.809 15.2588 236.545 15.4128 236.253 15.4594L237.772 17.3794H236.772L235.413 15.6194H235.193V17.4194H234.413V12.8294H235.622ZM235.232 14.8294H235.533C235.853 14.8294 236.473 14.8294 236.473 14.1694C236.473 13.5094 235.842 13.5094 235.552 13.5094H235.232V14.8294Z" fill="white"/>
<defs>
<clipPath id="clip0_115_934">
<rect width="239.69" height="37.99" fill="white"/>
</clipPath>
</defs>
</svg>
