<svg width="269" height="28" viewBox="0 0 269 28" fill="none" xmlns="http://www.w3.org/2000/svg">
<path d="M4.86005 18H2.39405V5.958C2.77805 5.898 3.06605 5.868 3.25805 5.868C4.32605 5.868 4.86005 6.336 4.86005 7.272V18ZM9.32405 9.864C9.16805 10.092 9.00605 10.32 8.83805 10.548C8.68205 10.764 8.49605 10.962 8.28005 11.142C8.06405 11.322 7.80005 11.472 7.48805 11.592C7.87205 11.688 8.20205 11.862 8.47805 12.114C8.76605 12.354 9.12005 12.81 9.54005 13.482L12.2041 17.784C11.7361 18.06 11.2861 18.198 10.8541 18.198C10.4221 18.198 10.0561 18.126 9.75605 17.982C9.46805 17.826 9.22205 17.586 9.01805 17.262L7.83005 15.336C7.57805 14.916 7.33805 14.526 7.11005 14.166C6.88205 13.806 6.64205 13.506 6.39005 13.266C6.13805 13.014 5.83805 12.84 5.49005 12.744V10.836C5.77805 10.764 6.03005 10.62 6.24605 10.404C6.46205 10.188 6.68405 9.906 6.91205 9.558C7.14005 9.198 7.42205 8.772 7.75805 8.28L8.49605 7.2C8.82005 6.732 9.13805 6.396 9.45005 6.192C9.77405 5.976 10.1221 5.868 10.4941 5.868C10.9741 5.868 11.3221 5.964 11.5381 6.156C11.7661 6.348 11.8801 6.654 11.8801 7.074C11.8801 7.242 11.8741 7.368 11.8621 7.452C11.5381 7.452 11.2561 7.524 11.0161 7.668C10.7761 7.8 10.5541 8.022 10.3501 8.334L9.32405 9.864ZM17.6377 19.476C17.0977 21.216 15.9337 22.086 14.1457 22.086C13.5457 22.086 13.0837 21.996 12.7597 21.816C12.4477 21.648 12.2917 21.396 12.2917 21.06C12.2917 20.784 12.4597 20.37 12.7957 19.818C12.9397 19.926 13.1197 20.01 13.3357 20.07C13.5517 20.142 13.7737 20.178 14.0017 20.178C14.3857 20.178 14.6917 20.07 14.9197 19.854C15.1597 19.65 15.3637 19.308 15.5317 18.828L15.8377 17.928H14.7217L11.9497 9.504C12.3217 9.372 12.7777 9.306 13.3177 9.306C13.6777 9.306 13.9837 9.402 14.2357 9.594C14.4877 9.786 14.6617 10.056 14.7577 10.404L16.3777 16.056L17.7097 11.106C17.8897 10.434 18.1177 9.966 18.3937 9.702C18.6697 9.438 19.0297 9.306 19.4737 9.306C19.8577 9.306 20.2417 9.384 20.6257 9.54L17.6377 19.476ZM24.2282 10.17C24.4922 9.858 24.8402 9.606 25.2722 9.414C25.7042 9.222 26.1722 9.126 26.6762 9.126C27.7442 9.126 28.5722 9.504 29.1602 10.26C29.7482 11.004 30.0422 12.084 30.0422 13.5C30.0422 14.532 29.8982 15.402 29.6102 16.11C29.3342 16.818 28.9262 17.358 28.3862 17.73C27.8462 18.09 27.2102 18.27 26.4782 18.27C26.1422 18.27 25.8302 18.228 25.5422 18.144C25.2542 18.06 24.9962 17.946 24.7682 17.802C24.5402 17.658 24.3902 17.526 24.3182 17.406V21.924H21.8882V9.378L22.1042 9.342C22.2962 9.318 22.4942 9.306 22.6982 9.306C23.5862 9.306 24.0962 9.594 24.2282 10.17ZM27.4862 13.554C27.4862 12.678 27.3362 12.03 27.0362 11.61C26.7482 11.178 26.2982 10.962 25.6862 10.962C25.2662 10.962 24.9362 11.046 24.6962 11.214C24.4562 11.37 24.3362 11.592 24.3362 11.88V15.804C24.4922 15.96 24.6962 16.092 24.9482 16.2C25.2002 16.296 25.4522 16.344 25.7042 16.344C26.8922 16.344 27.4862 15.414 27.4862 13.554ZM36.28 16.452C36.688 16.452 37.072 16.374 37.432 16.218C37.792 16.05 38.074 15.84 38.278 15.588C38.422 15.744 38.56 15.96 38.692 16.236C38.824 16.512 38.89 16.74 38.89 16.92C38.89 17.196 38.764 17.43 38.512 17.622C37.912 18.078 37.054 18.306 35.938 18.306C35.05 18.306 34.276 18.126 33.616 17.766C32.956 17.394 32.458 16.866 32.122 16.182C31.786 15.486 31.618 14.646 31.618 13.662C31.618 12.69 31.798 11.874 32.158 11.214C32.53 10.542 33.052 10.026 33.724 9.666C34.396 9.306 35.134 9.126 35.938 9.126C36.418 9.126 36.868 9.18 37.288 9.288C37.708 9.384 38.062 9.528 38.35 9.72C38.578 9.864 38.734 10.002 38.818 10.134C38.914 10.266 38.962 10.422 38.962 10.602C38.962 10.77 38.908 10.98 38.8 11.232C38.692 11.472 38.554 11.694 38.386 11.898C38.146 11.634 37.834 11.418 37.45 11.25C37.078 11.07 36.694 10.98 36.298 10.98C35.578 10.98 35.032 11.208 34.66 11.664C34.288 12.108 34.102 12.762 34.102 13.626C34.102 14.562 34.282 15.27 34.642 15.75C35.014 16.218 35.56 16.452 36.28 16.452ZM48.9498 10.026C48.5298 10.026 48.1938 9.876 47.9418 9.576C47.7018 9.276 47.5818 8.874 47.5818 8.37C47.5818 7.89 47.6898 7.404 47.9058 6.912C48.1218 6.42 48.3858 6.036 48.6978 5.76C49.0098 5.472 49.3338 5.328 49.6698 5.328C50.1258 5.328 50.4258 5.532 50.5698 5.94C50.3538 6.036 50.1618 6.162 49.9938 6.318C49.8258 6.474 49.6938 6.648 49.5978 6.84C49.5018 7.02 49.4478 7.206 49.4358 7.398C49.7238 7.626 49.9218 7.854 50.0298 8.082C50.1498 8.298 50.2098 8.544 50.2098 8.82C50.2098 9.156 50.0898 9.444 49.8498 9.684C49.6218 9.912 49.3218 10.026 48.9498 10.026ZM45.1878 10.026C44.7678 10.026 44.4318 9.876 44.1798 9.576C43.9398 9.276 43.8198 8.874 43.8198 8.37C43.8198 7.89 43.9278 7.404 44.1438 6.912C44.3598 6.42 44.6238 6.036 44.9358 5.76C45.2478 5.472 45.5718 5.328 45.9078 5.328C46.3638 5.328 46.6638 5.532 46.8078 5.94C46.5918 6.036 46.3998 6.162 46.2318 6.318C46.0638 6.474 45.9318 6.648 45.8358 6.84C45.7398 7.02 45.6858 7.206 45.6738 7.398C45.9618 7.626 46.1598 7.854 46.2678 8.082C46.3878 8.298 46.4478 8.544 46.4478 8.82C46.4478 9.156 46.3278 9.444 46.0878 9.684C45.8598 9.912 45.5598 10.026 45.1878 10.026ZM51.2372 6.264C51.5852 6.108 51.8672 6.006 52.0832 5.958C52.2992 5.898 52.5152 5.868 52.7312 5.868C53.3792 5.868 53.8412 6.162 54.1172 6.75L56.3492 11.556L58.1852 6.948C58.3412 6.564 58.5392 6.288 58.7792 6.12C59.0192 5.952 59.3492 5.868 59.7692 5.868C60.1892 5.868 60.6272 5.988 61.0832 6.228L56.9972 15.57C56.6972 16.266 56.3912 16.806 56.0792 17.19C55.7672 17.562 55.4072 17.838 54.9992 18.018C54.5912 18.21 54.1232 18.306 53.5952 18.306C52.8992 18.306 52.3892 18.216 52.0652 18.036C51.7532 17.856 51.5972 17.574 51.5972 17.19C51.5972 16.878 51.7532 16.482 52.0652 16.002C52.2212 16.098 52.4072 16.182 52.6232 16.254C52.8512 16.314 53.0792 16.344 53.3072 16.344C53.6432 16.344 53.9312 16.23 54.1712 16.002C54.4232 15.774 54.6452 15.414 54.8372 14.922L55.2152 13.932L51.2372 6.264ZM65.0203 16.452C65.4283 16.452 65.8123 16.374 66.1723 16.218C66.5323 16.05 66.8143 15.84 67.0183 15.588C67.1623 15.744 67.3003 15.96 67.4323 16.236C67.5643 16.512 67.6303 16.74 67.6303 16.92C67.6303 17.196 67.5043 17.43 67.2523 17.622C66.6523 18.078 65.7943 18.306 64.6783 18.306C63.7903 18.306 63.0163 18.126 62.3563 17.766C61.6963 17.394 61.1983 16.866 60.8623 16.182C60.5263 15.486 60.3583 14.646 60.3583 13.662C60.3583 12.69 60.5383 11.874 60.8983 11.214C61.2703 10.542 61.7923 10.026 62.4643 9.666C63.1363 9.306 63.8743 9.126 64.6783 9.126C65.1583 9.126 65.6083 9.18 66.0283 9.288C66.4483 9.384 66.8023 9.528 67.0903 9.72C67.3183 9.864 67.4743 10.002 67.5583 10.134C67.6543 10.266 67.7023 10.422 67.7023 10.602C67.7023 10.77 67.6483 10.98 67.5403 11.232C67.4323 11.472 67.2943 11.694 67.1263 11.898C66.8863 11.634 66.5743 11.418 66.1903 11.25C65.8183 11.07 65.4343 10.98 65.0383 10.98C64.3183 10.98 63.7723 11.208 63.4003 11.664C63.0283 12.108 62.8423 12.762 62.8423 13.626C62.8423 14.562 63.0223 15.27 63.3823 15.75C63.7543 16.218 64.3003 16.452 65.0203 16.452ZM68.7158 11.286C68.6798 11.034 68.6618 10.782 68.6618 10.53C68.6618 10.158 68.7818 9.864 69.0218 9.648C69.2738 9.432 69.6338 9.324 70.1018 9.324H77.0498C77.0858 9.576 77.1038 9.828 77.1038 10.08C77.1038 10.452 76.9778 10.746 76.7258 10.962C76.4858 11.178 76.1318 11.286 75.6638 11.286H74.0438V18H71.6138V11.286H68.7158ZM85.8871 13.644C85.8871 15.096 85.5151 16.23 84.7711 17.046C84.0391 17.862 82.9951 18.27 81.6391 18.27C80.2831 18.27 79.2391 17.868 78.5071 17.064C77.7751 16.248 77.4091 15.126 77.4091 13.698C77.4091 12.774 77.5891 11.964 77.9491 11.268C78.3091 10.572 78.8071 10.044 79.4431 9.684C80.0911 9.312 80.8471 9.126 81.7111 9.126C83.0551 9.126 84.0871 9.522 84.8071 10.314C85.5271 11.106 85.8871 12.216 85.8871 13.644ZM83.4211 13.662C83.4211 11.886 82.8391 10.998 81.6751 10.998C81.0871 10.998 80.6371 11.238 80.3251 11.718C80.0131 12.186 79.8571 12.84 79.8571 13.68C79.8571 14.568 80.0071 15.252 80.3071 15.732C80.6071 16.2 81.0511 16.434 81.6391 16.434C82.8271 16.434 83.4211 15.51 83.4211 13.662ZM95.8517 18H93.5297V12.78L90.1637 18H87.8237V9.324C87.8477 9.312 87.9497 9.3 88.1297 9.288C88.3217 9.264 88.4957 9.252 88.6517 9.252C89.1797 9.252 89.5577 9.372 89.7857 9.612C90.0257 9.84 90.1457 10.194 90.1457 10.674V14.67L92.9717 10.404C93.2237 10.008 93.4937 9.72 93.7817 9.54C94.0697 9.348 94.3997 9.252 94.7717 9.252C95.1917 9.252 95.5517 9.306 95.8517 9.414V18ZM94.9697 5.634C94.8377 6.45 94.5017 7.092 93.9617 7.56C93.4217 8.028 92.7257 8.262 91.8737 8.262C90.9857 8.262 90.2837 8.04 89.7677 7.596C89.2517 7.14 88.9397 6.48 88.8317 5.616C88.9157 5.556 89.0537 5.502 89.2457 5.454C89.4377 5.406 89.6177 5.382 89.7857 5.382C89.9537 5.382 90.0857 5.424 90.1817 5.508C90.2897 5.58 90.3857 5.718 90.4697 5.922C90.6017 6.234 90.7817 6.468 91.0097 6.624C91.2497 6.78 91.5557 6.858 91.9277 6.858C92.2397 6.858 92.5037 6.792 92.7197 6.66C92.9357 6.516 93.1397 6.276 93.3317 5.94C93.4277 5.772 93.5057 5.652 93.5657 5.58C93.6377 5.508 93.7097 5.46 93.7817 5.436C93.8657 5.4 93.9617 5.382 94.0697 5.382C94.2017 5.382 94.3577 5.406 94.5377 5.454C94.7177 5.502 94.8617 5.562 94.9697 5.634ZM105.396 18H103.092V14.454C102.828 14.802 102.474 15.078 102.03 15.282C101.598 15.474 101.1 15.57 100.536 15.57C99.8997 15.57 99.3777 15.462 98.9697 15.246C98.5737 15.03 98.2797 14.676 98.0877 14.184C97.9077 13.692 97.8177 12.924 97.8177 11.88V9.324C97.8417 9.312 97.9377 9.3 98.1057 9.288C98.2857 9.264 98.4537 9.252 98.6097 9.252C99.1617 9.252 99.5637 9.372 99.8157 9.612C100.08 9.84 100.212 10.194 100.212 10.674V11.772C100.212 12.276 100.248 12.654 100.32 12.906C100.404 13.146 100.536 13.326 100.716 13.446C100.896 13.554 101.136 13.608 101.436 13.608C101.844 13.608 102.198 13.512 102.498 13.32C102.81 13.128 102.966 12.9 102.966 12.636V9.324C102.99 9.312 103.092 9.3 103.272 9.288C103.464 9.264 103.638 9.252 103.794 9.252C104.346 9.252 104.748 9.372 105 9.612C105.264 9.84 105.396 10.194 105.396 10.674V18ZM115.733 18H113.411V12.78L110.045 18H107.705V9.324C107.729 9.312 107.831 9.3 108.011 9.288C108.203 9.264 108.377 9.252 108.533 9.252C109.061 9.252 109.439 9.372 109.667 9.612C109.907 9.84 110.027 10.194 110.027 10.674V14.67L112.853 10.404C113.105 10.008 113.375 9.72 113.663 9.54C113.951 9.348 114.281 9.252 114.653 9.252C115.073 9.252 115.433 9.306 115.733 9.414V18ZM122.325 9.324C123.345 9.324 124.131 9.534 124.683 9.954C125.235 10.374 125.511 10.962 125.511 11.718C125.511 12.102 125.415 12.444 125.223 12.744C125.043 13.044 124.785 13.278 124.449 13.446C125.277 13.83 125.691 14.472 125.691 15.372C125.691 16.2 125.403 16.848 124.827 17.316C124.263 17.772 123.459 18 122.415 18H118.041V9.324H122.325ZM120.327 14.382V16.326H122.307C122.643 16.326 122.907 16.242 123.099 16.074C123.291 15.894 123.387 15.654 123.387 15.354C123.387 14.706 123.027 14.382 122.307 14.382H120.327ZM120.327 12.744H122.055C122.823 12.744 123.207 12.432 123.207 11.808C123.207 11.568 123.117 11.376 122.937 11.232C122.769 11.076 122.535 10.998 122.235 10.998H120.327V12.744ZM135.493 13.644C135.493 15.096 135.121 16.23 134.377 17.046C133.645 17.862 132.601 18.27 131.245 18.27C129.889 18.27 128.845 17.868 128.113 17.064C127.381 16.248 127.015 15.126 127.015 13.698C127.015 12.774 127.195 11.964 127.555 11.268C127.915 10.572 128.413 10.044 129.049 9.684C129.697 9.312 130.453 9.126 131.317 9.126C132.661 9.126 133.693 9.522 134.413 10.314C135.133 11.106 135.493 12.216 135.493 13.644ZM133.027 13.662C133.027 11.886 132.445 10.998 131.281 10.998C130.693 10.998 130.243 11.238 129.931 11.718C129.619 12.186 129.463 12.84 129.463 13.68C129.463 14.568 129.613 15.252 129.913 15.732C130.213 16.2 130.657 16.434 131.245 16.434C132.433 16.434 133.027 15.51 133.027 13.662ZM141.857 16.47C142.253 16.47 142.589 16.416 142.865 16.308C143.153 16.2 143.393 16.074 143.585 15.93C143.777 15.774 143.945 15.63 144.089 15.498C144.269 15.726 144.425 15.978 144.557 16.254C144.701 16.518 144.773 16.728 144.773 16.884C144.773 17.148 144.623 17.388 144.323 17.604C144.035 17.82 143.651 17.988 143.171 18.108C142.691 18.24 142.175 18.306 141.623 18.306C140.159 18.306 139.031 17.904 138.239 17.1C137.459 16.284 137.069 15.096 137.069 13.536C137.069 12.612 137.243 11.826 137.591 11.178C137.951 10.518 138.443 10.014 139.067 9.666C139.703 9.306 140.411 9.126 141.191 9.126C142.379 9.126 143.291 9.474 143.927 10.17C144.563 10.854 144.881 11.796 144.881 12.996C144.881 13.572 144.863 13.944 144.827 14.112H139.535C139.583 14.88 139.805 15.468 140.201 15.876C140.597 16.272 141.149 16.47 141.857 16.47ZM142.667 12.762C142.667 12.078 142.541 11.574 142.289 11.25C142.037 10.926 141.653 10.764 141.137 10.764C140.633 10.764 140.237 10.944 139.949 11.304C139.661 11.652 139.517 12.138 139.517 12.762H142.667ZM152.619 10.17C152.883 9.858 153.231 9.606 153.663 9.414C154.095 9.222 154.563 9.126 155.067 9.126C156.135 9.126 156.963 9.504 157.551 10.26C158.139 11.004 158.433 12.084 158.433 13.5C158.433 14.532 158.289 15.402 158.001 16.11C157.725 16.818 157.317 17.358 156.777 17.73C156.237 18.09 155.601 18.27 154.869 18.27C154.533 18.27 154.221 18.228 153.933 18.144C153.645 18.06 153.387 17.946 153.159 17.802C152.931 17.658 152.781 17.526 152.709 17.406V21.924H150.279V9.378L150.495 9.342C150.687 9.318 150.885 9.306 151.089 9.306C151.977 9.306 152.487 9.594 152.619 10.17ZM155.877 13.554C155.877 12.678 155.727 12.03 155.427 11.61C155.139 11.178 154.689 10.962 154.077 10.962C153.657 10.962 153.327 11.046 153.087 11.214C152.847 11.37 152.727 11.592 152.727 11.88V15.804C152.883 15.96 153.087 16.092 153.339 16.2C153.591 16.296 153.843 16.344 154.095 16.344C155.283 16.344 155.877 15.414 155.877 13.554ZM167.371 15.912C167.371 16.848 167.509 17.538 167.785 17.982C167.365 18.138 166.969 18.216 166.597 18.216C166.189 18.216 165.871 18.138 165.643 17.982C165.415 17.826 165.265 17.58 165.193 17.244C164.893 17.568 164.515 17.814 164.059 17.982C163.615 18.15 163.117 18.234 162.565 18.234C161.749 18.234 161.083 18 160.567 17.532C160.063 17.064 159.811 16.41 159.811 15.57C159.811 14.634 160.189 13.908 160.945 13.392C161.701 12.876 162.793 12.582 164.221 12.51C164.413 12.498 164.683 12.492 165.031 12.492V12.114C165.031 11.67 164.911 11.352 164.671 11.16C164.431 10.956 164.029 10.854 163.465 10.854C163.093 10.854 162.721 10.908 162.349 11.016C161.977 11.124 161.497 11.346 160.909 11.682C160.753 11.502 160.621 11.286 160.513 11.034C160.405 10.782 160.351 10.59 160.351 10.458C160.351 10.23 160.525 10.014 160.873 9.81C161.233 9.594 161.677 9.426 162.205 9.306C162.733 9.186 163.279 9.126 163.843 9.126C165.091 9.126 165.991 9.384 166.543 9.9C167.095 10.416 167.371 11.256 167.371 12.42V15.912ZM165.067 13.77C164.983 13.77 164.899 13.77 164.815 13.77C164.731 13.77 164.647 13.776 164.563 13.788C163.723 13.848 163.105 14.01 162.709 14.274C162.313 14.538 162.115 14.91 162.115 15.39C162.115 15.774 162.223 16.074 162.439 16.29C162.655 16.506 162.967 16.614 163.375 16.614C163.795 16.614 164.179 16.512 164.527 16.308C164.887 16.092 165.067 15.876 165.067 15.66V13.77ZM171.827 16.596C172.487 16.596 172.967 16.506 173.267 16.326C173.579 16.146 173.735 15.864 173.735 15.48C173.735 15.168 173.633 14.928 173.429 14.76C173.237 14.58 172.961 14.49 172.601 14.49H170.405V12.726H172.565C172.901 12.726 173.159 12.648 173.339 12.492C173.531 12.336 173.627 12.114 173.627 11.826C173.627 11.454 173.489 11.19 173.213 11.034C172.949 10.878 172.517 10.8 171.917 10.8C171.005 10.8 170.213 11.1 169.541 11.7C169.181 11.124 169.001 10.704 169.001 10.44C169.001 10.188 169.145 9.966 169.433 9.774C169.733 9.57 170.123 9.414 170.603 9.306C171.083 9.186 171.599 9.126 172.151 9.126C173.435 9.126 174.407 9.342 175.067 9.774C175.727 10.206 176.057 10.842 176.057 11.682C176.057 12.474 175.673 13.104 174.905 13.572C175.769 14.028 176.201 14.712 176.201 15.624C176.201 16.476 175.847 17.13 175.139 17.586C174.431 18.042 173.435 18.27 172.151 18.27C171.191 18.27 170.423 18.156 169.847 17.928C169.283 17.7 169.001 17.4 169.001 17.028C169.001 16.896 169.037 16.746 169.109 16.578C169.181 16.398 169.331 16.128 169.559 15.768C169.967 16.08 170.345 16.296 170.693 16.416C171.053 16.536 171.431 16.596 171.827 16.596ZM182.266 9.324C183.286 9.324 184.072 9.534 184.624 9.954C185.176 10.374 185.452 10.962 185.452 11.718C185.452 12.102 185.356 12.444 185.164 12.744C184.984 13.044 184.726 13.278 184.39 13.446C185.218 13.83 185.632 14.472 185.632 15.372C185.632 16.2 185.344 16.848 184.768 17.316C184.204 17.772 183.4 18 182.356 18H177.982V9.324H182.266ZM180.268 14.382V16.326H182.248C182.584 16.326 182.848 16.242 183.04 16.074C183.232 15.894 183.328 15.654 183.328 15.354C183.328 14.706 182.968 14.382 182.248 14.382H180.268ZM180.268 12.744H181.996C182.764 12.744 183.148 12.432 183.148 11.808C183.148 11.568 183.058 11.376 182.878 11.232C182.71 11.076 182.476 10.998 182.176 10.998H180.268V12.744ZM195.344 18H193.022V12.78L189.656 18H187.316V9.324C187.34 9.312 187.442 9.3 187.622 9.288C187.814 9.264 187.988 9.252 188.144 9.252C188.672 9.252 189.05 9.372 189.278 9.612C189.518 9.84 189.638 10.194 189.638 10.674V14.67L192.464 10.404C192.716 10.008 192.986 9.72 193.274 9.54C193.562 9.348 193.892 9.252 194.264 9.252C194.684 9.252 195.044 9.306 195.344 9.414V18ZM196.878 11.286C196.842 11.034 196.824 10.782 196.824 10.53C196.824 10.158 196.944 9.864 197.184 9.648C197.436 9.432 197.796 9.324 198.264 9.324H205.212C205.248 9.576 205.266 9.828 205.266 10.08C205.266 10.452 205.14 10.746 204.888 10.962C204.648 11.178 204.294 11.286 203.826 11.286H202.206V18H199.776V11.286H196.878ZM214.768 18H212.446V12.78L209.08 18H206.74V9.324C206.764 9.312 206.866 9.3 207.046 9.288C207.238 9.264 207.412 9.252 207.568 9.252C208.096 9.252 208.474 9.372 208.702 9.612C208.942 9.84 209.062 10.194 209.062 10.674V14.67L211.888 10.404C212.14 10.008 212.41 9.72 212.698 9.54C212.986 9.348 213.316 9.252 213.688 9.252C214.108 9.252 214.468 9.306 214.768 9.414V18ZM221.504 16.47C221.9 16.47 222.236 16.416 222.512 16.308C222.8 16.2 223.04 16.074 223.232 15.93C223.424 15.774 223.592 15.63 223.736 15.498C223.916 15.726 224.072 15.978 224.204 16.254C224.348 16.518 224.42 16.728 224.42 16.884C224.42 17.148 224.27 17.388 223.97 17.604C223.682 17.82 223.298 17.988 222.818 18.108C222.338 18.24 221.822 18.306 221.27 18.306C219.806 18.306 218.678 17.904 217.886 17.1C217.106 16.284 216.716 15.096 216.716 13.536C216.716 12.612 216.89 11.826 217.238 11.178C217.598 10.518 218.09 10.014 218.714 9.666C219.35 9.306 220.058 9.126 220.838 9.126C222.026 9.126 222.938 9.474 223.574 10.17C224.21 10.854 224.528 11.796 224.528 12.996C224.528 13.572 224.51 13.944 224.474 14.112H219.182C219.23 14.88 219.452 15.468 219.848 15.876C220.244 16.272 220.796 16.47 221.504 16.47ZM222.314 12.762C222.314 12.078 222.188 11.574 221.936 11.25C221.684 10.926 221.3 10.764 220.784 10.764C220.28 10.764 219.884 10.944 219.596 11.304C219.308 11.652 219.164 12.138 219.164 12.762H222.314ZM231.272 5.346C231.692 5.346 232.022 5.496 232.262 5.796C232.514 6.096 232.64 6.498 232.64 7.002C232.64 7.482 232.532 7.968 232.316 8.46C232.1 8.952 231.836 9.342 231.524 9.63C231.212 9.906 230.888 10.044 230.552 10.044C230.096 10.044 229.796 9.84 229.652 9.432C229.868 9.336 230.06 9.21 230.228 9.054C230.396 8.898 230.528 8.73 230.624 8.55C230.72 8.358 230.774 8.166 230.786 7.974C230.498 7.746 230.294 7.524 230.174 7.308C230.066 7.08 230.012 6.828 230.012 6.552C230.012 6.216 230.126 5.934 230.354 5.706C230.594 5.466 230.9 5.346 231.272 5.346ZM227.51 5.346C227.93 5.346 228.26 5.496 228.5 5.796C228.752 6.096 228.878 6.498 228.878 7.002C228.878 7.482 228.77 7.968 228.554 8.46C228.338 8.952 228.074 9.342 227.762 9.63C227.45 9.906 227.126 10.044 226.79 10.044C226.334 10.044 226.034 9.84 225.89 9.432C226.106 9.336 226.298 9.21 226.466 9.054C226.634 8.898 226.766 8.73 226.862 8.55C226.958 8.358 227.012 8.166 227.024 7.974C226.736 7.746 226.532 7.524 226.412 7.308C226.304 7.08 226.25 6.828 226.25 6.552C226.25 6.216 226.364 5.934 226.592 5.706C226.832 5.466 227.138 5.346 227.51 5.346Z" fill="#00529B"/>
<path d="M266.405 19C264.972 19 263.81 20.3431 263.81 22C263.81 23.6569 264.972 25 266.405 25C267.838 25 269 23.6569 269 22C269 20.3431 267.838 19 266.405 19Z" fill="#00529B"/>
<rect x="248.241" y="3" width="20.7588" height="4" rx="2" fill="#00529B"/>
<rect x="257.756" y="11" width="11.2444" height="4" rx="2" fill="#00529B"/>
</svg>
