<svg width="340" height="54" viewBox="0 0 340 54" fill="none" xmlns="http://www.w3.org/2000/svg">
<rect x="0.5" y="0.5" width="339" height="53" rx="19.5" fill="#F5F9FD" stroke="#00529B" stroke-linecap="round" stroke-dasharray="7 7"/>
<path d="M100.023 33.7949C100.023 33.8359 100.013 33.8735 99.9922 33.9077C99.9717 33.9419 99.9375 33.9692 99.8896 33.9897C99.8418 34.0103 99.7769 34.0273 99.6948 34.041C99.6128 34.0547 99.5137 34.0615 99.3975 34.0615C99.2812 34.0615 99.1821 34.0547 99.1001 34.041C99.0181 34.0273 98.9531 34.0103 98.9053 33.9897C98.8574 33.9692 98.8232 33.9419 98.8027 33.9077C98.7822 33.8735 98.772 33.8359 98.772 33.7949V21.8696H92.189V33.7949C92.189 33.8359 92.1787 33.8735 92.1582 33.9077C92.1377 33.9419 92.1035 33.9692 92.0557 33.9897C92.0078 34.0103 91.9429 34.0273 91.8608 34.041C91.7856 34.0547 91.6865 34.0615 91.5635 34.0615C91.4473 34.0615 91.3481 34.0547 91.2661 34.041C91.1841 34.0273 91.1191 34.0103 91.0713 33.9897C91.0234 33.9692 90.9893 33.9419 90.9688 33.9077C90.9482 33.8735 90.938 33.8359 90.938 33.7949V21.3774C90.938 21.1587 90.9893 20.998 91.0918 20.8955C91.2012 20.7861 91.3345 20.7314 91.4917 20.7314H99.4897C99.6538 20.7314 99.7837 20.7861 99.8794 20.8955C99.9751 20.998 100.023 21.1587 100.023 21.3774V33.7949ZM111.887 29.0576C111.887 29.7959 111.791 30.4761 111.6 31.0981C111.408 31.7202 111.121 32.2603 110.738 32.7183C110.362 33.1763 109.891 33.5352 109.323 33.7949C108.756 34.0479 108.096 34.1743 107.344 34.1743C106.62 34.1743 105.984 34.0615 105.437 33.8359C104.897 33.6035 104.442 33.2754 104.073 32.8516C103.711 32.4209 103.438 31.9014 103.253 31.293C103.075 30.6846 102.986 29.9976 102.986 29.2319C102.986 28.4937 103.079 27.8135 103.263 27.1914C103.455 26.5693 103.738 26.0327 104.114 25.5815C104.497 25.1235 104.972 24.7681 105.54 24.5151C106.107 24.2622 106.77 24.1357 107.529 24.1357C108.253 24.1357 108.886 24.2485 109.426 24.4741C109.973 24.6997 110.427 25.0278 110.79 25.4585C111.152 25.8823 111.425 26.3984 111.61 27.0068C111.794 27.6152 111.887 28.2988 111.887 29.0576ZM110.595 29.1704C110.595 28.644 110.543 28.1416 110.441 27.6631C110.338 27.1846 110.167 26.7642 109.928 26.4019C109.689 26.0327 109.368 25.7422 108.964 25.5303C108.561 25.3115 108.059 25.2021 107.457 25.2021C106.903 25.2021 106.425 25.3013 106.021 25.4995C105.618 25.6978 105.287 25.9746 105.027 26.3301C104.774 26.6787 104.586 27.0923 104.463 27.5708C104.34 28.0493 104.278 28.5654 104.278 29.1191C104.278 29.6523 104.33 30.1616 104.432 30.647C104.535 31.1255 104.706 31.5459 104.945 31.9082C105.184 32.2705 105.505 32.5576 105.909 32.7695C106.312 32.9814 106.814 33.0874 107.416 33.0874C107.97 33.0874 108.448 32.9883 108.852 32.79C109.255 32.5918 109.583 32.3184 109.836 31.9697C110.096 31.6211 110.287 31.2075 110.41 30.729C110.533 30.2505 110.595 29.731 110.595 29.1704ZM121.105 32.4209C121.105 32.5029 121.102 32.5781 121.095 32.6465C121.088 32.708 121.078 32.7627 121.064 32.8105C121.05 32.8584 121.03 32.9028 121.002 32.9438C120.982 32.978 120.927 33.0396 120.838 33.1284C120.75 33.2173 120.599 33.3301 120.387 33.4668C120.182 33.6035 119.95 33.7231 119.69 33.8257C119.43 33.9282 119.15 34.0103 118.849 34.0718C118.548 34.1401 118.237 34.1743 117.916 34.1743C117.273 34.1743 116.703 34.0684 116.204 33.8564C115.711 33.6377 115.298 33.3198 114.963 32.9028C114.628 32.479 114.372 31.9629 114.194 31.3545C114.023 30.7393 113.938 30.0317 113.938 29.2319C113.938 28.3296 114.043 27.5571 114.255 26.9146C114.474 26.272 114.771 25.7456 115.147 25.3354C115.523 24.9253 115.961 24.6245 116.46 24.4331C116.966 24.2349 117.506 24.1357 118.08 24.1357C118.388 24.1357 118.682 24.1665 118.962 24.228C119.242 24.2827 119.499 24.3579 119.731 24.4536C119.97 24.5493 120.182 24.6587 120.367 24.7817C120.551 24.9048 120.685 25.0107 120.767 25.0996C120.855 25.1816 120.914 25.2466 120.941 25.2944C120.975 25.3354 120.999 25.3833 121.013 25.438C121.033 25.4927 121.047 25.5542 121.054 25.6226C121.061 25.6841 121.064 25.7593 121.064 25.8481C121.064 26.0464 121.033 26.1865 120.972 26.2686C120.917 26.3438 120.855 26.3813 120.787 26.3813C120.691 26.3813 120.572 26.3198 120.428 26.1968C120.292 26.0737 120.114 25.9404 119.895 25.7969C119.676 25.6465 119.41 25.5098 119.095 25.3867C118.788 25.2637 118.418 25.2021 117.988 25.2021C117.099 25.2021 116.412 25.5439 115.927 26.2275C115.448 26.9111 115.209 27.8989 115.209 29.1909C115.209 29.8403 115.274 30.4111 115.404 30.9033C115.534 31.3887 115.718 31.7954 115.958 32.1235C116.204 32.4448 116.501 32.6875 116.85 32.8516C117.198 33.0088 117.591 33.0874 118.029 33.0874C118.439 33.0874 118.801 33.0225 119.116 32.8926C119.43 32.7627 119.704 32.6191 119.936 32.4619C120.168 32.3047 120.36 32.1611 120.51 32.0312C120.667 31.9014 120.784 31.8364 120.859 31.8364C120.9 31.8364 120.934 31.8501 120.961 31.8774C120.996 31.8979 121.023 31.9355 121.043 31.9902C121.064 32.0381 121.078 32.0996 121.084 32.1748C121.098 32.2432 121.105 32.3252 121.105 32.4209ZM134.538 33.6719C134.544 33.8154 134.514 33.918 134.445 33.9795C134.384 34.0342 134.23 34.0615 133.984 34.0615C133.861 34.0615 133.758 34.0581 133.676 34.0513C133.594 34.0444 133.529 34.0308 133.481 34.0103C133.434 33.9966 133.399 33.9761 133.379 33.9487C133.358 33.9146 133.345 33.8735 133.338 33.8257L132.61 28.186C132.589 27.9878 132.565 27.7793 132.538 27.5605C132.518 27.335 132.497 27.1094 132.477 26.8838C132.456 26.6582 132.436 26.4326 132.415 26.207C132.395 25.9814 132.371 25.7661 132.343 25.561L132.333 25.3354C132.265 25.5337 132.193 25.7456 132.118 25.9712C132.042 26.1899 131.964 26.4121 131.882 26.6377C131.8 26.8633 131.718 27.0923 131.636 27.3247C131.561 27.5503 131.489 27.7656 131.42 27.9707L129.308 33.6616C129.281 33.7368 129.25 33.8018 129.216 33.8564C129.188 33.9043 129.151 33.9453 129.103 33.9795C129.062 34.0068 129.007 34.0273 128.939 34.041C128.871 34.0547 128.785 34.0615 128.683 34.0615C128.58 34.0615 128.495 34.0547 128.426 34.041C128.365 34.0342 128.31 34.0171 128.262 33.9897C128.214 33.9624 128.173 33.9248 128.139 33.877C128.105 33.8223 128.074 33.7539 128.047 33.6719L126.017 27.9707C125.941 27.7725 125.863 27.564 125.781 27.3452C125.706 27.1196 125.63 26.894 125.555 26.6685C125.48 26.436 125.405 26.207 125.33 25.9814C125.261 25.7559 125.2 25.5405 125.145 25.3354L125.125 25.561C125.104 25.7661 125.08 25.9814 125.053 26.207C125.032 26.4326 125.008 26.6582 124.981 26.8838C124.954 27.1094 124.926 27.335 124.899 27.5605C124.878 27.7793 124.858 27.9878 124.837 28.186L124.15 33.7129C124.144 33.7881 124.13 33.8496 124.109 33.8975C124.089 33.9453 124.051 33.9795 123.997 34C123.949 34.0273 123.884 34.0444 123.802 34.0513C123.72 34.0581 123.614 34.0615 123.484 34.0615C123.354 34.0615 123.251 34.0547 123.176 34.041C123.101 34.0273 123.046 34.0068 123.012 33.9795C122.978 33.9453 122.958 33.9043 122.951 33.8564C122.944 33.8086 122.947 33.7471 122.961 33.6719L124.038 24.8535C124.072 24.6758 124.137 24.5391 124.232 24.4434C124.335 24.3477 124.485 24.2998 124.684 24.2998H125.217C125.374 24.2998 125.507 24.3135 125.617 24.3408C125.726 24.3613 125.818 24.4023 125.894 24.4639C125.976 24.5254 126.044 24.6074 126.099 24.71C126.153 24.8057 126.208 24.9287 126.263 25.0791L127.801 29.437C127.89 29.6968 127.979 29.9531 128.067 30.2061C128.156 30.459 128.242 30.7085 128.324 30.9546C128.406 31.2007 128.481 31.4399 128.549 31.6724C128.625 31.9048 128.693 32.1304 128.754 32.3491H128.775C128.843 32.1235 128.915 31.8877 128.99 31.6416C129.065 31.3955 129.144 31.146 129.226 30.8931C129.308 30.6401 129.394 30.3906 129.482 30.1445C129.571 29.8916 129.657 29.6489 129.739 29.4165L131.287 25.0791C131.335 24.9424 131.386 24.8262 131.441 24.7305C131.496 24.6279 131.561 24.5459 131.636 24.4844C131.711 24.4229 131.8 24.3784 131.902 24.3511C132.005 24.3169 132.128 24.2998 132.271 24.2998H132.805C133.003 24.2998 133.153 24.3374 133.256 24.4126C133.365 24.4878 133.43 24.6245 133.451 24.8228L134.538 33.6719ZM145.561 29.0576C145.561 29.7959 145.465 30.4761 145.273 31.0981C145.082 31.7202 144.795 32.2603 144.412 32.7183C144.036 33.1763 143.564 33.5352 142.997 33.7949C142.43 34.0479 141.77 34.1743 141.018 34.1743C140.293 34.1743 139.658 34.0615 139.111 33.8359C138.571 33.6035 138.116 33.2754 137.747 32.8516C137.385 32.4209 137.111 31.9014 136.927 31.293C136.749 30.6846 136.66 29.9976 136.66 29.2319C136.66 28.4937 136.752 27.8135 136.937 27.1914C137.128 26.5693 137.412 26.0327 137.788 25.5815C138.171 25.1235 138.646 24.7681 139.213 24.5151C139.781 24.2622 140.444 24.1357 141.203 24.1357C141.927 24.1357 142.56 24.2485 143.1 24.4741C143.646 24.6997 144.101 25.0278 144.463 25.4585C144.826 25.8823 145.099 26.3984 145.284 27.0068C145.468 27.6152 145.561 28.2988 145.561 29.0576ZM144.269 29.1704C144.269 28.644 144.217 28.1416 144.115 27.6631C144.012 27.1846 143.841 26.7642 143.602 26.4019C143.363 26.0327 143.042 25.7422 142.638 25.5303C142.235 25.3115 141.732 25.2021 141.131 25.2021C140.577 25.2021 140.099 25.3013 139.695 25.4995C139.292 25.6978 138.96 25.9746 138.701 26.3301C138.448 26.6787 138.26 27.0923 138.137 27.5708C138.014 28.0493 137.952 28.5654 137.952 29.1191C137.952 29.6523 138.003 30.1616 138.106 30.647C138.208 31.1255 138.379 31.5459 138.619 31.9082C138.858 32.2705 139.179 32.5576 139.583 32.7695C139.986 32.9814 140.488 33.0874 141.09 33.0874C141.644 33.0874 142.122 32.9883 142.525 32.79C142.929 32.5918 143.257 32.3184 143.51 31.9697C143.77 31.6211 143.961 31.2075 144.084 30.729C144.207 30.2505 144.269 29.731 144.269 29.1704ZM154.317 24.874C154.317 24.9561 154.311 25.0312 154.297 25.0996C154.283 25.168 154.263 25.2261 154.235 25.2739C154.208 25.3218 154.174 25.3594 154.133 25.3867C154.099 25.4141 154.058 25.4277 154.01 25.4277H150.985V33.7949C150.985 33.8359 150.975 33.8735 150.954 33.9077C150.934 33.9419 150.899 33.9692 150.852 33.9897C150.811 34.0103 150.749 34.0273 150.667 34.041C150.592 34.0547 150.493 34.0615 150.37 34.0615C150.253 34.0615 150.154 34.0547 150.072 34.041C149.997 34.0273 149.936 34.0103 149.888 33.9897C149.84 33.9692 149.806 33.9419 149.785 33.9077C149.771 33.8735 149.765 33.8359 149.765 33.7949V25.4277H146.74C146.692 25.4277 146.647 25.4141 146.606 25.3867C146.572 25.3594 146.542 25.3218 146.514 25.2739C146.487 25.2261 146.466 25.168 146.453 25.0996C146.439 25.0312 146.432 24.9561 146.432 24.874C146.432 24.792 146.439 24.7168 146.453 24.6484C146.466 24.5732 146.487 24.5117 146.514 24.4639C146.542 24.4092 146.572 24.3682 146.606 24.3408C146.647 24.3135 146.692 24.2998 146.74 24.2998H154.01C154.058 24.2998 154.099 24.3135 154.133 24.3408C154.174 24.3682 154.208 24.4092 154.235 24.4639C154.263 24.5117 154.283 24.5732 154.297 24.6484C154.311 24.7168 154.317 24.792 154.317 24.874ZM164.253 29.0166C164.253 29.8096 164.165 30.5239 163.987 31.1597C163.816 31.7954 163.56 32.3354 163.218 32.7798C162.883 33.2241 162.466 33.5693 161.967 33.8154C161.468 34.0547 160.897 34.1743 160.254 34.1743C159.981 34.1743 159.725 34.1436 159.485 34.082C159.246 34.0273 159.01 33.9385 158.778 33.8154C158.552 33.6924 158.323 33.5386 158.091 33.354C157.865 33.1694 157.626 32.9473 157.373 32.6875V37.4761C157.373 37.5171 157.363 37.5547 157.342 37.5889C157.322 37.623 157.288 37.6504 157.24 37.6709C157.199 37.6982 157.137 37.7153 157.055 37.7222C156.98 37.7358 156.881 37.7427 156.758 37.7427C156.642 37.7427 156.542 37.7358 156.46 37.7222C156.385 37.7153 156.324 37.6982 156.276 37.6709C156.228 37.6504 156.194 37.623 156.173 37.5889C156.16 37.5547 156.153 37.5171 156.153 37.4761V24.5151C156.153 24.4673 156.16 24.4263 156.173 24.3921C156.194 24.3579 156.225 24.3306 156.266 24.3101C156.313 24.2896 156.372 24.2759 156.44 24.269C156.515 24.2554 156.604 24.2485 156.707 24.2485C156.809 24.2485 156.895 24.2554 156.963 24.269C157.031 24.2759 157.089 24.2896 157.137 24.3101C157.185 24.3306 157.219 24.3579 157.24 24.3921C157.26 24.4263 157.271 24.4673 157.271 24.5151V25.8584C157.558 25.5645 157.831 25.3115 158.091 25.0996C158.351 24.8809 158.61 24.6997 158.87 24.5562C159.13 24.4126 159.396 24.3066 159.67 24.2383C159.943 24.1699 160.234 24.1357 160.542 24.1357C161.211 24.1357 161.782 24.2656 162.254 24.5254C162.726 24.7783 163.108 25.127 163.402 25.5713C163.703 26.0156 163.918 26.5352 164.048 27.1299C164.185 27.7178 164.253 28.3467 164.253 29.0166ZM162.972 29.2114C162.972 28.6919 162.931 28.1929 162.849 27.7144C162.767 27.229 162.626 26.7983 162.428 26.4224C162.237 26.0464 161.977 25.7456 161.649 25.52C161.328 25.2944 160.921 25.1816 160.429 25.1816C160.183 25.1816 159.94 25.2158 159.701 25.2842C159.468 25.3525 159.229 25.4653 158.983 25.6226C158.737 25.7798 158.48 25.9849 158.214 26.2378C157.947 26.4839 157.667 26.7915 157.373 27.1606V31.2007C157.886 31.8228 158.375 32.3013 158.839 32.6362C159.311 32.9644 159.803 33.1284 160.316 33.1284C160.788 33.1284 161.191 33.0156 161.526 32.79C161.868 32.5576 162.145 32.2568 162.356 31.8877C162.568 31.5117 162.722 31.0913 162.818 30.6265C162.92 30.1548 162.972 29.6831 162.972 29.2114ZM174.63 28.6782C174.63 28.9243 174.565 29.0952 174.436 29.1909C174.306 29.2798 174.179 29.3242 174.056 29.3242H167.729C167.729 29.8984 167.784 30.418 167.894 30.8828C168.01 31.3477 168.198 31.7476 168.458 32.0825C168.717 32.4106 169.056 32.6636 169.473 32.8413C169.89 33.019 170.402 33.1079 171.011 33.1079C171.441 33.1079 171.828 33.0703 172.169 32.9951C172.511 32.9199 172.805 32.8379 173.051 32.749C173.304 32.6533 173.509 32.5679 173.667 32.4927C173.831 32.4175 173.947 32.3799 174.015 32.3799C174.056 32.3799 174.094 32.3901 174.128 32.4106C174.162 32.4312 174.189 32.4653 174.21 32.5132C174.23 32.5542 174.244 32.6089 174.251 32.6772C174.265 32.7456 174.271 32.8311 174.271 32.9336C174.271 32.9814 174.268 33.0293 174.261 33.0771C174.254 33.1182 174.244 33.1592 174.23 33.2002C174.224 33.2344 174.21 33.2686 174.189 33.3027C174.169 33.3369 174.142 33.3711 174.107 33.4053C174.073 33.4395 173.967 33.501 173.79 33.5898C173.612 33.6719 173.379 33.7573 173.092 33.8462C172.805 33.9282 172.47 34.0034 172.087 34.0718C171.711 34.1401 171.305 34.1743 170.867 34.1743C170.149 34.1743 169.514 34.0684 168.96 33.8564C168.406 33.6377 167.941 33.3198 167.565 32.9028C167.189 32.479 166.902 31.9561 166.704 31.334C166.513 30.7119 166.417 29.9907 166.417 29.1704C166.417 28.3843 166.516 27.6802 166.714 27.0581C166.919 26.436 167.21 25.9097 167.586 25.479C167.962 25.0415 168.413 24.71 168.939 24.4844C169.473 24.252 170.064 24.1357 170.713 24.1357C171.411 24.1357 172.005 24.252 172.498 24.4844C172.99 24.7168 173.393 25.0312 173.708 25.4277C174.029 25.8174 174.261 26.272 174.405 26.7915C174.555 27.311 174.63 27.8579 174.63 28.4321V28.6782ZM173.369 28.3193C173.39 27.335 173.164 26.5659 172.692 26.0122C172.221 25.4585 171.534 25.1816 170.631 25.1816C170.167 25.1816 169.756 25.2705 169.401 25.4482C169.052 25.6191 168.755 25.8481 168.509 26.1353C168.27 26.4224 168.085 26.7573 167.955 27.1401C167.825 27.5161 167.75 27.9092 167.729 28.3193H173.369ZM183.623 24.874C183.623 24.9561 183.616 25.0312 183.603 25.0996C183.589 25.168 183.568 25.2261 183.541 25.2739C183.514 25.3218 183.479 25.3594 183.438 25.3867C183.404 25.4141 183.363 25.4277 183.315 25.4277H180.291V33.7949C180.291 33.8359 180.28 33.8735 180.26 33.9077C180.239 33.9419 180.205 33.9692 180.157 33.9897C180.116 34.0103 180.055 34.0273 179.973 34.041C179.897 34.0547 179.798 34.0615 179.675 34.0615C179.559 34.0615 179.46 34.0547 179.378 34.041C179.303 34.0273 179.241 34.0103 179.193 33.9897C179.146 33.9692 179.111 33.9419 179.091 33.9077C179.077 33.8735 179.07 33.8359 179.07 33.7949V25.4277H176.045C175.998 25.4277 175.953 25.4141 175.912 25.3867C175.878 25.3594 175.847 25.3218 175.82 25.2739C175.792 25.2261 175.772 25.168 175.758 25.0996C175.745 25.0312 175.738 24.9561 175.738 24.874C175.738 24.792 175.745 24.7168 175.758 24.6484C175.772 24.5732 175.792 24.5117 175.82 24.4639C175.847 24.4092 175.878 24.3682 175.912 24.3408C175.953 24.3135 175.998 24.2998 176.045 24.2998H183.315C183.363 24.2998 183.404 24.3135 183.438 24.3408C183.479 24.3682 183.514 24.4092 183.541 24.4639C183.568 24.5117 183.589 24.5732 183.603 24.6484C183.616 24.7168 183.623 24.792 183.623 24.874ZM192.564 30.9443C192.564 31.375 192.486 31.7852 192.329 32.1748C192.171 32.5645 191.918 32.9062 191.57 33.2002C191.228 33.4873 190.787 33.7197 190.247 33.8975C189.707 34.0684 189.054 34.1538 188.289 34.1538C188.125 34.1538 187.954 34.1504 187.776 34.1436C187.605 34.1436 187.434 34.1367 187.263 34.123C187.092 34.1162 186.921 34.106 186.75 34.0923C186.586 34.0786 186.422 34.0615 186.258 34.041C185.992 34.0068 185.79 33.918 185.653 33.7744C185.523 33.6309 185.458 33.4155 185.458 33.1284V24.5151C185.458 24.4741 185.465 24.4365 185.479 24.4023C185.5 24.3682 185.534 24.3408 185.582 24.3203C185.629 24.293 185.691 24.2759 185.766 24.269C185.848 24.2554 185.947 24.2485 186.063 24.2485C186.187 24.2485 186.286 24.2554 186.361 24.269C186.443 24.2759 186.504 24.293 186.545 24.3203C186.593 24.3408 186.627 24.3682 186.648 24.4023C186.668 24.4365 186.679 24.4741 186.679 24.5151V28.0117C186.938 27.9912 187.222 27.9775 187.53 27.9707C187.837 27.957 188.148 27.9502 188.463 27.9502C189.194 27.9502 189.82 28.022 190.339 28.1655C190.859 28.3091 191.283 28.5142 191.611 28.7808C191.939 29.0405 192.178 29.355 192.329 29.7241C192.486 30.0864 192.564 30.4932 192.564 30.9443ZM191.293 31.0366C191.293 30.729 191.242 30.4521 191.139 30.2061C191.043 29.9531 190.883 29.7412 190.657 29.5703C190.432 29.3926 190.138 29.2559 189.775 29.1602C189.413 29.0645 188.969 29.0166 188.442 29.0166C188.128 29.0166 187.817 29.0269 187.509 29.0474C187.202 29.061 186.925 29.0781 186.679 29.0986V32.9746C186.938 33.002 187.215 33.0293 187.509 33.0566C187.81 33.0771 188.152 33.0874 188.535 33.0874C189.471 33.0874 190.165 32.9097 190.616 32.5542C191.067 32.1919 191.293 31.686 191.293 31.0366ZM199.301 37.1582C199.301 37.1924 199.294 37.2197 199.281 37.2402C199.267 37.2676 199.24 37.2881 199.199 37.3018C199.158 37.3223 199.106 37.3359 199.045 37.3428C198.99 37.3564 198.918 37.3633 198.83 37.3633C198.727 37.3633 198.642 37.3564 198.573 37.3428C198.512 37.3359 198.46 37.3223 198.419 37.3018C198.378 37.2881 198.348 37.2676 198.327 37.2402C198.313 37.2197 198.307 37.1924 198.307 37.1582V33.2925C198.307 33.1489 198.327 33.0532 198.368 33.0054C198.416 32.9575 198.512 32.9336 198.655 32.9336H199.394C199.66 32.6123 199.91 32.2466 200.142 31.8364C200.375 31.4194 200.59 30.8965 200.788 30.2676C200.993 29.6318 201.178 28.8696 201.342 27.981C201.513 27.0923 201.667 26.0259 201.803 24.7817C201.81 24.6997 201.824 24.6279 201.844 24.5664C201.872 24.5049 201.902 24.457 201.937 24.4229C201.978 24.3818 202.022 24.3511 202.07 24.3306C202.118 24.3101 202.169 24.2998 202.224 24.2998H207.074C207.19 24.2998 207.289 24.3408 207.371 24.4229C207.453 24.498 207.494 24.6177 207.494 24.7817V32.9336H208.889C209.012 32.9336 209.101 32.9575 209.155 33.0054C209.21 33.0532 209.237 33.1489 209.237 33.2925V37.1582C209.237 37.1924 209.23 37.2197 209.217 37.2402C209.203 37.2676 209.176 37.2881 209.135 37.3018C209.094 37.3223 209.039 37.3359 208.971 37.3428C208.902 37.3564 208.824 37.3633 208.735 37.3633C208.646 37.3633 208.571 37.3564 208.509 37.3428C208.448 37.3359 208.396 37.3223 208.355 37.3018C208.314 37.2881 208.284 37.2676 208.263 37.2402C208.25 37.2197 208.243 37.1924 208.243 37.1582V34H199.301V37.1582ZM206.274 25.3354H202.952C202.794 26.5796 202.63 27.6255 202.459 28.4731C202.295 29.3208 202.121 30.0317 201.937 30.606C201.752 31.1802 201.557 31.645 201.352 32.0005C201.147 32.3491 200.932 32.6602 200.706 32.9336H206.274V25.3354ZM219.368 29.0576C219.368 29.7959 219.272 30.4761 219.081 31.0981C218.89 31.7202 218.603 32.2603 218.22 32.7183C217.844 33.1763 217.372 33.5352 216.805 33.7949C216.237 34.0479 215.578 34.1743 214.826 34.1743C214.101 34.1743 213.465 34.0615 212.918 33.8359C212.378 33.6035 211.924 33.2754 211.555 32.8516C211.192 32.4209 210.919 31.9014 210.734 31.293C210.557 30.6846 210.468 29.9976 210.468 29.2319C210.468 28.4937 210.56 27.8135 210.745 27.1914C210.936 26.5693 211.22 26.0327 211.596 25.5815C211.979 25.1235 212.454 24.7681 213.021 24.5151C213.588 24.2622 214.251 24.1357 215.01 24.1357C215.735 24.1357 216.367 24.2485 216.907 24.4741C217.454 24.6997 217.909 25.0278 218.271 25.4585C218.633 25.8823 218.907 26.3984 219.091 27.0068C219.276 27.6152 219.368 28.2988 219.368 29.0576ZM218.076 29.1704C218.076 28.644 218.025 28.1416 217.922 27.6631C217.82 27.1846 217.649 26.7642 217.41 26.4019C217.17 26.0327 216.849 25.7422 216.446 25.5303C216.042 25.3115 215.54 25.2021 214.938 25.2021C214.385 25.2021 213.906 25.3013 213.503 25.4995C213.1 25.6978 212.768 25.9746 212.508 26.3301C212.255 26.6787 212.067 27.0923 211.944 27.5708C211.821 28.0493 211.76 28.5654 211.76 29.1191C211.76 29.6523 211.811 30.1616 211.914 30.647C212.016 31.1255 212.187 31.5459 212.426 31.9082C212.666 32.2705 212.987 32.5576 213.39 32.7695C213.793 32.9814 214.296 33.0874 214.897 33.0874C215.451 33.0874 215.93 32.9883 216.333 32.79C216.736 32.5918 217.064 32.3184 217.317 31.9697C217.577 31.6211 217.769 31.2075 217.892 30.729C218.015 30.2505 218.076 29.731 218.076 29.1704ZM229.058 33.8462C229.058 33.8804 229.048 33.9111 229.027 33.9385C229.014 33.9658 228.983 33.9863 228.935 34C228.887 34.0205 228.826 34.0342 228.75 34.041C228.675 34.0547 228.583 34.0615 228.474 34.0615C228.337 34.0615 228.224 34.0547 228.135 34.041C228.053 34.0273 227.985 34.0103 227.93 33.9897C227.875 33.9692 227.834 33.9419 227.807 33.9077C227.78 33.8735 227.759 33.8359 227.746 33.7949L226.689 31.3032C226.566 30.9819 226.426 30.7051 226.269 30.4727C226.112 30.2402 225.931 30.0522 225.726 29.9087C225.521 29.7583 225.288 29.6489 225.028 29.5806C224.769 29.5122 224.471 29.478 224.136 29.478H223.326V33.8667C223.326 33.894 223.312 33.9214 223.285 33.9487C223.258 33.9692 223.217 33.9863 223.162 34C223.107 34.0205 223.042 34.0342 222.967 34.041C222.892 34.0547 222.807 34.0615 222.711 34.0615C222.615 34.0615 222.53 34.0547 222.455 34.041C222.379 34.0342 222.314 34.0205 222.26 34C222.212 33.9863 222.174 33.9692 222.147 33.9487C222.12 33.9214 222.106 33.894 222.106 33.8667V24.4331C222.106 24.4058 222.12 24.3818 222.147 24.3613C222.174 24.334 222.212 24.3135 222.26 24.2998C222.314 24.2861 222.379 24.2759 222.455 24.269C222.53 24.2554 222.615 24.2485 222.711 24.2485C222.807 24.2485 222.892 24.2554 222.967 24.269C223.042 24.2759 223.107 24.2861 223.162 24.2998C223.217 24.3135 223.258 24.334 223.285 24.3613C223.312 24.3818 223.326 24.4058 223.326 24.4331V28.4629H224.136C224.43 28.4629 224.697 28.4321 224.936 28.3706C225.175 28.3022 225.391 28.1997 225.582 28.063C225.78 27.9194 225.955 27.7383 226.105 27.5195C226.262 27.3008 226.399 27.041 226.515 26.7402L227.428 24.5356C227.441 24.4878 227.462 24.4468 227.489 24.4126C227.517 24.3716 227.554 24.3408 227.602 24.3203C227.65 24.293 227.715 24.2759 227.797 24.269C227.879 24.2554 227.985 24.2485 228.115 24.2485C228.231 24.2485 228.327 24.2554 228.402 24.269C228.477 24.2759 228.535 24.2896 228.576 24.3101C228.617 24.3237 228.645 24.3442 228.658 24.3716C228.672 24.3921 228.679 24.4194 228.679 24.4536C228.679 24.5083 228.672 24.563 228.658 24.6177C228.645 24.6655 228.627 24.7134 228.607 24.7612L227.653 26.9453C227.517 27.2871 227.366 27.5742 227.202 27.8066C227.045 28.0322 226.884 28.2202 226.72 28.3706C226.556 28.5142 226.389 28.627 226.218 28.709C226.054 28.791 225.893 28.856 225.736 28.9038V28.9243C225.982 28.9995 226.211 29.0986 226.423 29.2217C226.635 29.3447 226.83 29.4951 227.007 29.6729C227.185 29.8438 227.349 30.0454 227.5 30.2778C227.65 30.5103 227.783 30.77 227.899 31.0571L228.986 33.5488C229 33.583 229.01 33.6138 229.017 33.6411C229.031 33.6685 229.038 33.6958 229.038 33.7231C229.044 33.7505 229.048 33.7744 229.048 33.7949C229.055 33.8154 229.058 33.8325 229.058 33.8462ZM235.108 34L233.816 37.4761C233.782 37.5513 233.71 37.6128 233.601 37.6606C233.491 37.7153 233.317 37.7427 233.078 37.7427C232.955 37.7427 232.852 37.7358 232.77 37.7222C232.688 37.7085 232.623 37.6812 232.575 37.6401C232.534 37.606 232.51 37.5581 232.503 37.4966C232.497 37.4419 232.51 37.3735 232.544 37.2915L233.857 34C233.802 33.9795 233.754 33.9453 233.713 33.8975C233.672 33.8496 233.645 33.8018 233.631 33.7539L230.258 24.6997C230.224 24.604 230.207 24.5288 230.207 24.4741C230.207 24.4126 230.224 24.3647 230.258 24.3306C230.299 24.2964 230.36 24.2759 230.442 24.269C230.531 24.2554 230.647 24.2485 230.791 24.2485C230.941 24.2485 231.061 24.2554 231.15 24.269C231.239 24.2759 231.307 24.2896 231.355 24.3101C231.41 24.3306 231.447 24.3579 231.468 24.3921C231.495 24.4263 231.519 24.4673 231.54 24.5151L234.441 32.6157H234.482L237.333 24.5151C237.367 24.4194 237.412 24.3579 237.466 24.3306C237.528 24.2964 237.606 24.2759 237.702 24.269C237.798 24.2554 237.914 24.2485 238.051 24.2485C238.181 24.2485 238.287 24.2554 238.369 24.269C238.458 24.2827 238.522 24.3066 238.563 24.3408C238.604 24.375 238.625 24.4229 238.625 24.4844C238.625 24.5391 238.608 24.6108 238.574 24.6997L235.108 34ZM251.637 33.6719C251.644 33.8154 251.613 33.918 251.545 33.9795C251.483 34.0342 251.33 34.0615 251.083 34.0615C250.96 34.0615 250.858 34.0581 250.776 34.0513C250.694 34.0444 250.629 34.0308 250.581 34.0103C250.533 33.9966 250.499 33.9761 250.479 33.9487C250.458 33.9146 250.444 33.8735 250.438 33.8257L249.709 28.186C249.689 27.9878 249.665 27.7793 249.638 27.5605C249.617 27.335 249.597 27.1094 249.576 26.8838C249.556 26.6582 249.535 26.4326 249.515 26.207C249.494 25.9814 249.47 25.7661 249.443 25.561L249.433 25.3354C249.364 25.5337 249.292 25.7456 249.217 25.9712C249.142 26.1899 249.063 26.4121 248.981 26.6377C248.899 26.8633 248.817 27.0923 248.735 27.3247C248.66 27.5503 248.588 27.7656 248.52 27.9707L246.408 33.6616C246.38 33.7368 246.35 33.8018 246.315 33.8564C246.288 33.9043 246.25 33.9453 246.203 33.9795C246.162 34.0068 246.107 34.0273 246.039 34.041C245.97 34.0547 245.885 34.0615 245.782 34.0615C245.68 34.0615 245.594 34.0547 245.526 34.041C245.464 34.0342 245.41 34.0171 245.362 33.9897C245.314 33.9624 245.273 33.9248 245.239 33.877C245.205 33.8223 245.174 33.7539 245.146 33.6719L243.116 27.9707C243.041 27.7725 242.962 27.564 242.88 27.3452C242.805 27.1196 242.73 26.894 242.655 26.6685C242.58 26.436 242.504 26.207 242.429 25.9814C242.361 25.7559 242.299 25.5405 242.245 25.3354L242.224 25.561C242.204 25.7661 242.18 25.9814 242.152 26.207C242.132 26.4326 242.108 26.6582 242.081 26.8838C242.053 27.1094 242.026 27.335 241.999 27.5605C241.978 27.7793 241.958 27.9878 241.937 28.186L241.25 33.7129C241.243 33.7881 241.229 33.8496 241.209 33.8975C241.188 33.9453 241.151 33.9795 241.096 34C241.048 34.0273 240.983 34.0444 240.901 34.0513C240.819 34.0581 240.713 34.0615 240.583 34.0615C240.454 34.0615 240.351 34.0547 240.276 34.041C240.201 34.0273 240.146 34.0068 240.112 33.9795C240.078 33.9453 240.057 33.9043 240.05 33.8564C240.043 33.8086 240.047 33.7471 240.061 33.6719L241.137 24.8535C241.171 24.6758 241.236 24.5391 241.332 24.4434C241.435 24.3477 241.585 24.2998 241.783 24.2998H242.316C242.474 24.2998 242.607 24.3135 242.716 24.3408C242.826 24.3613 242.918 24.4023 242.993 24.4639C243.075 24.5254 243.144 24.6074 243.198 24.71C243.253 24.8057 243.308 24.9287 243.362 25.0791L244.9 29.437C244.989 29.6968 245.078 29.9531 245.167 30.2061C245.256 30.459 245.341 30.7085 245.423 30.9546C245.505 31.2007 245.581 31.4399 245.649 31.6724C245.724 31.9048 245.792 32.1304 245.854 32.3491H245.875C245.943 32.1235 246.015 31.8877 246.09 31.6416C246.165 31.3955 246.244 31.146 246.326 30.8931C246.408 30.6401 246.493 30.3906 246.582 30.1445C246.671 29.8916 246.756 29.6489 246.838 29.4165L248.387 25.0791C248.435 24.9424 248.486 24.8262 248.541 24.7305C248.595 24.6279 248.66 24.5459 248.735 24.4844C248.811 24.4229 248.899 24.3784 249.002 24.3511C249.104 24.3169 249.228 24.2998 249.371 24.2998H249.904C250.103 24.2998 250.253 24.3374 250.355 24.4126C250.465 24.4878 250.53 24.6245 250.55 24.8228L251.637 33.6719ZM262.014 28.6782C262.014 28.9243 261.949 29.0952 261.819 29.1909C261.689 29.2798 261.563 29.3242 261.44 29.3242H255.113C255.113 29.8984 255.168 30.418 255.277 30.8828C255.394 31.3477 255.582 31.7476 255.841 32.0825C256.101 32.4106 256.439 32.6636 256.856 32.8413C257.273 33.019 257.786 33.1079 258.395 33.1079C258.825 33.1079 259.211 33.0703 259.553 32.9951C259.895 32.9199 260.189 32.8379 260.435 32.749C260.688 32.6533 260.893 32.5679 261.05 32.4927C261.214 32.4175 261.331 32.3799 261.399 32.3799C261.44 32.3799 261.478 32.3901 261.512 32.4106C261.546 32.4312 261.573 32.4653 261.594 32.5132C261.614 32.5542 261.628 32.6089 261.635 32.6772C261.648 32.7456 261.655 32.8311 261.655 32.9336C261.655 32.9814 261.652 33.0293 261.645 33.0771C261.638 33.1182 261.628 33.1592 261.614 33.2002C261.607 33.2344 261.594 33.2686 261.573 33.3027C261.553 33.3369 261.525 33.3711 261.491 33.4053C261.457 33.4395 261.351 33.501 261.173 33.5898C260.996 33.6719 260.763 33.7573 260.476 33.8462C260.189 33.9282 259.854 34.0034 259.471 34.0718C259.095 34.1401 258.688 34.1743 258.251 34.1743C257.533 34.1743 256.897 34.0684 256.344 33.8564C255.79 33.6377 255.325 33.3198 254.949 32.9028C254.573 32.479 254.286 31.9561 254.088 31.334C253.896 30.7119 253.801 29.9907 253.801 29.1704C253.801 28.3843 253.9 27.6802 254.098 27.0581C254.303 26.436 254.594 25.9097 254.97 25.479C255.346 25.0415 255.797 24.71 256.323 24.4844C256.856 24.252 257.448 24.1357 258.097 24.1357C258.794 24.1357 259.389 24.252 259.881 24.4844C260.374 24.7168 260.777 25.0312 261.091 25.4277C261.413 25.8174 261.645 26.272 261.789 26.7915C261.939 27.311 262.014 27.8579 262.014 28.4321V28.6782ZM260.753 28.3193C260.773 27.335 260.548 26.5659 260.076 26.0122C259.604 25.4585 258.917 25.1816 258.015 25.1816C257.55 25.1816 257.14 25.2705 256.785 25.4482C256.436 25.6191 256.139 25.8481 255.893 26.1353C255.653 26.4224 255.469 26.7573 255.339 27.1401C255.209 27.5161 255.134 27.9092 255.113 28.3193H260.753ZM272.504 33.7949C272.504 33.8359 272.494 33.8735 272.473 33.9077C272.453 33.9419 272.418 33.9692 272.371 33.9897C272.33 34.0103 272.268 34.0273 272.186 34.041C272.111 34.0547 272.015 34.0615 271.899 34.0615C271.776 34.0615 271.673 34.0547 271.591 34.041C271.516 34.0273 271.455 34.0103 271.407 33.9897C271.366 33.9692 271.335 33.9419 271.314 33.9077C271.294 33.8735 271.284 33.8359 271.284 33.7949V29.4985H266.044V33.7949C266.044 33.8359 266.034 33.8735 266.013 33.9077C265.993 33.9419 265.958 33.9692 265.911 33.9897C265.87 34.0103 265.808 34.0273 265.726 34.041C265.651 34.0547 265.552 34.0615 265.429 34.0615C265.312 34.0615 265.213 34.0547 265.131 34.041C265.056 34.0273 264.995 34.0103 264.947 33.9897C264.899 33.9692 264.865 33.9419 264.844 33.9077C264.831 33.8735 264.824 33.8359 264.824 33.7949V24.5151C264.824 24.4741 264.831 24.4365 264.844 24.4023C264.865 24.3682 264.899 24.3408 264.947 24.3203C264.995 24.293 265.056 24.2759 265.131 24.269C265.213 24.2554 265.312 24.2485 265.429 24.2485C265.552 24.2485 265.651 24.2554 265.726 24.269C265.808 24.2759 265.87 24.293 265.911 24.3203C265.958 24.3408 265.993 24.3682 266.013 24.4023C266.034 24.4365 266.044 24.4741 266.044 24.5151V28.4526H271.284V24.5151C271.284 24.4741 271.294 24.4365 271.314 24.4023C271.335 24.3682 271.366 24.3408 271.407 24.3203C271.455 24.293 271.516 24.2759 271.591 24.269C271.673 24.2554 271.776 24.2485 271.899 24.2485C272.015 24.2485 272.111 24.2554 272.186 24.269C272.268 24.2759 272.33 24.293 272.371 24.3203C272.418 24.3408 272.453 24.3682 272.473 24.4023C272.494 24.4365 272.504 24.4741 272.504 24.5151V33.7949ZM282.225 24.874C282.225 24.9561 282.218 25.0312 282.204 25.0996C282.19 25.168 282.17 25.2261 282.143 25.2739C282.115 25.3218 282.081 25.3594 282.04 25.3867C282.006 25.4141 281.965 25.4277 281.917 25.4277H278.892V33.7949C278.892 33.8359 278.882 33.8735 278.861 33.9077C278.841 33.9419 278.807 33.9692 278.759 33.9897C278.718 34.0103 278.656 34.0273 278.574 34.041C278.499 34.0547 278.4 34.0615 278.277 34.0615C278.161 34.0615 278.062 34.0547 277.979 34.041C277.904 34.0273 277.843 34.0103 277.795 33.9897C277.747 33.9692 277.713 33.9419 277.692 33.9077C277.679 33.8735 277.672 33.8359 277.672 33.7949V25.4277H274.647C274.599 25.4277 274.555 25.4141 274.514 25.3867C274.479 25.3594 274.449 25.3218 274.421 25.2739C274.394 25.2261 274.374 25.168 274.36 25.0996C274.346 25.0312 274.339 24.9561 274.339 24.874C274.339 24.792 274.346 24.7168 274.36 24.6484C274.374 24.5732 274.394 24.5117 274.421 24.4639C274.449 24.4092 274.479 24.3682 274.514 24.3408C274.555 24.3135 274.599 24.2998 274.647 24.2998H281.917C281.965 24.2998 282.006 24.3135 282.04 24.3408C282.081 24.3682 282.115 24.4092 282.143 24.4639C282.17 24.5117 282.19 24.5732 282.204 24.6484C282.218 24.7168 282.225 24.792 282.225 24.874ZM294.099 33.7949C294.099 33.8359 294.088 33.8735 294.068 33.9077C294.047 33.9419 294.013 33.9692 293.965 33.9897C293.924 34.0103 293.863 34.0273 293.781 34.041C293.706 34.0547 293.606 34.0615 293.483 34.0615C293.367 34.0615 293.268 34.0547 293.186 34.041C293.111 34.0273 293.049 34.0103 293.001 33.9897C292.954 33.9692 292.919 33.9419 292.899 33.9077C292.885 33.8735 292.878 33.8359 292.878 33.7949V24.5151C292.878 24.4741 292.885 24.4365 292.899 24.4023C292.919 24.3682 292.954 24.3408 293.001 24.3203C293.049 24.293 293.111 24.2759 293.186 24.269C293.268 24.2554 293.367 24.2485 293.483 24.2485C293.606 24.2485 293.706 24.2554 293.781 24.269C293.863 24.2759 293.924 24.293 293.965 24.3203C294.013 24.3408 294.047 24.3682 294.068 24.4023C294.088 24.4365 294.099 24.4741 294.099 24.5151V33.7949ZM285.28 28.0117C285.54 27.9912 285.8 27.9775 286.06 27.9707C286.326 27.957 286.617 27.9502 286.931 27.9502C287.649 27.9502 288.261 28.022 288.767 28.1655C289.272 28.3091 289.686 28.5142 290.007 28.7808C290.335 29.0405 290.571 29.355 290.715 29.7241C290.865 30.0864 290.94 30.4932 290.94 30.9443C290.94 31.375 290.862 31.7852 290.705 32.1748C290.554 32.5645 290.312 32.9062 289.977 33.2002C289.642 33.4873 289.208 33.7197 288.674 33.8975C288.148 34.0684 287.509 34.1538 286.757 34.1538C286.593 34.1538 286.429 34.1504 286.265 34.1436C286.107 34.1436 285.95 34.1367 285.793 34.123C285.643 34.1162 285.489 34.106 285.332 34.0923C285.181 34.0786 285.024 34.0615 284.86 34.041C284.593 34.0068 284.392 33.918 284.255 33.7744C284.125 33.6309 284.06 33.4155 284.06 33.1284V24.5151C284.06 24.4741 284.067 24.4365 284.081 24.4023C284.101 24.3682 284.135 24.3408 284.183 24.3203C284.231 24.293 284.292 24.2759 284.368 24.269C284.45 24.2554 284.549 24.2485 284.665 24.2485C284.904 24.2485 285.065 24.2725 285.147 24.3203C285.236 24.3613 285.28 24.4263 285.28 24.5151V28.0117ZM289.669 31.0366C289.669 30.729 289.621 30.4521 289.525 30.2061C289.43 29.9531 289.272 29.7412 289.054 29.5703C288.842 29.3926 288.558 29.2559 288.203 29.1602C287.854 29.0645 287.423 29.0166 286.911 29.0166C286.596 29.0166 286.306 29.0269 286.039 29.0474C285.779 29.061 285.526 29.0781 285.28 29.0986V32.9746C285.54 33.002 285.796 33.0293 286.049 33.0566C286.302 33.0771 286.62 33.0874 287.003 33.0874C287.912 33.0874 288.582 32.9097 289.013 32.5542C289.45 32.1919 289.669 31.686 289.669 31.0366Z" fill="black"/>
<g clip-path="url(#clip0_1596_17623)">
<path d="M74.8227 13.6472L73.6744 12.6314C71 10.2599 66.9048 10.5058 64.5341 13.1809L61.2477 16.8885C60.506 17.7254 60.5831 19.0104 61.4197 19.7528L61.7281 20.0265C62.5677 20.7708 63.8486 20.694 64.5935 19.8543L67.8797 16.1468C68.6127 15.3206 69.8825 15.2445 70.7093 15.9764L71.8562 16.9939C72.6832 17.7267 72.761 18.9963 72.027 19.823L64.8411 27.9295C64.2329 28.6167 63.2377 28.8021 62.4209 28.38C61.5278 27.9188 60.4386 28.1215 59.7717 28.8736L59.7157 28.9368C59.2644 29.4457 59.0763 30.1213 59.1996 30.7904C59.3229 31.4591 59.7393 32.0232 60.3418 32.3382C61.2948 32.8362 62.324 33.0774 63.343 33.0774C65.1488 33.0774 66.9233 32.3203 68.1877 30.8945L75.3731 22.789C77.7411 20.1175 77.4946 16.0171 74.8227 13.6472Z" fill="#00529B"/>
<path d="M59.5788 35.2499L59.2696 34.976C58.4321 34.2339 57.1468 34.3119 56.4049 35.1491L53.1201 38.8563C52.3867 39.6823 51.1178 39.7589 50.2918 39.0275L49.1432 38.0086C48.316 37.276 48.2383 36.0075 48.9726 35.1805L56.1583 27.0746C56.7541 26.4018 57.7343 26.2094 58.5422 26.6063C59.4706 27.0625 60.598 26.8407 61.2854 26.065L61.3112 26.0359C61.7527 25.5374 61.9385 24.8758 61.8211 24.2206C61.7037 23.5654 61.2998 23.0095 60.7128 22.6954C58.0587 21.2747 54.8103 21.856 52.8131 24.1097L45.627 32.214V32.2141C43.2586 34.8856 43.505 38.9859 46.1764 41.3548L47.3248 42.372C48.5552 43.4629 50.0883 43.9987 51.6163 43.9987C53.4061 43.9987 55.1884 43.2632 56.4665 41.8219L59.7519 38.1147C60.4951 37.2754 60.4189 35.9947 59.5788 35.2499Z" fill="#00529B"/>
</g>
<defs>
<clipPath id="clip0_1596_17623">
<rect width="33" height="33" fill="white" transform="translate(44 11)"/>
</clipPath>
</defs>
</svg>
