<svg width="99" height="54" viewBox="0 0 99 54" fill="none" xmlns="http://www.w3.org/2000/svg">
<path d="M40 45.7617C44.6716 50.2448 51.014 53 58 53C72.3594 53 84 41.3594 84 27C84 12.6406 72.3594 1 58 1C51.014 1 44.6716 3.75522 40 8.23829" stroke="#00529B" stroke-linecap="round"/>
<path d="M72 26.25C71.5858 26.25 71.25 26.5858 71.25 27C71.25 27.4142 71.5858 27.75 72 27.75V26.25ZM99 27L91.5 22.6699V31.3301L99 27ZM72 27.75H92.25V26.25H72V27.75Z" fill="#00529B"/>
<path d="M1.404 19.994C2.592 19.886 3.57 19.832 4.338 19.832C5.886 19.832 7.014 20.072 7.722 20.552C8.442 21.032 8.802 21.794 8.802 22.838C8.802 23.486 8.64 24.062 8.316 24.566C8.004 25.058 7.584 25.418 7.056 25.646C7.812 25.838 8.382 26.18 8.766 26.672C9.162 27.164 9.36 27.788 9.36 28.544C9.36 29.732 8.976 30.608 8.208 31.172C7.452 31.724 6.222 32 4.518 32H1.404V19.994ZM4.104 30.704C5.076 30.704 5.808 30.638 6.3 30.506C6.804 30.362 7.17 30.134 7.398 29.822C7.638 29.498 7.758 29.066 7.758 28.526C7.758 27.122 6.738 26.42 4.698 26.42H2.97V30.704H4.104ZM4.68 25.142C5.46 25.142 6.078 24.944 6.534 24.548C7.002 24.14 7.236 23.588 7.236 22.892C7.236 22.268 7.008 21.818 6.552 21.542C6.108 21.254 5.34 21.11 4.248 21.11C3.636 21.11 3.21 21.134 2.97 21.182V25.142H4.68ZM18.4929 23.468V32H16.9629V24.764H13.0749V32H11.5449V23.468H18.4929ZM22.2761 28.022C22.3121 28.97 22.5581 29.702 23.0141 30.218C23.4701 30.722 24.1121 30.974 24.9401 30.974C25.9361 30.974 26.7281 30.632 27.3161 29.948C27.4601 30.128 27.5801 30.314 27.6761 30.506C27.7721 30.686 27.8201 30.83 27.8201 30.938C27.8201 31.142 27.6881 31.346 27.4241 31.55C26.7761 32.03 25.9001 32.27 24.7961 32.27C23.4881 32.27 22.4741 31.874 21.7541 31.082C21.0461 30.29 20.6921 29.15 20.6921 27.662C20.6921 26.75 20.8601 25.964 21.1961 25.304C21.5321 24.644 21.9941 24.14 22.5821 23.792C23.1821 23.444 23.8421 23.27 24.5621 23.27C25.2941 23.27 25.9181 23.426 26.4341 23.738C26.9501 24.05 27.3401 24.494 27.6041 25.07C27.8801 25.634 28.0181 26.282 28.0181 27.014C28.0181 27.482 28.0001 27.818 27.9641 28.022H22.2761ZM26.4881 26.87C26.4881 26.102 26.3201 25.52 25.9841 25.124C25.6481 24.728 25.1501 24.53 24.4901 24.53C23.8661 24.53 23.3501 24.74 22.9421 25.16C22.5461 25.58 22.3241 26.15 22.2761 26.87H26.4881ZM30.125 23.432C30.245 23.42 30.359 23.414 30.467 23.414C31.115 23.414 31.505 23.702 31.637 24.278C31.901 23.954 32.243 23.708 32.663 23.54C33.095 23.36 33.581 23.27 34.121 23.27C35.201 23.27 36.047 23.648 36.659 24.404C37.271 25.16 37.577 26.234 37.577 27.626C37.577 28.622 37.427 29.468 37.127 30.164C36.839 30.848 36.413 31.37 35.849 31.73C35.297 32.09 34.661 32.27 33.941 32.27C33.437 32.27 32.981 32.18 32.573 32C32.177 31.832 31.871 31.61 31.655 31.334V35.888H30.125V23.432ZM31.655 29.966C31.871 30.254 32.165 30.494 32.537 30.686C32.909 30.866 33.293 30.956 33.689 30.956C34.421 30.956 34.979 30.68 35.363 30.128C35.747 29.576 35.939 28.772 35.939 27.716C35.939 26.684 35.747 25.904 35.363 25.376C34.979 24.836 34.409 24.566 33.653 24.566C33.089 24.566 32.615 24.686 32.231 24.926C31.847 25.166 31.655 25.454 31.655 25.79V29.966ZM40.9441 28.022C40.9801 28.97 41.2261 29.702 41.6821 30.218C42.1381 30.722 42.7801 30.974 43.6081 30.974C44.6041 30.974 45.3961 30.632 45.9841 29.948C46.1281 30.128 46.2481 30.314 46.3441 30.506C46.4401 30.686 46.4881 30.83 46.4881 30.938C46.4881 31.142 46.3561 31.346 46.0921 31.55C45.4441 32.03 44.5681 32.27 43.4641 32.27C42.1561 32.27 41.1421 31.874 40.4221 31.082C39.7141 30.29 39.3601 29.15 39.3601 27.662C39.3601 26.75 39.5281 25.964 39.8641 25.304C40.2001 24.644 40.6621 24.14 41.2501 23.792C41.8501 23.444 42.5101 23.27 43.2301 23.27C43.9621 23.27 44.5861 23.426 45.1021 23.738C45.6181 24.05 46.0081 24.494 46.2721 25.07C46.5481 25.634 46.6861 26.282 46.6861 27.014C46.6861 27.482 46.6681 27.818 46.6321 28.022H40.9441ZM45.1561 26.87C45.1561 26.102 44.9881 25.52 44.6521 25.124C44.3161 24.728 43.8181 24.53 43.1581 24.53C42.5341 24.53 42.0181 24.74 41.6101 25.16C41.2141 25.58 40.9921 26.15 40.9441 26.87H45.1561ZM47.8209 30.704H48.7749C49.1349 30.356 49.4169 29.822 49.6209 29.102C49.8249 28.382 49.9989 27.236 50.1429 25.664L50.3409 23.468H55.7769V30.704H56.7669V34.322H55.3269V32H49.2609V34.322H47.8209V30.704ZM51.4209 26.906C51.3249 27.866 51.1929 28.64 51.0249 29.228C50.8689 29.816 50.6529 30.308 50.3769 30.704H54.2829V24.764H51.6189L51.4209 26.906Z" fill="#00529B"/>
</svg>
