<svg width="91" height="54" viewBox="0 0 91 54" fill="none" xmlns="http://www.w3.org/2000/svg">
<path d="M61 45.7617C56.3284 50.2448 49.986 53 43 53C28.6406 53 17 41.3594 17 27C17 12.6406 28.6406 1 43 1C49.986 1 56.3284 3.75522 61 8.23829" stroke="#00529B" stroke-linecap="round"/>
<path d="M27 26.25C27.4142 26.25 27.75 26.5858 27.75 27C27.75 27.4142 27.4142 27.75 27 27.75V26.25ZM0 27L7.5 22.6699V31.3301L0 27ZM27 27.75H6.75V26.25H27V27.75Z" fill="#00529B"/>
<path d="M44.404 19.94C44.596 19.916 44.746 19.904 44.854 19.904C45.598 19.904 45.97 20.282 45.97 21.038V25.052H51.694V19.94C51.886 19.916 52.036 19.904 52.144 19.904C52.888 19.904 53.26 20.282 53.26 21.038V32H51.694V26.42H45.97V32H44.404V19.94ZM56.3099 25.358C56.2139 25.202 56.1299 25.034 56.0579 24.854C55.9979 24.674 55.9679 24.53 55.9679 24.422C55.9679 24.218 56.1299 24.026 56.4539 23.846C56.7779 23.666 57.1799 23.528 57.6599 23.432C58.1519 23.324 58.6379 23.27 59.1179 23.27C60.2459 23.27 61.0619 23.51 61.5659 23.99C62.0699 24.47 62.3219 25.28 62.3219 26.42V30.038C62.3219 30.374 62.3399 30.632 62.3759 30.812C62.4119 30.98 62.4779 31.1 62.5739 31.172C62.6819 31.232 62.8919 31.262 63.2039 31.262V31.982C62.9519 32.066 62.6579 32.108 62.3219 32.108C61.4339 32.108 60.9479 31.766 60.8639 31.082C60.4799 31.466 60.0659 31.742 59.6219 31.91C59.1899 32.078 58.6919 32.162 58.1279 32.162C57.2879 32.162 56.6279 31.946 56.1479 31.514C55.6679 31.07 55.4279 30.44 55.4279 29.624C55.4279 28.664 55.8359 27.92 56.6519 27.392C57.4679 26.864 58.6019 26.576 60.0539 26.528C60.4139 26.528 60.6659 26.534 60.8099 26.546V26.24C60.8099 25.64 60.6599 25.214 60.3599 24.962C60.0719 24.71 59.5979 24.584 58.9379 24.584C58.4699 24.584 58.0439 24.644 57.6599 24.764C57.2879 24.872 56.8979 25.07 56.4899 25.358H56.3099ZM60.8279 27.698H60.3059C59.2259 27.698 58.3979 27.854 57.8219 28.166C57.2459 28.478 56.9579 28.934 56.9579 29.534C56.9579 29.978 57.0839 30.32 57.3359 30.56C57.5999 30.8 57.9839 30.92 58.4879 30.92C58.8839 30.92 59.2619 30.848 59.6219 30.704C59.9939 30.56 60.2879 30.38 60.5039 30.164C60.7199 29.948 60.8279 29.75 60.8279 29.57V27.698ZM67.2702 32.252C66.8622 32.252 66.4542 32.216 66.0462 32.144C65.6382 32.084 65.3142 32 65.0742 31.892C64.7982 31.772 64.5942 31.652 64.4622 31.532C64.3422 31.412 64.2822 31.28 64.2822 31.136C64.2822 30.992 64.3242 30.842 64.4082 30.686C64.5042 30.53 64.6182 30.344 64.7502 30.128C65.0742 30.404 65.4402 30.62 65.8482 30.776C66.2682 30.932 66.7002 31.01 67.1442 31.01C68.6202 31.01 69.3582 30.554 69.3582 29.642C69.3582 29.222 69.2262 28.904 68.9622 28.688C68.7102 28.46 68.3382 28.346 67.8462 28.346H65.6322V27.05H67.8102C68.2782 27.05 68.6322 26.936 68.8722 26.708C69.1242 26.48 69.2502 26.168 69.2502 25.772C69.2502 25.34 69.0822 25.028 68.7462 24.836C68.4222 24.632 67.9182 24.53 67.2342 24.53C66.7422 24.53 66.2922 24.614 65.8842 24.782C65.4762 24.95 65.1582 25.172 64.9302 25.448H64.6782C64.5822 25.28 64.4982 25.13 64.4262 24.998C64.3662 24.854 64.3362 24.704 64.3362 24.548C64.3362 24.308 64.5402 24.068 64.9482 23.828C65.5722 23.456 66.3462 23.27 67.2702 23.27C68.4102 23.27 69.2802 23.48 69.8802 23.9C70.4922 24.32 70.7982 24.932 70.7982 25.736C70.7982 26.144 70.6782 26.528 70.4382 26.888C70.2102 27.236 69.8862 27.506 69.4662 27.698C70.4502 28.046 70.9422 28.718 70.9422 29.714C70.9422 30.542 70.6242 31.172 69.9882 31.604C69.3642 32.036 68.4582 32.252 67.2702 32.252ZM73.3958 25.358C73.2998 25.202 73.2158 25.034 73.1438 24.854C73.0838 24.674 73.0538 24.53 73.0538 24.422C73.0538 24.218 73.2158 24.026 73.5398 23.846C73.8638 23.666 74.2658 23.528 74.7458 23.432C75.2378 23.324 75.7238 23.27 76.2038 23.27C77.3318 23.27 78.1478 23.51 78.6518 23.99C79.1558 24.47 79.4078 25.28 79.4078 26.42V30.038C79.4078 30.374 79.4258 30.632 79.4618 30.812C79.4978 30.98 79.5638 31.1 79.6598 31.172C79.7678 31.232 79.9778 31.262 80.2898 31.262V31.982C80.0378 32.066 79.7438 32.108 79.4078 32.108C78.5198 32.108 78.0338 31.766 77.9498 31.082C77.5658 31.466 77.1518 31.742 76.7078 31.91C76.2758 32.078 75.7778 32.162 75.2138 32.162C74.3738 32.162 73.7138 31.946 73.2338 31.514C72.7538 31.07 72.5138 30.44 72.5138 29.624C72.5138 28.664 72.9218 27.92 73.7378 27.392C74.5538 26.864 75.6878 26.576 77.1398 26.528C77.4998 26.528 77.7518 26.534 77.8958 26.546V26.24C77.8958 25.64 77.7458 25.214 77.4458 24.962C77.1578 24.71 76.6838 24.584 76.0238 24.584C75.5558 24.584 75.1298 24.644 74.7458 24.764C74.3738 24.872 73.9838 25.07 73.5758 25.358H73.3958ZM77.9138 27.698H77.3918C76.3118 27.698 75.4838 27.854 74.9078 28.166C74.3318 28.478 74.0438 28.934 74.0438 29.534C74.0438 29.978 74.1698 30.32 74.4218 30.56C74.6858 30.8 75.0698 30.92 75.5738 30.92C75.9698 30.92 76.3478 30.848 76.7078 30.704C77.0798 30.56 77.3738 30.38 77.5898 30.164C77.8058 29.948 77.9138 29.75 77.9138 29.57V27.698ZM81.1881 30.704H82.1421C82.5021 30.356 82.7841 29.822 82.9881 29.102C83.1921 28.382 83.3661 27.236 83.5101 25.664L83.7081 23.468H89.1441V30.704H90.1341V34.322H88.6941V32H82.6281V34.322H81.1881V30.704ZM84.7881 26.906C84.6921 27.866 84.5601 28.64 84.3921 29.228C84.2361 29.816 84.0201 30.308 83.7441 30.704H87.6501V24.764H84.9861L84.7881 26.906Z" fill="#00529B"/>
</svg>
