<svg width="78" height="77" viewBox="0 0 78 77" fill="none" xmlns="http://www.w3.org/2000/svg">
<path d="M59.2999 57.088C54.1028 71.9453 35.1587 69.0825 23.7588 61.3213C12.3589 53.5602 3.33073 33.571 16.274 22.4173C29.6419 10.8979 50.287 7.68141 57.4137 19.8883C64.5403 32.0952 64.497 42.2308 59.2999 57.088Z" fill="#00529B" fill-opacity="0.5"/>
<path d="M70.5806 36.5239C78.7844 50.7519 63.6177 63.776 49.718 67.5004C35.8183 71.2248 13.8684 64.7454 13.8685 46.9172C13.8686 28.5043 25.3886 9.99467 39.8918 12.6762C54.3949 15.3578 62.3769 22.2959 70.5806 36.5239Z" fill="#00529B"/>
<path d="M41.0652 27C42.6965 27 44.0158 28.3193 44.0158 29.9505C44.0158 31.5817 42.6965 32.901 41.0652 32.901C39.434 32.901 38.1147 31.5817 38.1147 29.9505C38.1147 28.3193 39.434 27 41.0652 27ZM43.755 36.8339C43.755 36.7887 43.7183 36.7521 43.6731 36.7521H39.9278H39.7539C38.7824 36.7521 38 37.5396 38 38.506C38 39.4776 38.7875 40.26 39.7539 40.26H39.9278V50.487H39C38.4477 50.487 38 50.9347 38 51.487V53C38 53.5523 38.4477 54 39 54H44.6725C45.2248 54 45.6725 53.5523 45.6725 53V51.487C45.6725 50.9347 45.2248 50.487 44.6725 50.487H43.755V36.8339Z" fill="white"/>
</svg>
