<svg width="542" height="54" viewBox="0 0 542 54" fill="none" xmlns="http://www.w3.org/2000/svg">
<rect x="0.5" y="0.5" width="541" height="53" rx="19.5" fill="#F5F9FD" stroke="#00529B" stroke-linecap="round" stroke-dasharray="7 7"/>
<path d="M164.612 27.2119C164.612 28.2715 164.489 29.2319 164.243 30.0933C164.004 30.9478 163.642 31.6792 163.156 32.2876C162.671 32.8892 162.059 33.354 161.321 33.6821C160.583 34.0103 159.721 34.1743 158.737 34.1743C157.752 34.1743 156.905 34.0205 156.194 33.7129C155.49 33.3984 154.909 32.9541 154.451 32.3799C154 31.7988 153.665 31.0913 153.446 30.2573C153.234 29.4233 153.128 28.4834 153.128 27.4375C153.128 26.3984 153.248 25.4551 153.487 24.6074C153.726 23.7598 154.088 23.0386 154.574 22.4438C155.066 21.8423 155.678 21.3774 156.409 21.0493C157.147 20.7212 158.012 20.5571 159.003 20.5571C159.967 20.5571 160.801 20.7109 161.505 21.0186C162.209 21.3262 162.791 21.7671 163.249 22.3413C163.713 22.9155 164.055 23.6128 164.274 24.4331C164.5 25.2534 164.612 26.1797 164.612 27.2119ZM163.279 27.3247C163.279 26.5386 163.204 25.8037 163.054 25.1201C162.91 24.4297 162.667 23.8315 162.326 23.3257C161.991 22.813 161.543 22.4131 160.982 22.126C160.422 21.832 159.728 21.6851 158.901 21.6851C158.081 21.6851 157.387 21.8389 156.819 22.1465C156.259 22.4473 155.801 22.854 155.445 23.3667C155.097 23.8794 154.844 24.4775 154.687 25.1611C154.536 25.8447 154.461 26.5659 154.461 27.3247C154.461 28.1313 154.529 28.8833 154.666 29.5806C154.81 30.271 155.049 30.8726 155.384 31.3853C155.719 31.8979 156.167 32.3013 156.727 32.5952C157.288 32.8823 157.988 33.0259 158.829 33.0259C159.663 33.0259 160.364 32.8721 160.931 32.5645C161.499 32.25 161.957 31.833 162.305 31.3135C162.654 30.7871 162.903 30.1821 163.054 29.4985C163.204 28.8081 163.279 28.0835 163.279 27.3247ZM173.738 24.874C173.738 24.9561 173.731 25.0312 173.718 25.0996C173.704 25.168 173.684 25.2261 173.656 25.2739C173.629 25.3218 173.595 25.3594 173.554 25.3867C173.52 25.4141 173.479 25.4277 173.431 25.4277H170.406V33.7949C170.406 33.8359 170.396 33.8735 170.375 33.9077C170.354 33.9419 170.32 33.9692 170.272 33.9897C170.231 34.0103 170.17 34.0273 170.088 34.041C170.013 34.0547 169.914 34.0615 169.791 34.0615C169.674 34.0615 169.575 34.0547 169.493 34.041C169.418 34.0273 169.356 34.0103 169.309 33.9897C169.261 33.9692 169.227 33.9419 169.206 33.9077C169.192 33.8735 169.186 33.8359 169.186 33.7949V25.4277H166.161C166.113 25.4277 166.068 25.4141 166.027 25.3867C165.993 25.3594 165.962 25.3218 165.935 25.2739C165.908 25.2261 165.887 25.168 165.874 25.0996C165.86 25.0312 165.853 24.9561 165.853 24.874C165.853 24.792 165.86 24.7168 165.874 24.6484C165.887 24.5732 165.908 24.5117 165.935 24.4639C165.962 24.4092 165.993 24.3682 166.027 24.3408C166.068 24.3135 166.113 24.2998 166.161 24.2998H173.431C173.479 24.2998 173.52 24.3135 173.554 24.3408C173.595 24.3682 173.629 24.4092 173.656 24.4639C173.684 24.5117 173.704 24.5732 173.718 24.6484C173.731 24.7168 173.738 24.792 173.738 24.874ZM181.767 33.7949C181.767 33.8359 181.757 33.8735 181.736 33.9077C181.716 33.9419 181.682 33.9692 181.634 33.9897C181.593 34.0103 181.531 34.0273 181.449 34.041C181.374 34.0547 181.278 34.0615 181.162 34.0615C181.046 34.0615 180.947 34.0547 180.865 34.041C180.783 34.0273 180.718 34.0103 180.67 33.9897C180.622 33.9692 180.588 33.9419 180.567 33.9077C180.554 33.8735 180.547 33.8359 180.547 33.7949V29.7651C180.144 29.9565 179.713 30.1104 179.255 30.2266C178.797 30.3359 178.312 30.3906 177.799 30.3906C177.184 30.3906 176.674 30.312 176.271 30.1548C175.868 29.9907 175.543 29.7651 175.297 29.478C175.058 29.1909 174.887 28.8525 174.784 28.4629C174.688 28.0664 174.641 27.5674 174.641 26.9658V24.5151C174.641 24.4741 174.647 24.4365 174.661 24.4023C174.682 24.3682 174.716 24.3408 174.764 24.3203C174.812 24.293 174.873 24.2759 174.948 24.269C175.03 24.2554 175.129 24.2485 175.246 24.2485C175.369 24.2485 175.468 24.2554 175.543 24.269C175.625 24.2759 175.687 24.293 175.728 24.3203C175.775 24.3408 175.81 24.3682 175.83 24.4023C175.851 24.4365 175.861 24.4741 175.861 24.5151V26.7812C175.861 27.3828 175.905 27.8374 175.994 28.145C176.09 28.4526 176.223 28.6987 176.394 28.8833C176.572 29.061 176.791 29.1875 177.05 29.2627C177.31 29.3311 177.611 29.3652 177.953 29.3652C178.404 29.3652 178.841 29.3071 179.265 29.1909C179.696 29.0747 180.123 28.9106 180.547 28.6987V24.5151C180.547 24.4741 180.554 24.4365 180.567 24.4023C180.588 24.3682 180.622 24.3408 180.67 24.3203C180.718 24.293 180.783 24.2759 180.865 24.269C180.947 24.2554 181.046 24.2485 181.162 24.2485C181.278 24.2485 181.374 24.2554 181.449 24.269C181.531 24.2759 181.593 24.293 181.634 24.3203C181.682 24.3408 181.716 24.3682 181.736 24.4023C181.757 24.4365 181.767 24.4741 181.767 24.5151V33.7949ZM192.759 28.6782C192.759 28.9243 192.694 29.0952 192.564 29.1909C192.435 29.2798 192.308 29.3242 192.185 29.3242H185.858C185.858 29.8984 185.913 30.418 186.022 30.8828C186.139 31.3477 186.327 31.7476 186.586 32.0825C186.846 32.4106 187.185 32.6636 187.602 32.8413C188.019 33.019 188.531 33.1079 189.14 33.1079C189.57 33.1079 189.957 33.0703 190.298 32.9951C190.64 32.9199 190.934 32.8379 191.18 32.749C191.433 32.6533 191.638 32.5679 191.795 32.4927C191.959 32.4175 192.076 32.3799 192.144 32.3799C192.185 32.3799 192.223 32.3901 192.257 32.4106C192.291 32.4312 192.318 32.4653 192.339 32.5132C192.359 32.5542 192.373 32.6089 192.38 32.6772C192.394 32.7456 192.4 32.8311 192.4 32.9336C192.4 32.9814 192.397 33.0293 192.39 33.0771C192.383 33.1182 192.373 33.1592 192.359 33.2002C192.353 33.2344 192.339 33.2686 192.318 33.3027C192.298 33.3369 192.271 33.3711 192.236 33.4053C192.202 33.4395 192.096 33.501 191.918 33.5898C191.741 33.6719 191.508 33.7573 191.221 33.8462C190.934 33.9282 190.599 34.0034 190.216 34.0718C189.84 34.1401 189.434 34.1743 188.996 34.1743C188.278 34.1743 187.643 34.0684 187.089 33.8564C186.535 33.6377 186.07 33.3198 185.694 32.9028C185.318 32.479 185.031 31.9561 184.833 31.334C184.642 30.7119 184.546 29.9907 184.546 29.1704C184.546 28.3843 184.645 27.6802 184.843 27.0581C185.048 26.436 185.339 25.9097 185.715 25.479C186.091 25.0415 186.542 24.71 187.068 24.4844C187.602 24.252 188.193 24.1357 188.842 24.1357C189.54 24.1357 190.134 24.252 190.626 24.4844C191.119 24.7168 191.522 25.0312 191.836 25.4277C192.158 25.8174 192.39 26.272 192.534 26.7915C192.684 27.311 192.759 27.8579 192.759 28.4321V28.6782ZM191.498 28.3193C191.519 27.335 191.293 26.5659 190.821 26.0122C190.35 25.4585 189.663 25.1816 188.76 25.1816C188.295 25.1816 187.885 25.2705 187.53 25.4482C187.181 25.6191 186.884 25.8481 186.638 26.1353C186.398 26.4224 186.214 26.7573 186.084 27.1401C185.954 27.5161 185.879 27.9092 185.858 28.3193H191.498ZM201.752 24.874C201.752 24.9561 201.745 25.0312 201.731 25.0996C201.718 25.168 201.697 25.2261 201.67 25.2739C201.643 25.3218 201.608 25.3594 201.567 25.3867C201.533 25.4141 201.492 25.4277 201.444 25.4277H198.419V33.7949C198.419 33.8359 198.409 33.8735 198.389 33.9077C198.368 33.9419 198.334 33.9692 198.286 33.9897C198.245 34.0103 198.184 34.0273 198.102 34.041C198.026 34.0547 197.927 34.0615 197.804 34.0615C197.688 34.0615 197.589 34.0547 197.507 34.041C197.432 34.0273 197.37 34.0103 197.322 33.9897C197.274 33.9692 197.24 33.9419 197.22 33.9077C197.206 33.8735 197.199 33.8359 197.199 33.7949V25.4277H194.174C194.126 25.4277 194.082 25.4141 194.041 25.3867C194.007 25.3594 193.976 25.3218 193.949 25.2739C193.921 25.2261 193.901 25.168 193.887 25.0996C193.874 25.0312 193.867 24.9561 193.867 24.874C193.867 24.792 193.874 24.7168 193.887 24.6484C193.901 24.5732 193.921 24.5117 193.949 24.4639C193.976 24.4092 194.007 24.3682 194.041 24.3408C194.082 24.3135 194.126 24.2998 194.174 24.2998H201.444C201.492 24.2998 201.533 24.3135 201.567 24.3408C201.608 24.3682 201.643 24.4092 201.67 24.4639C201.697 24.5117 201.718 24.5732 201.731 24.6484C201.745 24.7168 201.752 24.792 201.752 24.874ZM216.559 29.0576C216.559 29.7959 216.463 30.4761 216.271 31.0981C216.08 31.7202 215.793 32.2603 215.41 32.7183C215.034 33.1763 214.562 33.5352 213.995 33.7949C213.428 34.0479 212.768 34.1743 212.016 34.1743C211.292 34.1743 210.656 34.0615 210.109 33.8359C209.569 33.6035 209.114 33.2754 208.745 32.8516C208.383 32.4209 208.109 31.9014 207.925 31.293C207.747 30.6846 207.658 29.9976 207.658 29.2319C207.658 28.4937 207.75 27.8135 207.935 27.1914C208.126 26.5693 208.41 26.0327 208.786 25.5815C209.169 25.1235 209.644 24.7681 210.211 24.5151C210.779 24.2622 211.442 24.1357 212.201 24.1357C212.925 24.1357 213.558 24.2485 214.098 24.4741C214.645 24.6997 215.099 25.0278 215.461 25.4585C215.824 25.8823 216.097 26.3984 216.282 27.0068C216.466 27.6152 216.559 28.2988 216.559 29.0576ZM215.267 29.1704C215.267 28.644 215.215 28.1416 215.113 27.6631C215.01 27.1846 214.839 26.7642 214.6 26.4019C214.361 26.0327 214.04 25.7422 213.636 25.5303C213.233 25.3115 212.73 25.2021 212.129 25.2021C211.575 25.2021 211.097 25.3013 210.693 25.4995C210.29 25.6978 209.958 25.9746 209.699 26.3301C209.446 26.6787 209.258 27.0923 209.135 27.5708C209.012 28.0493 208.95 28.5654 208.95 29.1191C208.95 29.6523 209.001 30.1616 209.104 30.647C209.207 31.1255 209.377 31.5459 209.617 31.9082C209.856 32.2705 210.177 32.5576 210.581 32.7695C210.984 32.9814 211.486 33.0874 212.088 33.0874C212.642 33.0874 213.12 32.9883 213.523 32.79C213.927 32.5918 214.255 32.3184 214.508 31.9697C214.768 31.6211 214.959 31.2075 215.082 30.729C215.205 30.2505 215.267 29.731 215.267 29.1704ZM223.562 37.1582C223.562 37.1924 223.555 37.2197 223.542 37.2402C223.528 37.2676 223.5 37.2881 223.459 37.3018C223.418 37.3223 223.367 37.3359 223.306 37.3428C223.251 37.3564 223.179 37.3633 223.09 37.3633C222.988 37.3633 222.902 37.3564 222.834 37.3428C222.772 37.3359 222.721 37.3223 222.68 37.3018C222.639 37.2881 222.608 37.2676 222.588 37.2402C222.574 37.2197 222.567 37.1924 222.567 37.1582V33.2925C222.567 33.1489 222.588 33.0532 222.629 33.0054C222.677 32.9575 222.772 32.9336 222.916 32.9336H223.654C223.921 32.6123 224.17 32.2466 224.403 31.8364C224.635 31.4194 224.851 30.8965 225.049 30.2676C225.254 29.6318 225.438 28.8696 225.603 27.981C225.773 27.0923 225.927 26.0259 226.064 24.7817C226.071 24.6997 226.084 24.6279 226.105 24.5664C226.132 24.5049 226.163 24.457 226.197 24.4229C226.238 24.3818 226.283 24.3511 226.331 24.3306C226.378 24.3101 226.43 24.2998 226.484 24.2998H231.334C231.451 24.2998 231.55 24.3408 231.632 24.4229C231.714 24.498 231.755 24.6177 231.755 24.7817V32.9336H233.149C233.272 32.9336 233.361 32.9575 233.416 33.0054C233.471 33.0532 233.498 33.1489 233.498 33.2925V37.1582C233.498 37.1924 233.491 37.2197 233.478 37.2402C233.464 37.2676 233.437 37.2881 233.396 37.3018C233.354 37.3223 233.3 37.3359 233.231 37.3428C233.163 37.3564 233.084 37.3633 232.996 37.3633C232.907 37.3633 232.832 37.3564 232.77 37.3428C232.708 37.3359 232.657 37.3223 232.616 37.3018C232.575 37.2881 232.544 37.2676 232.524 37.2402C232.51 37.2197 232.503 37.1924 232.503 37.1582V34H223.562V37.1582ZM230.535 25.3354H227.212C227.055 26.5796 226.891 27.6255 226.72 28.4731C226.556 29.3208 226.382 30.0317 226.197 30.606C226.013 31.1802 225.818 31.645 225.613 32.0005C225.408 32.3491 225.192 32.6602 224.967 32.9336H230.535V25.3354ZM242.921 28.6782C242.921 28.9243 242.856 29.0952 242.727 29.1909C242.597 29.2798 242.47 29.3242 242.347 29.3242H236.021C236.021 29.8984 236.075 30.418 236.185 30.8828C236.301 31.3477 236.489 31.7476 236.749 32.0825C237.008 32.4106 237.347 32.6636 237.764 32.8413C238.181 33.019 238.693 33.1079 239.302 33.1079C239.732 33.1079 240.119 33.0703 240.46 32.9951C240.802 32.9199 241.096 32.8379 241.342 32.749C241.595 32.6533 241.8 32.5679 241.958 32.4927C242.122 32.4175 242.238 32.3799 242.306 32.3799C242.347 32.3799 242.385 32.3901 242.419 32.4106C242.453 32.4312 242.48 32.4653 242.501 32.5132C242.521 32.5542 242.535 32.6089 242.542 32.6772C242.556 32.7456 242.562 32.8311 242.562 32.9336C242.562 32.9814 242.559 33.0293 242.552 33.0771C242.545 33.1182 242.535 33.1592 242.521 33.2002C242.515 33.2344 242.501 33.2686 242.48 33.3027C242.46 33.3369 242.433 33.3711 242.398 33.4053C242.364 33.4395 242.258 33.501 242.081 33.5898C241.903 33.6719 241.67 33.7573 241.383 33.8462C241.096 33.9282 240.761 34.0034 240.378 34.0718C240.002 34.1401 239.596 34.1743 239.158 34.1743C238.44 34.1743 237.805 34.0684 237.251 33.8564C236.697 33.6377 236.232 33.3198 235.856 32.9028C235.48 32.479 235.193 31.9561 234.995 31.334C234.804 30.7119 234.708 29.9907 234.708 29.1704C234.708 28.3843 234.807 27.6802 235.005 27.0581C235.21 26.436 235.501 25.9097 235.877 25.479C236.253 25.0415 236.704 24.71 237.23 24.4844C237.764 24.252 238.355 24.1357 239.004 24.1357C239.702 24.1357 240.296 24.252 240.789 24.4844C241.281 24.7168 241.684 25.0312 241.999 25.4277C242.32 25.8174 242.552 26.272 242.696 26.7915C242.846 27.311 242.921 27.8579 242.921 28.4321V28.6782ZM241.66 28.3193C241.681 27.335 241.455 26.5659 240.983 26.0122C240.512 25.4585 239.825 25.1816 238.922 25.1816C238.458 25.1816 238.047 25.2705 237.692 25.4482C237.343 25.6191 237.046 25.8481 236.8 26.1353C236.561 26.4224 236.376 26.7573 236.246 27.1401C236.116 27.5161 236.041 27.9092 236.021 28.3193H241.66ZM251.986 33.7949C251.986 33.8359 251.976 33.8735 251.955 33.9077C251.935 33.9419 251.9 33.9692 251.853 33.9897C251.812 34.0103 251.75 34.0273 251.668 34.041C251.593 34.0547 251.494 34.0615 251.371 34.0615C251.254 34.0615 251.155 34.0547 251.073 34.041C250.998 34.0273 250.937 34.0103 250.889 33.9897C250.841 33.9692 250.807 33.9419 250.786 33.9077C250.772 33.8735 250.766 33.8359 250.766 33.7949V29.6626H249.638C249.152 29.6626 248.776 29.7036 248.51 29.7856C248.25 29.8608 248.014 29.9839 247.802 30.1548C247.597 30.3257 247.413 30.5444 247.249 30.811C247.091 31.0708 246.941 31.3853 246.797 31.7544L245.977 33.6719C245.943 33.7539 245.909 33.8223 245.875 33.877C245.84 33.9248 245.792 33.9624 245.731 33.9897C245.676 34.0171 245.604 34.0342 245.516 34.041C245.434 34.0547 245.328 34.0615 245.198 34.0615C245.129 34.0615 245.064 34.0581 245.003 34.0513C244.941 34.0444 244.883 34.0308 244.829 34.0103C244.781 33.9966 244.74 33.9761 244.706 33.9487C244.678 33.9146 244.665 33.8735 244.665 33.8257C244.665 33.7915 244.678 33.73 244.706 33.6411C244.74 33.5522 244.808 33.3882 244.911 33.1489L245.71 31.2622C245.902 30.811 246.141 30.4214 246.428 30.0933C246.722 29.7583 247.054 29.5156 247.423 29.3652C246.746 29.249 246.206 28.9893 245.803 28.5859C245.399 28.1826 245.198 27.6426 245.198 26.9658C245.198 26.5352 245.287 26.1489 245.464 25.8071C245.642 25.4653 245.902 25.1748 246.244 24.9355C246.592 24.6963 247.013 24.5117 247.505 24.3818C248.004 24.252 248.571 24.187 249.207 24.187C249.337 24.187 249.498 24.1938 249.689 24.2075C249.887 24.2144 250.092 24.2246 250.304 24.2383C250.516 24.252 250.718 24.2656 250.909 24.2793C251.107 24.293 251.268 24.3066 251.391 24.3203C251.589 24.3408 251.736 24.4126 251.832 24.5356C251.935 24.6587 251.986 24.8091 251.986 24.9868V33.7949ZM250.766 25.2944C250.485 25.2603 250.202 25.2363 249.915 25.2227C249.627 25.209 249.361 25.2021 249.115 25.2021C248.595 25.2021 248.161 25.2466 247.812 25.3354C247.471 25.4243 247.194 25.5474 246.982 25.7046C246.777 25.8618 246.63 26.0498 246.541 26.2686C246.459 26.4805 246.418 26.7129 246.418 26.9658C246.418 27.2324 246.466 27.4717 246.562 27.6836C246.664 27.8955 246.818 28.0767 247.023 28.2271C247.235 28.3706 247.501 28.4834 247.823 28.5654C248.151 28.6406 248.612 28.6782 249.207 28.6782H250.766V25.2944ZM261.696 24.874C261.696 24.9561 261.689 25.0312 261.676 25.0996C261.662 25.168 261.642 25.2261 261.614 25.2739C261.587 25.3218 261.553 25.3594 261.512 25.3867C261.478 25.4141 261.437 25.4277 261.389 25.4277H258.364V33.7949C258.364 33.8359 258.354 33.8735 258.333 33.9077C258.312 33.9419 258.278 33.9692 258.23 33.9897C258.189 34.0103 258.128 34.0273 258.046 34.041C257.971 34.0547 257.872 34.0615 257.749 34.0615C257.632 34.0615 257.533 34.0547 257.451 34.041C257.376 34.0273 257.314 34.0103 257.267 33.9897C257.219 33.9692 257.185 33.9419 257.164 33.9077C257.15 33.8735 257.144 33.8359 257.144 33.7949V25.4277H254.119C254.071 25.4277 254.026 25.4141 253.985 25.3867C253.951 25.3594 253.92 25.3218 253.893 25.2739C253.866 25.2261 253.845 25.168 253.832 25.0996C253.818 25.0312 253.811 24.9561 253.811 24.874C253.811 24.792 253.818 24.7168 253.832 24.6484C253.845 24.5732 253.866 24.5117 253.893 24.4639C253.92 24.4092 253.951 24.3682 253.985 24.3408C254.026 24.3135 254.071 24.2998 254.119 24.2998H261.389C261.437 24.2998 261.478 24.3135 261.512 24.3408C261.553 24.3682 261.587 24.4092 261.614 24.4639C261.642 24.5117 261.662 24.5732 261.676 24.6484C261.689 24.7168 261.696 24.792 261.696 24.874ZM270.935 28.6782C270.935 28.9243 270.87 29.0952 270.74 29.1909C270.61 29.2798 270.484 29.3242 270.361 29.3242H264.034C264.034 29.8984 264.089 30.418 264.198 30.8828C264.314 31.3477 264.502 31.7476 264.762 32.0825C265.022 32.4106 265.36 32.6636 265.777 32.8413C266.194 33.019 266.707 33.1079 267.315 33.1079C267.746 33.1079 268.132 33.0703 268.474 32.9951C268.816 32.9199 269.11 32.8379 269.356 32.749C269.609 32.6533 269.814 32.5679 269.971 32.4927C270.135 32.4175 270.251 32.3799 270.32 32.3799C270.361 32.3799 270.398 32.3901 270.433 32.4106C270.467 32.4312 270.494 32.4653 270.515 32.5132C270.535 32.5542 270.549 32.6089 270.556 32.6772C270.569 32.7456 270.576 32.8311 270.576 32.9336C270.576 32.9814 270.573 33.0293 270.566 33.0771C270.559 33.1182 270.549 33.1592 270.535 33.2002C270.528 33.2344 270.515 33.2686 270.494 33.3027C270.474 33.3369 270.446 33.3711 270.412 33.4053C270.378 33.4395 270.272 33.501 270.094 33.5898C269.917 33.6719 269.684 33.7573 269.397 33.8462C269.11 33.9282 268.775 34.0034 268.392 34.0718C268.016 34.1401 267.609 34.1743 267.172 34.1743C266.454 34.1743 265.818 34.0684 265.265 33.8564C264.711 33.6377 264.246 33.3198 263.87 32.9028C263.494 32.479 263.207 31.9561 263.009 31.334C262.817 30.7119 262.722 29.9907 262.722 29.1704C262.722 28.3843 262.821 27.6802 263.019 27.0581C263.224 26.436 263.515 25.9097 263.891 25.479C264.267 25.0415 264.718 24.71 265.244 24.4844C265.777 24.252 266.369 24.1357 267.018 24.1357C267.715 24.1357 268.31 24.252 268.802 24.4844C269.294 24.7168 269.698 25.0312 270.012 25.4277C270.333 25.8174 270.566 26.272 270.709 26.7915C270.86 27.311 270.935 27.8579 270.935 28.4321V28.6782ZM269.674 28.3193C269.694 27.335 269.469 26.5659 268.997 26.0122C268.525 25.4585 267.838 25.1816 266.936 25.1816C266.471 25.1816 266.061 25.2705 265.706 25.4482C265.357 25.6191 265.06 25.8481 264.813 26.1353C264.574 26.4224 264.39 26.7573 264.26 27.1401C264.13 27.5161 264.055 27.9092 264.034 28.3193H269.674ZM280.481 33.7949C280.481 33.8359 280.471 33.8735 280.451 33.9077C280.43 33.9419 280.396 33.9692 280.348 33.9897C280.307 34.0103 280.246 34.0273 280.164 34.041C280.088 34.0547 279.993 34.0615 279.876 34.0615C279.753 34.0615 279.651 34.0547 279.569 34.041C279.494 34.0273 279.432 34.0103 279.384 33.9897C279.336 33.9692 279.302 33.9419 279.282 33.9077C279.268 33.8735 279.261 33.8359 279.261 33.7949V25.3662H276.339C276.223 26.4668 276.089 27.4512 275.939 28.3193C275.795 29.1807 275.631 29.9395 275.447 30.5957C275.262 31.2451 275.057 31.7988 274.832 32.2568C274.606 32.708 274.356 33.0771 274.083 33.3643C273.816 33.6445 273.522 33.8496 273.201 33.9795C272.887 34.1094 272.545 34.1743 272.176 34.1743C272.135 34.1743 272.097 34.1641 272.063 34.1436C272.029 34.1299 271.998 34.1025 271.971 34.0615C271.95 34.0205 271.933 33.9658 271.919 33.8975C271.913 33.8223 271.909 33.73 271.909 33.6206C271.909 33.5044 271.913 33.4087 271.919 33.3335C271.933 33.2583 271.95 33.1968 271.971 33.1489C271.991 33.1011 272.015 33.0703 272.042 33.0566C272.077 33.0361 272.114 33.0259 272.155 33.0259C272.408 33.0259 272.644 32.9678 272.863 32.8516C273.088 32.7285 273.297 32.5337 273.488 32.2671C273.68 32.0005 273.857 31.6553 274.021 31.2314C274.186 30.8076 274.336 30.2915 274.473 29.6831C274.616 29.0679 274.75 28.3569 274.873 27.5503C274.996 26.7437 275.112 25.8208 275.221 24.7817C275.235 24.6177 275.276 24.498 275.344 24.4229C275.419 24.3408 275.515 24.2998 275.631 24.2998H280.061C280.177 24.2998 280.276 24.3408 280.358 24.4229C280.44 24.498 280.481 24.6177 280.481 24.7817V33.7949ZM291.022 30.9443C291.022 31.375 290.944 31.7852 290.787 32.1748C290.629 32.5645 290.376 32.9062 290.028 33.2002C289.686 33.4873 289.245 33.7197 288.705 33.8975C288.165 34.0684 287.512 34.1538 286.747 34.1538C286.583 34.1538 286.412 34.1504 286.234 34.1436C286.063 34.1436 285.892 34.1367 285.721 34.123C285.55 34.1162 285.379 34.106 285.208 34.0923C285.044 34.0786 284.88 34.0615 284.716 34.041C284.45 34.0068 284.248 33.918 284.111 33.7744C283.981 33.6309 283.917 33.4155 283.917 33.1284V24.5151C283.917 24.4741 283.923 24.4365 283.937 24.4023C283.958 24.3682 283.992 24.3408 284.04 24.3203C284.087 24.293 284.149 24.2759 284.224 24.269C284.306 24.2554 284.405 24.2485 284.521 24.2485C284.645 24.2485 284.744 24.2554 284.819 24.269C284.901 24.2759 284.962 24.293 285.003 24.3203C285.051 24.3408 285.085 24.3682 285.106 24.4023C285.126 24.4365 285.137 24.4741 285.137 24.5151V28.0117C285.396 27.9912 285.68 27.9775 285.988 27.9707C286.295 27.957 286.606 27.9502 286.921 27.9502C287.652 27.9502 288.278 28.022 288.797 28.1655C289.317 28.3091 289.741 28.5142 290.069 28.7808C290.397 29.0405 290.636 29.355 290.787 29.7241C290.944 30.0864 291.022 30.4932 291.022 30.9443ZM289.751 31.0366C289.751 30.729 289.7 30.4521 289.597 30.2061C289.501 29.9531 289.341 29.7412 289.115 29.5703C288.89 29.3926 288.596 29.2559 288.233 29.1602C287.871 29.0645 287.427 29.0166 286.9 29.0166C286.586 29.0166 286.275 29.0269 285.967 29.0474C285.66 29.061 285.383 29.0781 285.137 29.0986V32.9746C285.396 33.002 285.673 33.0293 285.967 33.0566C286.268 33.0771 286.61 33.0874 286.993 33.0874C287.929 33.0874 288.623 32.9097 289.074 32.5542C289.525 32.1919 289.751 31.686 289.751 31.0366ZM301.174 33.7949C301.174 33.8359 301.164 33.8735 301.143 33.9077C301.123 33.9419 301.088 33.9692 301.041 33.9897C301 34.0103 300.938 34.0273 300.856 34.041C300.781 34.0547 300.685 34.0615 300.569 34.0615C300.446 34.0615 300.343 34.0547 300.261 34.041C300.186 34.0273 300.125 34.0103 300.077 33.9897C300.036 33.9692 300.005 33.9419 299.984 33.9077C299.964 33.8735 299.954 33.8359 299.954 33.7949V29.4985H294.714V33.7949C294.714 33.8359 294.704 33.8735 294.683 33.9077C294.663 33.9419 294.628 33.9692 294.581 33.9897C294.54 34.0103 294.478 34.0273 294.396 34.041C294.321 34.0547 294.222 34.0615 294.099 34.0615C293.982 34.0615 293.883 34.0547 293.801 34.041C293.726 34.0273 293.665 34.0103 293.617 33.9897C293.569 33.9692 293.535 33.9419 293.514 33.9077C293.5 33.8735 293.494 33.8359 293.494 33.7949V24.5151C293.494 24.4741 293.5 24.4365 293.514 24.4023C293.535 24.3682 293.569 24.3408 293.617 24.3203C293.665 24.293 293.726 24.2759 293.801 24.269C293.883 24.2554 293.982 24.2485 294.099 24.2485C294.222 24.2485 294.321 24.2554 294.396 24.269C294.478 24.2759 294.54 24.293 294.581 24.3203C294.628 24.3408 294.663 24.3682 294.683 24.4023C294.704 24.4365 294.714 24.4741 294.714 24.5151V28.4526H299.954V24.5151C299.954 24.4741 299.964 24.4365 299.984 24.4023C300.005 24.3682 300.036 24.3408 300.077 24.3203C300.125 24.293 300.186 24.2759 300.261 24.269C300.343 24.2554 300.446 24.2485 300.569 24.2485C300.685 24.2485 300.781 24.2554 300.856 24.269C300.938 24.2759 301 24.293 301.041 24.3203C301.088 24.3408 301.123 24.3682 301.143 24.4023C301.164 24.4365 301.174 24.4741 301.174 24.5151V33.7949ZM312.822 29.0576C312.822 29.7959 312.727 30.4761 312.535 31.0981C312.344 31.7202 312.057 32.2603 311.674 32.7183C311.298 33.1763 310.826 33.5352 310.259 33.7949C309.691 34.0479 309.032 34.1743 308.28 34.1743C307.555 34.1743 306.919 34.0615 306.373 33.8359C305.833 33.6035 305.378 33.2754 305.009 32.8516C304.646 32.4209 304.373 31.9014 304.188 31.293C304.011 30.6846 303.922 29.9976 303.922 29.2319C303.922 28.4937 304.014 27.8135 304.199 27.1914C304.39 26.5693 304.674 26.0327 305.05 25.5815C305.433 25.1235 305.908 24.7681 306.475 24.5151C307.042 24.2622 307.706 24.1357 308.464 24.1357C309.189 24.1357 309.821 24.2485 310.361 24.4741C310.908 24.6997 311.363 25.0278 311.725 25.4585C312.087 25.8823 312.361 26.3984 312.545 27.0068C312.73 27.6152 312.822 28.2988 312.822 29.0576ZM311.53 29.1704C311.53 28.644 311.479 28.1416 311.376 27.6631C311.274 27.1846 311.103 26.7642 310.864 26.4019C310.625 26.0327 310.303 25.7422 309.9 25.5303C309.497 25.3115 308.994 25.2021 308.393 25.2021C307.839 25.2021 307.36 25.3013 306.957 25.4995C306.554 25.6978 306.222 25.9746 305.962 26.3301C305.709 26.6787 305.521 27.0923 305.398 27.5708C305.275 28.0493 305.214 28.5654 305.214 29.1191C305.214 29.6523 305.265 30.1616 305.368 30.647C305.47 31.1255 305.641 31.5459 305.88 31.9082C306.12 32.2705 306.441 32.5576 306.844 32.7695C307.248 32.9814 307.75 33.0874 308.352 33.0874C308.905 33.0874 309.384 32.9883 309.787 32.79C310.19 32.5918 310.519 32.3184 310.771 31.9697C311.031 31.6211 311.223 31.2075 311.346 30.729C311.469 30.2505 311.53 29.731 311.53 29.1704ZM322.041 32.4209C322.041 32.5029 322.037 32.5781 322.03 32.6465C322.023 32.708 322.013 32.7627 322 32.8105C321.986 32.8584 321.965 32.9028 321.938 32.9438C321.917 32.978 321.863 33.0396 321.774 33.1284C321.685 33.2173 321.535 33.3301 321.323 33.4668C321.118 33.6035 320.885 33.7231 320.625 33.8257C320.366 33.9282 320.085 34.0103 319.785 34.0718C319.484 34.1401 319.173 34.1743 318.852 34.1743C318.209 34.1743 317.638 34.0684 317.139 33.8564C316.647 33.6377 316.233 33.3198 315.898 32.9028C315.563 32.479 315.307 31.9629 315.129 31.3545C314.958 30.7393 314.873 30.0317 314.873 29.2319C314.873 28.3296 314.979 27.5571 315.191 26.9146C315.41 26.272 315.707 25.7456 316.083 25.3354C316.459 24.9253 316.896 24.6245 317.396 24.4331C317.901 24.2349 318.441 24.1357 319.016 24.1357C319.323 24.1357 319.617 24.1665 319.897 24.228C320.178 24.2827 320.434 24.3579 320.667 24.4536C320.906 24.5493 321.118 24.6587 321.302 24.7817C321.487 24.9048 321.62 25.0107 321.702 25.0996C321.791 25.1816 321.849 25.2466 321.876 25.2944C321.911 25.3354 321.935 25.3833 321.948 25.438C321.969 25.4927 321.982 25.5542 321.989 25.6226C321.996 25.6841 322 25.7593 322 25.8481C322 26.0464 321.969 26.1865 321.907 26.2686C321.853 26.3438 321.791 26.3813 321.723 26.3813C321.627 26.3813 321.507 26.3198 321.364 26.1968C321.227 26.0737 321.049 25.9404 320.831 25.7969C320.612 25.6465 320.345 25.5098 320.031 25.3867C319.723 25.2637 319.354 25.2021 318.923 25.2021C318.035 25.2021 317.348 25.5439 316.862 26.2275C316.384 26.9111 316.145 27.8989 316.145 29.1909C316.145 29.8403 316.209 30.4111 316.339 30.9033C316.469 31.3887 316.654 31.7954 316.893 32.1235C317.139 32.4448 317.437 32.6875 317.785 32.8516C318.134 33.0088 318.527 33.0874 318.964 33.0874C319.375 33.0874 319.737 33.0225 320.051 32.8926C320.366 32.7627 320.639 32.6191 320.872 32.4619C321.104 32.3047 321.295 32.1611 321.446 32.0312C321.603 31.9014 321.719 31.8364 321.794 31.8364C321.835 31.8364 321.87 31.8501 321.897 31.8774C321.931 31.8979 321.958 31.9355 321.979 31.9902C322 32.0381 322.013 32.0996 322.02 32.1748C322.034 32.2432 322.041 32.3252 322.041 32.4209ZM330.787 24.874C330.787 24.9561 330.78 25.0312 330.767 25.0996C330.753 25.168 330.732 25.2261 330.705 25.2739C330.678 25.3218 330.644 25.3594 330.603 25.3867C330.568 25.4141 330.527 25.4277 330.479 25.4277H327.455V33.7949C327.455 33.8359 327.444 33.8735 327.424 33.9077C327.403 33.9419 327.369 33.9692 327.321 33.9897C327.28 34.0103 327.219 34.0273 327.137 34.041C327.062 34.0547 326.962 34.0615 326.839 34.0615C326.723 34.0615 326.624 34.0547 326.542 34.041C326.467 34.0273 326.405 34.0103 326.357 33.9897C326.31 33.9692 326.275 33.9419 326.255 33.9077C326.241 33.8735 326.234 33.8359 326.234 33.7949V25.4277H323.209C323.162 25.4277 323.117 25.4141 323.076 25.3867C323.042 25.3594 323.011 25.3218 322.984 25.2739C322.957 25.2261 322.936 25.168 322.922 25.0996C322.909 25.0312 322.902 24.9561 322.902 24.874C322.902 24.792 322.909 24.7168 322.922 24.6484C322.936 24.5732 322.957 24.5117 322.984 24.4639C323.011 24.4092 323.042 24.3682 323.076 24.3408C323.117 24.3135 323.162 24.2998 323.209 24.2998H330.479C330.527 24.2998 330.568 24.3135 330.603 24.3408C330.644 24.3682 330.678 24.4092 330.705 24.4639C330.732 24.5117 330.753 24.5732 330.767 24.6484C330.78 24.7168 330.787 24.792 330.787 24.874ZM340.354 33.7949C340.354 33.8359 340.344 33.8735 340.323 33.9077C340.303 33.9419 340.269 33.9692 340.221 33.9897C340.18 34.0103 340.118 34.0273 340.036 34.041C339.961 34.0547 339.862 34.0615 339.739 34.0615C339.623 34.0615 339.523 34.0547 339.441 34.041C339.366 34.0273 339.305 34.0103 339.257 33.9897C339.209 33.9692 339.175 33.9419 339.154 33.9077C339.141 33.8735 339.134 33.8359 339.134 33.7949V27.8169C339.134 27.5571 339.137 27.2974 339.144 27.0376C339.158 26.7778 339.171 26.5181 339.185 26.2583C339.028 26.5249 338.857 26.7881 338.672 27.0479C338.488 27.3008 338.3 27.5571 338.108 27.8169L333.74 33.7949C333.706 33.8428 333.672 33.8838 333.638 33.918C333.61 33.9521 333.573 33.9795 333.525 34C333.484 34.0205 333.433 34.0342 333.371 34.041C333.31 34.0547 333.231 34.0615 333.135 34.0615C333.04 34.0615 332.958 34.0547 332.889 34.041C332.828 34.0273 332.776 34.0103 332.735 33.9897C332.694 33.9692 332.664 33.9419 332.643 33.9077C332.629 33.8735 332.623 33.8359 332.623 33.7949V24.5151C332.623 24.4741 332.629 24.4365 332.643 24.4023C332.664 24.3682 332.698 24.3408 332.746 24.3203C332.793 24.293 332.855 24.2759 332.93 24.269C333.012 24.2554 333.111 24.2485 333.228 24.2485C333.467 24.2485 333.627 24.2725 333.709 24.3203C333.798 24.3613 333.843 24.4263 333.843 24.5151V30.5547C333.843 30.8076 333.836 31.0571 333.822 31.3032C333.815 31.5493 333.802 31.7954 333.781 32.0415C333.938 31.7954 334.092 31.5527 334.243 31.3135C334.4 31.0742 334.571 30.835 334.755 30.5957L339.185 24.5151C339.219 24.4673 339.253 24.4263 339.288 24.3921C339.322 24.3579 339.363 24.3306 339.411 24.3101C339.465 24.2896 339.523 24.2759 339.585 24.269C339.653 24.2554 339.739 24.2485 339.841 24.2485C339.937 24.2485 340.016 24.2554 340.077 24.269C340.146 24.2759 340.2 24.293 340.241 24.3203C340.282 24.3408 340.31 24.3682 340.323 24.4023C340.344 24.4365 340.354 24.4741 340.354 24.5151V33.7949ZM355.489 33.8462C355.489 33.8804 355.479 33.9111 355.458 33.9385C355.444 33.9658 355.414 33.9863 355.366 34C355.318 34.0205 355.256 34.0342 355.181 34.041C355.106 34.0547 355.014 34.0615 354.904 34.0615C354.768 34.0615 354.655 34.0547 354.566 34.041C354.484 34.0273 354.416 34.0103 354.361 33.9897C354.306 33.9692 354.265 33.9419 354.238 33.9077C354.21 33.8735 354.19 33.8359 354.176 33.7949L353.12 31.3032C352.997 30.9819 352.857 30.7051 352.7 30.4727C352.542 30.2402 352.361 30.0522 352.156 29.9087C351.951 29.7583 351.719 29.6489 351.459 29.5806C351.199 29.5122 350.902 29.478 350.567 29.478H349.757V33.8667C349.757 33.894 349.743 33.9214 349.716 33.9487C349.688 33.9692 349.647 33.9863 349.593 34C349.538 34.0205 349.473 34.0342 349.398 34.041C349.323 34.0547 349.237 34.0615 349.142 34.0615C349.046 34.0615 348.96 34.0547 348.885 34.041C348.81 34.0342 348.745 34.0205 348.69 34C348.643 33.9863 348.605 33.9692 348.578 33.9487C348.55 33.9214 348.537 33.894 348.537 33.8667V24.4331C348.537 24.4058 348.55 24.3818 348.578 24.3613C348.605 24.334 348.643 24.3135 348.69 24.2998C348.745 24.2861 348.81 24.2759 348.885 24.269C348.96 24.2554 349.046 24.2485 349.142 24.2485C349.237 24.2485 349.323 24.2554 349.398 24.269C349.473 24.2759 349.538 24.2861 349.593 24.2998C349.647 24.3135 349.688 24.334 349.716 24.3613C349.743 24.3818 349.757 24.4058 349.757 24.4331V28.4629H350.567C350.861 28.4629 351.127 28.4321 351.367 28.3706C351.606 28.3022 351.821 28.1997 352.013 28.063C352.211 27.9194 352.385 27.7383 352.536 27.5195C352.693 27.3008 352.83 27.041 352.946 26.7402L353.858 24.5356C353.872 24.4878 353.893 24.4468 353.92 24.4126C353.947 24.3716 353.985 24.3408 354.033 24.3203C354.081 24.293 354.146 24.2759 354.228 24.269C354.31 24.2554 354.416 24.2485 354.545 24.2485C354.662 24.2485 354.757 24.2554 354.833 24.269C354.908 24.2759 354.966 24.2896 355.007 24.3101C355.048 24.3237 355.075 24.3442 355.089 24.3716C355.103 24.3921 355.109 24.4194 355.109 24.4536C355.109 24.5083 355.103 24.563 355.089 24.6177C355.075 24.6655 355.058 24.7134 355.038 24.7612L354.084 26.9453C353.947 27.2871 353.797 27.5742 353.633 27.8066C353.476 28.0322 353.315 28.2202 353.151 28.3706C352.987 28.5142 352.819 28.627 352.648 28.709C352.484 28.791 352.324 28.856 352.167 28.9038V28.9243C352.413 28.9995 352.642 29.0986 352.854 29.2217C353.065 29.3447 353.26 29.4951 353.438 29.6729C353.616 29.8438 353.78 30.0454 353.93 30.2778C354.081 30.5103 354.214 30.77 354.33 31.0571L355.417 33.5488C355.431 33.583 355.441 33.6138 355.448 33.6411C355.461 33.6685 355.468 33.6958 355.468 33.7231C355.475 33.7505 355.479 33.7744 355.479 33.7949C355.485 33.8154 355.489 33.8325 355.489 33.8462ZM366.04 29.0576C366.04 29.7959 365.944 30.4761 365.753 31.0981C365.562 31.7202 365.274 32.2603 364.892 32.7183C364.516 33.1763 364.044 33.5352 363.477 33.7949C362.909 34.0479 362.25 34.1743 361.498 34.1743C360.773 34.1743 360.137 34.0615 359.59 33.8359C359.05 33.6035 358.596 33.2754 358.227 32.8516C357.864 32.4209 357.591 31.9014 357.406 31.293C357.229 30.6846 357.14 29.9976 357.14 29.2319C357.14 28.4937 357.232 27.8135 357.417 27.1914C357.608 26.5693 357.892 26.0327 358.268 25.5815C358.65 25.1235 359.125 24.7681 359.693 24.5151C360.26 24.2622 360.923 24.1357 361.682 24.1357C362.407 24.1357 363.039 24.2485 363.579 24.4741C364.126 24.6997 364.581 25.0278 364.943 25.4585C365.305 25.8823 365.579 26.3984 365.763 27.0068C365.948 27.6152 366.04 28.2988 366.04 29.0576ZM364.748 29.1704C364.748 28.644 364.697 28.1416 364.594 27.6631C364.492 27.1846 364.321 26.7642 364.082 26.4019C363.842 26.0327 363.521 25.7422 363.118 25.5303C362.714 25.3115 362.212 25.2021 361.61 25.2021C361.057 25.2021 360.578 25.3013 360.175 25.4995C359.771 25.6978 359.44 25.9746 359.18 26.3301C358.927 26.6787 358.739 27.0923 358.616 27.5708C358.493 28.0493 358.432 28.5654 358.432 29.1191C358.432 29.6523 358.483 30.1616 358.585 30.647C358.688 31.1255 358.859 31.5459 359.098 31.9082C359.337 32.2705 359.659 32.5576 360.062 32.7695C360.465 32.9814 360.968 33.0874 361.569 33.0874C362.123 33.0874 362.602 32.9883 363.005 32.79C363.408 32.5918 363.736 32.3184 363.989 31.9697C364.249 31.6211 364.44 31.2075 364.563 30.729C364.687 30.2505 364.748 29.731 364.748 29.1704ZM379.75 33.6719C379.756 33.8154 379.726 33.918 379.657 33.9795C379.596 34.0342 379.442 34.0615 379.196 34.0615C379.073 34.0615 378.97 34.0581 378.888 34.0513C378.806 34.0444 378.741 34.0308 378.693 34.0103C378.646 33.9966 378.611 33.9761 378.591 33.9487C378.57 33.9146 378.557 33.8735 378.55 33.8257L377.822 28.186C377.801 27.9878 377.777 27.7793 377.75 27.5605C377.729 27.335 377.709 27.1094 377.688 26.8838C377.668 26.6582 377.647 26.4326 377.627 26.207C377.606 25.9814 377.583 25.7661 377.555 25.561L377.545 25.3354C377.477 25.5337 377.405 25.7456 377.33 25.9712C377.254 26.1899 377.176 26.4121 377.094 26.6377C377.012 26.8633 376.93 27.0923 376.848 27.3247C376.772 27.5503 376.701 27.7656 376.632 27.9707L374.52 33.6616C374.493 33.7368 374.462 33.8018 374.428 33.8564C374.4 33.9043 374.363 33.9453 374.315 33.9795C374.274 34.0068 374.219 34.0273 374.151 34.041C374.083 34.0547 373.997 34.0615 373.895 34.0615C373.792 34.0615 373.707 34.0547 373.638 34.041C373.577 34.0342 373.522 34.0171 373.474 33.9897C373.426 33.9624 373.385 33.9248 373.351 33.877C373.317 33.8223 373.286 33.7539 373.259 33.6719L371.229 27.9707C371.153 27.7725 371.075 27.564 370.993 27.3452C370.917 27.1196 370.842 26.894 370.767 26.6685C370.692 26.436 370.617 26.207 370.542 25.9814C370.473 25.7559 370.412 25.5405 370.357 25.3354L370.336 25.561C370.316 25.7661 370.292 25.9814 370.265 26.207C370.244 26.4326 370.22 26.6582 370.193 26.8838C370.166 27.1094 370.138 27.335 370.111 27.5605C370.09 27.7793 370.07 27.9878 370.049 28.186L369.362 33.7129C369.355 33.7881 369.342 33.8496 369.321 33.8975C369.301 33.9453 369.263 33.9795 369.208 34C369.161 34.0273 369.096 34.0444 369.014 34.0513C368.932 34.0581 368.826 34.0615 368.696 34.0615C368.566 34.0615 368.463 34.0547 368.388 34.041C368.313 34.0273 368.258 34.0068 368.224 33.9795C368.19 33.9453 368.169 33.9043 368.163 33.8564C368.156 33.8086 368.159 33.7471 368.173 33.6719L369.25 24.8535C369.284 24.6758 369.349 24.5391 369.444 24.4434C369.547 24.3477 369.697 24.2998 369.896 24.2998H370.429C370.586 24.2998 370.719 24.3135 370.829 24.3408C370.938 24.3613 371.03 24.4023 371.105 24.4639C371.188 24.5254 371.256 24.6074 371.311 24.71C371.365 24.8057 371.42 24.9287 371.475 25.0791L373.013 29.437C373.102 29.6968 373.19 29.9531 373.279 30.2061C373.368 30.459 373.454 30.7085 373.536 30.9546C373.618 31.2007 373.693 31.4399 373.761 31.6724C373.836 31.9048 373.905 32.1304 373.966 32.3491H373.987C374.055 32.1235 374.127 31.8877 374.202 31.6416C374.277 31.3955 374.356 31.146 374.438 30.8931C374.52 30.6401 374.605 30.3906 374.694 30.1445C374.783 29.8916 374.869 29.6489 374.951 29.4165L376.499 25.0791C376.547 24.9424 376.598 24.8262 376.653 24.7305C376.708 24.6279 376.772 24.5459 376.848 24.4844C376.923 24.4229 377.012 24.3784 377.114 24.3511C377.217 24.3169 377.34 24.2998 377.483 24.2998H378.017C378.215 24.2998 378.365 24.3374 378.468 24.4126C378.577 24.4878 378.642 24.6245 378.663 24.8228L379.75 33.6719ZM389.911 33.7949C389.911 33.8359 389.901 33.8735 389.88 33.9077C389.86 33.9419 389.826 33.9692 389.778 33.9897C389.737 34.0103 389.675 34.0273 389.593 34.041C389.518 34.0547 389.422 34.0615 389.306 34.0615C389.183 34.0615 389.081 34.0547 388.999 34.041C388.923 34.0273 388.862 34.0103 388.814 33.9897C388.766 33.9692 388.732 33.9419 388.711 33.9077C388.698 33.8735 388.691 33.8359 388.691 33.7949V25.3457H383.779V33.7949C383.779 33.8359 383.769 33.8735 383.749 33.9077C383.728 33.9419 383.694 33.9692 383.646 33.9897C383.605 34.0103 383.543 34.0273 383.461 34.041C383.386 34.0547 383.287 34.0615 383.164 34.0615C383.048 34.0615 382.949 34.0547 382.867 34.041C382.792 34.0273 382.73 34.0103 382.682 33.9897C382.634 33.9692 382.6 33.9419 382.58 33.9077C382.566 33.8735 382.559 33.8359 382.559 33.7949V24.7817C382.559 24.6177 382.6 24.498 382.682 24.4229C382.764 24.3408 382.863 24.2998 382.979 24.2998H389.501C389.617 24.2998 389.713 24.3408 389.788 24.4229C389.87 24.498 389.911 24.6177 389.911 24.7817V33.7949ZM399.847 33.7949C399.847 33.8633 399.823 33.918 399.775 33.959C399.734 33.9932 399.676 34.0171 399.601 34.0308C399.533 34.0513 399.437 34.0615 399.314 34.0615C399.198 34.0615 399.099 34.0513 399.017 34.0308C398.935 34.0171 398.87 33.9932 398.822 33.959C398.781 33.918 398.76 33.8633 398.76 33.7949V32.7593C398.343 33.2104 397.882 33.5591 397.376 33.8052C396.877 34.0513 396.357 34.1743 395.817 34.1743C395.332 34.1743 394.895 34.1128 394.505 33.9897C394.122 33.8599 393.797 33.6787 393.531 33.4463C393.264 33.207 393.059 32.9199 392.916 32.585C392.772 32.25 392.7 31.874 392.7 31.457C392.7 30.9443 392.806 30.5 393.018 30.124C393.23 29.7412 393.531 29.4233 393.92 29.1704C394.31 28.9175 394.778 28.7295 395.325 28.6064C395.872 28.4766 396.48 28.4116 397.15 28.4116H398.627V27.6118C398.627 27.2153 398.586 26.8667 398.504 26.5659C398.422 26.2583 398.289 26.002 398.104 25.7969C397.919 25.5918 397.68 25.438 397.386 25.3354C397.092 25.2329 396.733 25.1816 396.31 25.1816C395.899 25.1816 395.53 25.2329 395.202 25.3354C394.874 25.4312 394.587 25.5405 394.341 25.6636C394.095 25.7866 393.89 25.8994 393.726 26.002C393.568 26.0977 393.456 26.1455 393.387 26.1455C393.346 26.1455 393.309 26.1387 393.274 26.125C393.24 26.1113 393.209 26.0874 393.182 26.0532C393.162 26.0122 393.145 25.9644 393.131 25.9097C393.124 25.8481 393.121 25.7764 393.121 25.6943C393.121 25.5508 393.131 25.438 393.151 25.356C393.172 25.2671 393.223 25.1816 393.305 25.0996C393.394 25.0107 393.548 24.9082 393.767 24.792C393.985 24.6758 394.235 24.5698 394.515 24.4741C394.802 24.3716 395.11 24.2896 395.438 24.228C395.766 24.1665 396.094 24.1357 396.422 24.1357C397.058 24.1357 397.595 24.2144 398.032 24.3716C398.47 24.522 398.822 24.7407 399.088 25.0278C399.362 25.3149 399.557 25.6704 399.673 26.0942C399.789 26.5112 399.847 26.9863 399.847 27.5195V33.7949ZM398.627 29.4165H396.935C396.443 29.4165 396.012 29.4609 395.643 29.5498C395.274 29.6387 394.966 29.7686 394.72 29.9395C394.474 30.1104 394.29 30.3154 394.167 30.5547C394.05 30.7939 393.992 31.0674 393.992 31.375C393.992 31.9082 394.16 32.3354 394.495 32.6567C394.836 32.9712 395.315 33.1284 395.93 33.1284C396.416 33.1284 396.867 33.0054 397.284 32.7593C397.708 32.5063 398.155 32.1201 398.627 31.6006V29.4165ZM410.911 33.7949C410.911 33.8359 410.901 33.8735 410.88 33.9077C410.86 33.9419 410.826 33.9692 410.778 33.9897C410.737 34.0103 410.675 34.0273 410.593 34.041C410.518 34.0547 410.422 34.0615 410.306 34.0615C410.183 34.0615 410.081 34.0547 409.999 34.041C409.923 34.0273 409.862 34.0103 409.814 33.9897C409.773 33.9692 409.742 33.9419 409.722 33.9077C409.701 33.8735 409.691 33.8359 409.691 33.7949V29.4985H404.451V33.7949C404.451 33.8359 404.441 33.8735 404.42 33.9077C404.4 33.9419 404.366 33.9692 404.318 33.9897C404.277 34.0103 404.215 34.0273 404.133 34.041C404.058 34.0547 403.959 34.0615 403.836 34.0615C403.72 34.0615 403.621 34.0547 403.539 34.041C403.463 34.0273 403.402 34.0103 403.354 33.9897C403.306 33.9692 403.272 33.9419 403.251 33.9077C403.238 33.8735 403.231 33.8359 403.231 33.7949V24.5151C403.231 24.4741 403.238 24.4365 403.251 24.4023C403.272 24.3682 403.306 24.3408 403.354 24.3203C403.402 24.293 403.463 24.2759 403.539 24.269C403.621 24.2554 403.72 24.2485 403.836 24.2485C403.959 24.2485 404.058 24.2554 404.133 24.269C404.215 24.2759 404.277 24.293 404.318 24.3203C404.366 24.3408 404.4 24.3682 404.42 24.4023C404.441 24.4365 404.451 24.4741 404.451 24.5151V28.4526H409.691V24.5151C409.691 24.4741 409.701 24.4365 409.722 24.4023C409.742 24.3682 409.773 24.3408 409.814 24.3203C409.862 24.293 409.923 24.2759 409.999 24.269C410.081 24.2554 410.183 24.2485 410.306 24.2485C410.422 24.2485 410.518 24.2554 410.593 24.269C410.675 24.2759 410.737 24.293 410.778 24.3203C410.826 24.3408 410.86 24.3682 410.88 24.4023C410.901 24.4365 410.911 24.4741 410.911 24.5151V33.7949ZM422.078 33.7949C422.078 33.8359 422.067 33.8735 422.047 33.9077C422.026 33.9419 421.992 33.9692 421.944 33.9897C421.903 34.0103 421.842 34.0273 421.76 34.041C421.685 34.0547 421.585 34.0615 421.462 34.0615C421.346 34.0615 421.247 34.0547 421.165 34.041C421.09 34.0273 421.028 34.0103 420.98 33.9897C420.933 33.9692 420.898 33.9419 420.878 33.9077C420.864 33.8735 420.857 33.8359 420.857 33.7949V27.8169C420.857 27.5571 420.861 27.2974 420.868 27.0376C420.881 26.7778 420.895 26.5181 420.909 26.2583C420.751 26.5249 420.581 26.7881 420.396 27.0479C420.211 27.3008 420.023 27.5571 419.832 27.8169L415.464 33.7949C415.43 33.8428 415.396 33.8838 415.361 33.918C415.334 33.9521 415.296 33.9795 415.249 34C415.208 34.0205 415.156 34.0342 415.095 34.041C415.033 34.0547 414.955 34.0615 414.859 34.0615C414.763 34.0615 414.681 34.0547 414.613 34.041C414.551 34.0273 414.5 34.0103 414.459 33.9897C414.418 33.9692 414.387 33.9419 414.367 33.9077C414.353 33.8735 414.346 33.8359 414.346 33.7949V24.5151C414.346 24.4741 414.353 24.4365 414.367 24.4023C414.387 24.3682 414.421 24.3408 414.469 24.3203C414.517 24.293 414.579 24.2759 414.654 24.269C414.736 24.2554 414.835 24.2485 414.951 24.2485C415.19 24.2485 415.351 24.2725 415.433 24.3203C415.522 24.3613 415.566 24.4263 415.566 24.5151V30.5547C415.566 30.8076 415.56 31.0571 415.546 31.3032C415.539 31.5493 415.525 31.7954 415.505 32.0415C415.662 31.7954 415.816 31.5527 415.966 31.3135C416.124 31.0742 416.294 30.835 416.479 30.5957L420.909 24.5151C420.943 24.4673 420.977 24.4263 421.011 24.3921C421.045 24.3579 421.086 24.3306 421.134 24.3101C421.189 24.2896 421.247 24.2759 421.309 24.269C421.377 24.2554 421.462 24.2485 421.565 24.2485C421.661 24.2485 421.739 24.2554 421.801 24.269C421.869 24.2759 421.924 24.293 421.965 24.3203C422.006 24.3408 422.033 24.3682 422.047 24.4023C422.067 24.4365 422.078 24.4741 422.078 24.5151V33.7949ZM433.234 33.7949C433.234 33.8359 433.224 33.8735 433.203 33.9077C433.183 33.9419 433.148 33.9692 433.101 33.9897C433.06 34.0103 432.998 34.0273 432.916 34.041C432.841 34.0547 432.742 34.0615 432.619 34.0615C432.502 34.0615 432.403 34.0547 432.321 34.041C432.246 34.0273 432.185 34.0103 432.137 33.9897C432.089 33.9692 432.055 33.9419 432.034 33.9077C432.021 33.8735 432.014 33.8359 432.014 33.7949V27.8169C432.014 27.5571 432.017 27.2974 432.024 27.0376C432.038 26.7778 432.051 26.5181 432.065 26.2583C431.908 26.5249 431.737 26.7881 431.552 27.0479C431.368 27.3008 431.18 27.5571 430.988 27.8169L426.62 33.7949C426.586 33.8428 426.552 33.8838 426.518 33.918C426.49 33.9521 426.453 33.9795 426.405 34C426.364 34.0205 426.312 34.0342 426.251 34.041C426.189 34.0547 426.111 34.0615 426.015 34.0615C425.919 34.0615 425.837 34.0547 425.769 34.041C425.708 34.0273 425.656 34.0103 425.615 33.9897C425.574 33.9692 425.543 33.9419 425.523 33.9077C425.509 33.8735 425.502 33.8359 425.502 33.7949V24.5151C425.502 24.4741 425.509 24.4365 425.523 24.4023C425.543 24.3682 425.578 24.3408 425.625 24.3203C425.673 24.293 425.735 24.2759 425.81 24.269C425.892 24.2554 425.991 24.2485 426.107 24.2485C426.347 24.2485 426.507 24.2725 426.589 24.3203C426.678 24.3613 426.723 24.4263 426.723 24.5151V30.5547C426.723 30.8076 426.716 31.0571 426.702 31.3032C426.695 31.5493 426.682 31.7954 426.661 32.0415C426.818 31.7954 426.972 31.5527 427.123 31.3135C427.28 31.0742 427.451 30.835 427.635 30.5957L432.065 24.5151C432.099 24.4673 432.133 24.4263 432.167 24.3921C432.202 24.3579 432.243 24.3306 432.291 24.3101C432.345 24.2896 432.403 24.2759 432.465 24.269C432.533 24.2554 432.619 24.2485 432.721 24.2485C432.817 24.2485 432.896 24.2554 432.957 24.269C433.025 24.2759 433.08 24.293 433.121 24.3203C433.162 24.3408 433.189 24.3682 433.203 24.4023C433.224 24.4365 433.234 24.4741 433.234 24.5151V33.7949Z" fill="black"/>
<g clip-path="url(#clip0_791_82)">
<path d="M137.823 13.6465L136.674 12.6307C134 10.2592 129.905 10.5051 127.534 13.1802L124.248 16.8877C123.506 17.7247 123.583 19.0096 124.42 19.7521L124.728 20.0258C125.568 20.7701 126.849 20.6932 127.594 19.8536L130.88 16.1461C131.613 15.3198 132.883 15.2438 133.709 15.9757L134.856 16.9932C135.683 17.726 135.761 18.9956 135.027 19.8223L127.841 27.9288C127.233 28.616 126.238 28.8013 125.421 28.3793C124.528 27.9181 123.439 28.1207 122.772 28.8728L122.716 28.9361C122.264 29.445 122.076 30.1206 122.2 30.7896C122.323 31.4584 122.739 32.0225 123.342 32.3374C124.295 32.8355 125.324 33.0766 126.343 33.0766C128.149 33.0766 129.923 32.3195 131.188 30.8938L138.373 22.7883C140.741 20.1168 140.495 16.0164 137.823 13.6465Z" fill="#00529B"/>
<path d="M122.579 35.2499L122.27 34.976C121.432 34.2339 120.147 34.3119 119.405 35.1491L116.12 38.8563C115.387 39.6823 114.118 39.7589 113.292 39.0275L112.143 38.0086C111.316 37.276 111.238 36.0075 111.973 35.1805L119.158 27.0746C119.754 26.4018 120.734 26.2094 121.542 26.6063C122.471 27.0625 123.598 26.8407 124.285 26.065L124.311 26.0359C124.753 25.5374 124.939 24.8758 124.821 24.2206C124.704 23.5654 124.3 23.0095 123.713 22.6954C121.059 21.2747 117.81 21.856 115.813 24.1097L108.627 32.214V32.2141C106.259 34.8856 106.505 38.9859 109.176 41.3548L110.325 42.372C111.555 43.4629 113.088 43.9987 114.616 43.9987C116.406 43.9987 118.188 43.2632 119.467 41.8219L122.752 38.1147C123.495 37.2754 123.419 35.9947 122.579 35.2499Z" fill="#00529B"/>
</g>
<defs>
<clipPath id="clip0_791_82">
<rect width="33" height="33" fill="white" transform="translate(107 11)"/>
</clipPath>
</defs>
</svg>
