<svg width="608" height="102" fill="none" xmlns="http://www.w3.org/2000/svg"><mask id="n" style="mask-type:alpha" maskUnits="userSpaceOnUse" x="0" y="0" width="608" height="102"><g clip-path="url(#a)"><g clip-path="url(#b)"><path d="m83.369 41.38 3.886-7.04 7.874-1.82 6.473.7s1.582 3.925 2.841 4.485l3.01.771s1.588 3.154 3.335 4.136c1.748.982 11.074 0 11.074 0l6.174-8.972 3.594-13.736 1.116-5.188 13.586-3.62 4.352 1.518 2.891-2.944s4.455-1.196 6.009-1.051c1.555.145 7.151.84 7.151.84s4.56 3.926 6.115 4.906l.83 1.842 4.144 1.594 1.554 10.156L199.585 55.5 69.637 57.463 83.37 41.38Z" fill="url(#c)"/><path opacity=".07" d="m82.35 45.22 7.96-9.721 4.198-1.649 7.094-.63-6.473-.7-7.874 1.822-3.886 7.04-5.027 5.892 4.007-2.055Z" fill="#FFC359"/><path opacity=".09" d="M109.119 43.943h2.901l9.845-1.33s-9.326.979-11.073 0c-1.747-.98-3.339-4.137-3.339-4.137l-2.997-.771 1.98 1.385 2.683 4.853Z" fill="#FFC359"/><path opacity=".07" d="m131.63 19.903-3.594 13.737-6.171 8.972-7.355 6.43 8.49 1.245s5.083-4.241 6.015-5.713c.933-1.472 2.696-7.99 2.696-7.99l2.07-6.308-1.657.91-2.278 3.226 1.035-4.136 3.73-7.219 1.346-8.34 10.365-3.622-13.576 3.621-1.116 5.187Z" fill="#FFC359"/><path opacity=".22" d="M146.322 11.095s.05 3.365 0 4.357c-.049.993-.363 4.573-.363 4.573l-.933 4.31.659 3.628 1.051-4.626L150 14.138l.675-1.524-4.353-1.519Z" fill="#422416"/><path opacity=".07" d="m145.685 27.963-.659 5.467-2.954 6.939L131.4 50.672l8.705 1.192 3.833-11.039 3.911-8.095.441-8.2 4.25-11.775 1.865-2.454 4.766-1.262 7.564.42s-5.596-.7-7.151-.84c-1.554-.141-6.009 1.051-6.009 1.051l-2.9 2.944-3.939 10.723-1.051 4.626Z" fill="#FFC359"/><path opacity=".26" d="m162.902 11.096-5.596 12.872 4.144 15-1.496 17.139 39.631-.6-20.207-27.55-1.554-10.156-4.144-1.592 2.381 12.246-5.387-1.754-3.939-4.064.83-4.136-.83-3.364V9.46l-3.833 1.636Z" fill="#422416"/><path d="m138.42 49.692-.038-1.794c.436-.26.851-.536 1.244-.826.392-.316.777-1.289.858-1.682.081-.393.348-1.106 0-1.079-.348.028-.507 1.42-1.014 2.13-.256.347-.633.647-1.097.875l-.031-1.375s.364-3.364-.311-3.364c-.55 0-.547 2.102-.528 3.618a5.646 5.646 0 0 1-1.026-.938c-.467-.603-.544-1.314-.855-1.314-.311 0-.156.656 0 1.077.124.336 1.386 1.472 1.89 1.922v2.702a.506.506 0 0 1-.079.266.752.752 0 0 1-.225.226 1.154 1.154 0 0 1-.336.149c-.126.034-.26.051-.395.05l-3.563-.048s-11.655-2.49-17.052-2.349c-5.397.141-26.736-5.187-26.736-5.187l-8.083-12.334-8.082-2.523H62.39l-2.487 2.382v-7.57s-.417-2.943-2.074-3.643c-1.657-.7-11.192-5.188-12.643-5.467-1.452-.28-5.388 0-5.388 0l-6.631 6.308v7.132l-6.218 1.699-2.695 2.523-1.244 5.467-4.358 5.326s-6.01 3.505-7.67 4.064C9.323 46.675 0 48.857 0 48.857v9.462h152.332l14.403-7.57-27.311-.365a1.307 1.307 0 0 1-.71-.209c-.187-.129-.293-.302-.294-.483Z" fill="url(#d)"/><path opacity=".26" d="m59.898 30.276 1.19 5.223 3.42 1.716 1.243 7.99 1.4 1.997.932 3.087v-5.925l-1.088-9.267 1.088-4.821 4.871-2.382h-10.57l-2.486 2.382ZM33.162 27.036l4.557.858 2.282 2.102.973 11.355 3.793 13.385 4.974 2.048s-1.452-5.198-1.763-6.497c-.31-1.3-.932-6.373-1.035-8.604-.103-2.231-.413-9.935-.83-11.758-.417-1.823-4.247-6.098-4.663-7.429-.417-1.33-.827-6.377-.827-6.377l-.83-2.523-6.631 6.308v7.132Z" fill="#422416"/><path opacity=".07" d="M47.02 20.183c.7.947 2.72 2.155 2.72 2.155l.933 4.31 1.866 1.246-.622-6.134-.569-5.624c-2.748-1.232-5.45-2.401-6.168-2.54l1.141 3.328s0 2.313.7 3.26Z" fill="#FFC359"/><path opacity=".26" d="m24.249 31.258-1.244 5.467-4.352 5.326s-6.01 3.505-7.67 4.064C9.323 46.675 0 48.857 0 48.857v5.179l37.617-1.052-7.67-8.13s-1.449-5.186-1.865-6.378c-.417-1.192-2.07-5.957-2.07-5.957l.932-3.784-2.695 2.523Z" fill="#422416"/><path opacity=".07" d="m73.153 27.963 6.666 2.897 2.098 5.783 6.295 6.833s4.275 2.681 5.985 3.364c1.71.684 12.591 2.208 12.591 2.208s5.595-.736 7.849-.736c2.254 0 8.332.223 8.36.223-2.633-.37-5.26-.63-7.135-.59-5.397.14-26.736-5.188-26.736-5.188l-8.083-12.334-7.89-2.46Z" fill="#FFC359"/><path d="m232.952 22.706-5.595-4.346s-1.866-2.944-3.109-5.046c-1.036-6.167-1.244-7.99-1.244-7.99l-1.657-1.542V1.4l-8.913-1.402-10.775 2.664-3.525 10.654-2.487 6.587s-7.461 1.682-7.875 3.785c-.211 1.075-1.287 4.847-2.288 8.287-.573 1.956-1.783 3.8-3.542 5.401-1.759 1.6-4.022 2.916-6.627 3.85-9.535 3.423-24.703 8.924-31.275 11.609-8.375 3.423-30.777 1.682-42.065 1.878.47-1.052 1.244-2.965.846-3.022-.398-.057-1.107 1.993-1.43 3.034h-.09c0-.84 0-3.574-.473-3.539-.311.02-.28 1.23-.18 2.278-.345-1.02-.805-2.158-1.11-2.103-.404.084.404 2.06.855 3.09-1.244-.666-2.78-1.423-2.966-1.238-.187.185 1.243.938 2.518 1.554a22.703 22.703 0 0 0-2.987.3c-7.424 1.422-37.06.302-46.595 1.002-9.535.7-49.533 4.905-49.533 4.905v10.022H240V31.958l-7.048-9.252Z" fill="url(#e)"/><path opacity=".26" d="M195.646 19.904s4.25.946 5.027 2.102c.778 1.157 1.555 6.729 1.555 6.729l2.953 6.764 3.575 14.788h-10.259l-1.399-12.616c-.034-1.496.281-2.986.933-4.416 1.088-2.418.466-4.1.466-4.1l-2.851-2.838v-6.413Z" fill="#422416"/><path opacity=".07" d="m179.481 42.122 2.024-.755c.965-.36 1.812-.849 2.489-1.438.676-.589 1.167-1.265 1.444-1.987.802-2.102 1.911-5.032 2.232-5.982.516-1.543 1.137-7.78 1.137-7.78l1.191-2.405c-1.166.56-2.089 1.213-2.226 1.913-.211 1.075-1.287 4.847-2.288 8.287-.573 1.956-1.782 3.801-3.541 5.401-1.759 1.6-4.023 2.916-6.628 3.85-5.931 2.13-14.039 5.062-20.903 7.62l25.069-6.724ZM202.219 14.172c-.078-2.313 1.113-10.793 1.113-10.793l4.336-2.179-5.978 1.472-3.525 10.654-2.487 6.588 3.441 1.072s3.177-4.501 3.1-6.814Z" fill="#FFC359"/><path opacity=".26" d="m239.605 31.44-6.653-8.734-5.596-4.346s-1.865-2.944-3.109-5.046c-1.035-6.167-1.243-7.99-1.243-7.99l-1.657-1.542V1.4l-8.913-1.402V6.55l.83 2.419 1.166 3.206 3.186 6.413.466 4.941-.777-3.101-2.02-3.417-2.851-.473c-.861.784-1.478 1.678-1.813 2.628-.466 1.472 0 13.773 0 13.773l4.664 15.454.932 5.677H240V32.52l-.395-1.078Z" fill="#422416"/><path opacity=".07" d="m211.71 16.758-4.471 1.274a3.356 3.356 0 0 0-1.158.57c-.315.248-.54.543-.657.86l-1.797 4.855.51 2.473 1.977-2.673 1.035-5.115 4.561-2.244Z" fill="#FFC359"/><path d="M115.865 54.904c.072.01 14.54 2.01 20.677 3.154 6.137 1.144 18.743 0 24.028 0s13.99 1.472 13.99 1.472l7.772-5.467s-21.14.21-29.223 0c-8.083-.21-16.567.393-16.567.393-5.972.646-13.604.587-20.677.448Z" fill="#000" style="mix-blend-mode:multiply" opacity=".11"/></g><g clip-path="url(#f)"><path d="m362.642 41.38-4.259-7.04-8.629-1.82-7.093.7s-1.734 3.925-3.113 4.485l-3.298.771s-1.741 3.154-3.656 4.136c-1.914.982-12.134 0-12.134 0l-6.766-8.972-3.938-13.736-1.223-5.188-14.888-3.62-4.769 1.518-3.168-2.944s-4.882-1.196-6.586-1.051c-1.703.145-7.835.84-7.835.84s-4.998 3.926-6.701 4.906l-.91 1.842-4.541 1.594-1.703 10.156L235.288 55.5l142.401 1.962-15.047-16.083Z" fill="url(#g)"/><path opacity=".07" d="m363.759 45.22-8.725-9.721-4.599-1.649-7.774-.63 7.093-.7 8.629 1.822 4.259 7.04 5.508 5.892-4.391-2.055Z" fill="#FFC359"/><path opacity=".09" d="M334.423 43.943h-3.178l-10.79-1.33s10.221.979 12.135 0c1.915-.98 3.659-4.137 3.659-4.137l3.284-.771-2.17 1.385-2.94 4.853Z" fill="#FFC359"/><path opacity=".07" d="m309.756 19.903 3.938 13.737 6.762 8.972 8.061 6.43-9.304 1.245s-5.57-4.241-6.592-5.713c-1.022-1.472-2.954-7.99-2.954-7.99l-2.269-6.308 1.816.91 2.497 3.226-1.134-4.136-4.088-7.219-1.475-8.34-11.359-3.622 14.878 3.621 1.223 5.187Z" fill="#FFC359"/><path opacity=".22" d="M293.656 11.095s-.055 3.365 0 4.357c.054.993.398 4.573.398 4.573l1.022 4.31-.722 3.628-1.152-4.626-3.577-9.199-.739-1.524 4.77-1.519Z" fill="#422416"/><path opacity=".07" d="m294.354 27.963.722 5.467 3.236 6.939 11.696 10.303-9.539 1.192-4.201-11.039-4.285-8.095-.484-8.2-4.657-11.775-2.044-2.454-5.223-1.262-8.288.42s6.132-.7 7.835-.84c1.704-.141 6.586 1.051 6.586 1.051l3.178 2.944 4.316 10.723 1.152 4.626Z" fill="#FFC359"/><path opacity=".26" d="m275.487 11.096 6.132 12.872-4.541 15 1.639 17.139-43.429-.6 22.143-27.55 1.704-10.156 4.541-1.592-2.61 12.246 5.904-1.754 4.317-4.064-.91-4.136.91-3.364V9.46l4.2 1.636Z" fill="#422416"/><path d="m302.315 49.692.041-1.794c-.478-.26-.932-.536-1.363-.826-.429-.316-.851-1.289-.94-1.682-.089-.393-.382-1.106 0-1.079.382.028.555 1.42 1.111 2.13.281.347.694.647 1.202.875l.034-1.375s-.398-3.364.341-3.364c.603 0 .6 2.102.579 3.618.433-.284.81-.599 1.124-.938.511-.603.596-1.314.937-1.314.341 0 .17.656 0 1.077-.136.336-1.519 1.472-2.071 1.922v2.702c0 .091.029.182.086.266a.796.796 0 0 0 .247.226c.105.064.231.115.368.149.138.034.285.051.433.05l3.904-.048s12.772-2.49 18.686-2.349c5.914.141 29.298-5.187 29.298-5.187l8.858-12.334 8.857-2.523h11.583l2.726 2.382v-7.57s.456-2.943 2.272-3.643c1.816-.7 12.264-5.188 13.855-5.467 1.591-.28 5.904 0 5.904 0l7.267 6.308v7.132l6.813 1.699 2.954 2.523 1.362 5.467 4.777 5.326s6.585 3.505 8.404 4.064c1.819.56 12.036 2.742 12.036 2.742v9.462H287.07l-15.783-7.57 29.928-.365c.293-.005.572-.08.777-.209.206-.129.321-.302.323-.483Z" fill="url(#h)"/><path opacity=".26" d="m388.362 30.276-1.304 5.223-3.748 1.716-1.363 7.99-1.533 1.997-1.022 3.087v-5.925l1.193-9.267-1.193-4.821-5.338-2.382h11.583l2.725 2.382ZM417.66 27.036l-4.994.858-2.501 2.102-1.066 11.355-4.156 13.385-5.451 2.048s1.591-5.198 1.932-6.497c.34-1.3 1.022-6.373 1.134-8.604.113-2.231.453-9.935.91-11.758.456-1.823 4.653-6.098 5.11-7.429.456-1.33.906-6.377.906-6.377l.91-2.523 7.266 6.308v7.132Z" fill="#422416"/><path opacity=".07" d="M402.473 20.183c-.766.947-2.98 2.155-2.98 2.155l-1.022 4.31-2.045 1.246.682-6.134.623-5.624c3.012-1.232 5.972-2.401 6.759-2.54l-1.25 3.328s0 2.313-.767 3.26Z" fill="#FFC359"/><path opacity=".26" d="m427.427 31.258 1.363 5.467 4.77 5.326s6.585 3.505 8.404 4.064c1.819.56 12.036 2.742 12.036 2.742v5.179l-41.222-1.052 8.405-8.13s1.587-5.186 2.044-6.378c.456-1.192 2.269-5.957 2.269-5.957l-1.022-3.784 2.953 2.523Z" fill="#422416"/><path opacity=".07" d="m373.836 27.963-7.304 2.897-2.3 5.783-6.898 6.833s-4.685 2.681-6.558 3.364c-1.874.684-13.798 2.208-13.798 2.208s-6.132-.736-8.602-.736c-2.469 0-9.13.223-9.16.223 2.885-.37 5.764-.63 7.818-.59 5.914.14 29.298-5.188 29.298-5.188l8.858-12.334 8.646-2.46Z" fill="#FFC359"/><path d="m198.723 22.706 6.133-4.346s2.044-2.944 3.406-5.046c1.135-6.167 1.363-7.99 1.363-7.99l1.816-1.542V1.4l9.767-1.402 11.808 2.664 3.863 10.654 2.725 6.587s8.176 1.682 8.63 3.785c.231 1.075 1.41 4.847 2.507 8.287.628 1.956 1.953 3.8 3.881 5.401 1.927 1.6 4.408 2.916 7.262 3.85 10.449 3.423 27.07 8.924 34.272 11.609 9.178 3.423 33.727 1.682 46.097 1.878-.515-1.052-1.363-2.965-.927-3.022.436-.057 1.213 1.993 1.567 3.034h.099c0-.84 0-3.574.518-3.539.34.02.306 1.23.197 2.278.378-1.02.883-2.158 1.217-2.103.442.084-.443 2.06-.937 3.09 1.362-.666 3.045-1.423 3.25-1.238.204.185-1.363.938-2.76 1.554 1.105.035 2.201.136 3.274.3 8.135 1.422 40.612.302 51.06 1.002 10.449.7 54.28 4.905 54.28 4.905v10.022H191V31.958l7.723-9.252Z" fill="url(#i)"/><path opacity=".26" d="M239.604 19.904s-4.657.946-5.509 2.102c-.852 1.157-1.704 6.729-1.704 6.729l-3.236 6.764-3.918 14.788h11.243l1.533-12.616c.037-1.496-.308-2.986-1.022-4.416-1.193-2.418-.511-4.1-.511-4.1l3.124-2.838v-6.413Z" fill="#422416"/><path opacity=".07" d="m257.319 42.122-2.218-.755c-1.058-.36-1.986-.849-2.727-1.438-.741-.589-1.279-1.265-1.582-1.987-.879-2.102-2.095-5.032-2.446-5.982-.566-1.543-1.247-7.78-1.247-7.78l-1.305-2.405c1.278.56 2.289 1.213 2.439 1.913.232 1.075 1.411 4.847 2.508 8.287.627 1.956 1.953 3.801 3.881 5.401 1.927 1.6 4.408 2.916 7.262 3.85 6.5 2.13 15.385 5.062 22.907 7.62l-27.472-6.724ZM232.403 14.172c.085-2.313-1.22-10.793-1.22-10.793L226.431 1.2l6.551 1.472 3.863 10.654 2.725 6.588-3.771 1.072s-3.482-4.501-3.396-6.814Z" fill="#FFC359"/><path opacity=".26" d="m191.433 31.44 7.29-8.734 6.132-4.346s2.044-2.944 3.407-5.046c1.134-6.167 1.363-7.99 1.363-7.99l1.816-1.542V1.4l9.767-1.402V6.55l-.91 2.419-1.277 3.206-3.492 6.413-.511 4.941.851-3.101 2.215-3.417 3.124-.473c.943.784 1.619 1.678 1.986 2.628.511 1.472 0 13.773 0 13.773l-5.11 15.454-1.022 5.677H191V32.52l.433-1.078Z" fill="#422416"/><path opacity=".07" d="m222.001 16.758 4.899 1.274c.489.127.923.322 1.269.57.345.248.592.543.72.86l1.969 4.855-.558 2.473-2.167-2.673-1.134-5.115-4.998-2.244Z" fill="#FFC359"/><path d="M327.031 54.904c-.078.01-15.933 2.01-22.658 3.154-6.725 1.144-20.539 0-26.331 0-5.791 0-15.33 1.472-15.33 1.472l-8.517-5.467s23.166.21 32.024 0c8.857-.21 18.154.393 18.154.393 6.544.646 14.908.587 22.658.448Z" fill="#000" style="mix-blend-mode:multiply" opacity=".11"/></g><g clip-path="url(#j)"><path d="m450.358 41.38 4.259-7.04 8.629-1.82 7.093.7s1.734 3.925 3.113 4.485l3.298.771s1.741 3.154 3.656 4.136c1.914.982 12.134 0 12.134 0l6.766-8.972 3.938-13.736 1.223-5.188 14.888-3.62 4.769 1.518 3.168-2.944s4.882-1.196 6.586-1.051c1.703.145 7.835.84 7.835.84s4.998 3.926 6.701 4.906l.91 1.842 4.541 1.594 1.703 10.156L577.712 55.5l-142.401 1.962 15.047-16.083Z" fill="url(#k)"/><path opacity=".07" d="m449.241 45.22 8.725-9.721 4.599-1.649 7.774-.63-7.093-.7-8.629 1.822-4.259 7.04-5.508 5.892 4.391-2.055Z" fill="#FFC359"/><path opacity=".09" d="M478.577 43.943h3.178l10.79-1.33s-10.221.979-12.135 0c-1.915-.98-3.659-4.137-3.659-4.137l-3.284-.771 2.17 1.385 2.94 4.853Z" fill="#FFC359"/><path opacity=".07" d="m503.244 19.903-3.938 13.737-6.762 8.972-8.061 6.43 9.304 1.245s5.57-4.241 6.592-5.713c1.022-1.472 2.954-7.99 2.954-7.99l2.269-6.308-1.816.91-2.497 3.226 1.134-4.136 4.088-7.219 1.475-8.34 11.359-3.622-14.878 3.621-1.223 5.187Z" fill="#FFC359"/><path opacity=".22" d="M519.344 11.095s.055 3.365 0 4.357c-.054.993-.398 4.573-.398 4.573l-1.022 4.31.722 3.628 1.152-4.626 3.577-9.199.739-1.524-4.77-1.519Z" fill="#422416"/><path opacity=".07" d="m518.646 27.963-.722 5.467-3.236 6.939-11.696 10.303 9.539 1.192 4.201-11.039 4.285-8.095.484-8.2 4.657-11.775 2.044-2.454 5.223-1.262 8.288.42s-6.132-.7-7.835-.84c-1.704-.141-6.586 1.051-6.586 1.051l-3.178 2.944-4.316 10.723-1.152 4.626Z" fill="#FFC359"/><path opacity=".26" d="m537.513 11.096-6.132 12.872 4.541 15-1.639 17.139 43.429-.6-22.143-27.55-1.704-10.156-4.541-1.592 2.61 12.246-5.904-1.754-4.317-4.064.91-4.136-.91-3.364V9.46l-4.2 1.636Z" fill="#422416"/><path d="m510.685 49.692-.041-1.794c.478-.26.932-.536 1.363-.826.429-.316.851-1.289.94-1.682.089-.393.382-1.106 0-1.079-.382.028-.555 1.42-1.111 2.13-.281.347-.694.647-1.202.875l-.034-1.375s.398-3.364-.341-3.364c-.603 0-.6 2.102-.579 3.618a6.066 6.066 0 0 1-1.124-.938c-.511-.603-.596-1.314-.937-1.314-.341 0-.17.656 0 1.077.136.336 1.519 1.472 2.071 1.922v2.702a.474.474 0 0 1-.086.266.796.796 0 0 1-.247.226 1.323 1.323 0 0 1-.368.149 1.75 1.75 0 0 1-.433.05l-3.904-.048s-12.772-2.49-18.686-2.349c-5.914.141-29.298-5.187-29.298-5.187l-8.858-12.334-8.857-2.523H427.37l-2.726 2.382v-7.57s-.456-2.943-2.272-3.643c-1.816-.7-12.264-5.188-13.855-5.467-1.591-.28-5.904 0-5.904 0l-7.267 6.308v7.132l-6.813 1.699-2.954 2.523-1.362 5.467-4.777 5.326s-6.585 3.505-8.404 4.064c-1.819.56-12.036 2.742-12.036 2.742v9.462h166.93l15.783-7.57-29.928-.365a1.528 1.528 0 0 1-.777-.209c-.206-.129-.321-.302-.323-.483Z" fill="url(#l)"/><path opacity=".26" d="m424.638 30.276 1.304 5.223 3.748 1.716 1.363 7.99 1.533 1.997 1.022 3.087v-5.925l-1.193-9.267 1.193-4.821 5.338-2.382h-11.583l-2.725 2.382ZM395.34 27.036l4.994.858 2.501 2.102 1.066 11.355 4.156 13.385 5.451 2.048s-1.591-5.198-1.932-6.497c-.34-1.3-1.022-6.373-1.134-8.604-.113-2.231-.453-9.935-.91-11.758-.456-1.823-4.653-6.098-5.11-7.429-.456-1.33-.906-6.377-.906-6.377l-.91-2.523-7.266 6.308v7.132Z" fill="#422416"/><path opacity=".07" d="M410.527 20.183c.766.947 2.98 2.155 2.98 2.155l1.022 4.31 2.045 1.246-.682-6.134-.623-5.624c-3.012-1.232-5.972-2.401-6.759-2.54l1.25 3.328s0 2.313.767 3.26Z" fill="#FFC359"/><path opacity=".26" d="m385.573 31.258-1.363 5.467-4.77 5.326s-6.585 3.505-8.404 4.064c-1.819.56-12.036 2.742-12.036 2.742v5.179l41.222-1.052-8.405-8.13s-1.587-5.186-2.044-6.378c-.456-1.192-2.269-5.957-2.269-5.957l1.022-3.784-2.953 2.523Z" fill="#422416"/><path opacity=".07" d="m439.164 27.963 7.304 2.897 2.3 5.783 6.898 6.833s4.685 2.681 6.558 3.364c1.874.684 13.798 2.208 13.798 2.208s6.132-.736 8.602-.736c2.469 0 9.13.223 9.16.223-2.885-.37-5.764-.63-7.818-.59-5.914.14-29.298-5.188-29.298-5.188l-8.858-12.334-8.646-2.46Z" fill="#FFC359"/><path d="m614.277 22.706-6.133-4.346s-2.044-2.944-3.406-5.046c-1.135-6.167-1.363-7.99-1.363-7.99l-1.816-1.542V1.4l-9.767-1.402-11.808 2.664-3.863 10.654-2.725 6.587s-8.176 1.682-8.63 3.785c-.231 1.075-1.41 4.847-2.507 8.287-.628 1.956-1.953 3.8-3.881 5.401-1.927 1.6-4.408 2.916-7.262 3.85-10.449 3.423-27.07 8.924-34.272 11.609-9.178 3.423-33.727 1.682-46.097 1.878.515-1.052 1.363-2.965.927-3.022-.436-.057-1.213 1.993-1.567 3.034h-.099c0-.84 0-3.574-.518-3.539-.34.02-.306 1.23-.197 2.278-.378-1.02-.883-2.158-1.217-2.103-.442.084.443 2.06.937 3.09-1.362-.666-3.045-1.423-3.25-1.238-.204.185 1.363.938 2.76 1.554a27.181 27.181 0 0 0-3.274.3c-8.135 1.422-40.612.302-51.06 1.002-10.449.7-54.28 4.905-54.28 4.905v10.022H622V31.958l-7.723-9.252Z" fill="url(#m)"/><path opacity=".26" d="M573.396 19.904s4.657.946 5.509 2.102c.852 1.157 1.704 6.729 1.704 6.729l3.236 6.764 3.918 14.788H576.52l-1.533-12.616c-.037-1.496.308-2.986 1.022-4.416 1.193-2.418.511-4.1.511-4.1l-3.124-2.838v-6.413Z" fill="#422416"/><path opacity=".07" d="m555.681 42.122 2.218-.755c1.058-.36 1.986-.849 2.727-1.438.741-.589 1.279-1.265 1.582-1.987.879-2.102 2.095-5.032 2.446-5.982.566-1.543 1.247-7.78 1.247-7.78l1.305-2.405c-1.278.56-2.289 1.213-2.439 1.913-.232 1.075-1.411 4.847-2.508 8.287-.627 1.956-1.953 3.801-3.881 5.401-1.927 1.6-4.408 2.916-7.262 3.85-6.5 2.13-15.385 5.062-22.907 7.62l27.472-6.724ZM580.597 14.172c-.085-2.313 1.22-10.793 1.22-10.793l4.752-2.179-6.551 1.472-3.863 10.654-2.725 6.588 3.771 1.072s3.482-4.501 3.396-6.814Z" fill="#FFC359"/><path opacity=".26" d="m621.567 31.44-7.29-8.734-6.132-4.346s-2.044-2.944-3.407-5.046c-1.134-6.167-1.363-7.99-1.363-7.99l-1.816-1.542V1.4l-9.767-1.402V6.55l.91 2.419 1.277 3.206 3.492 6.413.511 4.941-.851-3.101-2.215-3.417-3.124-.473c-.943.784-1.619 1.678-1.986 2.628-.511 1.472 0 13.773 0 13.773l5.11 15.454 1.022 5.677H622V32.52l-.433-1.078Z" fill="#422416"/><path opacity=".07" d="m590.999 16.758-4.899 1.274a3.824 3.824 0 0 0-1.269.57c-.345.248-.592.543-.72.86l-1.969 4.855.558 2.473 2.167-2.673 1.134-5.115 4.998-2.244Z" fill="#FFC359"/><path d="M485.969 54.904c.078.01 15.933 2.01 22.658 3.154 6.725 1.144 20.539 0 26.331 0 5.791 0 15.33 1.472 15.33 1.472l8.517-5.467s-23.166.21-32.024 0c-8.857-.21-18.154.393-18.154.393-6.544.646-14.908.587-22.658.448Z" fill="#000" style="mix-blend-mode:multiply" opacity=".11"/></g></g></mask><g mask="url(#n)"><path fill="url(#o)" fill-opacity=".9" d="M0 0h607v56H0z"/></g><defs><linearGradient id="c" x1="140.745" y1="68.008" x2="132.152" y2="32.727" gradientUnits="userSpaceOnUse"><stop stop-color="#F58000"/><stop offset="1" stop-color="#B54B00"/></linearGradient><linearGradient id="d" x1="79.688" y1="62.114" x2="85.112" y2="22.44" gradientUnits="userSpaceOnUse"><stop stop-color="#D46500"/><stop offset=".16" stop-color="#C55600"/><stop offset=".46" stop-color="#AE4000"/><stop offset=".75" stop-color="#A13300"/><stop offset="1" stop-color="#9C2E00"/></linearGradient><linearGradient id="e" x1="168.905" y1="106.095" x2="141.247" y2="33.001" gradientUnits="userSpaceOnUse"><stop stop-color="#BA4B00"/><stop offset="1" stop-color="#822600"/></linearGradient><linearGradient id="g" x1="299.767" y1="68.008" x2="307.683" y2="32.394" gradientUnits="userSpaceOnUse"><stop stop-color="#F58000"/><stop offset="1" stop-color="#B54B00"/></linearGradient><linearGradient id="h" x1="366.675" y1="62.114" x2="361.71" y2="22.317" gradientUnits="userSpaceOnUse"><stop stop-color="#D46500"/><stop offset=".16" stop-color="#C55600"/><stop offset=".46" stop-color="#AE4000"/><stop offset=".75" stop-color="#A13300"/><stop offset="1" stop-color="#9C2E00"/></linearGradient><linearGradient id="i" x1="268.909" y1="106.095" x2="294.688" y2="31.437" gradientUnits="userSpaceOnUse"><stop stop-color="#BA4B00"/><stop offset="1" stop-color="#822600"/></linearGradient><linearGradient id="k" x1="513.233" y1="68.008" x2="505.317" y2="32.394" gradientUnits="userSpaceOnUse"><stop stop-color="#F58000"/><stop offset="1" stop-color="#B54B00"/></linearGradient><linearGradient id="l" x1="446.325" y1="62.114" x2="451.29" y2="22.317" gradientUnits="userSpaceOnUse"><stop stop-color="#D46500"/><stop offset=".16" stop-color="#C55600"/><stop offset=".46" stop-color="#AE4000"/><stop offset=".75" stop-color="#A13300"/><stop offset="1" stop-color="#9C2E00"/></linearGradient><linearGradient id="m" x1="544.091" y1="106.095" x2="518.312" y2="31.437" gradientUnits="userSpaceOnUse"><stop stop-color="#BA4B00"/><stop offset="1" stop-color="#822600"/></linearGradient><linearGradient id="o" x1="303.5" y1="0" x2="303.5" y2="56" gradientUnits="userSpaceOnUse"><stop stop-color="#DF914A"/><stop offset=".504" stop-color="#C88242"/><stop offset="1" stop-color="#C4640C"/></linearGradient><clipPath id="a"><path fill="#fff" d="M0 0h607.46v101.96H0z"/></clipPath><clipPath id="b"><path fill="#fff" d="M0 0h240v71H0z"/></clipPath><clipPath id="f"><path fill="#fff" transform="matrix(-1 0 0 1 454 0)" d="M0 0h263v71H0z"/></clipPath><clipPath id="j"><path fill="#fff" transform="translate(359)" d="M0 0h263v71H0z"/></clipPath></defs></svg>