<svg width="608" height="102" fill="none" xmlns="http://www.w3.org/2000/svg"><mask id="d" style="mask-type:alpha" maskUnits="userSpaceOnUse" x="0" y="0" width="608" height="102"><g clip-path="url(#a)"><g clip-path="url(#b)"><path d="M1 24.855s19.182 7.717 22.503 7.717c3.32 0 18.931-4.287 32.19-7.717 13.26-3.43 31.246-5.574 31.246-5.574s16.095-13.715 21.816-13.715 21.775 10.716 24.143 12.004c2.367 1.287 8.993 2.143 8.993 2.143l7.102-1.288s17.994 3 26.987 2.575c8.994-.424 15.619-1.287 17.041-1.287 1.422 0 11.361.424 11.361.424l39.293-16.714h11.837S266.404 0 267.818 0c1.414 0 19.392 13.247 19.392 13.247h16.806l7.805 1.748 7.579 6.43 12.783 2.574 23.65 4.71s28.878 1.288 42.614-3.422c13.736-4.711 21.299-6.43 21.299-6.43l10.415-1.287 8.08-3.138 9.947 2.282 16.564 3.855s33.572 13.26 35.947 11.571C503.075 30.45 531 26.142 531 26.142l19.884-6.005 13.736-3.994 24.612 5.252 17.776 3.43v125.168H1V24.855Z" fill="url(#c)"/></g></g></mask><g mask="url(#d)"><path fill="#D9D9D9" d="M0 0h607v56H0z"/></g><defs><clipPath id="a"><path fill="#fff" d="M0 0h607.46v101.96H0z"/></clipPath><clipPath id="b"><path fill="#fff" transform="translate(1)" d="M0 0h606v150H0z"/></clipPath><linearGradient id="c" x1="301.067" y1="137.097" x2="305.956" y2="36.038" gradientUnits="userSpaceOnUse"><stop stop-color="#9CB3D3"/><stop offset=".37" stop-color="#91ABCF"/><stop offset="1" stop-color="#7495C3"/></linearGradient></defs></svg>