<svg width="608" height="102" fill="none" xmlns="http://www.w3.org/2000/svg"><mask id="i" style="mask-type:alpha" maskUnits="userSpaceOnUse" x="0" y="0" width="608" height="102"><g clip-path="url(#a)"><path d="M0 27.295s58.12-16 65.013-17.272c6.893-1.271 12.863-6.857 51.914 8.638 39.052 15.495 63.176 13.208 64.697 13.543l42.573-20.995s8.273-4.91 20.367 1.186C256.658 18.491 305.786 32.415 347 22v67H0V27.295Z" fill="url(#b)"/><path d="M225.613 32.142c6.3-1.348 12.595-5.062 14.742-10.638 2.148-5.576-4.898-11.628-7.98-12.147-4.714.194-7.53 1.843-7.53 1.843l-42.702 20.942s37.174 1.353 43.47 0Z" fill="url(#c)"/><path d="M348 68.63c-10.77-5.741-66.943-15.555-98.271-15.555-31.329 0-76.792 0-137.61-18.241C57.12 18.337 70.191 9.72 73.2 8.22c-3.429.434-5.666 1.353-8.001 1.782C58.286 11.285 0 27.245 0 27.245V91h348V68.63Z" fill="url(#d)"/></g><g clip-path="url(#e)"><path d="M607 29.55s-57.281-15.384-64.074-16.606c-6.794-1.222-12.678-6.592-51.166 8.305-38.487 14.897-62.263 12.698-63.762 13.02l-41.959-20.184s-8.154-4.72-20.073 1.14c-11.92 5.86-60.339 13.593-100.958 3.58v70.069H607V29.549Z" fill="url(#f)"/><path d="M385.277 34.27c-6.192-1.3-12.379-4.88-14.489-10.254-2.11-5.374 4.814-11.208 7.842-11.708 4.633.187 7.4 1.777 7.4 1.777l41.967 20.185s-36.533 1.304-42.72 0Z" fill="url(#g)"/><path d="M265 69.438c10.584-5.533 65.789-14.992 96.577-14.992 30.789 0 75.468 0 135.238-17.582 54.05-15.9 41.204-24.206 38.247-25.65 3.37.418 5.568 1.303 7.864 1.717C549.719 14.167 607 29.55 607 29.55V91H265V69.438Z" fill="url(#h)"/></g></mask><g mask="url(#i)"><path fill="#D9D9D9" d="M2 5h603v51H2z"/></g><defs><linearGradient id="b" x1="85.915" y1="89.161" x2="420.509" y2="-7.723" gradientUnits="userSpaceOnUse"><stop stop-color="#FFDBAB"/><stop offset=".25" stop-color="#FDD9A8"/><stop offset=".41" stop-color="#F7D1A0"/><stop offset=".53" stop-color="#EDC592"/><stop offset=".61" stop-color="#E3B985"/><stop offset=".64" stop-color="#DBAE7D"/><stop offset=".71" stop-color="#CC966E"/><stop offset=".79" stop-color="#C18663"/><stop offset=".88" stop-color="#BA7C5C"/><stop offset="1" stop-color="#B8795A"/></linearGradient><linearGradient id="c" x1="184.028" y1="33.943" x2="241.317" y2="19.741" gradientUnits="userSpaceOnUse"><stop stop-color="#C09871"/><stop offset=".42" stop-color="#BD9671"/><stop offset=".67" stop-color="#B59171"/><stop offset=".88" stop-color="#A78872"/><stop offset="1" stop-color="#9A8072"/></linearGradient><linearGradient id="d" x1="174" y1="91.622" x2="174" y2="6.633" gradientUnits="userSpaceOnUse"><stop stop-color="#FFDBAB"/><stop offset=".18" stop-color="#F6D09F"/><stop offset=".61" stop-color="#E3B985"/><stop offset=".69" stop-color="#DFB481"/><stop offset=".81" stop-color="#D5A477"/><stop offset=".93" stop-color="#C48A66"/><stop offset="1" stop-color="#B8795A"/></linearGradient><linearGradient id="f" x1="522.326" y1="89.028" x2="193.854" y2="-8.473" gradientUnits="userSpaceOnUse"><stop stop-color="#FFDBAB"/><stop offset=".25" stop-color="#FDD9A8"/><stop offset=".41" stop-color="#F7D1A0"/><stop offset=".53" stop-color="#EDC592"/><stop offset=".61" stop-color="#E3B985"/><stop offset=".64" stop-color="#DBAE7D"/><stop offset=".71" stop-color="#CC966E"/><stop offset=".79" stop-color="#C18663"/><stop offset=".88" stop-color="#BA7C5C"/><stop offset="1" stop-color="#B8795A"/></linearGradient><linearGradient id="g" x1="426.144" y1="36.005" x2="369.972" y2="21.806" gradientUnits="userSpaceOnUse"><stop stop-color="#C09871"/><stop offset=".42" stop-color="#BD9671"/><stop offset=".67" stop-color="#B59171"/><stop offset=".88" stop-color="#A78872"/><stop offset="1" stop-color="#9A8072"/></linearGradient><linearGradient id="h" x1="436" y1="91.6" x2="436" y2="9.683" gradientUnits="userSpaceOnUse"><stop stop-color="#FFDBAB"/><stop offset=".18" stop-color="#F6D09F"/><stop offset=".61" stop-color="#E3B985"/><stop offset=".69" stop-color="#DFB481"/><stop offset=".81" stop-color="#D5A477"/><stop offset=".93" stop-color="#C48A66"/><stop offset="1" stop-color="#B8795A"/></linearGradient><clipPath id="a"><path fill="#fff" transform="translate(0 8)" d="M0 0h348v83H0z"/></clipPath><clipPath id="e"><path fill="#fff" transform="matrix(-1 0 0 1 607 11)" d="M0 0h342v80H0z"/></clipPath></defs></svg>