<svg width="609" height="102" fill="none" xmlns="http://www.w3.org/2000/svg"><mask id="g" style="mask-type:alpha" maskUnits="userSpaceOnUse" x="0" y="0" width="609" height="102"><g clip-path="url(#a)"><g clip-path="url(#b)"><path d="M362.133 32.942c.17-.045.344-.077.52-.096.635-.067 1.045.04 1.582-.208-.225.104-1.865.471-1.697-.141.066-.245 1.98-.312 2.295-.297.377 0 .738.13 1.115.137 1.447.037 3.004-.628 4.344-1.025 2.172-.646 4.348-1.318 6.615-1.626 2.266-.308 4.418-.401 6.635-.724a14.336 14.336 0 0 0 5.069-1.6c.346-.277.711-.532 1.095-.765.409-.182.721-.06 1.106-.164.307-.081.328-.337.586-.456.439-.208.672.07 1.029.204 1.278.464 3.094-.672 4.393-1.114 1.189-.4 2.266-.902 3.484-1.18.446-.105.631-.234 1.086-.13.352.077.508.37.77.55.701.485 1.639.716 2.459 1.002a8.29 8.29 0 0 0 2.791.627 11.863 11.863 0 0 0 4.422-.62c1.106-.394 2.233-.713 3.34-1.114.918-.342 2.049-.865 3.045-.98a7.598 7.598 0 0 1 1.127 0c.635.026.484.085.934.434.451.35 1.152.743 1.709 1.088 1.148.743 1.951 1.83 2.996 2.677 3.004 2.436 5.648 5.176 8.553 7.704 1.82 1.578 4.201 2.748 6.369 3.884.729.371 1.496.702 2.25 1.047.901.416 1.811.624 2.729.973.82.312 1.422.887 2.189 1.27.734.354 1.444.748 2.127 1.18.487.316 1.024.43 1.5.78.585.378 1.194.726 1.823 1.04.713.419 1.463.798 1.931 1.444.364.508.676.794 1.368.742.603-.04.636-.226 1.14-.512.696-.397 1.5-.683 2.221-1.073.955-.516 2.029-.88 2.934-1.463a5.117 5.117 0 0 1 1.836-.872c.963-.182 1.529.215 2.369.568 1.545.65 3.078 1.3 4.619 1.956 2.192.936 4.782 1.151 6.733 2.492.767.523 1.488 1.25 2.459 1.384 1.086.145 2.459-.37 3.512-.516.98-.14 2.197-.478 3.185-.449.787.023 1.479.267 2.295.22 2.262-.138 4.598-.814 6.745-1.42a57.477 57.477 0 0 0 13.709-5.769c1.34-.806 2.566-1.73 3.947-2.48a15.95 15.95 0 0 0 2.95-1.994c.361-.32 1.078-1.114 1.64-1.188.561-.074.52.145.909.397.861.55 2.107.799 3.091 1.032 2.922.699 5.823 1.578 8.708 2.395 5.889 1.671 11.779 3.45 17.512 5.507 2.012.72 4.438 2.038 6.692 1.73 3.328-.453 6.398-1.686 9.533-2.748 1.061-.371 2.02-.702 3.16-.668.901.026 1.16-.256 1.836-.772 2.655-2.031 5.123-3.995 8.245-5.421 5.017-2.284 9.017-6.134 13.266-9.342 3.963-2.97 8.312-5.528 12.537-8.168 1.012-.639 2.02-1.27 2.979-1.968.607-.442 1.23-1.091 1.955-1.336-.033.55-.278 1.15-.36 1.693a27.747 27.747 0 0 0-.201 4.084c0 4.04 0 8.064-.193 12.1-.152 3.063-.34 6.126-.356 9.193 0 2.558.032 5.072-.238 7.622-.164 1.578-.271 3.153-1.033 4.604-.656 1.245-1.673 2.305-2.942 3.067a22.755 22.755 0 0 1-4.099 1.597 74.373 74.373 0 0 1-6.413 1.867 309.946 309.946 0 0 1-19.233 4.526c-15.762 3.167-31.557 5.985-47.54 8.09-22.044 2.908-44.224 5.039-66.519 4.497-17.765-.435-35.453-1.185-52.928-4.337a262.407 262.407 0 0 1-19.069-4.2 106.338 106.338 0 0 1-12.266-3.853 68.085 68.085 0 0 1-10.558-4.396c-5.106-3.152-9.958-7.377-12.319-12.642-1.389-3.104-1.987-6.743-.582-9.947.951-2.18 2.205-4.158 4.127-5.736 1.406-1.159 2.701-1.43 4.508-1.486a8.205 8.205 0 0 0 1.808-.408Z" fill="url(#c)"/><path d="M281.438 27.375c.41-.257.771-.524 1.157-.796.059.03.122.054.188.075.303-.141.591-.297.862-.467 1.87-1.146 3.409-2.578 5.369-3.63 1.231-.661 2.482-1.406 3.741-2.024a3.696 3.696 0 0 1 1.284-.407c1.005-.075 1.773.532 2.667.747.429.114.887.166 1.345.154.459-.013.91-.09 1.325-.225a40.78 40.78 0 0 0 6.49-3.077c3.593-2.025 7.191-4.03 10.406-6.356.944-.681 2.121-2.08 3.508-2.366 3.015 3.045 7.498 5.196 11.551 7.614 4.582 2.735 9.907 4.823 14.415 7.602 4.508 2.778 9.344 5.21 13.684 8.095 4.574 3.039 8.938 6.098 13.91 8.83 3.614 1.986 7.511 4.5 12.081 5.394 1.276.21 2.587.297 3.897.258h.668c.192-.015.385-.022.579-.02.125.02.253.03.381.031.103 0 .197-.034.295-.045.099-.012.189 0 .284 0a1.51 1.51 0 0 0 .258-.066 4.94 4.94 0 0 0 .55-.17c.147-.06.315-.088.467-.143.152-.054.308-.126.472-.18.062-.02.135-.034.205-.052a.871.871 0 0 0 .242-.1c.341-.192.699-.37 1.071-.533.369-.148.771-.234 1.132-.395.18-.088.353-.184.517-.286.143-.072.297-.134.459-.184a.818.818 0 0 0 .296-.143c.045-.037.041-.057.102-.083.176-.069.41.146.509.232a31.192 31.192 0 0 0 3.331 2.108c.212.123.412.256.598.398.21.132.431.256.661.37.25.143.511.276.783.398.78.367 1.576.714 2.388 1.043a76.434 76.434 0 0 0 5.033 1.819c3.384 1.105 6.863 2.07 10.255 3.15a154.794 154.794 0 0 0 20.859 5.05c2.962.513 5.677 1.072 8.737 1.278 3.971.27 8.061.066 12.04-.078 4.41-.157 8.877-.69 13.237-1.16 5.353-.572 10.608-1.188 15.883-2.048 8.307-1.352 16.728-2.291 25.047-3.563 2.4-.37 4.828-.438 7.249-.707a15.714 15.714 0 0 1 4.356.108c.905.18 1.783.42 2.621.716 1.456.447 2.913.86 4.41 1.264 1.915.495 3.868.915 5.849 1.26 1.604.287 2.65.696 4.16 1.126.439.123 4.627.544 3.815 1.289-.029.026-1.641.286-1.838.344-2.133.635-4.369 1.114-6.526 1.718-13.381 3.69-27.447 6.388-41.337 8.957-11.797 2.186-23.759 3.724-35.745 5.305-11.145 1.463-22.327 3.027-33.575 4.059-10.948 1.008-21.901 1.197-32.931 1.174-12.487-.026-24.859-.172-37.329-.733-7.679-.347-15.255-.75-22.971-.73-5.977.017-11.958 0-17.934.03-3.341.023-6.679-.113-9.993-.406-2.687-.24-5.439-.49-7.896-1.326-1.887-.647-3.467-1.1-5.616-1.146-1.382-.028-2.441-.35-3.774-.513-1.333-.163-2.699-.071-4.053-.071a36.664 36.664 0 0 0-4.705.223c-2.359.287-4.963.055-7.347.063-5.87.017-11.563-1.02-17.171-2.16-3.577-.724-7.264-.859-10.895-1.432-4.229-.676-8.298-1.816-12.523-2.526a59.534 59.534 0 0 1-5.12-.968c-.787-.207-2.313-.473-2.953-.925-1.063-.757.878-1.573 1.555-2.106 2.539-2.005 5.673-3.62 8.183-5.654 3.811-3.088 6.227-7.038 8.959-10.598 2.9-3.784 6.658-7.178 9.131-11.114.537-.86 1.054-1.641 1.206-2.578.049-.303-.156-.541.263-.776.529.212.935.538 1.476.748 1.52.558 3.206.862 4.923.887 2.834.058 4.988-.212 7.248-1.458 3.241-1.784 5.887-4.01 9.098-5.82a61.62 61.62 0 0 0 2.511-1.573Z" fill="url(#d)"/></g><path d="M89.657 65.507a2.575 2.575 0 0 1 1.706-.47c1.113.094 2.158.673 3.281.793 1.82.14 3.649-.027 5.421-.495 1.176-.287 2.212-.923 3.339-1.345.964-.365 1.894-.626 2.839-1.043 2.77-1.313 5.719-2.381 8.191-4.346 1.778-1.423 3.542-2.737 5.354-4.092.877-.662 1.763-1.042 2.573-1.808.544-.521 1.696-1.98 2.409-2.085.516-.089.675.318.964.704.47.637 1.004 1.217 1.59 1.73.964.88 1.735 1.777 2.891 2.299 1.157.52 2.299.61 3.373 1.183 1.928 1.016 3.677 2.308 5.783 2.887.843.17 1.701.246 2.558.224 1.003.063 1.885.38 2.892.37.939 0 2.12.183 3.04-.031a5.116 5.116 0 0 1 1.282-.323c.459.036.92.011 1.373-.073 1.446-.402 2.487-2.153 3.73-3.05 1.378-.995 2.891-1.651 4.139-2.855 1.248-1.204 2.703-2.377 4.091-3.529 2.501-2.085 5.06-4.003 7.551-6.082 2.838-2.377 5.498-5.014 8.264-7.495 1.638-1.47 3.142-3.096 4.737-4.612 1.797-1.715 3.411-3.649 5.228-5.343 1.817-1.694 3.662-3.064 5.498-4.586 1.489-1.235 2.67-2.762 4.086-4.07 1.027-.944 1.446-1.278 2.53-.6.594.351 1.207.665 1.836.938 1.277.594 2.409 1.465 3.614 2.168 1.205.704 2.554 1.527 3.783 2.32 1.623 1.042 2.977 2.605 4.515 3.8a57.593 57.593 0 0 0 4.905 3.496c1.831 1.131 3.922 1.366 5.782 2.47 2.366 1.413 4.684 3.44 7.469 3.503 3.084.073 6.163.23 9.156 1.09 1.012.286 1.84.98 2.891 1.25.991.274 2.008.419 3.031.433 1.85 0 3.614-.855 5.426-.72 1.127.09 1.662 1.08 2.592 1.72 3.571 2.487 7.464 4.441 11.175 6.661a28.427 28.427 0 0 0 7.348 3.221c1.32.35 2.486.089 3.821-.14a36.334 36.334 0 0 0 6.804-1.73c1.928-.736 3.797-1.642 5.72-2.388.92-.354 2.255-1.042 3.286-.792.307.09.59.259.824.492.234.233.412.524.521.848.233.703.36 1.442.375 2.189.283 2.581.604 5.154.964 7.718.684 4.9 1.214 9.82 1.783 14.734.771 6.63 1.344 13.697-.26 20.254-.713 2.903-1.624 6.072-3.272 8.511-2.515 3.721-5.782 6.598-9.425 8.954-3.643 2.356-7.623 3.841-11.748 5.118-6.105 1.887-12.288 3.492-18.48 4.998-15.294 3.717-30.902 5.108-46.514 6.078-13.608.839-27.168 1.594-40.8 1.48-11.449-.094-23.057-1.194-34.183-4.227-8.433-2.299-17.183-4.998-24.508-10.184-5.127-3.649-9.362-8.146-13.8-12.655a65.433 65.433 0 0 1-7.29-9.126c-1.822-2.679-3.914-5.613-4.7-8.86-.558-2.33-1.17-5.056-.53-7.432.386-1.423.806-2.554 1.928-3.388 1.364-1 2.795-1.892 3.855-3.278a6.195 6.195 0 0 1 1.393-1.382Z" fill="url(#e)"/><path d="M265.841 110.976c-.212-1.107-.553-2.271-1.443-2.251-.48 0-.774.34-1.312.199a11.181 11.181 0 0 1-2.294-1.248c-3.255-1.879-6.197-4.699-9.784-5.659-1.048-.277-1.716-.945-2.577-1.603s-1.962-.731-2.885-1.3c-.836-.522-1.562-1.613-2.298-2.329-.995-.96-2.087-1.796-3.063-2.793a19.45 19.45 0 0 0-2.644-2.177c-.913-.658-1.702-1.634-2.635-2.198-.721-.444-1.779-.496-2.404-1.148-.481-.486-.663-1.27-1.096-1.812-.591-.742-1.096-.81-1.875-1.154-1.697-.747-2.755-2.642-4.135-3.874-1.298-1.164-2.885-2.026-4.12-3.284-1.361-1.394-2.592-3.023-3.919-4.474-1.231-1.342-2.462-2.548-3.591-4-.544-.694-1.27-1.633-2.174-1.566a3.387 3.387 0 0 0-1.356.622 14.026 14.026 0 0 0-2.403 1.916c-.573.485-.832.736-1.443.35a8.37 8.37 0 0 1-1.212-1.175c-1.682-1.64-3.567-3.065-5.394-4.516-1.827-1.452-3.294-3.2-4.923-4.856-2.255-2.281-4.549-4.437-6.674-6.87-.995-1.138-2.039-2.25-2.995-3.42-1.068-1.305-1.948-2.783-3.077-4.02-1.246-1.363-2.736-2.005-4.164-3.054-1.428-1.05-2.5-2.58-3.755-3.947-.986-1.044-2.356-1.848-3.217-3.002-.961-1.285-1.75-2.538-2.947-3.603-1.197-1.065-2.457-2.234-3.63-3.482-.702-.747-1.241-1.598-1.923-2.339a13.556 13.556 0 0 1-1.832-2.86c-.712-1.332-1.62-2.564-2.404-3.849-1.048-1.728-2.125-3.43-3.135-5.179a12.238 12.238 0 0 0-1.519-2.292 5.69 5.69 0 0 0-1.346-.84c-.688-.428-1.222-1.175-1.827-1.723a7.995 7.995 0 0 1-.89-1.102 2.132 2.132 0 0 0-1.212-.81c-.48-.15-.793-.443-1.192-.067a6.077 6.077 0 0 1-.784.783c-.154.09-.3.195-.437.313a8.268 8.268 0 0 1-.683.7 1.559 1.559 0 0 1-.687.225 3.278 3.278 0 0 0-.88.522c-.332.224-.664.449-1 .668-1.289.85-2.592 1.681-3.876 2.543-1.38.918-2.663 1.994-4.048 2.902-.601.392-1.279.658-1.87 1.044a.786.786 0 0 0-.26.256c-.12.21-.144.407-.341.564-.23.162-.501.24-.774.225-.871-.068-1.674-1.044-2.039-1.833-.25-.548-.514-.621-1.043-.81-.433-.15-.846-.38-1.231-.072-.216.177-.385.407-.596.59-.387.386-.75.8-1.087 1.237a9.205 9.205 0 0 1-2.159 1.712c-.663.387-1.327.732-2.009 1.045-.683.313-1.053 1.2-1.736 1.524-.279.13-.567.13-.841.287-1.837 1.045-3.525 2.81-5.443 3.655-2.039.93-4.294 1.32-6.361 2.208-1.168.522-2.577.585-3.688 1.107-1.264.6-2.404 2.036-3.659 2.804-.63.391-1.22.85-1.98.84-1.03 0-1.395-.725-2.308-1.044-1.284-.428-2.318.355-3.443.945-1.98 1.044-3.563 1.723-5.798 1.603a33.698 33.698 0 0 1-5.433-.752 4.165 4.165 0 0 0-1.553-.245c-1.626.23-2.847 2.03-4.111 2.997-4.702 3.586-11.304 3.753-16.775 4.563-4.025.595-8.063 1.007-12.063 1.754-3.313.616-6.583 1.566-9.924 1.984-5.77.694-11.318 2.297-16.996 3.57-1.895.424-3.847.873-5.674 1.478-1.827.606-3.365 1.567-5.087 2.35-1.721.783-3.73.84-5.202 1.973-2.289 1.75-.832 4.078-.154 6.302.904 2.97.481 6.578.736 9.68.36 4.625.774 9.397 1.865 13.876.856 3.52 2.097 7.586 4.154 10.442a27.166 27.166 0 0 0 6.275 6.265c8.76 6.427 19.424 9.074 29.29 12.875 12.42 4.787 24.655 10.055 37.204 14.462 4.962 1.743 9.934 3.482 14.944 5.064 7.322 2.308 14.799 3.963 22.179 6.025 17.222 4.824 34.189 10.964 52.109 11.606 8.037.244 16.079-.251 24.04-1.478a109.98 109.98 0 0 0 24.371-6.369 82.07 82.07 0 0 0 10.424-4.814c2.308-1.31 4.539-2.777 6.837-4.109 3.366-1.952 6.731-3.722 9.953-5.951a91.529 91.529 0 0 1 12.164-7.205c2.5-1.227 4.962-2.903 6.543-5.378.962-1.519.294-1.879-.062-3.158-.091-.366-.164-.951-.274-1.561Z" fill="url(#f)"/></g></mask><g mask="url(#g)"><path fill="#D9D9D9" d="M2 5h603v51H2z"/></g><defs><linearGradient id="c" x1="479.715" y1="34.591" x2="479.715" y2="61.323" gradientUnits="userSpaceOnUse"><stop stop-color="#102D52"/><stop offset="1" stop-color="#124162"/></linearGradient><linearGradient id="d" x1="387.906" y1="50.938" x2="387.906" y2="22.721" gradientUnits="userSpaceOnUse"><stop stop-color="#102D52"/><stop offset="1" stop-color="#0F122E"/></linearGradient><linearGradient id="e" x1="190.487" y1="23.394" x2="190.487" y2="53.649" gradientUnits="userSpaceOnUse"><stop stop-color="#2F4C6D"/><stop offset="1" stop-color="#3C5473"/></linearGradient><linearGradient id="f" x1="134.342" y1="12.651" x2="134.342" y2="86.438" gradientUnits="userSpaceOnUse"><stop stop-color="#102D52"/><stop offset="1" stop-color="#124162"/></linearGradient><clipPath id="a"><path fill="#fff" d="M0 0h609v102H0z"/></clipPath><clipPath id="b"><path fill="#fff" transform="translate(226.573 9.003)" d="M0 0h381.966v71.028H0z"/></clipPath></defs></svg>