<svg width="613" height="103" fill="none" xmlns="http://www.w3.org/2000/svg"><mask id="g" style="mask-type:alpha" maskUnits="userSpaceOnUse" x="0" y="0" width="613" height="103"><g clip-path="url(#a)"><g clip-path="url(#b)"><path d="M364.511 33.265c.172-.045.347-.078.524-.097.639-.068 1.052.04 1.592-.21-.227.105-1.877.476-1.708-.143.066-.247 1.993-.315 2.311-.3.379 0 .742.132 1.122.139 1.456.037 3.023-.634 4.372-1.035 2.187-.652 4.377-1.33 6.658-1.642 2.281-.311 4.447-.405 6.679-.731 1.803-.22 3.539-.77 5.103-1.616.348-.28.716-.537 1.101-.772.413-.184.726-.06 1.114-.165.309-.083.33-.341.59-.462.441-.21.676.072 1.035.207 1.287.468 3.115-.679 4.422-1.125 1.197-.405 2.282-.911 3.507-1.192.449-.105.635-.236 1.093-.131.355.078.511.374.776.554.705.491 1.65.724 2.475 1.013.883.37 1.837.585 2.809.633a11.908 11.908 0 0 0 4.451-.626c1.114-.397 2.248-.72 3.362-1.125.924-.345 2.062-.873 3.065-.99a7.61 7.61 0 0 1 1.134 0c.64.027.487.087.941.44.454.352 1.159.75 1.72 1.098 1.155.75 1.964 1.848 3.016 2.703 3.023 2.46 5.684 5.226 8.609 7.78 1.831 1.593 4.228 2.774 6.41 3.921.734.375 1.506.709 2.265 1.058.907.42 1.823.63 2.747.982.825.315 1.432.896 2.203 1.282a21.46 21.46 0 0 1 2.141 1.193c.491.318 1.031.434 1.51.787.589.382 1.202.733 1.836 1.05.717.423 1.472.806 1.943 1.458.367.514.68.802 1.377.75.607-.041.64-.229 1.147-.517.701-.402 1.51-.69 2.236-1.084.961-.521 2.042-.889 2.954-1.477.54-.41 1.17-.71 1.848-.881.969-.184 1.538.217 2.384.573 1.555.657 3.098 1.313 4.649 1.976 2.207.945 4.814 1.163 6.778 2.516.771.529 1.497 1.263 2.475 1.398 1.093.147 2.475-.374 3.535-.52.986-.143 2.211-.484 3.205-.454.792.022 1.489.27 2.31.22 2.277-.138 4.629-.82 6.79-1.431a57.772 57.772 0 0 0 13.799-5.827c1.349-.813 2.582-1.747 3.973-2.504a16.09 16.09 0 0 0 2.97-2.014c.363-.322 1.085-1.124 1.65-1.2.565-.074.524.147.915.402.867.555 2.121.806 3.111 1.042 2.941.705 5.862 1.594 8.766 2.418 5.928 1.688 11.856 3.483 17.627 5.56 2.025.728 4.467 2.059 6.736 1.748 3.35-.458 6.439-1.703 9.595-2.775 1.069-.375 2.034-.708 3.181-.675.907.027 1.167-.258 1.848-.78 2.673-2.05 5.156-4.034 8.3-5.473 5.049-2.306 9.075-6.194 13.353-9.433 3.989-3 8.365-5.583 12.618-8.249 1.019-.645 2.034-1.282 2.999-1.987.611-.446 1.238-1.102 1.968-1.35-.033.555-.28 1.163-.363 1.71a28.29 28.29 0 0 0-.202 4.124c0 4.08 0 8.143-.194 12.219-.152 3.093-.342 6.186-.359 9.283 0 2.583.033 5.122-.239 7.697-.165 1.594-.272 3.183-1.04 4.65-.66 1.256-1.684 2.327-2.961 3.096a22.85 22.85 0 0 1-4.126 1.612 74.523 74.523 0 0 1-6.455 1.886 310.953 310.953 0 0 1-19.36 4.57c-15.865 3.199-31.764 6.044-47.852 8.17-22.189 2.936-44.514 5.088-66.955 4.54-17.883-.438-35.687-1.195-53.276-4.379a263.618 263.618 0 0 1-19.195-4.24 106.863 106.863 0 0 1-12.346-3.892 68.396 68.396 0 0 1-10.627-4.439c-5.14-3.183-10.024-7.45-12.4-12.766-1.398-3.134-2.001-6.809-.586-10.044.957-2.201 2.22-4.2 4.154-5.793 1.415-1.17 2.719-1.443 4.538-1.5a8.22 8.22 0 0 0 1.819-.412Z" fill="url(#c)"/><path d="M283.287 27.644c.412-.26.776-.53 1.164-.804.059.03.123.055.19.075.305-.142.595-.3.867-.471 1.883-1.157 3.431-2.604 5.405-3.665 1.239-.668 2.498-1.42 3.765-2.045a3.708 3.708 0 0 1 1.293-.41c1.011-.076 1.784.537 2.684.754.432.115.892.167 1.354.155a4.7 4.7 0 0 0 1.334-.227 41.02 41.02 0 0 0 6.532-3.107c3.617-2.045 7.238-4.07 10.475-6.418.95-.688 2.135-2.1 3.53-2.39 3.035 3.075 7.548 5.248 11.627 7.689 4.613 2.762 9.972 4.87 14.51 7.676 4.537 2.806 9.406 5.262 13.774 8.175 4.604 3.069 8.997 6.158 14.001 8.917 3.638 2.005 7.561 4.544 12.16 5.447 1.285.212 2.604.3 3.923.26h.673c.193-.016.388-.022.582-.02.126.02.255.03.384.031.103 0 .198-.034.297-.046.099-.011.19 0 .285 0 .09-.015.178-.037.26-.066.191-.047.376-.104.554-.171.148-.06.318-.09.47-.145.153-.055.31-.127.475-.182.062-.02.136-.035.207-.052a.873.873 0 0 0 .243-.101c.344-.194.704-.374 1.078-.538.371-.15.776-.237 1.139-.4a5.66 5.66 0 0 0 .521-.289c.144-.072.299-.134.462-.185a.805.805 0 0 0 .297-.144c.046-.038.042-.058.104-.084.177-.07.413.147.512.234a31.37 31.37 0 0 0 3.352 2.129c.214.124.416.258.603.402.212.133.434.258.665.373.252.145.515.279.789.402.784.37 1.585.721 2.403 1.053a76.69 76.69 0 0 0 5.066 1.837c3.406 1.116 6.908 2.091 10.322 3.181a155.438 155.438 0 0 0 20.996 5.1c2.981.518 5.715 1.082 8.795 1.29 3.997.272 8.114.066 12.119-.078 4.438-.16 8.935-.697 13.324-1.172 5.388-.578 10.677-1.2 15.987-2.068 8.362-1.365 16.838-2.314 25.212-3.598 2.415-.373 4.86-.443 7.296-.715a15.774 15.774 0 0 1 4.385.11c.911.181 1.794.423 2.638.724 1.466.45 2.932.867 4.439 1.275 1.928.5 3.893.925 5.888 1.273 1.614.29 2.667.703 4.187 1.137.441.124 4.657.55 3.84 1.301-.029.026-1.652.29-1.85.347-2.147.642-4.398 1.125-6.569 1.736-13.469 3.725-27.627 6.45-41.608 9.044-11.875 2.207-23.915 3.76-35.98 5.357-11.219 1.478-22.474 3.058-33.796 4.099-11.02 1.018-22.045 1.209-33.147 1.186-12.569-.026-25.022-.174-37.574-.74-7.73-.35-15.356-.758-23.123-.738-6.015.017-12.036 0-18.051.032-3.363.022-6.723-.115-10.059-.411-2.704-.243-5.475-.495-7.948-1.34-1.899-.653-3.489-1.11-5.653-1.156-1.391-.03-2.456-.353-3.798-.518-1.342-.165-2.717-.072-4.08-.072a36.812 36.812 0 0 0-4.736.225c-2.374.29-4.996.055-7.395.064-5.908.017-11.639-1.03-17.284-2.181-3.6-.732-7.312-.868-10.966-1.446-4.257-.683-8.353-1.834-12.606-2.551a59.732 59.732 0 0 1-5.153-.978c-.793-.208-2.329-.477-2.973-.934-1.069-.764.884-1.588 1.565-2.126 2.556-2.025 5.71-3.656 8.237-5.71 3.836-3.118 6.268-7.107 9.018-10.702 2.919-3.821 6.701-7.249 9.191-11.223.541-.868 1.061-1.657 1.214-2.603.05-.307-.157-.547.264-.784.533.214.942.544 1.487.755 1.53.564 3.226.871 4.955.897 2.853.057 5.02-.214 7.296-1.473 3.261-1.802 5.925-4.049 9.158-5.877a63.035 63.035 0 0 0 2.527-1.588Z" fill="url(#d)"/></g><path d="M90.246 66.149a2.586 2.586 0 0 1 1.717-.474c1.12.095 2.173.679 3.303.8a16.338 16.338 0 0 0 5.456-.5c1.184-.29 2.227-.931 3.362-1.358.97-.368 1.906-.631 2.856-1.052 2.789-1.327 5.758-2.406 8.246-4.39 1.79-1.437 3.565-2.763 5.389-4.131.882-.669 1.775-1.053 2.59-1.826.548-.527 1.707-2 2.425-2.106.519-.09.679.321.97.71.473.645 1.01 1.23 1.601 1.748.97.89 1.746 1.795 2.91 2.321 1.164.526 2.313.616 3.395 1.195 1.94 1.026 3.701 2.331 5.82 2.916.849.172 1.712.247 2.576.226 1.009.063 1.896.384 2.91.373.946 0 2.134.185 3.06-.031.417-.165.85-.275 1.291-.326.462.036.926.011 1.382-.074 1.455-.405 2.503-2.174 3.754-3.079 1.387-1.005 2.91-1.668 4.167-2.884 1.256-1.216 2.721-2.4 4.117-3.563 2.518-2.105 5.093-4.042 7.601-6.142 2.857-2.4 5.534-5.063 8.318-7.568 1.649-1.484 3.163-3.127 4.768-4.658 1.809-1.732 3.434-3.684 5.263-5.395 1.828-1.71 3.686-3.094 5.534-4.631 1.498-1.247 2.687-2.79 4.113-4.11 1.033-.953 1.455-1.29 2.546-.606.599.355 1.216.671 1.848.948 1.285.6 2.425 1.479 3.638 2.189 1.212.71 2.571 1.542 3.807 2.342 1.635 1.053 2.998 2.631 4.545 3.837a58.091 58.091 0 0 0 4.938 3.531c1.843 1.142 3.948 1.38 5.82 2.495 2.382 1.426 4.715 3.474 7.518 3.537 3.104.073 6.204.231 9.216 1.1 1.018.29 1.852.99 2.91 1.263.997.276 2.021.422 3.051.437 1.862 0 3.637-.864 5.461-.727 1.135.09 1.673 1.09 2.609 1.737 3.595 2.51 7.514 4.484 11.248 6.726a28.582 28.582 0 0 0 7.397 3.253c1.329.352 2.503.09 3.846-.142a36.496 36.496 0 0 0 6.849-1.748c1.94-.742 3.822-1.657 5.757-2.41.927-.358 2.27-1.053 3.308-.8.309.09.594.261.829.497.236.235.416.529.524.856.236.71.363 1.456.379 2.21.284 2.607.608 5.205.97 7.794.688 4.948 1.222 9.916 1.794 14.88.776 6.694 1.354 13.83-.262 20.451-.717 2.932-1.634 6.132-3.293 8.595-2.532 3.757-5.82 6.663-9.487 9.042-3.667 2.378-7.673 3.878-11.825 5.168-6.145 1.905-12.368 3.526-18.601 5.047-15.395 3.753-31.105 5.158-46.82 6.137-13.697.847-27.346 1.61-41.067 1.494-11.525-.094-23.209-1.205-34.408-4.268-8.488-2.321-17.297-5.047-24.669-10.284-5.161-3.684-9.424-8.226-13.891-12.778a66.043 66.043 0 0 1-7.339-9.216c-1.833-2.705-3.938-5.668-4.729-8.947-.562-2.353-1.178-5.105-.533-7.505.388-1.437.81-2.579 1.94-3.421 1.372-1.01 2.813-1.91 3.88-3.31a6.244 6.244 0 0 1 1.402-1.395Z" fill="url(#e)"/><path d="M267.587 112.064c-.212-1.118-.556-2.294-1.451-2.273-.484 0-.78.343-1.322.201a11.263 11.263 0 0 1-2.308-1.26c-3.277-1.898-6.238-4.745-9.849-5.715-1.055-.28-1.727-.955-2.594-1.619-.866-.664-1.974-.738-2.903-1.313-.842-.527-1.573-1.629-2.314-2.35-1.001-.971-2.1-1.814-3.082-2.822a19.638 19.638 0 0 0-2.662-2.198c-.92-.664-1.713-1.65-2.652-2.22-.726-.448-1.791-.5-2.42-1.16-.484-.49-.668-1.28-1.104-1.829-.595-.748-1.103-.817-1.887-1.165-1.708-.754-2.773-2.667-4.162-3.912-1.307-1.175-2.904-2.045-4.147-3.316-1.37-1.407-2.609-3.052-3.945-4.518-1.239-1.355-2.478-2.573-3.615-4.038-.547-.702-1.278-1.65-2.187-1.582a3.395 3.395 0 0 0-1.365.627 14.168 14.168 0 0 0-2.42 1.935c-.576.49-.837.744-1.452.353a8.348 8.348 0 0 1-1.219-1.186c-1.694-1.655-3.591-3.094-5.43-4.56-1.839-1.466-3.315-3.232-4.956-4.903-2.27-2.304-4.578-4.481-6.717-6.938-1.002-1.15-2.052-2.272-3.015-3.453-1.075-1.318-1.96-2.81-3.098-4.06-1.253-1.376-2.753-2.024-4.191-3.084-1.437-1.06-2.516-2.604-3.78-3.986-.992-1.054-2.371-1.866-3.237-3.031-.968-1.297-1.762-2.562-2.967-3.638-1.205-1.075-2.473-2.256-3.654-3.516-.706-.754-1.248-1.613-1.936-2.362a13.712 13.712 0 0 1-1.843-2.89c-.717-1.344-1.631-2.588-2.42-3.885-1.055-1.745-2.139-3.463-3.156-5.23a12.27 12.27 0 0 0-1.529-2.314 5.697 5.697 0 0 0-1.355-.849c-.692-.432-1.229-1.186-1.839-1.74a8.096 8.096 0 0 1-.895-1.112 2.146 2.146 0 0 0-1.22-.817c-.484-.153-.798-.448-1.2-.069a6.209 6.209 0 0 1-.789.791c-.155.09-.303.197-.44.316a8.21 8.21 0 0 1-.688.707c-.212.13-.449.207-.692.226a3.314 3.314 0 0 0-.885.528c-.334.226-.668.453-1.007.675-1.297.859-2.608 1.697-3.901 2.567-1.389.928-2.681 2.014-4.075 2.931-.604.396-1.287.665-1.882 1.055a.794.794 0 0 0-.261.258c-.121.211-.146.411-.344.57a1.226 1.226 0 0 1-.779.226c-.876-.068-1.684-1.054-2.052-1.85-.252-.554-.518-.628-1.05-.817-.436-.153-.852-.385-1.239-.074-.218.179-.387.41-.6.595-.39.39-.755.808-1.094 1.25a9.292 9.292 0 0 1-2.173 1.73c-.668.39-1.336.737-2.023 1.053-.687.317-1.06 1.213-1.747 1.54-.281.132-.571.132-.847.29-1.849 1.054-3.547 2.836-5.478 3.69-2.052.939-4.322 1.334-6.403 2.23-1.176.528-2.594.59-3.712 1.118-1.273.606-2.42 2.056-3.683 2.831-.634.396-1.23.86-1.994.849-1.036 0-1.403-.733-2.323-1.054-1.292-.433-2.333.358-3.465.954-1.994 1.054-3.586 1.74-5.837 1.618a33.817 33.817 0 0 1-5.468-.759 4.18 4.18 0 0 0-1.564-.248c-1.635.232-2.864 2.051-4.137 3.027-4.733 3.621-11.378 3.79-16.886 4.607-4.05.601-8.115 1.018-12.142 1.772-3.335.622-6.625 1.581-9.989 2.003-5.807.701-11.392 2.32-17.108 3.606-1.907.427-3.871.88-5.71 1.492-1.84.612-3.388 1.582-5.12 2.373-1.733.79-3.756.849-5.237 1.992-2.304 1.767-.837 4.118-.155 6.364.91 3 .484 6.643.74 9.774.363 4.671.78 9.49 1.878 14.013.862 3.554 2.11 7.66 4.182 10.544a27.39 27.39 0 0 0 6.315 6.327c8.818 6.49 19.552 9.163 29.483 13.001 12.5 4.834 24.817 10.154 37.448 14.604 4.995 1.76 9.999 3.516 15.042 5.113 7.37 2.331 14.896 4.002 22.325 6.084 17.335 4.872 34.414 11.072 52.451 11.72 8.09.246 16.185-.253 24.198-1.492a110.41 110.41 0 0 0 24.532-6.432 82.61 82.61 0 0 0 10.492-4.861c2.323-1.323 4.568-2.804 6.882-4.149 3.387-1.971 6.775-3.759 10.017-6.01a92.126 92.126 0 0 1 12.245-7.275c2.516-1.239 4.994-2.932 6.586-5.431.968-1.534.295-1.897-.063-3.189-.092-.369-.164-.96-.276-1.576Z" fill="url(#f)"/></g></mask><g mask="url(#g)"><path fill="url(#h)" fill-opacity=".9" d="M3 1h607v56H3z"/></g><defs><linearGradient id="c" x1="482.866" y1="34.93" x2="482.866" y2="61.924" gradientUnits="userSpaceOnUse"><stop stop-color="#102D52"/><stop offset="1" stop-color="#124162"/></linearGradient><linearGradient id="d" x1="390.454" y1="51.437" x2="390.454" y2="22.944" gradientUnits="userSpaceOnUse"><stop stop-color="#102D52"/><stop offset="1" stop-color="#0F122E"/></linearGradient><linearGradient id="e" x1="191.738" y1="23.623" x2="191.738" y2="54.175" gradientUnits="userSpaceOnUse"><stop stop-color="#2F4C6D"/><stop offset="1" stop-color="#3C5473"/></linearGradient><linearGradient id="f" x1="135.225" y1="12.775" x2="135.225" y2="87.285" gradientUnits="userSpaceOnUse"><stop stop-color="#102D52"/><stop offset="1" stop-color="#124162"/></linearGradient><linearGradient id="h" x1="306.5" y1="1" x2="306.5" y2="57" gradientUnits="userSpaceOnUse"><stop stop-color="#CA6849"/><stop offset=".504" stop-color="#AF4220"/><stop offset="1" stop-color="#7D1F01"/></linearGradient><clipPath id="a"><path fill="#fff" d="M0 0h613v103H0z"/></clipPath><clipPath id="b"><path fill="#fff" transform="translate(228.062 9.092)" d="M0 0h384.475v71.724H0z"/></clipPath></defs></svg>