<svg width="608" height="102" fill="none" xmlns="http://www.w3.org/2000/svg"><mask id="j" style="mask-type:alpha" maskUnits="userSpaceOnUse" x="0" y="0" width="608" height="102"><g clip-path="url(#a)"><g style="mix-blend-mode:color-burn"><path style="mix-blend-mode:color-burn" d="M606.998 30.061C577.697 25.526 570.922 12 530.253 12c-48.808 0-48.808 19.523-97.669 19.523S383.776 12 334.959 12s-48.756 19.563-97.564 19.563c-29.917 0-41.523-7.34-57.264-13.029v105.663h426.867V30.061Z" fill="url(#b)"/><path style="mix-blend-mode:color-burn" d="M578.931 53.523c-48.808 0-48.808-19.533-97.608-19.533-48.799 0-48.817 19.533-97.669 19.533s-48.773-19.483-97.59-19.483-48.799 19.483-97.608 19.483c-4.153 0-7.919-.149-11.438-.407v93.032H607v-95.48a123.3 123.3 0 0 1-28.069 2.855Z" fill="url(#c)"/><path style="mix-blend-mode:color-burn" d="M606.999 78.865c-27.822-4.794-35.196-17.783-74.977-17.783-48.808 0-48.808 19.533-97.625 19.533s-48.808-19.533-97.669-19.533-48.755 19.533-97.564 19.533c-29.916 0-41.522-7.35-57.264-13.028v105.692h425.099V78.865Z" fill="url(#d)"/><path style="mix-blend-mode:color-burn" d="M593.08 102.566c-48.8 0-48.8-19.534-97.608-19.534-48.808 0-48.817 19.534-97.669 19.534s-48.808-19.534-97.617-19.534c-48.808 0-48.773 19.534-97.572 19.534A127.03 127.03 0 0 1 177 100.258v94.902h430v-93.201c-4.171.388-8.773.607-13.92.607Z" fill="url(#e)"/></g><g style="mix-blend-mode:color-burn"><path style="mix-blend-mode:color-burn" d="M278.998 30.061C249.697 25.526 242.922 12 202.253 12c-48.808 0-48.808 19.523-97.669 19.523S55.776 12 6.959 12s-48.756 19.563-97.564 19.563c-29.917 0-41.523-7.34-57.264-13.029v105.663h426.867V30.061Z" fill="url(#f)"/><path style="mix-blend-mode:color-burn" d="M250.931 53.523c-48.808 0-48.808-19.533-97.608-19.533-48.799 0-48.817 19.533-97.669 19.533S6.881 34.04-41.936 34.04s-48.8 19.483-97.608 19.483c-4.153 0-7.919-.149-11.438-.407v93.032H279v-95.48a123.3 123.3 0 0 1-28.069 2.855Z" fill="url(#g)"/><path style="mix-blend-mode:color-burn" d="M278.999 78.865c-27.822-4.794-35.196-17.783-74.977-17.783-48.808 0-48.808 19.533-97.625 19.533S57.589 61.082 8.728 61.082c-48.86 0-48.755 19.533-97.563 19.533-29.917 0-41.523-7.35-57.265-13.028v105.692h425.099V78.865Z" fill="url(#h)"/><path style="mix-blend-mode:color-burn" d="M265.08 102.566c-48.8 0-48.8-19.534-97.608-19.534-48.808 0-48.817 19.534-97.67 19.534-48.851 0-48.807-19.534-97.616-19.534-48.808 0-48.773 19.534-97.572 19.534A127.03 127.03 0 0 1-151 100.258v94.902h430v-93.201c-4.171.388-8.773.607-13.92.607Z" fill="url(#i)"/></g></g></mask><g mask="url(#j)"><path fill="#D9D9D9" d="M0 0h607v56H0z"/></g><defs><linearGradient id="b" x1="393.569" y1="124.197" x2="393.569" y2="12.04" gradientUnits="userSpaceOnUse"><stop offset=".63" stop-color="#fff"/><stop offset=".71" stop-color="#F1F1F1"/><stop offset=".86" stop-color="#CCC"/><stop offset="1" stop-color="#A5A5A5"/></linearGradient><linearGradient id="c" x1="392.004" y1="146.148" x2="392.004" y2="33.99" gradientUnits="userSpaceOnUse"><stop offset=".63" stop-color="#fff"/><stop offset=".71" stop-color="#F1F1F1"/><stop offset=".86" stop-color="#CCC"/><stop offset="1" stop-color="#A5A5A5"/></linearGradient><linearGradient id="d" x1="394.45" y1="173.24" x2="394.45" y2="61.082" gradientUnits="userSpaceOnUse"><stop offset=".63" stop-color="#fff"/><stop offset=".71" stop-color="#F1F1F1"/><stop offset=".86" stop-color="#CCC"/><stop offset="1" stop-color="#A5A5A5"/></linearGradient><linearGradient id="e" x1="392.004" y1="195.19" x2="392.004" y2="83.032" gradientUnits="userSpaceOnUse"><stop offset=".63" stop-color="#fff"/><stop offset=".71" stop-color="#F1F1F1"/><stop offset=".86" stop-color="#CCC"/><stop offset="1" stop-color="#A5A5A5"/></linearGradient><linearGradient id="f" x1="65.569" y1="124.197" x2="65.569" y2="12.04" gradientUnits="userSpaceOnUse"><stop offset=".63" stop-color="#fff"/><stop offset=".71" stop-color="#F1F1F1"/><stop offset=".86" stop-color="#CCC"/><stop offset="1" stop-color="#A5A5A5"/></linearGradient><linearGradient id="g" x1="64.004" y1="146.148" x2="64.004" y2="33.99" gradientUnits="userSpaceOnUse"><stop offset=".63" stop-color="#fff"/><stop offset=".71" stop-color="#F1F1F1"/><stop offset=".86" stop-color="#CCC"/><stop offset="1" stop-color="#A5A5A5"/></linearGradient><linearGradient id="h" x1="66.45" y1="173.24" x2="66.45" y2="61.082" gradientUnits="userSpaceOnUse"><stop offset=".63" stop-color="#fff"/><stop offset=".71" stop-color="#F1F1F1"/><stop offset=".86" stop-color="#CCC"/><stop offset="1" stop-color="#A5A5A5"/></linearGradient><linearGradient id="i" x1="64.004" y1="195.19" x2="64.004" y2="83.032" gradientUnits="userSpaceOnUse"><stop offset=".63" stop-color="#fff"/><stop offset=".71" stop-color="#F1F1F1"/><stop offset=".86" stop-color="#CCC"/><stop offset="1" stop-color="#A5A5A5"/></linearGradient><clipPath id="a"><path fill="#fff" d="M0 0h607.46v101.96H0z"/></clipPath></defs></svg>