<svg width="608" height="102" fill="none" xmlns="http://www.w3.org/2000/svg"><mask id="r" style="mask-type:alpha" maskUnits="userSpaceOnUse" x="0" y="0" width="608" height="102"><g clip-path="url(#a)"><g clip-path="url(#b)"><g clip-path="url(#c)" fill-rule="evenodd" clip-rule="evenodd"><path d="M0 56.38.059-1h1.906l4.598 5.54 4.224 15.372 1.493-1.011 1.741-4.562 7.206-1.751 5.76 7.324.58 6.015.948 5.795 3.155-.564 13.854-6.154 8.449.435-2.234 30.94H0Z" fill="url(#d)"/><path d="m105 56.771-3.883-14.533-1.742-1.606-1.741-17.017-.633-.438-.715-4.16-1.82-8.327H92.88l-.951 4.747h-.633l-.951.22-4.198 14.532-.873.292v-2.047l-.715-1.97.715-5.842-.715-.875-4.513 9.052-1.426.66-7.603 13.582-.951.219-.873 1.535-1.58 4.087-1.706-10.074-.951-.441-1.6-2.86-.771-1.821-1.604 2.299-1.371-.355-.715 1.094-.03-7.805L49.197 57 105 56.771Z" fill="url(#e)"/></g><path fill-rule="evenodd" clip-rule="evenodd" d="m102.771 57.454 3.411-26.852-1.359-15.622.2-16.625 1.546.018 1.234 14.063.542 1.646 1.344 4.903 2.321 1.605 2.737 13.822 1.663 1.915 3.131 4.176 3.309-26.16 2.07-1.013L126.382.678l1.589.278 3.223 4.263 1.968.023 5.199 3.34.12-2.869 1.579-.466 4.418 16.078 1.952 1.057 8.161 21.948 1.268-.376 5.49 10.41 1.407.016 4.82-4.206-1.622-4.932-4.202-12.462 1.956.67 10.696 9.305-.679-1.817 2.237.802 3.907 1.922 1.123.077 9.765 10.977.499-.573-.887-2.34 2.831-1.775.696.462 2.628 3.133 2.217-8.763 8.868 13.097-104.838-.503Z" fill="url(#f)"/><path fill-rule="evenodd" clip-rule="evenodd" d="m227 57 3.034-25.926-1.519-15.044V0h1.519l1.378 13.542.552 1.582 1.378 4.71 2.3 1.521 2.851 13.293 1.656 1.827 3.126 3.99 2.942-25.258 2.022-1 1.287-12.214 1.564.249 3.217 4.072h1.934l5.147 3.16.084-2.767 1.545-.468 4.53 15.448 1.931.997 8.276 21.064 1.241-.377 5.516 9.972h1.382l4.686-4.11-1.652-4.737-4.275-11.965 1.93.623L297.2 42l-.689-1.744 2.208.747 3.86 1.808 1.104.06 9.723 10.47.483-.558-.898-2.246 2.76-1.743.689.437 2.619 2.99 2.075-8.474L330 56.272 227 57Z" fill="url(#g)"/><g clip-path="url(#h)"><path fill-rule="evenodd" clip-rule="evenodd" d="M203 60v-3.894l2.745-3.146 2.415-8.843 1.054-.274.604 1.39 1.815 1.492v-8.741l4.364-14.755 5.302-2.159 10.077 15.11 1.504-.453-6.278-19.173L229.287 3h2.089l8.442 6.376 1.567-2.765L251 5.313v52.475L203 60Z" fill="url(#i)"/></g></g><g clip-path="url(#j)"><path fill-rule="evenodd" clip-rule="evenodd" d="m354 56.771-3.883-14.533-1.742-1.606-1.741-17.017-.633-.438-.715-4.16-1.821-8.327h-1.584l-.951 4.747h-.633l-.951.22-4.198 14.532-.873.292v-2.047l-.715-1.97.715-5.842-.715-.875-4.513 9.052-1.427.66-7.602 13.582-.951.219-.873 1.535-1.581 4.087-1.705-10.074-.951-.441-1.601-2.86-.771-1.821-1.603 2.299-1.371-.355-.715 1.094-.03-7.805L298.197 57 354 56.771Z" fill="url(#k)"/><path fill-rule="evenodd" clip-rule="evenodd" d="m352.5 56.37 4.577-28.972-.551-13.127 1.009-13.87 1.497.109.507 11.817.444 1.408 1.063 4.174 2.171 1.481 1.974 11.707 1.518 1.7 2.83 3.676 4.491-21.644 2.056-.72 2.037-10.477 1.527.328 2.915 3.754 1.907.14 4.876 3.102.256-2.388 1.553-.294 3.494 13.692 1.841 1 6.833 18.82 1.248-.237 4.81 9.024 1.363.1 4.879-3.221-1.331-4.217-3.462-10.66 1.864.677 9.911 8.417-.57-1.558 2.13.805 3.692 1.841 1.084.132 8.927 9.756.512-.448-.745-2.008 2.831-1.311.652.428 2.394 2.775 2.579-7.183 7.953 11.472H352.5Z" fill="url(#l)"/><path fill-rule="evenodd" clip-rule="evenodd" d="m490.293 64.322 2.445-25.988-1.86-15.007-.363-16.025 1.518-.034 1.685 13.507.588 1.569 1.485 4.678 2.333 1.468 3.152 13.225 1.697 1.789 3.215 3.918 2.369-25.319 1.999-1.045 1.009-12.24 1.57.213 3.308 3.999 1.934-.044 5.217 3.042.021-2.768 1.535-.503 4.879 15.341 1.952.953 8.752 20.871 1.232-.405 5.741 9.844 1.382-.031 4.592-4.216-1.759-4.698-4.546-11.865 1.944.58 10.815 8.603-.728-1.728 2.224.697 3.9 1.72 1.106.036 9.957 10.246.471-.569-.949-2.225 2.72-1.806.698.422 2.687 2.93 1.882-8.519 9.148 12.32-102.957 3.064Z" fill="url(#m)"/><g clip-path="url(#n)"><path fill-rule="evenodd" clip-rule="evenodd" d="m447.1 65.026-.217-3.888 2.565-3.294 1.917-8.964 1.037-.334.681 1.355 1.895 1.389-.488-8.729 3.532-14.975 5.174-2.452 10.905 14.524 1.476-.536-7.338-18.794 1.923-13.682 2.086-.117 8.784 5.895 1.411-2.849 9.527-1.833 2.932 52.394-47.802 4.89Z" fill="url(#o)"/></g></g><path fill-rule="evenodd" clip-rule="evenodd" d="M611 56.38 610.941-1h-1.906l-4.598 5.54-4.224 15.372-1.493-1.011-1.741-4.562-7.206-1.751-5.759 7.324-.581 6.015-.948 5.795-3.155-.564-13.854-6.154-8.449.435 2.234 30.94H611Z" fill="url(#p)"/><path fill-rule="evenodd" clip-rule="evenodd" d="m506 56.771 3.883-14.533 1.742-1.606 1.741-17.017.633-.438.715-4.16 1.821-8.327h1.584l.951 4.747h.633l.951.22 4.198 14.532.873.292v-2.047l.715-1.97-.715-5.842.715-.875 4.513 9.052 1.427.66 7.602 13.582.951.219.873 1.535 1.581 4.087 1.705-10.074.951-.441 1.601-2.86.771-1.821 1.603 2.299 1.371-.355.715 1.094.03-7.805L561.803 57 506 56.771Z" fill="url(#q)"/></g></mask><g mask="url(#r)"><path fill="url(#s)" fill-opacity=".9" d="M0 0h607v56H0z"/></g><defs><linearGradient id="d" x1="26.986" y1="56.38" x2="26.986" y2="-1" gradientUnits="userSpaceOnUse"><stop stop-color="#93B7DF"/><stop offset=".36" stop-color="#7BB6D5"/><stop offset=".99" stop-color="#518DAC"/></linearGradient><linearGradient id="e" x1="77.099" y1="57" x2="77.099" y2="10.69" gradientUnits="userSpaceOnUse"><stop stop-color="#93B7DF"/><stop offset=".36" stop-color="#7BB6D5"/><stop offset=".99" stop-color="#518DAC"/></linearGradient><linearGradient id="f" x1="155.186" y1="58.083" x2="155.895" y2="-1.035" gradientUnits="userSpaceOnUse"><stop stop-color="#93B7DF"/><stop offset=".36" stop-color="#7BB6D5"/><stop offset=".99" stop-color="#518DAC"/></linearGradient><linearGradient id="g" x1="278.5" y1="57" x2="278.5" y2="0" gradientUnits="userSpaceOnUse"><stop stop-color="#93B7DF"/><stop offset=".36" stop-color="#7BB6D5"/><stop offset=".99" stop-color="#518DAC"/></linearGradient><linearGradient id="i" x1="227" y1="60" x2="227" y2="3" gradientUnits="userSpaceOnUse"><stop stop-color="#93B7DF"/><stop offset=".36" stop-color="#7BB6D5"/><stop offset=".99" stop-color="#518DAC"/></linearGradient><linearGradient id="k" x1="326.099" y1="57" x2="326.099" y2="10.69" gradientUnits="userSpaceOnUse"><stop stop-color="#93B7DF"/><stop offset=".36" stop-color="#7BB6D5"/><stop offset=".99" stop-color="#518DAC"/></linearGradient><linearGradient id="l" x1="403.227" y1="53.307" x2="406.814" y2="3.986" gradientUnits="userSpaceOnUse"><stop stop-color="#93B7DF"/><stop offset=".36" stop-color="#7BB6D5"/><stop offset=".99" stop-color="#518DAC"/></linearGradient><linearGradient id="m" x1="541.78" y1="63.154" x2="540.487" y2="6.168" gradientUnits="userSpaceOnUse"><stop stop-color="#93B7DF"/><stop offset=".36" stop-color="#7BB6D5"/><stop offset=".99" stop-color="#518DAC"/></linearGradient><linearGradient id="o" x1="471.063" y1="63.685" x2="467.879" y2="6.774" gradientUnits="userSpaceOnUse"><stop stop-color="#93B7DF"/><stop offset=".36" stop-color="#7BB6D5"/><stop offset=".99" stop-color="#518DAC"/></linearGradient><linearGradient id="p" x1="584.014" y1="56.38" x2="584.014" y2="-1" gradientUnits="userSpaceOnUse"><stop stop-color="#93B7DF"/><stop offset=".36" stop-color="#7BB6D5"/><stop offset=".99" stop-color="#518DAC"/></linearGradient><linearGradient id="q" x1="533.901" y1="57" x2="533.901" y2="10.69" gradientUnits="userSpaceOnUse"><stop stop-color="#93B7DF"/><stop offset=".36" stop-color="#7BB6D5"/><stop offset=".99" stop-color="#518DAC"/></linearGradient><linearGradient id="s" x1="303.5" y1="0" x2="303.5" y2="56" gradientUnits="userSpaceOnUse"><stop stop-color="#BCBCBC"/><stop offset=".504" stop-color="#707372"/><stop offset="1" stop-color="#555"/></linearGradient><clipPath id="a"><path fill="#fff" d="M0 0h607.46v101.96H0z"/></clipPath><clipPath id="b"><path fill="#fff" d="M0 0h328v63H0z"/></clipPath><clipPath id="c"><path fill="#fff" transform="translate(0 -1)" d="M0 0h105v58H0z"/></clipPath><clipPath id="h"><path fill="#fff" transform="translate(203 3)" d="M0 0h48v57H0z"/></clipPath><clipPath id="j"><path fill="#fff" transform="translate(249)" d="M0 0h328v63H0z"/></clipPath><clipPath id="n"><path fill="#fff" transform="translate(452 3)" d="M0 0h48v57H0z"/></clipPath></defs></svg>