<svg width="608" height="102" fill="none" xmlns="http://www.w3.org/2000/svg"><mask id="n" style="mask-type:alpha" maskUnits="userSpaceOnUse" x="0" y="0" width="608" height="102"><g clip-path="url(#a)"><g style="mix-blend-mode:color-burn"><path style="mix-blend-mode:color-burn" d="M203.996 30.061C189.96 25.526 186.714 12 167.231 12c-23.382 0-23.382 19.523-46.79 19.523C97.034 31.523 97.059 12 73.673 12c-23.387 0-23.357 19.563-46.74 19.563-14.331 0-19.891-7.34-27.433-13.029v105.663h204.496V30.061Z" fill="url(#b)"/><path style="mix-blend-mode:color-burn" d="M190.55 53.523c-23.382 0-23.382-19.533-46.76-19.533-23.378 0-23.386 19.533-46.79 19.533-23.403 0-23.365-19.483-46.751-19.483-23.387 0-23.378 19.483-46.76 19.483-1.99 0-3.794-.149-5.48-.407v93.032h205.988v-95.48c-4.43 2.026-8.935 2.983-13.447 2.855Z" fill="url(#c)"/><path style="mix-blend-mode:color-burn" d="M204.002 78.865c-13.329-4.794-16.861-17.783-35.919-17.783-23.382 0-23.382 19.533-46.768 19.533-23.387 0-23.382-19.533-46.79-19.533-23.407 0-23.357 19.533-46.739 19.533-14.332 0-19.892-7.35-27.433-13.028v105.692h203.649V78.865Z" fill="url(#d)"/><path style="mix-blend-mode:color-burn" d="M197.328 102.566c-23.378 0-23.378-19.534-46.76-19.534-23.382 0-23.387 19.534-46.79 19.534S80.396 83.032 57.014 83.032s-23.365 19.534-46.743 19.534c-4.112.1-8.218-.672-12.271-2.308v94.902h205.997v-93.201c-1.998.388-4.203.607-6.669.607Z" fill="url(#e)"/></g><g style="mix-blend-mode:color-burn"><path style="mix-blend-mode:color-burn" d="M426.994 30.061C410.505 25.526 406.692 12 383.804 12c-27.468 0-27.468 19.523-54.966 19.523S301.37 12 273.896 12c-27.473 0-27.438 19.563-54.906 19.563-16.837 0-23.368-7.34-32.227-13.029v105.663h240.231V30.061Z" fill="url(#f)"/><path style="mix-blend-mode:color-burn" d="M411.2 53.523c-27.468 0-27.468-19.533-54.931-19.533-27.463 0-27.473 19.533-54.966 19.533-27.493 0-27.449-19.483-54.922-19.483-27.473 0-27.463 19.483-54.931 19.483-2.338 0-4.457-.149-6.438-.407v93.032h241.985v-95.48c-5.204 2.026-10.496 2.983-15.797 2.855Z" fill="url(#g)"/><path style="mix-blend-mode:color-burn" d="M427.001 78.865c-15.658-4.794-19.808-17.783-42.196-17.783-27.468 0-27.468 19.533-54.941 19.533-27.473 0-27.468-19.533-54.966-19.533s-27.439 19.533-54.907 19.533c-16.836 0-23.368-7.35-32.227-13.028v105.692h239.237V78.865Z" fill="url(#h)"/><path style="mix-blend-mode:color-burn" d="M419.161 102.566c-27.464 0-27.464-19.534-54.932-19.534-27.468 0-27.473 19.534-54.966 19.534-27.493 0-27.468-19.534-54.936-19.534-27.469 0-27.449 19.534-54.912 19.534-4.83.1-9.654-.672-14.415-2.308v94.902h241.995v-93.201c-2.348.388-4.937.607-7.834.607Z" fill="url(#i)"/></g><g style="mix-blend-mode:color-burn"><path style="mix-blend-mode:color-burn" d="M606.996 30.061C593.164 25.526 589.965 12 570.766 12c-23.041 0-23.041 19.523-46.107 19.523-23.067 0-23.042-19.523-46.087-19.523-23.046 0-23.017 19.563-46.058 19.563-14.123 0-19.602-7.34-27.034-13.029v105.663h201.516V30.061Z" fill="url(#j)"/><path style="mix-blend-mode:color-burn" d="M593.744 53.523c-23.041 0-23.041-19.533-46.078-19.533-23.038 0-23.046 19.533-46.108 19.533-23.062 0-23.025-19.483-46.071-19.483-23.045 0-23.037 19.483-46.078 19.483-1.961 0-3.739-.149-5.4-.407v93.032h202.986v-95.48c-4.365 2.026-8.805 2.983-13.251 2.855Z" fill="url(#k)"/><path style="mix-blend-mode:color-burn" d="M606.998 78.865c-13.134-4.794-16.615-17.783-35.395-17.783-23.041 0-23.041 19.533-46.087 19.533-23.045 0-23.041-19.533-46.107-19.533-23.067 0-23.017 19.533-46.058 19.533-14.123 0-19.602-7.35-27.034-13.028v105.692h200.681V78.865Z" fill="url(#l)"/><path style="mix-blend-mode:color-burn" d="M600.423 102.566c-23.037 0-23.037-19.534-46.079-19.534-23.041 0-23.045 19.534-46.107 19.534-23.062 0-23.042-19.534-46.083-19.534-23.042 0-23.025 19.534-46.062 19.534-4.052.1-8.098-.672-12.092-2.308v94.902h202.994v-93.201c-1.968.388-4.141.607-6.571.607Z" fill="url(#m)"/></g></g></mask><g mask="url(#n)"><path fill="url(#o)" fill-opacity=".9" d="M0 0h607v56H0z"/></g><defs><linearGradient id="b" x1="101.751" y1="124.197" x2="101.751" y2="12.04" gradientUnits="userSpaceOnUse"><stop offset=".63" stop-color="#fff"/><stop offset=".71" stop-color="#F1F1F1"/><stop offset=".86" stop-color="#CCC"/><stop offset="1" stop-color="#A5A5A5"/></linearGradient><linearGradient id="c" x1="101.001" y1="146.148" x2="101.001" y2="33.99" gradientUnits="userSpaceOnUse"><stop offset=".63" stop-color="#fff"/><stop offset=".71" stop-color="#F1F1F1"/><stop offset=".86" stop-color="#CCC"/><stop offset="1" stop-color="#A5A5A5"/></linearGradient><linearGradient id="d" x1="102.177" y1="173.24" x2="102.177" y2="61.082" gradientUnits="userSpaceOnUse"><stop offset=".63" stop-color="#fff"/><stop offset=".71" stop-color="#F1F1F1"/><stop offset=".86" stop-color="#CCC"/><stop offset="1" stop-color="#A5A5A5"/></linearGradient><linearGradient id="e" x1="101" y1="195.19" x2="101" y2="83.032" gradientUnits="userSpaceOnUse"><stop offset=".63" stop-color="#fff"/><stop offset=".71" stop-color="#F1F1F1"/><stop offset=".86" stop-color="#CCC"/><stop offset="1" stop-color="#A5A5A5"/></linearGradient><linearGradient id="f" x1="306.881" y1="124.197" x2="306.881" y2="12.04" gradientUnits="userSpaceOnUse"><stop offset=".63" stop-color="#fff"/><stop offset=".71" stop-color="#F1F1F1"/><stop offset=".86" stop-color="#CCC"/><stop offset="1" stop-color="#A5A5A5"/></linearGradient><linearGradient id="g" x1="306.002" y1="146.148" x2="306.002" y2="33.99" gradientUnits="userSpaceOnUse"><stop offset=".63" stop-color="#fff"/><stop offset=".71" stop-color="#F1F1F1"/><stop offset=".86" stop-color="#CCC"/><stop offset="1" stop-color="#A5A5A5"/></linearGradient><linearGradient id="h" x1="307.382" y1="173.24" x2="307.382" y2="61.082" gradientUnits="userSpaceOnUse"><stop offset=".63" stop-color="#fff"/><stop offset=".71" stop-color="#F1F1F1"/><stop offset=".86" stop-color="#CCC"/><stop offset="1" stop-color="#A5A5A5"/></linearGradient><linearGradient id="i" x1="306" y1="195.19" x2="306" y2="83.032" gradientUnits="userSpaceOnUse"><stop offset=".63" stop-color="#fff"/><stop offset=".71" stop-color="#F1F1F1"/><stop offset=".86" stop-color="#CCC"/><stop offset="1" stop-color="#A5A5A5"/></linearGradient><linearGradient id="j" x1="506.24" y1="124.197" x2="506.24" y2="12.04" gradientUnits="userSpaceOnUse"><stop offset=".63" stop-color="#fff"/><stop offset=".71" stop-color="#F1F1F1"/><stop offset=".86" stop-color="#CCC"/><stop offset="1" stop-color="#A5A5A5"/></linearGradient><linearGradient id="k" x1="505.5" y1="146.148" x2="505.5" y2="33.99" gradientUnits="userSpaceOnUse"><stop offset=".63" stop-color="#fff"/><stop offset=".71" stop-color="#F1F1F1"/><stop offset=".86" stop-color="#CCC"/><stop offset="1" stop-color="#A5A5A5"/></linearGradient><linearGradient id="l" x1="506.658" y1="173.24" x2="506.658" y2="61.082" gradientUnits="userSpaceOnUse"><stop offset=".63" stop-color="#fff"/><stop offset=".71" stop-color="#F1F1F1"/><stop offset=".86" stop-color="#CCC"/><stop offset="1" stop-color="#A5A5A5"/></linearGradient><linearGradient id="m" x1="505.499" y1="195.19" x2="505.499" y2="83.032" gradientUnits="userSpaceOnUse"><stop offset=".63" stop-color="#fff"/><stop offset=".71" stop-color="#F1F1F1"/><stop offset=".86" stop-color="#CCC"/><stop offset="1" stop-color="#A5A5A5"/></linearGradient><linearGradient id="o" x1="303.5" y1="0" x2="303.5" y2="56" gradientUnits="userSpaceOnUse"><stop stop-color="#2898AB"/><stop offset=".504" stop-color="#08A1D7"/><stop offset="1" stop-color="#114D63"/></linearGradient><clipPath id="a"><path fill="#fff" d="M0 0h607.46v101.96H0z"/></clipPath></defs></svg>