<svg width="381" height="54" viewBox="0 0 381 54" fill="none" xmlns="http://www.w3.org/2000/svg">
<rect x="0.5" y="0.5" width="380" height="53" rx="19.5" fill="#F5F9FD" stroke="#00529B" stroke-linecap="round" stroke-dasharray="7 7"/>
<path d="M146.614 33.7744C146.593 33.8291 146.562 33.877 146.521 33.918C146.48 33.9521 146.426 33.9795 146.357 34C146.296 34.0205 146.217 34.0342 146.122 34.041C146.033 34.0547 145.93 34.0615 145.814 34.0615C145.732 34.0615 145.657 34.0581 145.588 34.0513C145.52 34.0513 145.458 34.0444 145.404 34.0308C145.349 34.0239 145.301 34.0137 145.26 34C145.219 33.9863 145.182 33.9692 145.147 33.9487C145.113 33.9282 145.086 33.9043 145.065 33.877C145.045 33.8496 145.028 33.8154 145.014 33.7744L140.472 21.1519C140.431 21.0493 140.41 20.9673 140.41 20.9058C140.417 20.8374 140.444 20.7861 140.492 20.752C140.54 20.7178 140.612 20.6973 140.708 20.6904C140.803 20.6768 140.93 20.6699 141.087 20.6699C141.217 20.6699 141.319 20.6768 141.395 20.6904C141.477 20.6973 141.538 20.7109 141.579 20.7314C141.627 20.752 141.661 20.7793 141.682 20.8135C141.709 20.8477 141.733 20.8887 141.753 20.9365L145.875 32.6157H145.886L149.885 20.9365C149.898 20.8887 149.916 20.8477 149.936 20.8135C149.957 20.7793 149.991 20.752 150.039 20.7314C150.093 20.7109 150.165 20.6973 150.254 20.6904C150.343 20.6768 150.459 20.6699 150.603 20.6699C150.76 20.6699 150.883 20.6768 150.972 20.6904C151.067 20.7041 151.132 20.728 151.167 20.7622C151.208 20.7964 151.225 20.8442 151.218 20.9058C151.218 20.9673 151.197 21.0493 151.156 21.1519L146.614 33.7744ZM154.581 33.7949C154.581 33.8359 154.571 33.8735 154.55 33.9077C154.53 33.9419 154.496 33.9692 154.448 33.9897C154.407 34.0103 154.345 34.0273 154.263 34.041C154.188 34.0547 154.089 34.0615 153.966 34.0615C153.85 34.0615 153.75 34.0547 153.668 34.041C153.593 34.0273 153.532 34.0103 153.484 33.9897C153.436 33.9692 153.402 33.9419 153.381 33.9077C153.368 33.8735 153.361 33.8359 153.361 33.7949V24.5151C153.361 24.4741 153.368 24.4365 153.381 24.4023C153.402 24.3682 153.436 24.3408 153.484 24.3203C153.532 24.293 153.593 24.2759 153.668 24.269C153.75 24.2554 153.85 24.2485 153.966 24.2485C154.089 24.2485 154.188 24.2554 154.263 24.269C154.345 24.2759 154.407 24.293 154.448 24.3203C154.496 24.3408 154.53 24.3682 154.55 24.4023C154.571 24.4365 154.581 24.4741 154.581 24.5151V33.7949ZM154.766 21.3877C154.766 21.7158 154.708 21.938 154.591 22.0542C154.475 22.1704 154.263 22.2285 153.956 22.2285C153.655 22.2285 153.446 22.1738 153.33 22.0645C153.221 21.9482 153.166 21.7261 153.166 21.3979C153.166 21.0698 153.224 20.8477 153.34 20.7314C153.457 20.6152 153.668 20.5571 153.976 20.5571C154.277 20.5571 154.482 20.6152 154.591 20.7314C154.708 20.8408 154.766 21.0596 154.766 21.3877ZM165.563 28.6782C165.563 28.9243 165.498 29.0952 165.368 29.1909C165.238 29.2798 165.112 29.3242 164.989 29.3242H158.662C158.662 29.8984 158.717 30.418 158.826 30.8828C158.942 31.3477 159.13 31.7476 159.39 32.0825C159.65 32.4106 159.988 32.6636 160.405 32.8413C160.822 33.019 161.335 33.1079 161.943 33.1079C162.374 33.1079 162.76 33.0703 163.102 32.9951C163.444 32.9199 163.738 32.8379 163.984 32.749C164.237 32.6533 164.442 32.5679 164.599 32.4927C164.763 32.4175 164.879 32.3799 164.948 32.3799C164.989 32.3799 165.026 32.3901 165.061 32.4106C165.095 32.4312 165.122 32.4653 165.143 32.5132C165.163 32.5542 165.177 32.6089 165.184 32.6772C165.197 32.7456 165.204 32.8311 165.204 32.9336C165.204 32.9814 165.201 33.0293 165.194 33.0771C165.187 33.1182 165.177 33.1592 165.163 33.2002C165.156 33.2344 165.143 33.2686 165.122 33.3027C165.102 33.3369 165.074 33.3711 165.04 33.4053C165.006 33.4395 164.9 33.501 164.722 33.5898C164.544 33.6719 164.312 33.7573 164.025 33.8462C163.738 33.9282 163.403 34.0034 163.02 34.0718C162.644 34.1401 162.237 34.1743 161.8 34.1743C161.082 34.1743 160.446 34.0684 159.893 33.8564C159.339 33.6377 158.874 33.3198 158.498 32.9028C158.122 32.479 157.835 31.9561 157.637 31.334C157.445 30.7119 157.35 29.9907 157.35 29.1704C157.35 28.3843 157.449 27.6802 157.647 27.0581C157.852 26.436 158.143 25.9097 158.519 25.479C158.895 25.0415 159.346 24.71 159.872 24.4844C160.405 24.252 160.997 24.1357 161.646 24.1357C162.343 24.1357 162.938 24.252 163.43 24.4844C163.922 24.7168 164.326 25.0312 164.64 25.4277C164.961 25.8174 165.194 26.272 165.337 26.7915C165.488 27.311 165.563 27.8579 165.563 28.4321V28.6782ZM164.302 28.3193C164.322 27.335 164.097 26.5659 163.625 26.0122C163.153 25.4585 162.466 25.1816 161.564 25.1816C161.099 25.1816 160.689 25.2705 160.333 25.4482C159.985 25.6191 159.688 25.8481 159.441 26.1353C159.202 26.4224 159.018 26.7573 158.888 27.1401C158.758 27.5161 158.683 27.9092 158.662 28.3193H164.302ZM180.585 24.4946C180.585 24.5288 180.578 24.5698 180.564 24.6177C180.558 24.6587 180.547 24.7065 180.534 24.7612L177.663 33.7949C177.649 33.8496 177.622 33.894 177.581 33.9282C177.546 33.9624 177.499 33.9897 177.437 34.0103C177.375 34.0308 177.293 34.0444 177.191 34.0513C177.095 34.0581 176.979 34.0615 176.842 34.0615C176.699 34.0615 176.576 34.0547 176.473 34.041C176.371 34.0342 176.285 34.0205 176.217 34C176.155 33.9795 176.104 33.9521 176.063 33.918C176.029 33.8838 176.005 33.8428 175.991 33.7949L173.838 26.4736L173.817 26.3916L173.797 26.4736L171.787 33.7949C171.773 33.8496 171.746 33.894 171.705 33.9282C171.664 33.9624 171.606 33.9897 171.531 34.0103C171.462 34.0308 171.377 34.0444 171.274 34.0513C171.172 34.0581 171.056 34.0615 170.926 34.0615C170.789 34.0615 170.673 34.0547 170.577 34.041C170.481 34.0342 170.399 34.0205 170.331 34C170.27 33.9795 170.222 33.9521 170.188 33.918C170.153 33.8838 170.129 33.8428 170.116 33.7949L167.265 24.7612C167.245 24.7134 167.228 24.6655 167.214 24.6177C167.207 24.5698 167.204 24.5288 167.204 24.4946C167.204 24.4468 167.214 24.4058 167.234 24.3716C167.255 24.3374 167.289 24.3135 167.337 24.2998C167.385 24.2793 167.446 24.2656 167.521 24.2588C167.597 24.252 167.689 24.2485 167.798 24.2485C167.942 24.2485 168.058 24.2554 168.147 24.269C168.236 24.2759 168.301 24.2896 168.342 24.3101C168.39 24.3306 168.424 24.3579 168.444 24.3921C168.465 24.4263 168.482 24.4673 168.496 24.5151L170.946 32.6157L170.967 32.6875L170.987 32.6157L173.212 24.5151C173.226 24.4673 173.243 24.4263 173.264 24.3921C173.291 24.3579 173.325 24.3306 173.366 24.3101C173.414 24.2896 173.476 24.2759 173.551 24.269C173.633 24.2554 173.735 24.2485 173.858 24.2485C173.975 24.2485 174.07 24.2554 174.146 24.269C174.221 24.2759 174.282 24.2896 174.33 24.3101C174.378 24.3306 174.412 24.3579 174.433 24.3921C174.453 24.4263 174.47 24.4673 174.484 24.5151L176.883 32.6157L176.904 32.6875L176.914 32.6157L179.354 24.5151C179.368 24.4673 179.385 24.4263 179.406 24.3921C179.433 24.3579 179.471 24.3306 179.519 24.3101C179.566 24.2896 179.631 24.2759 179.713 24.269C179.802 24.2554 179.915 24.2485 180.052 24.2485C180.161 24.2485 180.25 24.252 180.318 24.2588C180.387 24.2656 180.441 24.2793 180.482 24.2998C180.523 24.3203 180.551 24.3477 180.564 24.3818C180.578 24.4092 180.585 24.4468 180.585 24.4946ZM195.197 33.7949C195.197 33.8428 195.187 33.8838 195.166 33.918C195.152 33.9521 195.122 33.9795 195.074 34C195.033 34.0205 194.978 34.0342 194.91 34.041C194.841 34.0547 194.756 34.0615 194.653 34.0615C194.544 34.0615 194.452 34.0547 194.376 34.041C194.308 34.0342 194.25 34.0205 194.202 34C194.161 33.9795 194.127 33.9521 194.1 33.918C194.079 33.8838 194.069 33.8428 194.069 33.7949V32.4619C193.577 32.9951 193.067 33.4155 192.541 33.7231C192.015 34.0239 191.44 34.1743 190.818 34.1743C190.148 34.1743 189.578 34.0444 189.106 33.7847C188.634 33.5249 188.248 33.1729 187.947 32.7285C187.653 32.2842 187.438 31.7646 187.301 31.1699C187.165 30.5684 187.096 29.9326 187.096 29.2627C187.096 28.4766 187.182 27.769 187.353 27.1401C187.523 26.5044 187.776 25.9644 188.111 25.52C188.446 25.0757 188.86 24.7339 189.352 24.4946C189.844 24.2554 190.415 24.1357 191.064 24.1357C191.625 24.1357 192.138 24.2622 192.603 24.5151C193.067 24.7612 193.525 25.127 193.977 25.6123V20.0239C193.977 19.9829 193.983 19.9453 193.997 19.9111C194.018 19.877 194.052 19.8496 194.1 19.8291C194.147 19.8086 194.209 19.7915 194.284 19.7778C194.366 19.7642 194.465 19.7573 194.582 19.7573C194.705 19.7573 194.804 19.7642 194.879 19.7778C194.961 19.7915 195.022 19.8086 195.063 19.8291C195.111 19.8496 195.146 19.877 195.166 19.9111C195.187 19.9453 195.197 19.9829 195.197 20.0239V33.7949ZM193.977 27.0991C193.464 26.4771 192.968 26.002 192.49 25.6738C192.018 25.3457 191.522 25.1816 191.003 25.1816C190.531 25.1816 190.128 25.2944 189.793 25.52C189.458 25.7456 189.185 26.043 188.973 26.4121C188.761 26.7812 188.607 27.1982 188.511 27.6631C188.416 28.1279 188.368 28.5996 188.368 29.0781C188.368 29.5908 188.409 30.0898 188.491 30.5752C188.573 31.0605 188.713 31.4946 188.911 31.8774C189.109 32.2534 189.373 32.5576 189.701 32.79C190.029 33.0156 190.439 33.1284 190.931 33.1284C191.177 33.1284 191.417 33.0942 191.649 33.0259C191.881 32.9575 192.121 32.8447 192.367 32.6875C192.613 32.5303 192.866 32.3286 193.125 32.0825C193.392 31.8296 193.676 31.5186 193.977 31.1494V27.0991ZM206.835 29.0576C206.835 29.7959 206.739 30.4761 206.548 31.0981C206.356 31.7202 206.069 32.2603 205.687 32.7183C205.311 33.1763 204.839 33.5352 204.271 33.7949C203.704 34.0479 203.044 34.1743 202.292 34.1743C201.568 34.1743 200.932 34.0615 200.385 33.8359C199.845 33.6035 199.391 33.2754 199.021 32.8516C198.659 32.4209 198.386 31.9014 198.201 31.293C198.023 30.6846 197.935 29.9976 197.935 29.2319C197.935 28.4937 198.027 27.8135 198.211 27.1914C198.403 26.5693 198.687 26.0327 199.062 25.5815C199.445 25.1235 199.92 24.7681 200.488 24.5151C201.055 24.2622 201.718 24.1357 202.477 24.1357C203.202 24.1357 203.834 24.2485 204.374 24.4741C204.921 24.6997 205.375 25.0278 205.738 25.4585C206.1 25.8823 206.374 26.3984 206.558 27.0068C206.743 27.6152 206.835 28.2988 206.835 29.0576ZM205.543 29.1704C205.543 28.644 205.492 28.1416 205.389 27.6631C205.287 27.1846 205.116 26.7642 204.876 26.4019C204.637 26.0327 204.316 25.7422 203.913 25.5303C203.509 25.3115 203.007 25.2021 202.405 25.2021C201.852 25.2021 201.373 25.3013 200.97 25.4995C200.566 25.6978 200.235 25.9746 199.975 26.3301C199.722 26.6787 199.534 27.0923 199.411 27.5708C199.288 28.0493 199.227 28.5654 199.227 29.1191C199.227 29.6523 199.278 30.1616 199.38 30.647C199.483 31.1255 199.654 31.5459 199.893 31.9082C200.132 32.2705 200.454 32.5576 200.857 32.7695C201.26 32.9814 201.763 33.0874 202.364 33.0874C202.918 33.0874 203.396 32.9883 203.8 32.79C204.203 32.5918 204.531 32.3184 204.784 31.9697C205.044 31.6211 205.235 31.2075 205.358 30.729C205.481 30.2505 205.543 29.731 205.543 29.1704ZM216.053 32.4209C216.053 32.5029 216.05 32.5781 216.043 32.6465C216.036 32.708 216.026 32.7627 216.012 32.8105C215.999 32.8584 215.978 32.9028 215.951 32.9438C215.93 32.978 215.875 33.0396 215.787 33.1284C215.698 33.2173 215.547 33.3301 215.335 33.4668C215.13 33.6035 214.898 33.7231 214.638 33.8257C214.378 33.9282 214.098 34.0103 213.797 34.0718C213.497 34.1401 213.186 34.1743 212.864 34.1743C212.222 34.1743 211.651 34.0684 211.152 33.8564C210.66 33.6377 210.246 33.3198 209.911 32.9028C209.576 32.479 209.32 31.9629 209.142 31.3545C208.971 30.7393 208.886 30.0317 208.886 29.2319C208.886 28.3296 208.992 27.5571 209.204 26.9146C209.422 26.272 209.72 25.7456 210.096 25.3354C210.472 24.9253 210.909 24.6245 211.408 24.4331C211.914 24.2349 212.454 24.1357 213.028 24.1357C213.336 24.1357 213.63 24.1665 213.91 24.228C214.19 24.2827 214.447 24.3579 214.679 24.4536C214.918 24.5493 215.13 24.6587 215.315 24.7817C215.5 24.9048 215.633 25.0107 215.715 25.0996C215.804 25.1816 215.862 25.2466 215.889 25.2944C215.923 25.3354 215.947 25.3833 215.961 25.438C215.981 25.4927 215.995 25.5542 216.002 25.6226C216.009 25.6841 216.012 25.7593 216.012 25.8481C216.012 26.0464 215.981 26.1865 215.92 26.2686C215.865 26.3438 215.804 26.3813 215.735 26.3813C215.64 26.3813 215.52 26.3198 215.376 26.1968C215.24 26.0737 215.062 25.9404 214.843 25.7969C214.625 25.6465 214.358 25.5098 214.043 25.3867C213.736 25.2637 213.367 25.2021 212.936 25.2021C212.047 25.2021 211.36 25.5439 210.875 26.2275C210.396 26.9111 210.157 27.8989 210.157 29.1909C210.157 29.8403 210.222 30.4111 210.352 30.9033C210.482 31.3887 210.667 31.7954 210.906 32.1235C211.152 32.4448 211.449 32.6875 211.798 32.8516C212.146 33.0088 212.54 33.0874 212.977 33.0874C213.387 33.0874 213.75 33.0225 214.064 32.8926C214.378 32.7627 214.652 32.6191 214.884 32.4619C215.117 32.3047 215.308 32.1611 215.458 32.0312C215.616 31.9014 215.732 31.8364 215.807 31.8364C215.848 31.8364 215.882 31.8501 215.91 31.8774C215.944 31.8979 215.971 31.9355 215.992 31.9902C216.012 32.0381 216.026 32.0996 216.033 32.1748C216.046 32.2432 216.053 32.3252 216.053 32.4209ZM226 33.7949C226 33.8359 225.989 33.8735 225.969 33.9077C225.955 33.9419 225.924 33.9692 225.876 33.9897C225.829 34.0103 225.767 34.0273 225.692 34.041C225.617 34.0547 225.524 34.0615 225.415 34.0615C225.292 34.0615 225.193 34.0547 225.118 34.041C225.042 34.0273 224.984 34.0103 224.943 33.9897C224.902 33.9692 224.872 33.9419 224.851 33.9077C224.837 33.8735 224.831 33.8359 224.831 33.7949V32.4824C224.297 33.0771 223.774 33.5078 223.262 33.7744C222.756 34.041 222.25 34.1743 221.744 34.1743C221.136 34.1743 220.623 34.0718 220.206 33.8667C219.789 33.6616 219.451 33.3848 219.191 33.0361C218.938 32.6807 218.753 32.2705 218.637 31.8057C218.528 31.3408 218.473 30.7803 218.473 30.124V24.5151C218.473 24.4741 218.48 24.4365 218.494 24.4023C218.514 24.3682 218.548 24.3408 218.596 24.3203C218.644 24.293 218.706 24.2759 218.781 24.269C218.863 24.2554 218.962 24.2485 219.078 24.2485C219.201 24.2485 219.3 24.2554 219.375 24.269C219.458 24.2759 219.519 24.293 219.56 24.3203C219.608 24.3408 219.642 24.3682 219.663 24.4023C219.683 24.4365 219.693 24.4741 219.693 24.5151V30.0112C219.693 30.5854 219.738 31.0537 219.827 31.416C219.916 31.7783 220.049 32.0894 220.227 32.3491C220.404 32.6021 220.63 32.8003 220.903 32.9438C221.184 33.0806 221.508 33.1489 221.877 33.1489C222.349 33.1489 222.817 32.9814 223.282 32.6465C223.754 32.3115 224.253 31.8193 224.779 31.1699V24.5151C224.779 24.4741 224.786 24.4365 224.8 24.4023C224.82 24.3682 224.854 24.3408 224.902 24.3203C224.95 24.293 225.012 24.2759 225.087 24.269C225.169 24.2554 225.271 24.2485 225.395 24.2485C225.511 24.2485 225.606 24.2554 225.682 24.269C225.764 24.2759 225.825 24.293 225.866 24.3203C225.914 24.3408 225.948 24.3682 225.969 24.4023C225.989 24.4365 226 24.4741 226 24.5151V33.7949ZM242.652 33.7949C242.652 33.8359 242.642 33.8735 242.621 33.9077C242.601 33.9419 242.566 33.9692 242.519 33.9897C242.478 34.0103 242.416 34.0273 242.334 34.041C242.259 34.0547 242.163 34.0615 242.047 34.0615C241.924 34.0615 241.821 34.0547 241.739 34.041C241.664 34.0273 241.603 34.0103 241.555 33.9897C241.507 33.9692 241.473 33.9419 241.452 33.9077C241.438 33.8735 241.432 33.8359 241.432 33.7949V28.0835C241.432 27.646 241.391 27.2495 241.309 26.894C241.233 26.5317 241.11 26.2241 240.939 25.9712C240.775 25.7114 240.563 25.5132 240.304 25.3765C240.051 25.2329 239.75 25.1611 239.401 25.1611C238.971 25.1611 238.533 25.3286 238.089 25.6636C237.651 25.9985 237.169 26.4907 236.643 27.1401V33.7949C236.643 33.8359 236.633 33.8735 236.612 33.9077C236.592 33.9419 236.558 33.9692 236.51 33.9897C236.469 34.0103 236.407 34.0273 236.325 34.041C236.25 34.0547 236.154 34.0615 236.038 34.0615C235.922 34.0615 235.823 34.0547 235.741 34.041C235.666 34.0273 235.604 34.0103 235.556 33.9897C235.508 33.9692 235.474 33.9419 235.454 33.9077C235.44 33.8735 235.433 33.8359 235.433 33.7949V28.0835C235.433 27.646 235.392 27.2495 235.31 26.894C235.228 26.5317 235.102 26.2241 234.931 25.9712C234.767 25.7114 234.555 25.5132 234.295 25.3765C234.042 25.2329 233.741 25.1611 233.393 25.1611C232.962 25.1611 232.524 25.3286 232.08 25.6636C231.643 25.9985 231.164 26.4907 230.645 27.1401V33.7949C230.645 33.8359 230.634 33.8735 230.614 33.9077C230.593 33.9419 230.559 33.9692 230.511 33.9897C230.47 34.0103 230.409 34.0273 230.327 34.041C230.251 34.0547 230.152 34.0615 230.029 34.0615C229.913 34.0615 229.814 34.0547 229.732 34.041C229.657 34.0273 229.595 34.0103 229.547 33.9897C229.5 33.9692 229.465 33.9419 229.445 33.9077C229.431 33.8735 229.424 33.8359 229.424 33.7949V24.5151C229.424 24.4741 229.431 24.4365 229.445 24.4023C229.465 24.3682 229.5 24.3408 229.547 24.3203C229.595 24.293 229.653 24.2759 229.722 24.269C229.797 24.2554 229.893 24.2485 230.009 24.2485C230.125 24.2485 230.221 24.2554 230.296 24.269C230.371 24.2759 230.429 24.293 230.47 24.3203C230.511 24.3408 230.539 24.3682 230.552 24.4023C230.573 24.4365 230.583 24.4741 230.583 24.5151V25.8276C231.116 25.2329 231.622 24.8022 232.101 24.5356C232.579 24.269 233.054 24.1357 233.526 24.1357C233.916 24.1357 234.261 24.1836 234.562 24.2793C234.869 24.3682 235.139 24.498 235.372 24.6689C235.604 24.833 235.802 25.0312 235.966 25.2637C236.13 25.4961 236.264 25.7524 236.366 26.0327C236.688 25.6772 236.988 25.3799 237.269 25.1406C237.556 24.8945 237.826 24.6997 238.079 24.5562C238.338 24.4058 238.588 24.2998 238.827 24.2383C239.066 24.1699 239.302 24.1357 239.535 24.1357C240.116 24.1357 240.604 24.2383 241.001 24.4434C241.404 24.6484 241.726 24.9253 241.965 25.2739C242.211 25.6226 242.385 26.0293 242.488 26.4941C242.597 26.959 242.652 27.4512 242.652 27.9707V33.7949ZM253.603 28.6782C253.603 28.9243 253.538 29.0952 253.408 29.1909C253.278 29.2798 253.152 29.3242 253.029 29.3242H246.702C246.702 29.8984 246.757 30.418 246.866 30.8828C246.982 31.3477 247.17 31.7476 247.43 32.0825C247.69 32.4106 248.028 32.6636 248.445 32.8413C248.862 33.019 249.375 33.1079 249.983 33.1079C250.414 33.1079 250.8 33.0703 251.142 32.9951C251.484 32.9199 251.778 32.8379 252.024 32.749C252.277 32.6533 252.482 32.5679 252.639 32.4927C252.803 32.4175 252.919 32.3799 252.988 32.3799C253.029 32.3799 253.066 32.3901 253.101 32.4106C253.135 32.4312 253.162 32.4653 253.183 32.5132C253.203 32.5542 253.217 32.6089 253.224 32.6772C253.237 32.7456 253.244 32.8311 253.244 32.9336C253.244 32.9814 253.241 33.0293 253.234 33.0771C253.227 33.1182 253.217 33.1592 253.203 33.2002C253.196 33.2344 253.183 33.2686 253.162 33.3027C253.142 33.3369 253.114 33.3711 253.08 33.4053C253.046 33.4395 252.94 33.501 252.762 33.5898C252.584 33.6719 252.352 33.7573 252.065 33.8462C251.778 33.9282 251.443 34.0034 251.06 34.0718C250.684 34.1401 250.277 34.1743 249.84 34.1743C249.122 34.1743 248.486 34.0684 247.933 33.8564C247.379 33.6377 246.914 33.3198 246.538 32.9028C246.162 32.479 245.875 31.9561 245.677 31.334C245.485 30.7119 245.39 29.9907 245.39 29.1704C245.39 28.3843 245.489 27.6802 245.687 27.0581C245.892 26.436 246.183 25.9097 246.559 25.479C246.935 25.0415 247.386 24.71 247.912 24.4844C248.445 24.252 249.037 24.1357 249.686 24.1357C250.383 24.1357 250.978 24.252 251.47 24.4844C251.962 24.7168 252.366 25.0312 252.68 25.4277C253.001 25.8174 253.234 26.272 253.377 26.7915C253.528 27.311 253.603 27.8579 253.603 28.4321V28.6782ZM252.342 28.3193C252.362 27.335 252.137 26.5659 251.665 26.0122C251.193 25.4585 250.506 25.1816 249.604 25.1816C249.139 25.1816 248.729 25.2705 248.374 25.4482C248.025 25.6191 247.728 25.8481 247.481 26.1353C247.242 26.4224 247.058 26.7573 246.928 27.1401C246.798 27.5161 246.723 27.9092 246.702 28.3193H252.342ZM263.939 33.7949C263.939 33.8359 263.929 33.8735 263.908 33.9077C263.888 33.9419 263.854 33.9692 263.806 33.9897C263.765 34.0103 263.703 34.0273 263.621 34.041C263.546 34.0547 263.45 34.0615 263.334 34.0615C263.211 34.0615 263.108 34.0547 263.026 34.041C262.951 34.0273 262.89 34.0103 262.842 33.9897C262.801 33.9692 262.77 33.9419 262.75 33.9077C262.729 33.8735 262.719 33.8359 262.719 33.7949V28.2886C262.719 27.7144 262.674 27.2495 262.585 26.894C262.497 26.5317 262.363 26.2241 262.186 25.9712C262.008 25.7114 261.779 25.5132 261.499 25.3765C261.225 25.2329 260.904 25.1611 260.535 25.1611C260.063 25.1611 259.591 25.3286 259.12 25.6636C258.648 25.9985 258.152 26.4907 257.633 27.1401V33.7949C257.633 33.8359 257.623 33.8735 257.602 33.9077C257.582 33.9419 257.547 33.9692 257.5 33.9897C257.458 34.0103 257.397 34.0273 257.315 34.041C257.24 34.0547 257.141 34.0615 257.018 34.0615C256.901 34.0615 256.802 34.0547 256.72 34.041C256.645 34.0273 256.583 34.0103 256.536 33.9897C256.488 33.9692 256.454 33.9419 256.433 33.9077C256.419 33.8735 256.413 33.8359 256.413 33.7949V24.5151C256.413 24.4741 256.419 24.4365 256.433 24.4023C256.454 24.3682 256.488 24.3408 256.536 24.3203C256.583 24.293 256.642 24.2759 256.71 24.269C256.785 24.2554 256.881 24.2485 256.997 24.2485C257.113 24.2485 257.209 24.2554 257.284 24.269C257.359 24.2759 257.417 24.293 257.458 24.3203C257.5 24.3408 257.527 24.3682 257.541 24.4023C257.561 24.4365 257.571 24.4741 257.571 24.5151V25.8276C258.104 25.2329 258.627 24.8022 259.14 24.5356C259.653 24.269 260.162 24.1357 260.668 24.1357C261.276 24.1357 261.789 24.2383 262.206 24.4434C262.623 24.6484 262.958 24.9253 263.211 25.2739C263.471 25.6226 263.655 26.0293 263.765 26.4941C263.881 26.959 263.939 27.5195 263.939 28.1758V33.7949ZM271.588 33.2412C271.588 33.3848 271.575 33.501 271.547 33.5898C271.527 33.6787 271.489 33.7505 271.435 33.8052C271.387 33.853 271.312 33.9009 271.209 33.9487C271.113 33.9897 271 34.0239 270.871 34.0513C270.741 34.0854 270.604 34.1094 270.46 34.123C270.317 34.1436 270.177 34.1538 270.04 34.1538C269.582 34.1538 269.192 34.0923 268.871 33.9692C268.55 33.8462 268.287 33.6616 268.082 33.4155C267.876 33.1626 267.726 32.8447 267.63 32.4619C267.542 32.0791 267.497 31.6279 267.497 31.1084V25.3354H266.113C266.017 25.3354 265.942 25.2944 265.887 25.2124C265.833 25.1235 265.805 24.9937 265.805 24.8228C265.805 24.7339 265.812 24.6587 265.826 24.5972C265.839 24.5288 265.86 24.4741 265.887 24.4331C265.915 24.3853 265.945 24.3511 265.979 24.3306C266.021 24.3101 266.065 24.2998 266.113 24.2998H267.497V22.0234C267.497 21.9824 267.504 21.9448 267.518 21.9106C267.538 21.8765 267.572 21.8491 267.62 21.8286C267.668 21.8013 267.729 21.7842 267.805 21.7773C267.887 21.7637 267.986 21.7568 268.102 21.7568C268.225 21.7568 268.324 21.7637 268.399 21.7773C268.481 21.7842 268.543 21.8013 268.584 21.8286C268.632 21.8491 268.666 21.8765 268.687 21.9106C268.707 21.9448 268.717 21.9824 268.717 22.0234V24.2998H271.281C271.329 24.2998 271.37 24.3101 271.404 24.3306C271.445 24.3511 271.479 24.3853 271.506 24.4331C271.534 24.4741 271.554 24.5288 271.568 24.5972C271.582 24.6587 271.588 24.7339 271.588 24.8228C271.588 24.9937 271.558 25.1235 271.496 25.2124C271.441 25.2944 271.37 25.3354 271.281 25.3354H268.717V30.9443C268.717 31.6484 268.816 32.1851 269.015 32.5542C269.22 32.9233 269.589 33.1079 270.122 33.1079C270.286 33.1079 270.433 33.0908 270.563 33.0566C270.7 33.0225 270.819 32.9849 270.922 32.9438C271.024 32.9028 271.11 32.8652 271.178 32.8311C271.253 32.7969 271.318 32.7798 271.373 32.7798C271.407 32.7798 271.438 32.7866 271.465 32.8003C271.493 32.814 271.513 32.8413 271.527 32.8823C271.547 32.9165 271.561 32.9644 271.568 33.0259C271.582 33.0806 271.588 33.1523 271.588 33.2412ZM279.484 31.3237C279.484 31.7681 279.402 32.168 279.238 32.5234C279.074 32.8721 278.838 33.1694 278.53 33.4155C278.229 33.6616 277.867 33.8496 277.443 33.9795C277.02 34.1094 276.551 34.1743 276.039 34.1743C275.717 34.1743 275.413 34.147 275.126 34.0923C274.839 34.0444 274.579 33.9829 274.347 33.9077C274.114 33.8257 273.916 33.7402 273.752 33.6514C273.595 33.5625 273.479 33.4839 273.403 33.4155C273.328 33.3472 273.273 33.2617 273.239 33.1592C273.205 33.0566 273.188 32.9199 273.188 32.749C273.188 32.6602 273.195 32.5815 273.208 32.5132C273.222 32.4448 273.239 32.3867 273.26 32.3389C273.28 32.291 273.308 32.2568 273.342 32.2363C273.376 32.209 273.414 32.1953 273.455 32.1953C273.53 32.1953 273.639 32.2432 273.783 32.3389C273.926 32.4346 274.104 32.5405 274.316 32.6567C274.535 32.7661 274.791 32.8687 275.085 32.9644C275.386 33.0601 275.731 33.1079 276.121 33.1079C276.435 33.1079 276.722 33.0737 276.982 33.0054C277.242 32.937 277.467 32.8345 277.659 32.6978C277.85 32.561 277.997 32.3867 278.1 32.1748C278.209 31.9561 278.264 31.7031 278.264 31.416C278.264 31.1289 278.195 30.8862 278.059 30.688C277.922 30.4897 277.741 30.3188 277.515 30.1753C277.296 30.0249 277.043 29.895 276.756 29.7856C276.476 29.6694 276.186 29.5532 275.885 29.437C275.591 29.314 275.3 29.1807 275.013 29.0371C274.733 28.8936 274.48 28.7192 274.254 28.5142C274.036 28.3091 273.858 28.063 273.721 27.7759C273.584 27.4888 273.516 27.1436 273.516 26.7402C273.516 26.4189 273.578 26.1045 273.701 25.7969C273.824 25.4824 274.012 25.2021 274.265 24.9561C274.524 24.71 274.853 24.5117 275.249 24.3613C275.652 24.2109 276.127 24.1357 276.674 24.1357C276.907 24.1357 277.136 24.1562 277.361 24.1973C277.594 24.2314 277.802 24.2793 277.987 24.3408C278.178 24.4023 278.342 24.4707 278.479 24.5459C278.616 24.6143 278.718 24.6758 278.787 24.7305C278.862 24.7852 278.91 24.833 278.93 24.874C278.958 24.9082 278.975 24.9458 278.981 24.9868C278.995 25.0278 279.005 25.0791 279.012 25.1406C279.019 25.1953 279.022 25.2637 279.022 25.3457C279.022 25.4277 279.016 25.5029 279.002 25.5713C278.995 25.6328 278.981 25.6875 278.961 25.7354C278.94 25.7832 278.913 25.8208 278.879 25.8481C278.852 25.8687 278.817 25.8789 278.776 25.8789C278.722 25.8789 278.64 25.8413 278.53 25.7661C278.421 25.6909 278.277 25.6089 278.1 25.52C277.922 25.4312 277.71 25.3491 277.464 25.2739C277.218 25.1987 276.934 25.1611 276.613 25.1611C276.292 25.1611 276.008 25.1987 275.762 25.2739C275.522 25.3491 275.324 25.4551 275.167 25.5918C275.01 25.7285 274.89 25.8892 274.808 26.0737C274.733 26.2583 274.695 26.46 274.695 26.6787C274.695 26.9795 274.764 27.2324 274.9 27.4375C275.037 27.6426 275.218 27.8203 275.444 27.9707C275.669 28.1211 275.926 28.2544 276.213 28.3706C276.5 28.4868 276.791 28.603 277.084 28.7192C277.385 28.8354 277.679 28.9653 277.966 29.1089C278.253 29.2456 278.51 29.4131 278.735 29.6113C278.961 29.8096 279.142 30.0488 279.279 30.3291C279.416 30.6025 279.484 30.9341 279.484 31.3237Z" fill="black"/>
<g clip-path="url(#clip0_863_859)">
<path d="M125.822 13.6465L124.674 12.6307C122 10.2592 117.904 10.5051 115.534 13.1802L112.247 16.8877C111.506 17.7247 111.583 19.0096 112.419 19.7521L112.728 20.0258C113.567 20.7701 114.848 20.6932 115.593 19.8536L118.879 16.1461C119.612 15.3198 120.882 15.2438 121.709 15.9757L122.856 16.9932C123.683 17.726 123.761 18.9956 123.026 19.8223L115.841 27.9288C115.232 28.616 114.237 28.8013 113.42 28.3793C112.527 27.9181 111.438 28.1207 110.771 28.8728L110.715 28.9361C110.264 29.445 110.076 30.1206 110.199 30.7896C110.322 31.4584 110.739 32.0225 111.341 32.3374C112.294 32.8355 113.323 33.0766 114.343 33.0766C116.148 33.0766 117.923 32.3195 119.187 30.8938L126.373 22.7883C128.741 20.1168 128.494 16.0164 125.822 13.6465Z" fill="#00529B"/>
<path d="M110.579 35.2499L110.27 34.976C109.432 34.2339 108.147 34.3119 107.405 35.1491L104.12 38.8563C103.387 39.6823 102.118 39.7589 101.292 39.0275L100.143 38.0086C99.316 37.276 99.2383 36.0075 99.9726 35.1805L107.158 27.0746C107.754 26.4018 108.734 26.2094 109.542 26.6063C110.471 27.0625 111.598 26.8407 112.285 26.065L112.311 26.0359C112.753 25.5374 112.939 24.8758 112.821 24.2206C112.704 23.5654 112.3 23.0095 111.713 22.6954C109.059 21.2747 105.81 21.856 103.813 24.1097L96.627 32.214V32.2141C94.2586 34.8856 94.505 38.9859 97.1764 41.3548L98.3248 42.372C99.5552 43.4629 101.088 43.9987 102.616 43.9987C104.406 43.9987 106.188 43.2632 107.467 41.8219L110.752 38.1147C111.495 37.2754 111.419 35.9947 110.579 35.2499Z" fill="#00529B"/>
</g>
<defs>
<clipPath id="clip0_863_859">
<rect width="33" height="33" fill="white" transform="translate(95 11)"/>
</clipPath>
</defs>
</svg>
