<svg width="311" height="28" viewBox="0 0 311 28" fill="none" xmlns="http://www.w3.org/2000/svg">
<path d="M16.2353 15.228C16.7753 15.648 17.2793 15.948 17.7473 16.128C18.2153 16.308 18.7013 16.398 19.2053 16.398C19.8173 16.398 20.3033 16.26 20.6633 15.984C21.0353 15.696 21.2213 15.294 21.2213 14.778C21.2093 14.358 21.0953 14.028 20.8793 13.788C20.6633 13.536 20.3753 13.332 20.0153 13.176C19.6673 13.008 19.2833 12.858 18.8633 12.726C18.4793 12.606 18.0953 12.468 17.7113 12.312C17.3273 12.144 16.9733 11.934 16.6493 11.682C16.3373 11.43 16.0793 11.106 15.8753 10.71C15.6833 10.314 15.5873 9.822 15.5873 9.234C15.5873 8.502 15.7733 7.872 16.1453 7.344C16.5173 6.816 17.0273 6.414 17.6753 6.138C18.3353 5.85 19.0673 5.706 19.8713 5.706C20.4953 5.706 21.1013 5.79 21.6893 5.958C22.2773 6.114 22.7153 6.3 23.0033 6.516C23.3393 6.708 23.5073 6.978 23.5073 7.326C23.5073 7.482 23.4413 7.686 23.3093 7.938C23.1773 8.178 23.0033 8.412 22.7873 8.64C22.4153 8.34 21.9893 8.1 21.5093 7.92C21.0293 7.728 20.5613 7.632 20.1053 7.632C19.5173 7.632 19.0493 7.752 18.7013 7.992C18.3533 8.22 18.1793 8.556 18.1793 9C18.1793 9.24 18.2333 9.456 18.3413 9.648C18.4613 9.84 18.6533 10.02 18.9173 10.188C19.1813 10.356 19.6733 10.572 20.3933 10.836C20.7773 10.98 21.1673 11.136 21.5633 11.304C21.9593 11.472 22.3193 11.688 22.6433 11.952C22.9673 12.204 23.2313 12.528 23.4353 12.924C23.6393 13.308 23.7413 13.794 23.7413 14.382C23.7413 15.606 23.3333 16.566 22.5173 17.262C21.7133 17.958 20.6153 18.306 19.2233 18.306C18.5753 18.306 17.9693 18.24 17.4053 18.108C16.8413 17.976 16.3613 17.796 15.9653 17.568C15.6293 17.34 15.4613 17.076 15.4613 16.776C15.4613 16.428 15.7193 15.912 16.2353 15.228ZM33.2917 18H31.6537C31.4017 18 31.2217 17.94 31.1137 17.82C31.0177 17.688 30.9697 17.43 30.9697 17.046C30.4177 17.79 29.5357 18.162 28.3237 18.162C27.5557 18.162 26.9497 18.012 26.5057 17.712C26.0617 17.412 25.7737 16.95 25.6417 16.326C25.5457 15.906 25.4977 15.288 25.4977 14.472V9.486C25.5337 9.474 25.6417 9.462 25.8217 9.45C26.0017 9.426 26.1697 9.414 26.3257 9.414C27.4057 9.414 27.9457 9.888 27.9457 10.836V14.364C27.9457 14.928 27.9817 15.324 28.0537 15.552C28.1377 15.78 28.2697 15.948 28.4497 16.056C28.6417 16.152 28.8997 16.2 29.2237 16.2C29.6797 16.2 30.0637 16.11 30.3757 15.93C30.6877 15.738 30.8437 15.504 30.8437 15.228V9.486C30.8797 9.474 30.9877 9.462 31.1677 9.45C31.3477 9.426 31.5157 9.414 31.6717 9.414C32.1997 9.414 32.6017 9.546 32.8777 9.81C33.1537 10.062 33.2917 10.434 33.2917 10.926V18ZM41.5095 10.476C41.5095 10.788 41.3295 11.232 40.9695 11.808C40.6575 11.556 40.2735 11.346 39.8175 11.178C39.3615 10.998 38.9415 10.908 38.5575 10.908C37.7535 10.908 37.3515 11.166 37.3515 11.682C37.3515 12.09 37.7895 12.39 38.6655 12.582C39.3975 12.726 39.9675 12.918 40.3755 13.158C40.7955 13.386 41.1075 13.674 41.3115 14.022C41.5275 14.37 41.6355 14.79 41.6355 15.282C41.6355 16.194 41.3055 16.92 40.6455 17.46C39.9855 18 39.1095 18.27 38.0175 18.27C37.1175 18.27 36.3675 18.138 35.7675 17.874C35.2035 17.634 34.9215 17.34 34.9215 16.992C34.9215 16.788 34.9815 16.578 35.1015 16.362C35.2215 16.134 35.3595 15.9 35.5155 15.66C35.8035 15.912 36.1695 16.128 36.6135 16.308C37.0575 16.476 37.4835 16.56 37.8915 16.56C38.8035 16.56 39.2595 16.248 39.2595 15.624C39.2595 15.324 39.1515 15.096 38.9355 14.94C38.7195 14.772 38.2875 14.622 37.6395 14.49C36.7035 14.298 36.0195 13.992 35.5875 13.572C35.1555 13.14 34.9395 12.576 34.9395 11.88C34.9395 11.088 35.2695 10.452 35.9295 9.972C36.5895 9.48 37.4175 9.234 38.4135 9.234C39.3015 9.234 40.0575 9.366 40.6815 9.63C41.2095 9.846 41.4855 10.128 41.5095 10.476ZM43.2721 16.704C43.1401 16.308 43.0741 15.792 43.0741 15.156V6.804L43.3441 6.768C43.5601 6.744 43.7461 6.732 43.9021 6.732C44.9821 6.732 45.5221 7.212 45.5221 8.172V9.432H48.0421V11.268H45.5221V15.12C45.5221 15.96 45.8641 16.38 46.5481 16.38C46.7881 16.38 47.0341 16.32 47.2861 16.2C47.5381 16.08 47.7541 15.93 47.9341 15.75C48.1501 16.062 48.2941 16.308 48.3661 16.488C48.4501 16.668 48.4921 16.83 48.4921 16.974C48.4921 17.202 48.3661 17.418 48.1141 17.622C47.8621 17.826 47.5381 17.982 47.1421 18.09C46.7581 18.21 46.3381 18.27 45.8821 18.27C44.5261 18.27 43.6561 17.748 43.2721 16.704ZM56.9157 15.912C56.9157 16.848 57.0537 17.538 57.3297 17.982C56.9097 18.138 56.5137 18.216 56.1417 18.216C55.7337 18.216 55.4157 18.138 55.1877 17.982C54.9597 17.826 54.8097 17.58 54.7377 17.244C54.4377 17.568 54.0597 17.814 53.6037 17.982C53.1597 18.15 52.6617 18.234 52.1097 18.234C51.2937 18.234 50.6277 18.006 50.1117 17.55C49.6077 17.082 49.3557 16.428 49.3557 15.588C49.3557 13.728 50.8257 12.72 53.7657 12.564C53.9577 12.552 54.2277 12.546 54.5757 12.546V12.222C54.5757 11.778 54.4557 11.46 54.2157 11.268C53.9757 11.064 53.5737 10.962 53.0097 10.962C52.6377 10.962 52.2657 11.016 51.8937 11.124C51.5217 11.232 51.0417 11.454 50.4537 11.79C50.2977 11.61 50.1657 11.394 50.0577 11.142C49.9497 10.89 49.8957 10.698 49.8957 10.566C49.8957 10.338 50.0697 10.122 50.4177 9.918C50.7777 9.702 51.2217 9.534 51.7497 9.414C52.2777 9.294 52.8237 9.234 53.3877 9.234C54.6357 9.234 55.5357 9.492 56.0877 10.008C56.6397 10.524 56.9157 11.364 56.9157 12.528V15.912ZM54.6117 13.824C54.5277 13.824 54.4437 13.824 54.3597 13.824C54.2757 13.824 54.1917 13.83 54.1077 13.842C53.2437 13.902 52.6197 14.064 52.2357 14.328C51.8517 14.58 51.6597 14.94 51.6597 15.408C51.6597 15.792 51.7677 16.092 51.9837 16.308C52.1997 16.512 52.5117 16.614 52.9197 16.614C53.3397 16.614 53.7237 16.512 54.0717 16.308C54.4317 16.092 54.6117 15.876 54.6117 15.66V13.824ZM61.6605 18.108C61.5765 18.156 61.2885 18.18 60.7965 18.18C60.2325 18.18 59.8245 18.06 59.5725 17.82C59.3325 17.58 59.2125 17.202 59.2125 16.686V9.486C59.2485 9.474 59.3565 9.462 59.5365 9.45C59.7165 9.426 59.8845 9.414 60.0405 9.414C61.1205 9.414 61.6605 9.888 61.6605 10.836V18.108ZM61.6785 6.606C61.6785 6.978 61.5525 7.29 61.3005 7.542C61.0485 7.782 60.7365 7.902 60.3645 7.902C59.9805 7.902 59.6625 7.782 59.4105 7.542C59.1705 7.29 59.0505 6.978 59.0505 6.606C59.0505 6.234 59.1705 5.922 59.4105 5.67C59.6625 5.418 59.9805 5.292 60.3645 5.292C60.7365 5.292 61.0485 5.418 61.3005 5.67C61.5525 5.922 61.6785 6.234 61.6785 6.606ZM66.4246 18H63.9586V9.486L64.1746 9.45C64.3666 9.426 64.5646 9.414 64.7686 9.414C65.6566 9.414 66.1666 9.726 66.2986 10.35C66.8506 9.606 67.7326 9.234 68.9446 9.234C69.7126 9.234 70.3186 9.384 70.7626 9.684C71.2066 9.984 71.4946 10.446 71.6266 11.07C71.7226 11.49 71.7706 12.108 71.7706 12.924V18H69.3226V13.032C69.3226 12.468 69.2806 12.072 69.1966 11.844C69.1246 11.616 68.9926 11.454 68.8006 11.358C68.6206 11.25 68.3686 11.196 68.0446 11.196C67.5886 11.196 67.2046 11.292 66.8926 11.484C66.5806 11.664 66.4246 11.892 66.4246 12.168V18ZM81.0681 15.912C81.0681 16.848 81.2061 17.538 81.4821 17.982C81.0621 18.138 80.6661 18.216 80.2941 18.216C79.8861 18.216 79.5681 18.138 79.3401 17.982C79.1121 17.826 78.9621 17.58 78.8901 17.244C78.5901 17.568 78.2121 17.814 77.7561 17.982C77.3121 18.15 76.8141 18.234 76.2621 18.234C75.4461 18.234 74.7801 18.006 74.2641 17.55C73.7601 17.082 73.5081 16.428 73.5081 15.588C73.5081 13.728 74.9781 12.72 77.9181 12.564C78.1101 12.552 78.3801 12.546 78.7281 12.546V12.222C78.7281 11.778 78.6081 11.46 78.3681 11.268C78.1281 11.064 77.7261 10.962 77.1621 10.962C76.7901 10.962 76.4181 11.016 76.0461 11.124C75.6741 11.232 75.1941 11.454 74.6061 11.79C74.4501 11.61 74.3181 11.394 74.2101 11.142C74.1021 10.89 74.0481 10.698 74.0481 10.566C74.0481 10.338 74.2221 10.122 74.5701 9.918C74.9301 9.702 75.3741 9.534 75.9021 9.414C76.4301 9.294 76.9761 9.234 77.5401 9.234C78.7881 9.234 79.6881 9.492 80.2401 10.008C80.7921 10.524 81.0681 11.364 81.0681 12.528V15.912ZM78.7641 13.824C78.6801 13.824 78.5961 13.824 78.5121 13.824C78.4281 13.824 78.3441 13.83 78.2601 13.842C77.3961 13.902 76.7721 14.064 76.3881 14.328C76.0041 14.58 75.8121 14.94 75.8121 15.408C75.8121 15.792 75.9201 16.092 76.1361 16.308C76.3521 16.512 76.6641 16.614 77.0721 16.614C77.4921 16.614 77.8761 16.512 78.2241 16.308C78.5841 16.092 78.7641 15.876 78.7641 15.66V13.824ZM85.8129 10.026C86.3409 9.498 87.0549 9.234 87.9549 9.234C89.0949 9.234 89.9709 9.6 90.5829 10.332C91.2069 11.064 91.5189 12.126 91.5189 13.518C91.5189 15.054 91.2009 16.23 90.5649 17.046C89.9409 17.85 89.0589 18.252 87.9189 18.252C87.4029 18.252 86.9349 18.162 86.5149 17.982C86.0949 17.79 85.7889 17.562 85.5969 17.298C85.5969 17.766 85.3809 18 84.9489 18H83.3649V5.31C83.3889 5.298 83.4909 5.286 83.6709 5.274C83.8629 5.25 84.0369 5.238 84.1929 5.238C85.2729 5.238 85.8129 5.718 85.8129 6.678V10.026ZM88.9629 13.554C88.9629 11.826 88.3629 10.962 87.1629 10.962C86.7309 10.962 86.3949 11.046 86.1549 11.214C85.9269 11.37 85.8129 11.598 85.8129 11.898V15.804C85.9809 15.972 86.1909 16.11 86.4429 16.218C86.7069 16.314 86.9769 16.362 87.2529 16.362C87.8289 16.362 88.2549 16.134 88.5309 15.678C88.8189 15.222 88.9629 14.514 88.9629 13.554ZM95.9027 18.108C95.7947 18.156 95.4947 18.18 95.0027 18.18C93.9707 18.18 93.4547 17.682 93.4547 16.686V5.31C93.4907 5.298 93.5987 5.286 93.7787 5.274C93.9587 5.25 94.1267 5.238 94.2827 5.238C95.3627 5.238 95.9027 5.712 95.9027 6.66V18.108ZM102.453 16.47C102.849 16.47 103.185 16.416 103.461 16.308C103.749 16.2 103.989 16.074 104.181 15.93C104.373 15.774 104.541 15.63 104.685 15.498C104.865 15.726 105.021 15.978 105.153 16.254C105.297 16.518 105.369 16.728 105.369 16.884C105.369 17.148 105.219 17.388 104.919 17.604C104.631 17.82 104.247 17.988 103.767 18.108C103.287 18.24 102.771 18.306 102.219 18.306C100.755 18.306 99.627 17.904 98.835 17.1C98.055 16.296 97.665 15.126 97.665 13.59C97.665 12.678 97.839 11.898 98.187 11.25C98.547 10.602 99.039 10.104 99.663 9.756C100.299 9.408 101.007 9.234 101.787 9.234C102.963 9.234 103.869 9.576 104.505 10.26C105.153 10.932 105.477 11.862 105.477 13.05C105.477 13.626 105.459 13.998 105.423 14.166H100.131C100.179 14.91 100.401 15.48 100.797 15.876C101.193 16.272 101.745 16.47 102.453 16.47ZM103.263 12.816C103.263 11.52 102.753 10.872 101.733 10.872C101.229 10.872 100.833 11.046 100.545 11.394C100.257 11.742 100.113 12.216 100.113 12.816H103.263ZM120.541 11.772C120.541 13.044 120.307 14.154 119.839 15.102C119.371 16.05 118.705 16.77 117.841 17.262C116.989 17.754 115.975 18 114.799 18H110.965V6.048C112.081 5.904 113.209 5.832 114.349 5.832C116.401 5.832 117.943 6.33 118.975 7.326C120.019 8.322 120.541 9.804 120.541 11.772ZM118.021 11.808C118.021 10.44 117.733 9.426 117.157 8.766C116.581 8.094 115.705 7.758 114.529 7.758C114.193 7.758 113.833 7.776 113.449 7.812V16.11H114.439C115.675 16.11 116.581 15.768 117.157 15.084C117.733 14.4 118.021 13.308 118.021 11.808ZM127.01 16.47C127.406 16.47 127.742 16.416 128.018 16.308C128.306 16.2 128.546 16.074 128.738 15.93C128.93 15.774 129.098 15.63 129.242 15.498C129.422 15.726 129.578 15.978 129.71 16.254C129.854 16.518 129.926 16.728 129.926 16.884C129.926 17.148 129.776 17.388 129.476 17.604C129.188 17.82 128.804 17.988 128.324 18.108C127.844 18.24 127.328 18.306 126.776 18.306C125.312 18.306 124.184 17.904 123.392 17.1C122.612 16.296 122.222 15.126 122.222 13.59C122.222 12.678 122.396 11.898 122.744 11.25C123.104 10.602 123.596 10.104 124.22 9.756C124.856 9.408 125.564 9.234 126.344 9.234C127.52 9.234 128.426 9.576 129.062 10.26C129.71 10.932 130.034 11.862 130.034 13.05C130.034 13.626 130.016 13.998 129.98 14.166H124.688C124.736 14.91 124.958 15.48 125.354 15.876C125.75 16.272 126.302 16.47 127.01 16.47ZM127.82 12.816C127.82 11.52 127.31 10.872 126.29 10.872C125.786 10.872 125.39 11.046 125.102 11.394C124.814 11.742 124.67 12.216 124.67 12.816H127.82ZM136.364 18.09H133.754L130.784 9.648C131.168 9.492 131.6 9.414 132.08 9.414C132.38 9.414 132.632 9.462 132.836 9.558C133.052 9.654 133.226 9.81 133.358 10.026C133.502 10.242 133.646 10.602 133.79 11.106L135.086 15.75L136.454 11.052C136.574 10.62 136.7 10.296 136.832 10.08C136.964 9.852 137.126 9.684 137.318 9.576C137.522 9.468 137.774 9.414 138.074 9.414C138.53 9.414 138.938 9.492 139.298 9.648L136.364 18.09ZM144.728 16.47C145.124 16.47 145.46 16.416 145.736 16.308C146.024 16.2 146.264 16.074 146.456 15.93C146.648 15.774 146.816 15.63 146.96 15.498C147.14 15.726 147.296 15.978 147.428 16.254C147.572 16.518 147.644 16.728 147.644 16.884C147.644 17.148 147.494 17.388 147.194 17.604C146.906 17.82 146.522 17.988 146.042 18.108C145.562 18.24 145.046 18.306 144.494 18.306C143.03 18.306 141.902 17.904 141.11 17.1C140.33 16.296 139.94 15.126 139.94 13.59C139.94 12.678 140.114 11.898 140.462 11.25C140.822 10.602 141.314 10.104 141.938 9.756C142.574 9.408 143.282 9.234 144.062 9.234C145.238 9.234 146.144 9.576 146.78 10.26C147.428 10.932 147.752 11.862 147.752 13.05C147.752 13.626 147.734 13.998 147.698 14.166H142.406C142.454 14.91 142.676 15.48 143.072 15.876C143.468 16.272 144.02 16.47 144.728 16.47ZM145.538 12.816C145.538 11.52 145.028 10.872 144.008 10.872C143.504 10.872 143.108 11.046 142.82 11.394C142.532 11.742 142.388 12.216 142.388 12.816H145.538ZM151.995 18.108C151.887 18.156 151.587 18.18 151.095 18.18C150.063 18.18 149.547 17.682 149.547 16.686V5.31C149.583 5.298 149.691 5.286 149.871 5.274C150.051 5.25 150.219 5.238 150.375 5.238C151.455 5.238 151.995 5.712 151.995 6.66V18.108ZM162.235 13.698C162.235 14.646 162.061 15.468 161.713 16.164C161.377 16.86 160.891 17.388 160.255 17.748C159.631 18.096 158.875 18.27 157.987 18.27C156.643 18.27 155.599 17.868 154.855 17.064C154.123 16.26 153.757 15.156 153.757 13.752C153.757 12.84 153.937 12.042 154.297 11.358C154.669 10.662 155.173 10.134 155.809 9.774C156.457 9.414 157.207 9.234 158.059 9.234C159.403 9.234 160.435 9.63 161.155 10.422C161.875 11.202 162.235 12.294 162.235 13.698ZM159.769 13.716C159.769 11.976 159.187 11.106 158.023 11.106C157.435 11.106 156.985 11.34 156.673 11.808C156.361 12.276 156.205 12.918 156.205 13.734C156.205 14.598 156.355 15.264 156.655 15.732C156.967 16.2 157.411 16.434 157.987 16.434C159.175 16.434 159.769 15.528 159.769 13.716ZM166.512 10.278C166.776 9.966 167.124 9.714 167.556 9.522C167.988 9.33 168.456 9.234 168.96 9.234C170.028 9.234 170.856 9.606 171.444 10.35C172.032 11.094 172.326 12.162 172.326 13.554C172.326 15.078 172.008 16.248 171.372 17.064C170.748 17.868 169.878 18.27 168.762 18.27C168.426 18.27 168.114 18.228 167.826 18.144C167.538 18.06 167.28 17.946 167.052 17.802C166.824 17.658 166.674 17.526 166.602 17.406V21.924H164.172V9.486L164.388 9.45C164.58 9.426 164.778 9.414 164.982 9.414C165.87 9.414 166.38 9.702 166.512 10.278ZM169.77 13.608C169.77 11.916 169.17 11.07 167.97 11.07C167.55 11.07 167.22 11.154 166.98 11.322C166.74 11.478 166.62 11.7 166.62 11.988V15.804C166.776 15.96 166.98 16.092 167.232 16.2C167.484 16.296 167.736 16.344 167.988 16.344C169.176 16.344 169.77 15.432 169.77 13.608ZM176.727 18H174.261V9.486L174.477 9.45C174.669 9.426 174.867 9.414 175.071 9.414C175.959 9.414 176.469 9.726 176.601 10.35C177.153 9.606 178.035 9.234 179.247 9.234C179.811 9.234 180.273 9.336 180.633 9.54C181.005 9.732 181.287 10.032 181.479 10.44C182.127 9.636 183.039 9.234 184.215 9.234C184.971 9.234 185.571 9.396 186.015 9.72C186.459 10.032 186.723 10.482 186.807 11.07C186.891 11.586 186.933 12.204 186.933 12.924V18H184.485V13.032C184.485 12.48 184.449 12.102 184.377 11.898C184.317 11.682 184.197 11.526 184.017 11.43C183.849 11.322 183.609 11.268 183.297 11.268C183.009 11.268 182.721 11.334 182.433 11.466C182.145 11.598 181.941 11.76 181.821 11.952C181.857 12.288 181.875 12.642 181.875 13.014V18H179.427V13.032C179.427 12.444 179.385 12.042 179.301 11.826C179.229 11.61 179.103 11.454 178.923 11.358C178.743 11.25 178.491 11.196 178.167 11.196C177.747 11.196 177.399 11.292 177.123 11.484C176.859 11.664 176.727 11.892 176.727 12.168V18ZM193.666 16.47C194.062 16.47 194.398 16.416 194.674 16.308C194.962 16.2 195.202 16.074 195.394 15.93C195.586 15.774 195.754 15.63 195.898 15.498C196.078 15.726 196.234 15.978 196.366 16.254C196.51 16.518 196.582 16.728 196.582 16.884C196.582 17.148 196.432 17.388 196.132 17.604C195.844 17.82 195.46 17.988 194.98 18.108C194.5 18.24 193.984 18.306 193.432 18.306C191.968 18.306 190.84 17.904 190.048 17.1C189.268 16.296 188.878 15.126 188.878 13.59C188.878 12.678 189.052 11.898 189.4 11.25C189.76 10.602 190.252 10.104 190.876 9.756C191.512 9.408 192.22 9.234 193 9.234C194.176 9.234 195.082 9.576 195.718 10.26C196.366 10.932 196.69 11.862 196.69 13.05C196.69 13.626 196.672 13.998 196.636 14.166H191.344C191.392 14.91 191.614 15.48 192.01 15.876C192.406 16.272 192.958 16.47 193.666 16.47ZM194.476 12.816C194.476 11.52 193.966 10.872 192.946 10.872C192.442 10.872 192.046 11.046 191.758 11.394C191.47 11.742 191.326 12.216 191.326 12.816H194.476ZM200.95 18H198.484V9.486L198.7 9.45C198.892 9.426 199.09 9.414 199.294 9.414C200.182 9.414 200.692 9.726 200.824 10.35C201.376 9.606 202.258 9.234 203.47 9.234C204.238 9.234 204.844 9.384 205.288 9.684C205.732 9.984 206.02 10.446 206.152 11.07C206.248 11.49 206.296 12.108 206.296 12.924V18H203.848V13.032C203.848 12.468 203.806 12.072 203.722 11.844C203.65 11.616 203.518 11.454 203.326 11.358C203.146 11.25 202.894 11.196 202.57 11.196C202.114 11.196 201.73 11.292 201.418 11.484C201.106 11.664 200.95 11.892 200.95 12.168V18ZM208.717 16.704C208.585 16.308 208.519 15.792 208.519 15.156V6.804L208.789 6.768C209.005 6.744 209.191 6.732 209.347 6.732C210.427 6.732 210.967 7.212 210.967 8.172V9.432H213.487V11.268H210.967V15.12C210.967 15.96 211.309 16.38 211.993 16.38C212.233 16.38 212.479 16.32 212.731 16.2C212.983 16.08 213.199 15.93 213.379 15.75C213.595 16.062 213.739 16.308 213.811 16.488C213.895 16.668 213.937 16.83 213.937 16.974C213.937 17.202 213.811 17.418 213.559 17.622C213.307 17.826 212.983 17.982 212.587 18.09C212.203 18.21 211.783 18.27 211.327 18.27C209.971 18.27 209.101 17.748 208.717 16.704ZM223.265 16.452C223.673 16.452 224.057 16.374 224.417 16.218C224.777 16.05 225.059 15.84 225.263 15.588C225.407 15.744 225.545 15.96 225.677 16.236C225.809 16.512 225.875 16.74 225.875 16.92C225.875 17.196 225.749 17.43 225.497 17.622C224.897 18.078 224.039 18.306 222.923 18.306C222.035 18.306 221.261 18.126 220.601 17.766C219.941 17.394 219.443 16.872 219.107 16.2C218.771 15.516 218.603 14.688 218.603 13.716C218.603 12.756 218.783 11.946 219.143 11.286C219.515 10.626 220.037 10.122 220.709 9.774C221.381 9.414 222.119 9.234 222.923 9.234C223.403 9.234 223.853 9.288 224.273 9.396C224.693 9.492 225.047 9.636 225.335 9.828C225.563 9.972 225.719 10.11 225.803 10.242C225.899 10.374 225.947 10.53 225.947 10.71C225.947 10.878 225.893 11.088 225.785 11.34C225.677 11.58 225.539 11.802 225.371 12.006C225.131 11.742 224.819 11.526 224.435 11.358C224.063 11.178 223.679 11.088 223.283 11.088C222.563 11.088 222.017 11.31 221.645 11.754C221.273 12.186 221.087 12.828 221.087 13.68C221.087 14.58 221.267 15.27 221.627 15.75C221.999 16.218 222.545 16.452 223.265 16.452ZM235.307 13.698C235.307 14.646 235.133 15.468 234.785 16.164C234.449 16.86 233.963 17.388 233.327 17.748C232.703 18.096 231.947 18.27 231.059 18.27C229.715 18.27 228.671 17.868 227.927 17.064C227.195 16.26 226.829 15.156 226.829 13.752C226.829 12.84 227.009 12.042 227.369 11.358C227.741 10.662 228.245 10.134 228.881 9.774C229.529 9.414 230.279 9.234 231.131 9.234C232.475 9.234 233.507 9.63 234.227 10.422C234.947 11.202 235.307 12.294 235.307 13.698ZM232.841 13.716C232.841 11.976 232.259 11.106 231.095 11.106C230.507 11.106 230.057 11.34 229.745 11.808C229.433 12.276 229.277 12.918 229.277 13.734C229.277 14.598 229.427 15.264 229.727 15.732C230.039 16.2 230.483 16.434 231.059 16.434C232.247 16.434 232.841 15.528 232.841 13.716ZM245.038 18H243.4C243.148 18 242.968 17.94 242.86 17.82C242.764 17.688 242.716 17.43 242.716 17.046C242.164 17.79 241.282 18.162 240.07 18.162C239.302 18.162 238.696 18.012 238.252 17.712C237.808 17.412 237.52 16.95 237.388 16.326C237.292 15.906 237.244 15.288 237.244 14.472V9.486C237.28 9.474 237.388 9.462 237.568 9.45C237.748 9.426 237.916 9.414 238.072 9.414C239.152 9.414 239.692 9.888 239.692 10.836V14.364C239.692 14.928 239.728 15.324 239.8 15.552C239.884 15.78 240.016 15.948 240.196 16.056C240.388 16.152 240.646 16.2 240.97 16.2C241.426 16.2 241.81 16.11 242.122 15.93C242.434 15.738 242.59 15.504 242.59 15.228V9.486C242.626 9.474 242.734 9.462 242.914 9.45C243.094 9.426 243.262 9.414 243.418 9.414C243.946 9.414 244.348 9.546 244.624 9.81C244.9 10.062 245.038 10.434 245.038 10.926V18ZM249.674 10.332C249.902 10.008 250.19 9.744 250.538 9.54C250.898 9.336 251.27 9.234 251.654 9.234C252.074 9.234 252.404 9.312 252.644 9.468C252.896 9.612 253.022 9.822 253.022 10.098C253.022 10.242 252.992 10.422 252.932 10.638C252.884 10.842 252.812 11.058 252.716 11.286C252.632 11.502 252.536 11.7 252.428 11.88C252.2 11.688 251.984 11.556 251.78 11.484C251.576 11.4 251.348 11.358 251.096 11.358C250.736 11.358 250.424 11.466 250.16 11.682C249.908 11.898 249.782 12.156 249.782 12.456V18H247.334V9.486L247.55 9.45C247.742 9.426 247.94 9.414 248.144 9.414C248.552 9.414 248.888 9.492 249.152 9.648C249.428 9.804 249.602 10.032 249.674 10.332ZM260.094 10.476C260.094 10.788 259.914 11.232 259.554 11.808C259.242 11.556 258.858 11.346 258.402 11.178C257.946 10.998 257.526 10.908 257.142 10.908C256.338 10.908 255.936 11.166 255.936 11.682C255.936 12.09 256.374 12.39 257.25 12.582C257.982 12.726 258.552 12.918 258.96 13.158C259.38 13.386 259.692 13.674 259.896 14.022C260.112 14.37 260.22 14.79 260.22 15.282C260.22 16.194 259.89 16.92 259.23 17.46C258.57 18 257.694 18.27 256.602 18.27C255.702 18.27 254.952 18.138 254.352 17.874C253.788 17.634 253.506 17.34 253.506 16.992C253.506 16.788 253.566 16.578 253.686 16.362C253.806 16.134 253.944 15.9 254.1 15.66C254.388 15.912 254.754 16.128 255.198 16.308C255.642 16.476 256.068 16.56 256.476 16.56C257.388 16.56 257.844 16.248 257.844 15.624C257.844 15.324 257.736 15.096 257.52 14.94C257.304 14.772 256.872 14.622 256.224 14.49C255.288 14.298 254.604 13.992 254.172 13.572C253.74 13.14 253.524 12.576 253.524 11.88C253.524 11.088 253.854 10.452 254.514 9.972C255.174 9.48 256.002 9.234 256.998 9.234C257.886 9.234 258.642 9.366 259.266 9.63C259.794 9.846 260.07 10.128 260.094 10.476ZM266.334 16.47C266.73 16.47 267.066 16.416 267.342 16.308C267.63 16.2 267.87 16.074 268.062 15.93C268.254 15.774 268.422 15.63 268.566 15.498C268.746 15.726 268.902 15.978 269.034 16.254C269.178 16.518 269.25 16.728 269.25 16.884C269.25 17.148 269.1 17.388 268.8 17.604C268.512 17.82 268.128 17.988 267.648 18.108C267.168 18.24 266.652 18.306 266.1 18.306C264.636 18.306 263.508 17.904 262.716 17.1C261.936 16.296 261.546 15.126 261.546 13.59C261.546 12.678 261.72 11.898 262.068 11.25C262.428 10.602 262.92 10.104 263.544 9.756C264.18 9.408 264.888 9.234 265.668 9.234C266.844 9.234 267.75 9.576 268.386 10.26C269.034 10.932 269.358 11.862 269.358 13.05C269.358 13.626 269.34 13.998 269.304 14.166H264.012C264.06 14.91 264.282 15.48 264.678 15.876C265.074 16.272 265.626 16.47 266.334 16.47ZM267.144 12.816C267.144 11.52 266.634 10.872 265.614 10.872C265.11 10.872 264.714 11.046 264.426 11.394C264.138 11.742 263.994 12.216 263.994 12.816H267.144Z" fill="#00529B"/>
<path d="M308 19C306.343 19 305 20.3431 305 22C305 23.6569 306.343 25 308 25C309.657 25 311 23.6569 311 22C311 20.3431 309.657 19 308 19Z" fill="#00529B"/>
<rect x="287" y="3" width="24" height="4" rx="2" fill="#00529B"/>
<rect x="298" y="11" width="13" height="4" rx="2" fill="#00529B"/>
</svg>
