<svg width="111" height="54" viewBox="0 0 111 54" fill="none" xmlns="http://www.w3.org/2000/svg">
<path d="M52 45.7617C56.6716 50.2448 63.014 53 70 53C84.3594 53 96 41.3594 96 27C96 12.6406 84.3594 1 70 1C63.014 1 56.6716 3.75522 52 8.23829" stroke="#00529B" stroke-linecap="round"/>
<path d="M84 26.25C83.5858 26.25 83.25 26.5858 83.25 27C83.25 27.4142 83.5858 27.75 84 27.75V26.25ZM111 27L103.5 22.6699V31.3301L111 27ZM84 27.75H104.25V26.25H84V27.75Z" fill="#00529B"/>
<path d="M11.3044 19.958H18.2524C18.2644 20.018 18.2704 20.072 18.2704 20.12C18.2824 20.156 18.2884 20.228 18.2884 20.336C18.2884 20.984 17.9164 21.308 17.1724 21.308H12.8704V24.908H16.9564V26.276H12.8704V32H11.3044V19.958ZM26.0496 27.734C26.0496 28.658 25.8876 29.468 25.5636 30.164C25.2516 30.848 24.7956 31.37 24.1956 31.73C23.6076 32.09 22.8996 32.27 22.0716 32.27C20.8116 32.27 19.8396 31.88 19.1556 31.1C18.4716 30.308 18.1296 29.204 18.1296 27.788C18.1296 26.9 18.2976 26.114 18.6336 25.43C18.9816 24.746 19.4556 24.23 20.0556 23.882C20.6556 23.522 21.3516 23.342 22.1436 23.342C23.3916 23.342 24.3516 23.732 25.0236 24.512C25.7076 25.292 26.0496 26.366 26.0496 27.734ZM24.4296 27.752C24.4296 25.7 23.6556 24.674 22.1076 24.674C21.3396 24.674 20.7516 24.95 20.3436 25.502C19.9356 26.042 19.7316 26.792 19.7316 27.752C19.7316 28.772 19.9296 29.564 20.3256 30.128C20.7336 30.692 21.3156 30.974 22.0716 30.974C22.8516 30.974 23.4396 30.704 23.8356 30.164C24.2316 29.612 24.4296 28.808 24.4296 27.752ZM28.248 23.504C28.38 23.492 28.488 23.486 28.572 23.486C28.896 23.486 29.16 23.564 29.364 23.72C29.568 23.876 29.688 24.098 29.724 24.386C29.928 24.074 30.204 23.822 30.552 23.63C30.9 23.438 31.266 23.342 31.65 23.342C32.034 23.342 32.346 23.408 32.586 23.54C32.826 23.672 32.946 23.858 32.946 24.098C32.946 24.254 32.904 24.446 32.82 24.674C32.736 24.89 32.634 25.088 32.514 25.268C32.346 25.112 32.166 24.998 31.974 24.926C31.794 24.854 31.578 24.818 31.326 24.818C30.918 24.818 30.558 24.944 30.246 25.196C29.934 25.436 29.778 25.712 29.778 26.024V32H28.248V23.504ZM33.4438 23.612C33.7558 23.528 34.0198 23.486 34.2358 23.486C34.7998 23.486 35.1778 23.798 35.3698 24.422L37.2238 30.362L38.9518 26.132L38.0338 23.594C38.2738 23.522 38.5138 23.486 38.7538 23.486C39.3058 23.486 39.6778 23.774 39.8698 24.35L42.0298 30.38L43.5058 24.674C43.6138 24.254 43.7578 23.954 43.9378 23.774C44.1298 23.582 44.3698 23.486 44.6578 23.486C44.8858 23.486 45.1318 23.534 45.3958 23.63L42.8218 32.072H41.2918L39.5998 27.698L37.7458 32.072H36.3778L33.4438 23.612ZM47.1341 25.43C47.0381 25.274 46.9541 25.106 46.8821 24.926C46.8221 24.746 46.7921 24.602 46.7921 24.494C46.7921 24.29 46.9541 24.098 47.2781 23.918C47.6021 23.738 48.0041 23.6 48.4841 23.504C48.9761 23.396 49.4621 23.342 49.9421 23.342C51.0701 23.342 51.8861 23.582 52.3901 24.062C52.8941 24.542 53.1461 25.352 53.1461 26.492V30.038C53.1461 30.374 53.1641 30.632 53.2001 30.812C53.2361 30.98 53.3021 31.1 53.3981 31.172C53.5061 31.232 53.7161 31.262 54.0281 31.262V31.982C53.7761 32.066 53.4821 32.108 53.1461 32.108C52.2581 32.108 51.7721 31.766 51.6881 31.082C51.3041 31.466 50.8901 31.742 50.4461 31.91C50.0141 32.078 49.5161 32.162 48.9521 32.162C48.1001 32.162 47.4341 31.946 46.9541 31.514C46.4861 31.082 46.2521 30.458 46.2521 29.642C46.2521 28.682 46.6541 27.944 47.4581 27.428C48.2741 26.9 49.4141 26.612 50.8781 26.564C51.2381 26.564 51.4901 26.57 51.6341 26.582V26.312C51.6341 25.712 51.4841 25.286 51.1841 25.034C50.8961 24.782 50.4221 24.656 49.7621 24.656C49.2941 24.656 48.8681 24.716 48.4841 24.836C48.1121 24.944 47.7221 25.142 47.3141 25.43H47.1341ZM51.6521 27.734H51.1301C50.0381 27.734 49.2041 27.89 48.6281 28.202C48.0641 28.502 47.7821 28.952 47.7821 29.552C47.7821 29.996 47.9081 30.338 48.1601 30.578C48.4241 30.806 48.8081 30.92 49.3121 30.92C49.7081 30.92 50.0861 30.848 50.4461 30.704C50.8181 30.56 51.1121 30.38 51.3281 30.164C51.5441 29.948 51.6521 29.75 51.6521 29.57V27.734ZM55.8984 23.504C56.0304 23.492 56.1384 23.486 56.2224 23.486C56.5464 23.486 56.8104 23.564 57.0144 23.72C57.2184 23.876 57.3384 24.098 57.3744 24.386C57.5784 24.074 57.8544 23.822 58.2024 23.63C58.5504 23.438 58.9164 23.342 59.3004 23.342C59.6844 23.342 59.9964 23.408 60.2364 23.54C60.4764 23.672 60.5964 23.858 60.5964 24.098C60.5964 24.254 60.5544 24.446 60.4704 24.674C60.3864 24.89 60.2844 25.088 60.1644 25.268C59.9964 25.112 59.8164 24.998 59.6244 24.926C59.4444 24.854 59.2284 24.818 58.9764 24.818C58.5684 24.818 58.2084 24.944 57.8964 25.196C57.5844 25.436 57.4284 25.712 57.4284 26.024V32H55.8984V23.504ZM67.1712 31.28C66.5112 31.94 65.7192 32.27 64.7952 32.27C63.6672 32.27 62.7912 31.892 62.1672 31.136C61.5432 30.38 61.2312 29.3 61.2312 27.896C61.2312 26.936 61.3812 26.12 61.6812 25.448C61.9812 24.764 62.4012 24.242 62.9412 23.882C63.4932 23.522 64.1232 23.342 64.8312 23.342C65.7312 23.342 66.4992 23.636 67.1352 24.224V19.238C67.2432 19.226 67.3512 19.22 67.4592 19.22C68.2632 19.22 68.6652 19.628 68.6652 20.444V32H67.1712V31.28ZM67.1352 25.574C66.7632 25.214 66.4212 24.974 66.1092 24.854C65.7972 24.722 65.4492 24.656 65.0652 24.656C64.3572 24.656 63.8112 24.926 63.4272 25.466C63.0432 25.994 62.8512 26.744 62.8512 27.716C62.8512 29.888 63.6132 30.974 65.1372 30.974C65.6772 30.974 66.1452 30.854 66.5412 30.614C66.9372 30.374 67.1352 30.098 67.1352 29.786V25.574Z" fill="#00529B"/>
</svg>
