<svg width="91" height="54" viewBox="0 0 91 54" fill="none" xmlns="http://www.w3.org/2000/svg">
<path d="M61 45.7617C56.3284 50.2448 49.986 53 43 53C28.6406 53 17 41.3594 17 27C17 12.6406 28.6406 1 43 1C49.986 1 56.3284 3.75522 61 8.23829" stroke="#00529B" stroke-linecap="round"/>
<path d="M27 26.25C27.4142 26.25 27.75 26.5858 27.75 27C27.75 27.4142 27.4142 27.75 27 27.75V26.25ZM0 27L7.5 22.6699V31.3301L0 27ZM27 27.75H6.75V26.25H27V27.75Z" fill="#00529B"/>
<path d="M44.404 19.994C45.592 19.886 46.57 19.832 47.338 19.832C48.886 19.832 50.014 20.072 50.722 20.552C51.442 21.032 51.802 21.794 51.802 22.838C51.802 23.486 51.64 24.062 51.316 24.566C51.004 25.058 50.584 25.418 50.056 25.646C50.812 25.838 51.382 26.18 51.766 26.672C52.162 27.164 52.36 27.788 52.36 28.544C52.36 29.732 51.976 30.608 51.208 31.172C50.452 31.724 49.222 32 47.518 32H44.404V19.994ZM47.104 30.704C48.076 30.704 48.808 30.638 49.3 30.506C49.804 30.362 50.17 30.134 50.398 29.822C50.638 29.498 50.758 29.066 50.758 28.526C50.758 27.122 49.738 26.42 47.698 26.42H45.97V30.704H47.104ZM47.68 25.142C48.46 25.142 49.078 24.944 49.534 24.548C50.002 24.14 50.236 23.588 50.236 22.892C50.236 22.268 50.008 21.818 49.552 21.542C49.108 21.254 48.34 21.11 47.248 21.11C46.636 21.11 46.21 21.134 45.97 21.182V25.142H47.68ZM54.8509 25.43C54.7549 25.274 54.6709 25.106 54.5989 24.926C54.5389 24.746 54.5089 24.602 54.5089 24.494C54.5089 24.29 54.6709 24.098 54.9949 23.918C55.3189 23.738 55.7209 23.6 56.2009 23.504C56.6929 23.396 57.1789 23.342 57.6589 23.342C58.7869 23.342 59.6029 23.582 60.1069 24.062C60.6109 24.542 60.8629 25.352 60.8629 26.492V30.038C60.8629 30.374 60.8809 30.632 60.9169 30.812C60.9529 30.98 61.0189 31.1 61.1149 31.172C61.2229 31.232 61.4329 31.262 61.7449 31.262V31.982C61.4929 32.066 61.1989 32.108 60.8629 32.108C59.9749 32.108 59.4889 31.766 59.4049 31.082C59.0209 31.466 58.6069 31.742 58.1629 31.91C57.7309 32.078 57.2329 32.162 56.6689 32.162C55.8169 32.162 55.1509 31.946 54.6709 31.514C54.2029 31.082 53.9689 30.458 53.9689 29.642C53.9689 28.682 54.3709 27.944 55.1749 27.428C55.9909 26.9 57.1309 26.612 58.5949 26.564C58.9549 26.564 59.2069 26.57 59.3509 26.582V26.312C59.3509 25.712 59.2009 25.286 58.9009 25.034C58.6129 24.782 58.1389 24.656 57.4789 24.656C57.0109 24.656 56.5849 24.716 56.2009 24.836C55.8289 24.944 55.4389 25.142 55.0309 25.43H54.8509ZM59.3689 27.734H58.8469C57.7549 27.734 56.9209 27.89 56.3449 28.202C55.7809 28.502 55.4989 28.952 55.4989 29.552C55.4989 29.996 55.6249 30.338 55.8769 30.578C56.1409 30.806 56.5249 30.92 57.0289 30.92C57.4249 30.92 57.8029 30.848 58.1629 30.704C58.5349 30.56 58.8289 30.38 59.0449 30.164C59.2609 29.948 59.3689 29.75 59.3689 29.57V27.734ZM69.4112 25.664C69.1112 25.316 68.7932 25.064 68.4572 24.908C68.1212 24.752 67.7372 24.674 67.3052 24.674C66.4772 24.674 65.8412 24.95 65.3972 25.502C64.9532 26.042 64.7312 26.798 64.7312 27.77C64.7312 28.79 64.9592 29.582 65.4152 30.146C65.8712 30.698 66.5192 30.974 67.3592 30.974C67.9352 30.974 68.4452 30.806 68.8892 30.47C69.1292 30.314 69.3212 30.146 69.4652 29.966C69.8612 30.362 70.0592 30.692 70.0592 30.956C70.0592 31.124 69.9332 31.316 69.6812 31.532C69.4292 31.76 69.0812 31.94 68.6372 32.072C68.1932 32.204 67.6952 32.27 67.1432 32.27C66.3272 32.27 65.6132 32.096 65.0012 31.748C64.3892 31.4 63.9272 30.896 63.6152 30.236C63.3032 29.564 63.1472 28.748 63.1472 27.788C63.1472 26.84 63.3272 26.042 63.6872 25.394C64.0472 24.734 64.5452 24.23 65.1812 23.882C65.8292 23.522 66.5132 23.342 67.2332 23.342C67.7612 23.342 68.2352 23.414 68.6552 23.558C69.0752 23.69 69.4112 23.864 69.6632 24.08C69.9152 24.296 70.0412 24.506 70.0412 24.71C70.0412 24.95 69.8972 25.268 69.6092 25.664H69.4112ZM73.8912 27.572V26.978L76.9872 23.9C77.3352 23.588 77.6772 23.432 78.0132 23.432C78.3492 23.432 78.6552 23.558 78.9312 23.81L75.4752 27.212L79.4712 31.982C79.1832 32.09 78.8832 32.144 78.5712 32.144C78.0312 32.144 77.5812 31.928 77.2212 31.496L73.8912 27.572ZM71.9472 19.238C72.0552 19.226 72.1632 19.22 72.2712 19.22C73.0752 19.22 73.4772 19.628 73.4772 20.444V32H71.9472V19.238Z" fill="#00529B"/>
</svg>
