<svg id="Layer_1" data-name="Layer 1" xmlns="http://www.w3.org/2000/svg" viewBox="0 0 263.3 37.99"><defs><style>.cls-1{fill:#00529b;}.cls-2{fill:#2fb457;}</style></defs><path class="cls-1" d="M78,26.1H88.46c7.06,0,9.05,4.9,9.05,8.3s-2,8.35-9.05,8.35H84.94V51H78Zm7,11.18h2c3.09,0,3.41-1.81,3.41-2.88,0-1.24-.43-2.84-3.41-2.84h-2ZM100.62,26.1h7V35H116V26.1h7V51h-7V41h-8.45V51h-7Zm26.22,12.42c0-6.64,4.26-13.14,13.35-13.14s13.35,6.5,13.35,13.14-4.26,13.14-13.35,13.14S126.84,45.16,126.84,38.52Zm19.53,0c0-4.79-3-7.17-6.18-7.17S134,33.73,134,38.52s3,7.17,6.18,7.17S146.37,43.32,146.37,38.52Zm23.8-5.47a7.13,7.13,0,0,0-4.51-2.2c-2.1,0-2.59,1.25-2.59,2.13,0,1.49,1.7,1.92,2.94,2.2,3.66.86,7.74,2.45,7.74,8.31,0,4.94-3.51,8.17-9.33,8.17-3.2,0-5.72-1.07-9.31-4l3.3-5.29c2,1.88,4.12,3.3,6.18,3.3,1.28,0,2.45-.6,2.45-2.09,0-2.27-2.13-2.56-4.75-3.37-2-.61-5.93-2-5.93-7.35,0-4,2.91-7.5,8.73-7.5a12.91,12.91,0,0,1,7.56,2.45Zm13.27-6.95h8.45L200.73,51h-7.45l-1.39-4.3h-8.45L182.06,51H174.6Zm1.39,15.08h5.68L187.67,32Zm42.32-4.65c.5,5.86-1.17,15.13-12.36,15.13-7.56,0-13.67-4.58-13.67-13,0-8.13,5.22-13.32,13.17-13.32,7.78,0,10.66,4.41,11.54,6l-6.14,2.88a5.64,5.64,0,0,0-5.22-2.95c-3.26,0-6.39,2.31-6.39,7.21s3.09,7.63,6.64,7.63A5.37,5.37,0,0,0,220.26,42H213.8V36.53Zm3.76-10.43h10.3c8.31,0,8.59,6.31,8.59,7.45A7.33,7.33,0,0,1,244.58,41l7,9.94h-8.41l-5.26-8.2V51h-7Zm8.67,11.18c2.48,0,3.27-1.42,3.27-2.88s-.79-2.84-3.27-2.84h-1.71v5.72Zm13,1.24c0-6.64,4.27-13.14,13.36-13.14s13.35,6.5,13.35,13.14S275,51.66,266,51.66,252.59,45.16,252.59,38.52Zm19.53,0c0-4.79-2.94-7.17-6.17-7.17s-6.18,2.38-6.18,7.17,2.94,7.17,6.18,7.17S272.12,43.32,272.12,38.52ZM289,28.8a3.93,3.93,0,1,1-3.92-3.95A3.82,3.82,0,0,1,289,28.8Zm-7.2,0a3.28,3.28,0,1,0,3.28-3.37A3.21,3.21,0,0,0,281.77,28.8Zm3.1-2.3c.5,0,1.62.09,1.62,1.38a1.2,1.2,0,0,1-1,1.25L287,31.05h-1l-1.35-1.8h-.21v1.8h-.78V26.5Zm-.39,2h.29c.32,0,.94,0,.94-.66s-.63-.66-.92-.66h-.31Z" transform="translate(-25.67 -13.67)"/><path class="cls-2" d="M25.67,38.27A89.33,89.33,0,0,1,36.26,39c10.51,1.91,10.92,11.91,10.92,11.91S45.46,51,41,51C30.41,51,25.67,38.27,25.67,38.27" transform="translate(-25.67 -13.67)"/><path class="cls-2" d="M70.13,38.27A89.33,89.33,0,0,0,59.54,39C49,40.86,48.63,50.86,48.63,50.86s1.71.09,6.23.09c10.53,0,15.27-12.68,15.27-12.68" transform="translate(-25.67 -13.67)"/><circle class="cls-1" cx="22.23" cy="23.44" r="3.93"/><circle class="cls-1" cx="30.25" cy="19.58" r="3.93"/><circle class="cls-1" cx="26.68" cy="3.93" r="3.93"/><circle class="cls-1" cx="17.77" cy="3.93" r="3.93"/><circle class="cls-1" cx="14.2" cy="19.58" r="3.93"/><circle class="cls-1" cx="32.24" cy="10.89" r="3.93"/><circle class="cls-1" cx="12.22" cy="10.89" r="3.93"/></svg>